G04 #@! TF.GenerationSoftware,KiCad,Pcbnew,7.0.9*
G04 #@! TF.CreationDate,2024-02-17T17:22:41+01:00*
G04 #@! TF.ProjectId,armband,61726d62-616e-4642-9e6b-696361645f70,rev?*
G04 #@! TF.SameCoordinates,Original*
G04 #@! TF.FileFunction,Legend,Top*
G04 #@! TF.FilePolarity,Positive*
%FSLAX46Y46*%
G04 Gerber Fmt 4.6, Leading zero omitted, Abs format (unit mm)*
G04 Created by KiCad (PCBNEW 7.0.9) date 2024-02-17 17:22:41*
%MOMM*%
%LPD*%
G01*
G04 APERTURE LIST*
G04 Aperture macros list*
%AMRoundRect*
0 Rectangle with rounded corners*
0 $1 Rounding radius*
0 $2 $3 $4 $5 $6 $7 $8 $9 X,Y pos of 4 corners*
0 Add a 4 corners polygon primitive as box body*
4,1,4,$2,$3,$4,$5,$6,$7,$8,$9,$2,$3,0*
0 Add four circle primitives for the rounded corners*
1,1,$1+$1,$2,$3*
1,1,$1+$1,$4,$5*
1,1,$1+$1,$6,$7*
1,1,$1+$1,$8,$9*
0 Add four rect primitives between the rounded corners*
20,1,$1+$1,$2,$3,$4,$5,0*
20,1,$1+$1,$4,$5,$6,$7,0*
20,1,$1+$1,$6,$7,$8,$9,0*
20,1,$1+$1,$8,$9,$2,$3,0*%
G04 Aperture macros list end*
%ADD10C,0.150000*%
%ADD11C,0.100000*%
%ADD12C,0.254000*%
%ADD13C,0.120000*%
%ADD14C,0.200000*%
%ADD15C,0.250000*%
%ADD16RoundRect,0.140000X0.170000X-0.140000X0.170000X0.140000X-0.170000X0.140000X-0.170000X-0.140000X0*%
%ADD17RoundRect,0.140000X-0.170000X0.140000X-0.170000X-0.140000X0.170000X-0.140000X0.170000X0.140000X0*%
%ADD18R,1.700000X1.700000*%
%ADD19O,1.700000X1.700000*%
%ADD20R,1.700000X0.400000*%
%ADD21RoundRect,0.100000X-0.100000X0.130000X-0.100000X-0.130000X0.100000X-0.130000X0.100000X0.130000X0*%
%ADD22R,0.250000X0.550000*%
%ADD23R,0.200000X0.550000*%
%ADD24R,0.600000X0.300000*%
%ADD25RoundRect,0.140000X-0.140000X-0.170000X0.140000X-0.170000X0.140000X0.170000X-0.140000X0.170000X0*%
%ADD26RoundRect,0.100000X0.130000X0.100000X-0.130000X0.100000X-0.130000X-0.100000X0.130000X-0.100000X0*%
%ADD27RoundRect,0.100000X0.100000X-0.130000X0.100000X0.130000X-0.100000X0.130000X-0.100000X-0.130000X0*%
%ADD28RoundRect,0.100000X-0.130000X-0.100000X0.130000X-0.100000X0.130000X0.100000X-0.130000X0.100000X0*%
%ADD29R,0.550000X0.550000*%
%ADD30RoundRect,0.218750X0.256250X-0.218750X0.256250X0.218750X-0.256250X0.218750X-0.256250X-0.218750X0*%
%ADD31R,1.800000X0.800000*%
%ADD32R,0.600000X0.350000*%
%ADD33R,1.100000X1.700000*%
%ADD34R,0.700000X0.300000*%
%ADD35R,1.000000X1.700000*%
%ADD36R,0.760000X2.400000*%
%ADD37RoundRect,0.140000X0.140000X0.170000X-0.140000X0.170000X-0.140000X-0.170000X0.140000X-0.170000X0*%
%ADD38R,1.200000X0.200000*%
%ADD39R,0.700000X0.200000*%
%ADD40R,0.200000X0.500000*%
%ADD41R,0.200000X0.700000*%
%ADD42C,0.290000*%
%ADD43R,0.900000X0.800000*%
%ADD44R,0.475000X0.250000*%
%ADD45R,0.250000X0.475000*%
%ADD46R,0.550000X0.900000*%
%ADD47R,0.350000X0.600000*%
%ADD48R,1.700000X1.100000*%
%ADD49R,0.800000X1.800000*%
%ADD50R,0.500000X0.200000*%
%ADD51R,0.380000X0.280000*%
%ADD52R,0.730000X0.600000*%
%ADD53RoundRect,0.147500X0.147500X0.172500X-0.147500X0.172500X-0.147500X-0.172500X0.147500X-0.172500X0*%
%ADD54R,2.800000X1.850000*%
%ADD55C,0.250000*%
%ADD56C,0.269000*%
%ADD57R,0.300000X0.550000*%
%ADD58C,0.950000*%
%ADD59C,1.150000*%
G04 APERTURE END LIST*
D10*
X134299580Y-73172857D02*
X134347200Y-73220476D01*
X134347200Y-73220476D02*
X134394819Y-73363333D01*
X134394819Y-73363333D02*
X134394819Y-73458571D01*
X134394819Y-73458571D02*
X134347200Y-73601428D01*
X134347200Y-73601428D02*
X134251961Y-73696666D01*
X134251961Y-73696666D02*
X134156723Y-73744285D01*
X134156723Y-73744285D02*
X133966247Y-73791904D01*
X133966247Y-73791904D02*
X133823390Y-73791904D01*
X133823390Y-73791904D02*
X133632914Y-73744285D01*
X133632914Y-73744285D02*
X133537676Y-73696666D01*
X133537676Y-73696666D02*
X133442438Y-73601428D01*
X133442438Y-73601428D02*
X133394819Y-73458571D01*
X133394819Y-73458571D02*
X133394819Y-73363333D01*
X133394819Y-73363333D02*
X133442438Y-73220476D01*
X133442438Y-73220476D02*
X133490057Y-73172857D01*
X133728152Y-72315714D02*
X134394819Y-72315714D01*
X133347200Y-72553809D02*
X134061485Y-72791904D01*
X134061485Y-72791904D02*
X134061485Y-72172857D01*
X134394819Y-71268095D02*
X134394819Y-71839523D01*
X134394819Y-71553809D02*
X133394819Y-71553809D01*
X133394819Y-71553809D02*
X133537676Y-71649047D01*
X133537676Y-71649047D02*
X133632914Y-71744285D01*
X133632914Y-71744285D02*
X133680533Y-71839523D01*
X153504380Y-57662857D02*
X153552000Y-57710476D01*
X153552000Y-57710476D02*
X153599619Y-57853333D01*
X153599619Y-57853333D02*
X153599619Y-57948571D01*
X153599619Y-57948571D02*
X153552000Y-58091428D01*
X153552000Y-58091428D02*
X153456761Y-58186666D01*
X153456761Y-58186666D02*
X153361523Y-58234285D01*
X153361523Y-58234285D02*
X153171047Y-58281904D01*
X153171047Y-58281904D02*
X153028190Y-58281904D01*
X153028190Y-58281904D02*
X152837714Y-58234285D01*
X152837714Y-58234285D02*
X152742476Y-58186666D01*
X152742476Y-58186666D02*
X152647238Y-58091428D01*
X152647238Y-58091428D02*
X152599619Y-57948571D01*
X152599619Y-57948571D02*
X152599619Y-57853333D01*
X152599619Y-57853333D02*
X152647238Y-57710476D01*
X152647238Y-57710476D02*
X152694857Y-57662857D01*
X152694857Y-57281904D02*
X152647238Y-57234285D01*
X152647238Y-57234285D02*
X152599619Y-57139047D01*
X152599619Y-57139047D02*
X152599619Y-56900952D01*
X152599619Y-56900952D02*
X152647238Y-56805714D01*
X152647238Y-56805714D02*
X152694857Y-56758095D01*
X152694857Y-56758095D02*
X152790095Y-56710476D01*
X152790095Y-56710476D02*
X152885333Y-56710476D01*
X152885333Y-56710476D02*
X153028190Y-56758095D01*
X153028190Y-56758095D02*
X153599619Y-57329523D01*
X153599619Y-57329523D02*
X153599619Y-56710476D01*
X153028190Y-56139047D02*
X152980571Y-56234285D01*
X152980571Y-56234285D02*
X152932952Y-56281904D01*
X152932952Y-56281904D02*
X152837714Y-56329523D01*
X152837714Y-56329523D02*
X152790095Y-56329523D01*
X152790095Y-56329523D02*
X152694857Y-56281904D01*
X152694857Y-56281904D02*
X152647238Y-56234285D01*
X152647238Y-56234285D02*
X152599619Y-56139047D01*
X152599619Y-56139047D02*
X152599619Y-55948571D01*
X152599619Y-55948571D02*
X152647238Y-55853333D01*
X152647238Y-55853333D02*
X152694857Y-55805714D01*
X152694857Y-55805714D02*
X152790095Y-55758095D01*
X152790095Y-55758095D02*
X152837714Y-55758095D01*
X152837714Y-55758095D02*
X152932952Y-55805714D01*
X152932952Y-55805714D02*
X152980571Y-55853333D01*
X152980571Y-55853333D02*
X153028190Y-55948571D01*
X153028190Y-55948571D02*
X153028190Y-56139047D01*
X153028190Y-56139047D02*
X153075809Y-56234285D01*
X153075809Y-56234285D02*
X153123428Y-56281904D01*
X153123428Y-56281904D02*
X153218666Y-56329523D01*
X153218666Y-56329523D02*
X153409142Y-56329523D01*
X153409142Y-56329523D02*
X153504380Y-56281904D01*
X153504380Y-56281904D02*
X153552000Y-56234285D01*
X153552000Y-56234285D02*
X153599619Y-56139047D01*
X153599619Y-56139047D02*
X153599619Y-55948571D01*
X153599619Y-55948571D02*
X153552000Y-55853333D01*
X153552000Y-55853333D02*
X153504380Y-55805714D01*
X153504380Y-55805714D02*
X153409142Y-55758095D01*
X153409142Y-55758095D02*
X153218666Y-55758095D01*
X153218666Y-55758095D02*
X153123428Y-55805714D01*
X153123428Y-55805714D02*
X153075809Y-55853333D01*
X153075809Y-55853333D02*
X153028190Y-55948571D01*
X124246666Y-83684819D02*
X124246666Y-84399104D01*
X124246666Y-84399104D02*
X124199047Y-84541961D01*
X124199047Y-84541961D02*
X124103809Y-84637200D01*
X124103809Y-84637200D02*
X123960952Y-84684819D01*
X123960952Y-84684819D02*
X123865714Y-84684819D01*
X124627619Y-83684819D02*
X125294285Y-83684819D01*
X125294285Y-83684819D02*
X124865714Y-84684819D01*
D11*
X157326747Y-81206667D02*
X157326747Y-81444762D01*
X157183890Y-81159048D02*
X157683890Y-81325714D01*
X157683890Y-81325714D02*
X157183890Y-81492381D01*
X157445795Y-81659047D02*
X157445795Y-81825714D01*
X157183890Y-81897142D02*
X157183890Y-81659047D01*
X157183890Y-81659047D02*
X157683890Y-81659047D01*
X157683890Y-81659047D02*
X157683890Y-81897142D01*
X157183890Y-82373333D02*
X157183890Y-82087619D01*
X157183890Y-82230476D02*
X157683890Y-82230476D01*
X157683890Y-82230476D02*
X157612461Y-82182857D01*
X157612461Y-82182857D02*
X157564842Y-82135238D01*
X157564842Y-82135238D02*
X157541033Y-82087619D01*
D10*
X156809580Y-83807857D02*
X156857200Y-83855476D01*
X156857200Y-83855476D02*
X156904819Y-83998333D01*
X156904819Y-83998333D02*
X156904819Y-84093571D01*
X156904819Y-84093571D02*
X156857200Y-84236428D01*
X156857200Y-84236428D02*
X156761961Y-84331666D01*
X156761961Y-84331666D02*
X156666723Y-84379285D01*
X156666723Y-84379285D02*
X156476247Y-84426904D01*
X156476247Y-84426904D02*
X156333390Y-84426904D01*
X156333390Y-84426904D02*
X156142914Y-84379285D01*
X156142914Y-84379285D02*
X156047676Y-84331666D01*
X156047676Y-84331666D02*
X155952438Y-84236428D01*
X155952438Y-84236428D02*
X155904819Y-84093571D01*
X155904819Y-84093571D02*
X155904819Y-83998333D01*
X155904819Y-83998333D02*
X155952438Y-83855476D01*
X155952438Y-83855476D02*
X156000057Y-83807857D01*
X155904819Y-83474523D02*
X155904819Y-82855476D01*
X155904819Y-82855476D02*
X156285771Y-83188809D01*
X156285771Y-83188809D02*
X156285771Y-83045952D01*
X156285771Y-83045952D02*
X156333390Y-82950714D01*
X156333390Y-82950714D02*
X156381009Y-82903095D01*
X156381009Y-82903095D02*
X156476247Y-82855476D01*
X156476247Y-82855476D02*
X156714342Y-82855476D01*
X156714342Y-82855476D02*
X156809580Y-82903095D01*
X156809580Y-82903095D02*
X156857200Y-82950714D01*
X156857200Y-82950714D02*
X156904819Y-83045952D01*
X156904819Y-83045952D02*
X156904819Y-83331666D01*
X156904819Y-83331666D02*
X156857200Y-83426904D01*
X156857200Y-83426904D02*
X156809580Y-83474523D01*
X155904819Y-82522142D02*
X155904819Y-81855476D01*
X155904819Y-81855476D02*
X156904819Y-82284047D01*
D12*
X142424316Y-84037262D02*
X141154316Y-84037262D01*
X142303363Y-82706785D02*
X142363840Y-82767261D01*
X142363840Y-82767261D02*
X142424316Y-82948690D01*
X142424316Y-82948690D02*
X142424316Y-83069642D01*
X142424316Y-83069642D02*
X142363840Y-83251071D01*
X142363840Y-83251071D02*
X142242887Y-83372023D01*
X142242887Y-83372023D02*
X142121935Y-83432500D01*
X142121935Y-83432500D02*
X141880030Y-83492976D01*
X141880030Y-83492976D02*
X141698601Y-83492976D01*
X141698601Y-83492976D02*
X141456697Y-83432500D01*
X141456697Y-83432500D02*
X141335744Y-83372023D01*
X141335744Y-83372023D02*
X141214792Y-83251071D01*
X141214792Y-83251071D02*
X141154316Y-83069642D01*
X141154316Y-83069642D02*
X141154316Y-82948690D01*
X141154316Y-82948690D02*
X141214792Y-82767261D01*
X141214792Y-82767261D02*
X141275268Y-82706785D01*
X141577649Y-81618214D02*
X142424316Y-81618214D01*
X141093840Y-81920595D02*
X142000982Y-82222976D01*
X142000982Y-82222976D02*
X142000982Y-81436785D01*
D10*
X144063140Y-80246080D02*
X144015521Y-80293700D01*
X144015521Y-80293700D02*
X143872664Y-80341319D01*
X143872664Y-80341319D02*
X143777426Y-80341319D01*
X143777426Y-80341319D02*
X143634569Y-80293700D01*
X143634569Y-80293700D02*
X143539331Y-80198461D01*
X143539331Y-80198461D02*
X143491712Y-80103223D01*
X143491712Y-80103223D02*
X143444093Y-79912747D01*
X143444093Y-79912747D02*
X143444093Y-79769890D01*
X143444093Y-79769890D02*
X143491712Y-79579414D01*
X143491712Y-79579414D02*
X143539331Y-79484176D01*
X143539331Y-79484176D02*
X143634569Y-79388938D01*
X143634569Y-79388938D02*
X143777426Y-79341319D01*
X143777426Y-79341319D02*
X143872664Y-79341319D01*
X143872664Y-79341319D02*
X144015521Y-79388938D01*
X144015521Y-79388938D02*
X144063140Y-79436557D01*
X145015521Y-80341319D02*
X144444093Y-80341319D01*
X144729807Y-80341319D02*
X144729807Y-79341319D01*
X144729807Y-79341319D02*
X144634569Y-79484176D01*
X144634569Y-79484176D02*
X144539331Y-79579414D01*
X144539331Y-79579414D02*
X144444093Y-79627033D01*
X145872664Y-79341319D02*
X145682188Y-79341319D01*
X145682188Y-79341319D02*
X145586950Y-79388938D01*
X145586950Y-79388938D02*
X145539331Y-79436557D01*
X145539331Y-79436557D02*
X145444093Y-79579414D01*
X145444093Y-79579414D02*
X145396474Y-79769890D01*
X145396474Y-79769890D02*
X145396474Y-80150842D01*
X145396474Y-80150842D02*
X145444093Y-80246080D01*
X145444093Y-80246080D02*
X145491712Y-80293700D01*
X145491712Y-80293700D02*
X145586950Y-80341319D01*
X145586950Y-80341319D02*
X145777426Y-80341319D01*
X145777426Y-80341319D02*
X145872664Y-80293700D01*
X145872664Y-80293700D02*
X145920283Y-80246080D01*
X145920283Y-80246080D02*
X145967902Y-80150842D01*
X145967902Y-80150842D02*
X145967902Y-79912747D01*
X145967902Y-79912747D02*
X145920283Y-79817509D01*
X145920283Y-79817509D02*
X145872664Y-79769890D01*
X145872664Y-79769890D02*
X145777426Y-79722271D01*
X145777426Y-79722271D02*
X145586950Y-79722271D01*
X145586950Y-79722271D02*
X145491712Y-79769890D01*
X145491712Y-79769890D02*
X145444093Y-79817509D01*
X145444093Y-79817509D02*
X145396474Y-79912747D01*
X131183333Y-69099580D02*
X131135714Y-69147200D01*
X131135714Y-69147200D02*
X130992857Y-69194819D01*
X130992857Y-69194819D02*
X130897619Y-69194819D01*
X130897619Y-69194819D02*
X130754762Y-69147200D01*
X130754762Y-69147200D02*
X130659524Y-69051961D01*
X130659524Y-69051961D02*
X130611905Y-68956723D01*
X130611905Y-68956723D02*
X130564286Y-68766247D01*
X130564286Y-68766247D02*
X130564286Y-68623390D01*
X130564286Y-68623390D02*
X130611905Y-68432914D01*
X130611905Y-68432914D02*
X130659524Y-68337676D01*
X130659524Y-68337676D02*
X130754762Y-68242438D01*
X130754762Y-68242438D02*
X130897619Y-68194819D01*
X130897619Y-68194819D02*
X130992857Y-68194819D01*
X130992857Y-68194819D02*
X131135714Y-68242438D01*
X131135714Y-68242438D02*
X131183333Y-68290057D01*
X131516667Y-68194819D02*
X132183333Y-68194819D01*
X132183333Y-68194819D02*
X131754762Y-69194819D01*
X130145933Y-49917219D02*
X129812600Y-49441028D01*
X129574505Y-49917219D02*
X129574505Y-48917219D01*
X129574505Y-48917219D02*
X129955457Y-48917219D01*
X129955457Y-48917219D02*
X130050695Y-48964838D01*
X130050695Y-48964838D02*
X130098314Y-49012457D01*
X130098314Y-49012457D02*
X130145933Y-49107695D01*
X130145933Y-49107695D02*
X130145933Y-49250552D01*
X130145933Y-49250552D02*
X130098314Y-49345790D01*
X130098314Y-49345790D02*
X130050695Y-49393409D01*
X130050695Y-49393409D02*
X129955457Y-49441028D01*
X129955457Y-49441028D02*
X129574505Y-49441028D01*
X131098314Y-49917219D02*
X130526886Y-49917219D01*
X130812600Y-49917219D02*
X130812600Y-48917219D01*
X130812600Y-48917219D02*
X130717362Y-49060076D01*
X130717362Y-49060076D02*
X130622124Y-49155314D01*
X130622124Y-49155314D02*
X130526886Y-49202933D01*
X128362142Y-81257080D02*
X128314523Y-81304700D01*
X128314523Y-81304700D02*
X128171666Y-81352319D01*
X128171666Y-81352319D02*
X128076428Y-81352319D01*
X128076428Y-81352319D02*
X127933571Y-81304700D01*
X127933571Y-81304700D02*
X127838333Y-81209461D01*
X127838333Y-81209461D02*
X127790714Y-81114223D01*
X127790714Y-81114223D02*
X127743095Y-80923747D01*
X127743095Y-80923747D02*
X127743095Y-80780890D01*
X127743095Y-80780890D02*
X127790714Y-80590414D01*
X127790714Y-80590414D02*
X127838333Y-80495176D01*
X127838333Y-80495176D02*
X127933571Y-80399938D01*
X127933571Y-80399938D02*
X128076428Y-80352319D01*
X128076428Y-80352319D02*
X128171666Y-80352319D01*
X128171666Y-80352319D02*
X128314523Y-80399938D01*
X128314523Y-80399938D02*
X128362142Y-80447557D01*
X128743095Y-80447557D02*
X128790714Y-80399938D01*
X128790714Y-80399938D02*
X128885952Y-80352319D01*
X128885952Y-80352319D02*
X129124047Y-80352319D01*
X129124047Y-80352319D02*
X129219285Y-80399938D01*
X129219285Y-80399938D02*
X129266904Y-80447557D01*
X129266904Y-80447557D02*
X129314523Y-80542795D01*
X129314523Y-80542795D02*
X129314523Y-80638033D01*
X129314523Y-80638033D02*
X129266904Y-80780890D01*
X129266904Y-80780890D02*
X128695476Y-81352319D01*
X128695476Y-81352319D02*
X129314523Y-81352319D01*
X129647857Y-80352319D02*
X130266904Y-80352319D01*
X130266904Y-80352319D02*
X129933571Y-80733271D01*
X129933571Y-80733271D02*
X130076428Y-80733271D01*
X130076428Y-80733271D02*
X130171666Y-80780890D01*
X130171666Y-80780890D02*
X130219285Y-80828509D01*
X130219285Y-80828509D02*
X130266904Y-80923747D01*
X130266904Y-80923747D02*
X130266904Y-81161842D01*
X130266904Y-81161842D02*
X130219285Y-81257080D01*
X130219285Y-81257080D02*
X130171666Y-81304700D01*
X130171666Y-81304700D02*
X130076428Y-81352319D01*
X130076428Y-81352319D02*
X129790714Y-81352319D01*
X129790714Y-81352319D02*
X129695476Y-81304700D01*
X129695476Y-81304700D02*
X129647857Y-81257080D01*
X134404819Y-74366666D02*
X133928628Y-74699999D01*
X134404819Y-74938094D02*
X133404819Y-74938094D01*
X133404819Y-74938094D02*
X133404819Y-74557142D01*
X133404819Y-74557142D02*
X133452438Y-74461904D01*
X133452438Y-74461904D02*
X133500057Y-74414285D01*
X133500057Y-74414285D02*
X133595295Y-74366666D01*
X133595295Y-74366666D02*
X133738152Y-74366666D01*
X133738152Y-74366666D02*
X133833390Y-74414285D01*
X133833390Y-74414285D02*
X133881009Y-74461904D01*
X133881009Y-74461904D02*
X133928628Y-74557142D01*
X133928628Y-74557142D02*
X133928628Y-74938094D01*
X133404819Y-73509523D02*
X133404819Y-73699999D01*
X133404819Y-73699999D02*
X133452438Y-73795237D01*
X133452438Y-73795237D02*
X133500057Y-73842856D01*
X133500057Y-73842856D02*
X133642914Y-73938094D01*
X133642914Y-73938094D02*
X133833390Y-73985713D01*
X133833390Y-73985713D02*
X134214342Y-73985713D01*
X134214342Y-73985713D02*
X134309580Y-73938094D01*
X134309580Y-73938094D02*
X134357200Y-73890475D01*
X134357200Y-73890475D02*
X134404819Y-73795237D01*
X134404819Y-73795237D02*
X134404819Y-73604761D01*
X134404819Y-73604761D02*
X134357200Y-73509523D01*
X134357200Y-73509523D02*
X134309580Y-73461904D01*
X134309580Y-73461904D02*
X134214342Y-73414285D01*
X134214342Y-73414285D02*
X133976247Y-73414285D01*
X133976247Y-73414285D02*
X133881009Y-73461904D01*
X133881009Y-73461904D02*
X133833390Y-73509523D01*
X133833390Y-73509523D02*
X133785771Y-73604761D01*
X133785771Y-73604761D02*
X133785771Y-73795237D01*
X133785771Y-73795237D02*
X133833390Y-73890475D01*
X133833390Y-73890475D02*
X133881009Y-73938094D01*
X133881009Y-73938094D02*
X133976247Y-73985713D01*
X128712933Y-47817219D02*
X128379600Y-47341028D01*
X128141505Y-47817219D02*
X128141505Y-46817219D01*
X128141505Y-46817219D02*
X128522457Y-46817219D01*
X128522457Y-46817219D02*
X128617695Y-46864838D01*
X128617695Y-46864838D02*
X128665314Y-46912457D01*
X128665314Y-46912457D02*
X128712933Y-47007695D01*
X128712933Y-47007695D02*
X128712933Y-47150552D01*
X128712933Y-47150552D02*
X128665314Y-47245790D01*
X128665314Y-47245790D02*
X128617695Y-47293409D01*
X128617695Y-47293409D02*
X128522457Y-47341028D01*
X128522457Y-47341028D02*
X128141505Y-47341028D01*
X129093886Y-46912457D02*
X129141505Y-46864838D01*
X129141505Y-46864838D02*
X129236743Y-46817219D01*
X129236743Y-46817219D02*
X129474838Y-46817219D01*
X129474838Y-46817219D02*
X129570076Y-46864838D01*
X129570076Y-46864838D02*
X129617695Y-46912457D01*
X129617695Y-46912457D02*
X129665314Y-47007695D01*
X129665314Y-47007695D02*
X129665314Y-47102933D01*
X129665314Y-47102933D02*
X129617695Y-47245790D01*
X129617695Y-47245790D02*
X129046267Y-47817219D01*
X129046267Y-47817219D02*
X129665314Y-47817219D01*
D12*
X119681666Y-52238842D02*
X119863095Y-52299318D01*
X119863095Y-52299318D02*
X120165476Y-52299318D01*
X120165476Y-52299318D02*
X120286428Y-52238842D01*
X120286428Y-52238842D02*
X120346904Y-52178365D01*
X120346904Y-52178365D02*
X120407381Y-52057413D01*
X120407381Y-52057413D02*
X120407381Y-51936461D01*
X120407381Y-51936461D02*
X120346904Y-51815508D01*
X120346904Y-51815508D02*
X120286428Y-51755032D01*
X120286428Y-51755032D02*
X120165476Y-51694556D01*
X120165476Y-51694556D02*
X119923571Y-51634080D01*
X119923571Y-51634080D02*
X119802619Y-51573603D01*
X119802619Y-51573603D02*
X119742142Y-51513127D01*
X119742142Y-51513127D02*
X119681666Y-51392175D01*
X119681666Y-51392175D02*
X119681666Y-51271222D01*
X119681666Y-51271222D02*
X119742142Y-51150270D01*
X119742142Y-51150270D02*
X119802619Y-51089794D01*
X119802619Y-51089794D02*
X119923571Y-51029318D01*
X119923571Y-51029318D02*
X120225952Y-51029318D01*
X120225952Y-51029318D02*
X120407381Y-51089794D01*
X120830714Y-51029318D02*
X121133095Y-52299318D01*
X121133095Y-52299318D02*
X121375000Y-51392175D01*
X121375000Y-51392175D02*
X121616905Y-52299318D01*
X121616905Y-52299318D02*
X121919286Y-51029318D01*
X122342619Y-51150270D02*
X122403095Y-51089794D01*
X122403095Y-51089794D02*
X122524048Y-51029318D01*
X122524048Y-51029318D02*
X122826429Y-51029318D01*
X122826429Y-51029318D02*
X122947381Y-51089794D01*
X122947381Y-51089794D02*
X123007857Y-51150270D01*
X123007857Y-51150270D02*
X123068334Y-51271222D01*
X123068334Y-51271222D02*
X123068334Y-51392175D01*
X123068334Y-51392175D02*
X123007857Y-51573603D01*
X123007857Y-51573603D02*
X122282143Y-52299318D01*
X122282143Y-52299318D02*
X123068334Y-52299318D01*
D10*
X154469580Y-57662857D02*
X154517200Y-57710476D01*
X154517200Y-57710476D02*
X154564819Y-57853333D01*
X154564819Y-57853333D02*
X154564819Y-57948571D01*
X154564819Y-57948571D02*
X154517200Y-58091428D01*
X154517200Y-58091428D02*
X154421961Y-58186666D01*
X154421961Y-58186666D02*
X154326723Y-58234285D01*
X154326723Y-58234285D02*
X154136247Y-58281904D01*
X154136247Y-58281904D02*
X153993390Y-58281904D01*
X153993390Y-58281904D02*
X153802914Y-58234285D01*
X153802914Y-58234285D02*
X153707676Y-58186666D01*
X153707676Y-58186666D02*
X153612438Y-58091428D01*
X153612438Y-58091428D02*
X153564819Y-57948571D01*
X153564819Y-57948571D02*
X153564819Y-57853333D01*
X153564819Y-57853333D02*
X153612438Y-57710476D01*
X153612438Y-57710476D02*
X153660057Y-57662857D01*
X153660057Y-57281904D02*
X153612438Y-57234285D01*
X153612438Y-57234285D02*
X153564819Y-57139047D01*
X153564819Y-57139047D02*
X153564819Y-56900952D01*
X153564819Y-56900952D02*
X153612438Y-56805714D01*
X153612438Y-56805714D02*
X153660057Y-56758095D01*
X153660057Y-56758095D02*
X153755295Y-56710476D01*
X153755295Y-56710476D02*
X153850533Y-56710476D01*
X153850533Y-56710476D02*
X153993390Y-56758095D01*
X153993390Y-56758095D02*
X154564819Y-57329523D01*
X154564819Y-57329523D02*
X154564819Y-56710476D01*
X154564819Y-56234285D02*
X154564819Y-56043809D01*
X154564819Y-56043809D02*
X154517200Y-55948571D01*
X154517200Y-55948571D02*
X154469580Y-55900952D01*
X154469580Y-55900952D02*
X154326723Y-55805714D01*
X154326723Y-55805714D02*
X154136247Y-55758095D01*
X154136247Y-55758095D02*
X153755295Y-55758095D01*
X153755295Y-55758095D02*
X153660057Y-55805714D01*
X153660057Y-55805714D02*
X153612438Y-55853333D01*
X153612438Y-55853333D02*
X153564819Y-55948571D01*
X153564819Y-55948571D02*
X153564819Y-56139047D01*
X153564819Y-56139047D02*
X153612438Y-56234285D01*
X153612438Y-56234285D02*
X153660057Y-56281904D01*
X153660057Y-56281904D02*
X153755295Y-56329523D01*
X153755295Y-56329523D02*
X153993390Y-56329523D01*
X153993390Y-56329523D02*
X154088628Y-56281904D01*
X154088628Y-56281904D02*
X154136247Y-56234285D01*
X154136247Y-56234285D02*
X154183866Y-56139047D01*
X154183866Y-56139047D02*
X154183866Y-55948571D01*
X154183866Y-55948571D02*
X154136247Y-55853333D01*
X154136247Y-55853333D02*
X154088628Y-55805714D01*
X154088628Y-55805714D02*
X153993390Y-55758095D01*
X148324819Y-81211666D02*
X148324819Y-81687856D01*
X148324819Y-81687856D02*
X147324819Y-81687856D01*
X147658152Y-80449761D02*
X148324819Y-80449761D01*
X147277200Y-80687856D02*
X147991485Y-80925951D01*
X147991485Y-80925951D02*
X147991485Y-80306904D01*
X150689580Y-87442857D02*
X150737200Y-87490476D01*
X150737200Y-87490476D02*
X150784819Y-87633333D01*
X150784819Y-87633333D02*
X150784819Y-87728571D01*
X150784819Y-87728571D02*
X150737200Y-87871428D01*
X150737200Y-87871428D02*
X150641961Y-87966666D01*
X150641961Y-87966666D02*
X150546723Y-88014285D01*
X150546723Y-88014285D02*
X150356247Y-88061904D01*
X150356247Y-88061904D02*
X150213390Y-88061904D01*
X150213390Y-88061904D02*
X150022914Y-88014285D01*
X150022914Y-88014285D02*
X149927676Y-87966666D01*
X149927676Y-87966666D02*
X149832438Y-87871428D01*
X149832438Y-87871428D02*
X149784819Y-87728571D01*
X149784819Y-87728571D02*
X149784819Y-87633333D01*
X149784819Y-87633333D02*
X149832438Y-87490476D01*
X149832438Y-87490476D02*
X149880057Y-87442857D01*
X150784819Y-86490476D02*
X150784819Y-87061904D01*
X150784819Y-86776190D02*
X149784819Y-86776190D01*
X149784819Y-86776190D02*
X149927676Y-86871428D01*
X149927676Y-86871428D02*
X150022914Y-86966666D01*
X150022914Y-86966666D02*
X150070533Y-87061904D01*
X150784819Y-86014285D02*
X150784819Y-85823809D01*
X150784819Y-85823809D02*
X150737200Y-85728571D01*
X150737200Y-85728571D02*
X150689580Y-85680952D01*
X150689580Y-85680952D02*
X150546723Y-85585714D01*
X150546723Y-85585714D02*
X150356247Y-85538095D01*
X150356247Y-85538095D02*
X149975295Y-85538095D01*
X149975295Y-85538095D02*
X149880057Y-85585714D01*
X149880057Y-85585714D02*
X149832438Y-85633333D01*
X149832438Y-85633333D02*
X149784819Y-85728571D01*
X149784819Y-85728571D02*
X149784819Y-85919047D01*
X149784819Y-85919047D02*
X149832438Y-86014285D01*
X149832438Y-86014285D02*
X149880057Y-86061904D01*
X149880057Y-86061904D02*
X149975295Y-86109523D01*
X149975295Y-86109523D02*
X150213390Y-86109523D01*
X150213390Y-86109523D02*
X150308628Y-86061904D01*
X150308628Y-86061904D02*
X150356247Y-86014285D01*
X150356247Y-86014285D02*
X150403866Y-85919047D01*
X150403866Y-85919047D02*
X150403866Y-85728571D01*
X150403866Y-85728571D02*
X150356247Y-85633333D01*
X150356247Y-85633333D02*
X150308628Y-85585714D01*
X150308628Y-85585714D02*
X150213390Y-85538095D01*
X126157180Y-51147066D02*
X126204800Y-51194685D01*
X126204800Y-51194685D02*
X126252419Y-51337542D01*
X126252419Y-51337542D02*
X126252419Y-51432780D01*
X126252419Y-51432780D02*
X126204800Y-51575637D01*
X126204800Y-51575637D02*
X126109561Y-51670875D01*
X126109561Y-51670875D02*
X126014323Y-51718494D01*
X126014323Y-51718494D02*
X125823847Y-51766113D01*
X125823847Y-51766113D02*
X125680990Y-51766113D01*
X125680990Y-51766113D02*
X125490514Y-51718494D01*
X125490514Y-51718494D02*
X125395276Y-51670875D01*
X125395276Y-51670875D02*
X125300038Y-51575637D01*
X125300038Y-51575637D02*
X125252419Y-51432780D01*
X125252419Y-51432780D02*
X125252419Y-51337542D01*
X125252419Y-51337542D02*
X125300038Y-51194685D01*
X125300038Y-51194685D02*
X125347657Y-51147066D01*
X125252419Y-50813732D02*
X125252419Y-50194685D01*
X125252419Y-50194685D02*
X125633371Y-50528018D01*
X125633371Y-50528018D02*
X125633371Y-50385161D01*
X125633371Y-50385161D02*
X125680990Y-50289923D01*
X125680990Y-50289923D02*
X125728609Y-50242304D01*
X125728609Y-50242304D02*
X125823847Y-50194685D01*
X125823847Y-50194685D02*
X126061942Y-50194685D01*
X126061942Y-50194685D02*
X126157180Y-50242304D01*
X126157180Y-50242304D02*
X126204800Y-50289923D01*
X126204800Y-50289923D02*
X126252419Y-50385161D01*
X126252419Y-50385161D02*
X126252419Y-50670875D01*
X126252419Y-50670875D02*
X126204800Y-50766113D01*
X126204800Y-50766113D02*
X126157180Y-50813732D01*
X128606419Y-56148266D02*
X128130228Y-56481599D01*
X128606419Y-56719694D02*
X127606419Y-56719694D01*
X127606419Y-56719694D02*
X127606419Y-56338742D01*
X127606419Y-56338742D02*
X127654038Y-56243504D01*
X127654038Y-56243504D02*
X127701657Y-56195885D01*
X127701657Y-56195885D02*
X127796895Y-56148266D01*
X127796895Y-56148266D02*
X127939752Y-56148266D01*
X127939752Y-56148266D02*
X128034990Y-56195885D01*
X128034990Y-56195885D02*
X128082609Y-56243504D01*
X128082609Y-56243504D02*
X128130228Y-56338742D01*
X128130228Y-56338742D02*
X128130228Y-56719694D01*
X127606419Y-55243504D02*
X127606419Y-55719694D01*
X127606419Y-55719694D02*
X128082609Y-55767313D01*
X128082609Y-55767313D02*
X128034990Y-55719694D01*
X128034990Y-55719694D02*
X127987371Y-55624456D01*
X127987371Y-55624456D02*
X127987371Y-55386361D01*
X127987371Y-55386361D02*
X128034990Y-55291123D01*
X128034990Y-55291123D02*
X128082609Y-55243504D01*
X128082609Y-55243504D02*
X128177847Y-55195885D01*
X128177847Y-55195885D02*
X128415942Y-55195885D01*
X128415942Y-55195885D02*
X128511180Y-55243504D01*
X128511180Y-55243504D02*
X128558800Y-55291123D01*
X128558800Y-55291123D02*
X128606419Y-55386361D01*
X128606419Y-55386361D02*
X128606419Y-55624456D01*
X128606419Y-55624456D02*
X128558800Y-55719694D01*
X128558800Y-55719694D02*
X128511180Y-55767313D01*
X153238694Y-79917857D02*
X153286314Y-79965476D01*
X153286314Y-79965476D02*
X153333933Y-80108333D01*
X153333933Y-80108333D02*
X153333933Y-80203571D01*
X153333933Y-80203571D02*
X153286314Y-80346428D01*
X153286314Y-80346428D02*
X153191075Y-80441666D01*
X153191075Y-80441666D02*
X153095837Y-80489285D01*
X153095837Y-80489285D02*
X152905361Y-80536904D01*
X152905361Y-80536904D02*
X152762504Y-80536904D01*
X152762504Y-80536904D02*
X152572028Y-80489285D01*
X152572028Y-80489285D02*
X152476790Y-80441666D01*
X152476790Y-80441666D02*
X152381552Y-80346428D01*
X152381552Y-80346428D02*
X152333933Y-80203571D01*
X152333933Y-80203571D02*
X152333933Y-80108333D01*
X152333933Y-80108333D02*
X152381552Y-79965476D01*
X152381552Y-79965476D02*
X152429171Y-79917857D01*
X152333933Y-79584523D02*
X152333933Y-78965476D01*
X152333933Y-78965476D02*
X152714885Y-79298809D01*
X152714885Y-79298809D02*
X152714885Y-79155952D01*
X152714885Y-79155952D02*
X152762504Y-79060714D01*
X152762504Y-79060714D02*
X152810123Y-79013095D01*
X152810123Y-79013095D02*
X152905361Y-78965476D01*
X152905361Y-78965476D02*
X153143456Y-78965476D01*
X153143456Y-78965476D02*
X153238694Y-79013095D01*
X153238694Y-79013095D02*
X153286314Y-79060714D01*
X153286314Y-79060714D02*
X153333933Y-79155952D01*
X153333933Y-79155952D02*
X153333933Y-79441666D01*
X153333933Y-79441666D02*
X153286314Y-79536904D01*
X153286314Y-79536904D02*
X153238694Y-79584523D01*
X153333933Y-78489285D02*
X153333933Y-78298809D01*
X153333933Y-78298809D02*
X153286314Y-78203571D01*
X153286314Y-78203571D02*
X153238694Y-78155952D01*
X153238694Y-78155952D02*
X153095837Y-78060714D01*
X153095837Y-78060714D02*
X152905361Y-78013095D01*
X152905361Y-78013095D02*
X152524409Y-78013095D01*
X152524409Y-78013095D02*
X152429171Y-78060714D01*
X152429171Y-78060714D02*
X152381552Y-78108333D01*
X152381552Y-78108333D02*
X152333933Y-78203571D01*
X152333933Y-78203571D02*
X152333933Y-78394047D01*
X152333933Y-78394047D02*
X152381552Y-78489285D01*
X152381552Y-78489285D02*
X152429171Y-78536904D01*
X152429171Y-78536904D02*
X152524409Y-78584523D01*
X152524409Y-78584523D02*
X152762504Y-78584523D01*
X152762504Y-78584523D02*
X152857742Y-78536904D01*
X152857742Y-78536904D02*
X152905361Y-78489285D01*
X152905361Y-78489285D02*
X152952980Y-78394047D01*
X152952980Y-78394047D02*
X152952980Y-78203571D01*
X152952980Y-78203571D02*
X152905361Y-78108333D01*
X152905361Y-78108333D02*
X152857742Y-78060714D01*
X152857742Y-78060714D02*
X152762504Y-78013095D01*
D12*
X154599318Y-83821666D02*
X154599318Y-84426428D01*
X154599318Y-84426428D02*
X153329318Y-84426428D01*
X153329318Y-83519285D02*
X153329318Y-82733094D01*
X153329318Y-82733094D02*
X153813127Y-83156428D01*
X153813127Y-83156428D02*
X153813127Y-82974999D01*
X153813127Y-82974999D02*
X153873603Y-82854047D01*
X153873603Y-82854047D02*
X153934080Y-82793571D01*
X153934080Y-82793571D02*
X154055032Y-82733094D01*
X154055032Y-82733094D02*
X154357413Y-82733094D01*
X154357413Y-82733094D02*
X154478365Y-82793571D01*
X154478365Y-82793571D02*
X154538842Y-82854047D01*
X154538842Y-82854047D02*
X154599318Y-82974999D01*
X154599318Y-82974999D02*
X154599318Y-83337856D01*
X154599318Y-83337856D02*
X154538842Y-83458809D01*
X154538842Y-83458809D02*
X154478365Y-83519285D01*
D10*
X139319580Y-73922857D02*
X139367200Y-73970476D01*
X139367200Y-73970476D02*
X139414819Y-74113333D01*
X139414819Y-74113333D02*
X139414819Y-74208571D01*
X139414819Y-74208571D02*
X139367200Y-74351428D01*
X139367200Y-74351428D02*
X139271961Y-74446666D01*
X139271961Y-74446666D02*
X139176723Y-74494285D01*
X139176723Y-74494285D02*
X138986247Y-74541904D01*
X138986247Y-74541904D02*
X138843390Y-74541904D01*
X138843390Y-74541904D02*
X138652914Y-74494285D01*
X138652914Y-74494285D02*
X138557676Y-74446666D01*
X138557676Y-74446666D02*
X138462438Y-74351428D01*
X138462438Y-74351428D02*
X138414819Y-74208571D01*
X138414819Y-74208571D02*
X138414819Y-74113333D01*
X138414819Y-74113333D02*
X138462438Y-73970476D01*
X138462438Y-73970476D02*
X138510057Y-73922857D01*
X138748152Y-73065714D02*
X139414819Y-73065714D01*
X138367200Y-73303809D02*
X139081485Y-73541904D01*
X139081485Y-73541904D02*
X139081485Y-72922857D01*
X138414819Y-72351428D02*
X138414819Y-72256190D01*
X138414819Y-72256190D02*
X138462438Y-72160952D01*
X138462438Y-72160952D02*
X138510057Y-72113333D01*
X138510057Y-72113333D02*
X138605295Y-72065714D01*
X138605295Y-72065714D02*
X138795771Y-72018095D01*
X138795771Y-72018095D02*
X139033866Y-72018095D01*
X139033866Y-72018095D02*
X139224342Y-72065714D01*
X139224342Y-72065714D02*
X139319580Y-72113333D01*
X139319580Y-72113333D02*
X139367200Y-72160952D01*
X139367200Y-72160952D02*
X139414819Y-72256190D01*
X139414819Y-72256190D02*
X139414819Y-72351428D01*
X139414819Y-72351428D02*
X139367200Y-72446666D01*
X139367200Y-72446666D02*
X139319580Y-72494285D01*
X139319580Y-72494285D02*
X139224342Y-72541904D01*
X139224342Y-72541904D02*
X139033866Y-72589523D01*
X139033866Y-72589523D02*
X138795771Y-72589523D01*
X138795771Y-72589523D02*
X138605295Y-72541904D01*
X138605295Y-72541904D02*
X138510057Y-72494285D01*
X138510057Y-72494285D02*
X138462438Y-72446666D01*
X138462438Y-72446666D02*
X138414819Y-72351428D01*
X151709580Y-84282857D02*
X151757200Y-84330476D01*
X151757200Y-84330476D02*
X151804819Y-84473333D01*
X151804819Y-84473333D02*
X151804819Y-84568571D01*
X151804819Y-84568571D02*
X151757200Y-84711428D01*
X151757200Y-84711428D02*
X151661961Y-84806666D01*
X151661961Y-84806666D02*
X151566723Y-84854285D01*
X151566723Y-84854285D02*
X151376247Y-84901904D01*
X151376247Y-84901904D02*
X151233390Y-84901904D01*
X151233390Y-84901904D02*
X151042914Y-84854285D01*
X151042914Y-84854285D02*
X150947676Y-84806666D01*
X150947676Y-84806666D02*
X150852438Y-84711428D01*
X150852438Y-84711428D02*
X150804819Y-84568571D01*
X150804819Y-84568571D02*
X150804819Y-84473333D01*
X150804819Y-84473333D02*
X150852438Y-84330476D01*
X150852438Y-84330476D02*
X150900057Y-84282857D01*
X150804819Y-83949523D02*
X150804819Y-83330476D01*
X150804819Y-83330476D02*
X151185771Y-83663809D01*
X151185771Y-83663809D02*
X151185771Y-83520952D01*
X151185771Y-83520952D02*
X151233390Y-83425714D01*
X151233390Y-83425714D02*
X151281009Y-83378095D01*
X151281009Y-83378095D02*
X151376247Y-83330476D01*
X151376247Y-83330476D02*
X151614342Y-83330476D01*
X151614342Y-83330476D02*
X151709580Y-83378095D01*
X151709580Y-83378095D02*
X151757200Y-83425714D01*
X151757200Y-83425714D02*
X151804819Y-83520952D01*
X151804819Y-83520952D02*
X151804819Y-83806666D01*
X151804819Y-83806666D02*
X151757200Y-83901904D01*
X151757200Y-83901904D02*
X151709580Y-83949523D01*
X151233390Y-82759047D02*
X151185771Y-82854285D01*
X151185771Y-82854285D02*
X151138152Y-82901904D01*
X151138152Y-82901904D02*
X151042914Y-82949523D01*
X151042914Y-82949523D02*
X150995295Y-82949523D01*
X150995295Y-82949523D02*
X150900057Y-82901904D01*
X150900057Y-82901904D02*
X150852438Y-82854285D01*
X150852438Y-82854285D02*
X150804819Y-82759047D01*
X150804819Y-82759047D02*
X150804819Y-82568571D01*
X150804819Y-82568571D02*
X150852438Y-82473333D01*
X150852438Y-82473333D02*
X150900057Y-82425714D01*
X150900057Y-82425714D02*
X150995295Y-82378095D01*
X150995295Y-82378095D02*
X151042914Y-82378095D01*
X151042914Y-82378095D02*
X151138152Y-82425714D01*
X151138152Y-82425714D02*
X151185771Y-82473333D01*
X151185771Y-82473333D02*
X151233390Y-82568571D01*
X151233390Y-82568571D02*
X151233390Y-82759047D01*
X151233390Y-82759047D02*
X151281009Y-82854285D01*
X151281009Y-82854285D02*
X151328628Y-82901904D01*
X151328628Y-82901904D02*
X151423866Y-82949523D01*
X151423866Y-82949523D02*
X151614342Y-82949523D01*
X151614342Y-82949523D02*
X151709580Y-82901904D01*
X151709580Y-82901904D02*
X151757200Y-82854285D01*
X151757200Y-82854285D02*
X151804819Y-82759047D01*
X151804819Y-82759047D02*
X151804819Y-82568571D01*
X151804819Y-82568571D02*
X151757200Y-82473333D01*
X151757200Y-82473333D02*
X151709580Y-82425714D01*
X151709580Y-82425714D02*
X151614342Y-82378095D01*
X151614342Y-82378095D02*
X151423866Y-82378095D01*
X151423866Y-82378095D02*
X151328628Y-82425714D01*
X151328628Y-82425714D02*
X151281009Y-82473333D01*
X151281009Y-82473333D02*
X151233390Y-82568571D01*
D12*
X150010237Y-87124318D02*
X150010237Y-85854318D01*
X151340714Y-87003365D02*
X151280238Y-87063842D01*
X151280238Y-87063842D02*
X151098809Y-87124318D01*
X151098809Y-87124318D02*
X150977857Y-87124318D01*
X150977857Y-87124318D02*
X150796428Y-87063842D01*
X150796428Y-87063842D02*
X150675476Y-86942889D01*
X150675476Y-86942889D02*
X150614999Y-86821937D01*
X150614999Y-86821937D02*
X150554523Y-86580032D01*
X150554523Y-86580032D02*
X150554523Y-86398603D01*
X150554523Y-86398603D02*
X150614999Y-86156699D01*
X150614999Y-86156699D02*
X150675476Y-86035746D01*
X150675476Y-86035746D02*
X150796428Y-85914794D01*
X150796428Y-85914794D02*
X150977857Y-85854318D01*
X150977857Y-85854318D02*
X151098809Y-85854318D01*
X151098809Y-85854318D02*
X151280238Y-85914794D01*
X151280238Y-85914794D02*
X151340714Y-85975270D01*
X151764047Y-85854318D02*
X152610714Y-85854318D01*
X152610714Y-85854318D02*
X152066428Y-87124318D01*
D10*
X141357142Y-81604819D02*
X141023809Y-81128628D01*
X140785714Y-81604819D02*
X140785714Y-80604819D01*
X140785714Y-80604819D02*
X141166666Y-80604819D01*
X141166666Y-80604819D02*
X141261904Y-80652438D01*
X141261904Y-80652438D02*
X141309523Y-80700057D01*
X141309523Y-80700057D02*
X141357142Y-80795295D01*
X141357142Y-80795295D02*
X141357142Y-80938152D01*
X141357142Y-80938152D02*
X141309523Y-81033390D01*
X141309523Y-81033390D02*
X141261904Y-81081009D01*
X141261904Y-81081009D02*
X141166666Y-81128628D01*
X141166666Y-81128628D02*
X140785714Y-81128628D01*
X142309523Y-81604819D02*
X141738095Y-81604819D01*
X142023809Y-81604819D02*
X142023809Y-80604819D01*
X142023809Y-80604819D02*
X141928571Y-80747676D01*
X141928571Y-80747676D02*
X141833333Y-80842914D01*
X141833333Y-80842914D02*
X141738095Y-80890533D01*
X143261904Y-81604819D02*
X142690476Y-81604819D01*
X142976190Y-81604819D02*
X142976190Y-80604819D01*
X142976190Y-80604819D02*
X142880952Y-80747676D01*
X142880952Y-80747676D02*
X142785714Y-80842914D01*
X142785714Y-80842914D02*
X142690476Y-80890533D01*
D12*
X136865235Y-83271818D02*
X136865235Y-82001818D01*
X138195712Y-83150865D02*
X138135236Y-83211342D01*
X138135236Y-83211342D02*
X137953807Y-83271818D01*
X137953807Y-83271818D02*
X137832855Y-83271818D01*
X137832855Y-83271818D02*
X137651426Y-83211342D01*
X137651426Y-83211342D02*
X137530474Y-83090389D01*
X137530474Y-83090389D02*
X137469997Y-82969437D01*
X137469997Y-82969437D02*
X137409521Y-82727532D01*
X137409521Y-82727532D02*
X137409521Y-82546103D01*
X137409521Y-82546103D02*
X137469997Y-82304199D01*
X137469997Y-82304199D02*
X137530474Y-82183246D01*
X137530474Y-82183246D02*
X137651426Y-82062294D01*
X137651426Y-82062294D02*
X137832855Y-82001818D01*
X137832855Y-82001818D02*
X137953807Y-82001818D01*
X137953807Y-82001818D02*
X138135236Y-82062294D01*
X138135236Y-82062294D02*
X138195712Y-82122770D01*
X138619045Y-82001818D02*
X139405236Y-82001818D01*
X139405236Y-82001818D02*
X138981902Y-82485627D01*
X138981902Y-82485627D02*
X139163331Y-82485627D01*
X139163331Y-82485627D02*
X139284283Y-82546103D01*
X139284283Y-82546103D02*
X139344759Y-82606580D01*
X139344759Y-82606580D02*
X139405236Y-82727532D01*
X139405236Y-82727532D02*
X139405236Y-83029913D01*
X139405236Y-83029913D02*
X139344759Y-83150865D01*
X139344759Y-83150865D02*
X139284283Y-83211342D01*
X139284283Y-83211342D02*
X139163331Y-83271818D01*
X139163331Y-83271818D02*
X138800474Y-83271818D01*
X138800474Y-83271818D02*
X138679521Y-83211342D01*
X138679521Y-83211342D02*
X138619045Y-83150865D01*
D10*
X151809580Y-82762857D02*
X151857200Y-82810476D01*
X151857200Y-82810476D02*
X151904819Y-82953333D01*
X151904819Y-82953333D02*
X151904819Y-83048571D01*
X151904819Y-83048571D02*
X151857200Y-83191428D01*
X151857200Y-83191428D02*
X151761961Y-83286666D01*
X151761961Y-83286666D02*
X151666723Y-83334285D01*
X151666723Y-83334285D02*
X151476247Y-83381904D01*
X151476247Y-83381904D02*
X151333390Y-83381904D01*
X151333390Y-83381904D02*
X151142914Y-83334285D01*
X151142914Y-83334285D02*
X151047676Y-83286666D01*
X151047676Y-83286666D02*
X150952438Y-83191428D01*
X150952438Y-83191428D02*
X150904819Y-83048571D01*
X150904819Y-83048571D02*
X150904819Y-82953333D01*
X150904819Y-82953333D02*
X150952438Y-82810476D01*
X150952438Y-82810476D02*
X151000057Y-82762857D01*
X150904819Y-82429523D02*
X150904819Y-81810476D01*
X150904819Y-81810476D02*
X151285771Y-82143809D01*
X151285771Y-82143809D02*
X151285771Y-82000952D01*
X151285771Y-82000952D02*
X151333390Y-81905714D01*
X151333390Y-81905714D02*
X151381009Y-81858095D01*
X151381009Y-81858095D02*
X151476247Y-81810476D01*
X151476247Y-81810476D02*
X151714342Y-81810476D01*
X151714342Y-81810476D02*
X151809580Y-81858095D01*
X151809580Y-81858095D02*
X151857200Y-81905714D01*
X151857200Y-81905714D02*
X151904819Y-82000952D01*
X151904819Y-82000952D02*
X151904819Y-82286666D01*
X151904819Y-82286666D02*
X151857200Y-82381904D01*
X151857200Y-82381904D02*
X151809580Y-82429523D01*
X151000057Y-81429523D02*
X150952438Y-81381904D01*
X150952438Y-81381904D02*
X150904819Y-81286666D01*
X150904819Y-81286666D02*
X150904819Y-81048571D01*
X150904819Y-81048571D02*
X150952438Y-80953333D01*
X150952438Y-80953333D02*
X151000057Y-80905714D01*
X151000057Y-80905714D02*
X151095295Y-80858095D01*
X151095295Y-80858095D02*
X151190533Y-80858095D01*
X151190533Y-80858095D02*
X151333390Y-80905714D01*
X151333390Y-80905714D02*
X151904819Y-81477142D01*
X151904819Y-81477142D02*
X151904819Y-80858095D01*
X156213333Y-72404819D02*
X155880000Y-71928628D01*
X155641905Y-72404819D02*
X155641905Y-71404819D01*
X155641905Y-71404819D02*
X156022857Y-71404819D01*
X156022857Y-71404819D02*
X156118095Y-71452438D01*
X156118095Y-71452438D02*
X156165714Y-71500057D01*
X156165714Y-71500057D02*
X156213333Y-71595295D01*
X156213333Y-71595295D02*
X156213333Y-71738152D01*
X156213333Y-71738152D02*
X156165714Y-71833390D01*
X156165714Y-71833390D02*
X156118095Y-71881009D01*
X156118095Y-71881009D02*
X156022857Y-71928628D01*
X156022857Y-71928628D02*
X155641905Y-71928628D01*
X156546667Y-71404819D02*
X157165714Y-71404819D01*
X157165714Y-71404819D02*
X156832381Y-71785771D01*
X156832381Y-71785771D02*
X156975238Y-71785771D01*
X156975238Y-71785771D02*
X157070476Y-71833390D01*
X157070476Y-71833390D02*
X157118095Y-71881009D01*
X157118095Y-71881009D02*
X157165714Y-71976247D01*
X157165714Y-71976247D02*
X157165714Y-72214342D01*
X157165714Y-72214342D02*
X157118095Y-72309580D01*
X157118095Y-72309580D02*
X157070476Y-72357200D01*
X157070476Y-72357200D02*
X156975238Y-72404819D01*
X156975238Y-72404819D02*
X156689524Y-72404819D01*
X156689524Y-72404819D02*
X156594286Y-72357200D01*
X156594286Y-72357200D02*
X156546667Y-72309580D01*
D12*
X116186667Y-58254318D02*
X116186667Y-59161461D01*
X116186667Y-59161461D02*
X116126190Y-59342889D01*
X116126190Y-59342889D02*
X116005238Y-59463842D01*
X116005238Y-59463842D02*
X115823809Y-59524318D01*
X115823809Y-59524318D02*
X115702857Y-59524318D01*
X117335714Y-58254318D02*
X117093809Y-58254318D01*
X117093809Y-58254318D02*
X116972857Y-58314794D01*
X116972857Y-58314794D02*
X116912381Y-58375270D01*
X116912381Y-58375270D02*
X116791428Y-58556699D01*
X116791428Y-58556699D02*
X116730952Y-58798603D01*
X116730952Y-58798603D02*
X116730952Y-59282413D01*
X116730952Y-59282413D02*
X116791428Y-59403365D01*
X116791428Y-59403365D02*
X116851905Y-59463842D01*
X116851905Y-59463842D02*
X116972857Y-59524318D01*
X116972857Y-59524318D02*
X117214762Y-59524318D01*
X117214762Y-59524318D02*
X117335714Y-59463842D01*
X117335714Y-59463842D02*
X117396190Y-59403365D01*
X117396190Y-59403365D02*
X117456667Y-59282413D01*
X117456667Y-59282413D02*
X117456667Y-58980032D01*
X117456667Y-58980032D02*
X117396190Y-58859080D01*
X117396190Y-58859080D02*
X117335714Y-58798603D01*
X117335714Y-58798603D02*
X117214762Y-58738127D01*
X117214762Y-58738127D02*
X116972857Y-58738127D01*
X116972857Y-58738127D02*
X116851905Y-58798603D01*
X116851905Y-58798603D02*
X116791428Y-58859080D01*
X116791428Y-58859080D02*
X116730952Y-58980032D01*
D10*
X149619580Y-82975357D02*
X149667200Y-83022976D01*
X149667200Y-83022976D02*
X149714819Y-83165833D01*
X149714819Y-83165833D02*
X149714819Y-83261071D01*
X149714819Y-83261071D02*
X149667200Y-83403928D01*
X149667200Y-83403928D02*
X149571961Y-83499166D01*
X149571961Y-83499166D02*
X149476723Y-83546785D01*
X149476723Y-83546785D02*
X149286247Y-83594404D01*
X149286247Y-83594404D02*
X149143390Y-83594404D01*
X149143390Y-83594404D02*
X148952914Y-83546785D01*
X148952914Y-83546785D02*
X148857676Y-83499166D01*
X148857676Y-83499166D02*
X148762438Y-83403928D01*
X148762438Y-83403928D02*
X148714819Y-83261071D01*
X148714819Y-83261071D02*
X148714819Y-83165833D01*
X148714819Y-83165833D02*
X148762438Y-83022976D01*
X148762438Y-83022976D02*
X148810057Y-82975357D01*
X148714819Y-82642023D02*
X148714819Y-82022976D01*
X148714819Y-82022976D02*
X149095771Y-82356309D01*
X149095771Y-82356309D02*
X149095771Y-82213452D01*
X149095771Y-82213452D02*
X149143390Y-82118214D01*
X149143390Y-82118214D02*
X149191009Y-82070595D01*
X149191009Y-82070595D02*
X149286247Y-82022976D01*
X149286247Y-82022976D02*
X149524342Y-82022976D01*
X149524342Y-82022976D02*
X149619580Y-82070595D01*
X149619580Y-82070595D02*
X149667200Y-82118214D01*
X149667200Y-82118214D02*
X149714819Y-82213452D01*
X149714819Y-82213452D02*
X149714819Y-82499166D01*
X149714819Y-82499166D02*
X149667200Y-82594404D01*
X149667200Y-82594404D02*
X149619580Y-82642023D01*
X148714819Y-81689642D02*
X148714819Y-81070595D01*
X148714819Y-81070595D02*
X149095771Y-81403928D01*
X149095771Y-81403928D02*
X149095771Y-81261071D01*
X149095771Y-81261071D02*
X149143390Y-81165833D01*
X149143390Y-81165833D02*
X149191009Y-81118214D01*
X149191009Y-81118214D02*
X149286247Y-81070595D01*
X149286247Y-81070595D02*
X149524342Y-81070595D01*
X149524342Y-81070595D02*
X149619580Y-81118214D01*
X149619580Y-81118214D02*
X149667200Y-81165833D01*
X149667200Y-81165833D02*
X149714819Y-81261071D01*
X149714819Y-81261071D02*
X149714819Y-81546785D01*
X149714819Y-81546785D02*
X149667200Y-81642023D01*
X149667200Y-81642023D02*
X149619580Y-81689642D01*
X126411180Y-54725866D02*
X126458800Y-54773485D01*
X126458800Y-54773485D02*
X126506419Y-54916342D01*
X126506419Y-54916342D02*
X126506419Y-55011580D01*
X126506419Y-55011580D02*
X126458800Y-55154437D01*
X126458800Y-55154437D02*
X126363561Y-55249675D01*
X126363561Y-55249675D02*
X126268323Y-55297294D01*
X126268323Y-55297294D02*
X126077847Y-55344913D01*
X126077847Y-55344913D02*
X125934990Y-55344913D01*
X125934990Y-55344913D02*
X125744514Y-55297294D01*
X125744514Y-55297294D02*
X125649276Y-55249675D01*
X125649276Y-55249675D02*
X125554038Y-55154437D01*
X125554038Y-55154437D02*
X125506419Y-55011580D01*
X125506419Y-55011580D02*
X125506419Y-54916342D01*
X125506419Y-54916342D02*
X125554038Y-54773485D01*
X125554038Y-54773485D02*
X125601657Y-54725866D01*
X125506419Y-53821104D02*
X125506419Y-54297294D01*
X125506419Y-54297294D02*
X125982609Y-54344913D01*
X125982609Y-54344913D02*
X125934990Y-54297294D01*
X125934990Y-54297294D02*
X125887371Y-54202056D01*
X125887371Y-54202056D02*
X125887371Y-53963961D01*
X125887371Y-53963961D02*
X125934990Y-53868723D01*
X125934990Y-53868723D02*
X125982609Y-53821104D01*
X125982609Y-53821104D02*
X126077847Y-53773485D01*
X126077847Y-53773485D02*
X126315942Y-53773485D01*
X126315942Y-53773485D02*
X126411180Y-53821104D01*
X126411180Y-53821104D02*
X126458800Y-53868723D01*
X126458800Y-53868723D02*
X126506419Y-53963961D01*
X126506419Y-53963961D02*
X126506419Y-54202056D01*
X126506419Y-54202056D02*
X126458800Y-54297294D01*
X126458800Y-54297294D02*
X126411180Y-54344913D01*
D12*
X113906666Y-52238842D02*
X114088095Y-52299318D01*
X114088095Y-52299318D02*
X114390476Y-52299318D01*
X114390476Y-52299318D02*
X114511428Y-52238842D01*
X114511428Y-52238842D02*
X114571904Y-52178365D01*
X114571904Y-52178365D02*
X114632381Y-52057413D01*
X114632381Y-52057413D02*
X114632381Y-51936461D01*
X114632381Y-51936461D02*
X114571904Y-51815508D01*
X114571904Y-51815508D02*
X114511428Y-51755032D01*
X114511428Y-51755032D02*
X114390476Y-51694556D01*
X114390476Y-51694556D02*
X114148571Y-51634080D01*
X114148571Y-51634080D02*
X114027619Y-51573603D01*
X114027619Y-51573603D02*
X113967142Y-51513127D01*
X113967142Y-51513127D02*
X113906666Y-51392175D01*
X113906666Y-51392175D02*
X113906666Y-51271222D01*
X113906666Y-51271222D02*
X113967142Y-51150270D01*
X113967142Y-51150270D02*
X114027619Y-51089794D01*
X114027619Y-51089794D02*
X114148571Y-51029318D01*
X114148571Y-51029318D02*
X114450952Y-51029318D01*
X114450952Y-51029318D02*
X114632381Y-51089794D01*
X115055714Y-51029318D02*
X115358095Y-52299318D01*
X115358095Y-52299318D02*
X115600000Y-51392175D01*
X115600000Y-51392175D02*
X115841905Y-52299318D01*
X115841905Y-52299318D02*
X116144286Y-51029318D01*
X117293334Y-52299318D02*
X116567619Y-52299318D01*
X116930476Y-52299318D02*
X116930476Y-51029318D01*
X116930476Y-51029318D02*
X116809524Y-51210746D01*
X116809524Y-51210746D02*
X116688572Y-51331699D01*
X116688572Y-51331699D02*
X116567619Y-51392175D01*
D10*
X131049580Y-80540357D02*
X131097200Y-80587976D01*
X131097200Y-80587976D02*
X131144819Y-80730833D01*
X131144819Y-80730833D02*
X131144819Y-80826071D01*
X131144819Y-80826071D02*
X131097200Y-80968928D01*
X131097200Y-80968928D02*
X131001961Y-81064166D01*
X131001961Y-81064166D02*
X130906723Y-81111785D01*
X130906723Y-81111785D02*
X130716247Y-81159404D01*
X130716247Y-81159404D02*
X130573390Y-81159404D01*
X130573390Y-81159404D02*
X130382914Y-81111785D01*
X130382914Y-81111785D02*
X130287676Y-81064166D01*
X130287676Y-81064166D02*
X130192438Y-80968928D01*
X130192438Y-80968928D02*
X130144819Y-80826071D01*
X130144819Y-80826071D02*
X130144819Y-80730833D01*
X130144819Y-80730833D02*
X130192438Y-80587976D01*
X130192438Y-80587976D02*
X130240057Y-80540357D01*
X131144819Y-79587976D02*
X131144819Y-80159404D01*
X131144819Y-79873690D02*
X130144819Y-79873690D01*
X130144819Y-79873690D02*
X130287676Y-79968928D01*
X130287676Y-79968928D02*
X130382914Y-80064166D01*
X130382914Y-80064166D02*
X130430533Y-80159404D01*
X130144819Y-79254642D02*
X130144819Y-78587976D01*
X130144819Y-78587976D02*
X131144819Y-79016547D01*
X127857142Y-87219580D02*
X127809523Y-87267200D01*
X127809523Y-87267200D02*
X127666666Y-87314819D01*
X127666666Y-87314819D02*
X127571428Y-87314819D01*
X127571428Y-87314819D02*
X127428571Y-87267200D01*
X127428571Y-87267200D02*
X127333333Y-87171961D01*
X127333333Y-87171961D02*
X127285714Y-87076723D01*
X127285714Y-87076723D02*
X127238095Y-86886247D01*
X127238095Y-86886247D02*
X127238095Y-86743390D01*
X127238095Y-86743390D02*
X127285714Y-86552914D01*
X127285714Y-86552914D02*
X127333333Y-86457676D01*
X127333333Y-86457676D02*
X127428571Y-86362438D01*
X127428571Y-86362438D02*
X127571428Y-86314819D01*
X127571428Y-86314819D02*
X127666666Y-86314819D01*
X127666666Y-86314819D02*
X127809523Y-86362438D01*
X127809523Y-86362438D02*
X127857142Y-86410057D01*
X128809523Y-87314819D02*
X128238095Y-87314819D01*
X128523809Y-87314819D02*
X128523809Y-86314819D01*
X128523809Y-86314819D02*
X128428571Y-86457676D01*
X128428571Y-86457676D02*
X128333333Y-86552914D01*
X128333333Y-86552914D02*
X128238095Y-86600533D01*
X129380952Y-86743390D02*
X129285714Y-86695771D01*
X129285714Y-86695771D02*
X129238095Y-86648152D01*
X129238095Y-86648152D02*
X129190476Y-86552914D01*
X129190476Y-86552914D02*
X129190476Y-86505295D01*
X129190476Y-86505295D02*
X129238095Y-86410057D01*
X129238095Y-86410057D02*
X129285714Y-86362438D01*
X129285714Y-86362438D02*
X129380952Y-86314819D01*
X129380952Y-86314819D02*
X129571428Y-86314819D01*
X129571428Y-86314819D02*
X129666666Y-86362438D01*
X129666666Y-86362438D02*
X129714285Y-86410057D01*
X129714285Y-86410057D02*
X129761904Y-86505295D01*
X129761904Y-86505295D02*
X129761904Y-86552914D01*
X129761904Y-86552914D02*
X129714285Y-86648152D01*
X129714285Y-86648152D02*
X129666666Y-86695771D01*
X129666666Y-86695771D02*
X129571428Y-86743390D01*
X129571428Y-86743390D02*
X129380952Y-86743390D01*
X129380952Y-86743390D02*
X129285714Y-86791009D01*
X129285714Y-86791009D02*
X129238095Y-86838628D01*
X129238095Y-86838628D02*
X129190476Y-86933866D01*
X129190476Y-86933866D02*
X129190476Y-87124342D01*
X129190476Y-87124342D02*
X129238095Y-87219580D01*
X129238095Y-87219580D02*
X129285714Y-87267200D01*
X129285714Y-87267200D02*
X129380952Y-87314819D01*
X129380952Y-87314819D02*
X129571428Y-87314819D01*
X129571428Y-87314819D02*
X129666666Y-87267200D01*
X129666666Y-87267200D02*
X129714285Y-87219580D01*
X129714285Y-87219580D02*
X129761904Y-87124342D01*
X129761904Y-87124342D02*
X129761904Y-86933866D01*
X129761904Y-86933866D02*
X129714285Y-86838628D01*
X129714285Y-86838628D02*
X129666666Y-86791009D01*
X129666666Y-86791009D02*
X129571428Y-86743390D01*
X130389333Y-48475580D02*
X130341714Y-48523200D01*
X130341714Y-48523200D02*
X130198857Y-48570819D01*
X130198857Y-48570819D02*
X130103619Y-48570819D01*
X130103619Y-48570819D02*
X129960762Y-48523200D01*
X129960762Y-48523200D02*
X129865524Y-48427961D01*
X129865524Y-48427961D02*
X129817905Y-48332723D01*
X129817905Y-48332723D02*
X129770286Y-48142247D01*
X129770286Y-48142247D02*
X129770286Y-47999390D01*
X129770286Y-47999390D02*
X129817905Y-47808914D01*
X129817905Y-47808914D02*
X129865524Y-47713676D01*
X129865524Y-47713676D02*
X129960762Y-47618438D01*
X129960762Y-47618438D02*
X130103619Y-47570819D01*
X130103619Y-47570819D02*
X130198857Y-47570819D01*
X130198857Y-47570819D02*
X130341714Y-47618438D01*
X130341714Y-47618438D02*
X130389333Y-47666057D01*
X131341714Y-48570819D02*
X130770286Y-48570819D01*
X131056000Y-48570819D02*
X131056000Y-47570819D01*
X131056000Y-47570819D02*
X130960762Y-47713676D01*
X130960762Y-47713676D02*
X130865524Y-47808914D01*
X130865524Y-47808914D02*
X130770286Y-47856533D01*
D12*
X128184037Y-83271818D02*
X128184037Y-82001818D01*
X129514514Y-83150865D02*
X129454038Y-83211342D01*
X129454038Y-83211342D02*
X129272609Y-83271818D01*
X129272609Y-83271818D02*
X129151657Y-83271818D01*
X129151657Y-83271818D02*
X128970228Y-83211342D01*
X128970228Y-83211342D02*
X128849276Y-83090389D01*
X128849276Y-83090389D02*
X128788799Y-82969437D01*
X128788799Y-82969437D02*
X128728323Y-82727532D01*
X128728323Y-82727532D02*
X128728323Y-82546103D01*
X128728323Y-82546103D02*
X128788799Y-82304199D01*
X128788799Y-82304199D02*
X128849276Y-82183246D01*
X128849276Y-82183246D02*
X128970228Y-82062294D01*
X128970228Y-82062294D02*
X129151657Y-82001818D01*
X129151657Y-82001818D02*
X129272609Y-82001818D01*
X129272609Y-82001818D02*
X129454038Y-82062294D01*
X129454038Y-82062294D02*
X129514514Y-82122770D01*
X130663561Y-82001818D02*
X130058799Y-82001818D01*
X130058799Y-82001818D02*
X129998323Y-82606580D01*
X129998323Y-82606580D02*
X130058799Y-82546103D01*
X130058799Y-82546103D02*
X130179752Y-82485627D01*
X130179752Y-82485627D02*
X130482133Y-82485627D01*
X130482133Y-82485627D02*
X130603085Y-82546103D01*
X130603085Y-82546103D02*
X130663561Y-82606580D01*
X130663561Y-82606580D02*
X130724038Y-82727532D01*
X130724038Y-82727532D02*
X130724038Y-83029913D01*
X130724038Y-83029913D02*
X130663561Y-83150865D01*
X130663561Y-83150865D02*
X130603085Y-83211342D01*
X130603085Y-83211342D02*
X130482133Y-83271818D01*
X130482133Y-83271818D02*
X130179752Y-83271818D01*
X130179752Y-83271818D02*
X130058799Y-83211342D01*
X130058799Y-83211342D02*
X129998323Y-83150865D01*
X126860237Y-78971818D02*
X126860237Y-77701818D01*
X128190714Y-78850865D02*
X128130238Y-78911342D01*
X128130238Y-78911342D02*
X127948809Y-78971818D01*
X127948809Y-78971818D02*
X127827857Y-78971818D01*
X127827857Y-78971818D02*
X127646428Y-78911342D01*
X127646428Y-78911342D02*
X127525476Y-78790389D01*
X127525476Y-78790389D02*
X127464999Y-78669437D01*
X127464999Y-78669437D02*
X127404523Y-78427532D01*
X127404523Y-78427532D02*
X127404523Y-78246103D01*
X127404523Y-78246103D02*
X127464999Y-78004199D01*
X127464999Y-78004199D02*
X127525476Y-77883246D01*
X127525476Y-77883246D02*
X127646428Y-77762294D01*
X127646428Y-77762294D02*
X127827857Y-77701818D01*
X127827857Y-77701818D02*
X127948809Y-77701818D01*
X127948809Y-77701818D02*
X128130238Y-77762294D01*
X128130238Y-77762294D02*
X128190714Y-77822770D01*
X128916428Y-78246103D02*
X128795476Y-78185627D01*
X128795476Y-78185627D02*
X128734999Y-78125151D01*
X128734999Y-78125151D02*
X128674523Y-78004199D01*
X128674523Y-78004199D02*
X128674523Y-77943722D01*
X128674523Y-77943722D02*
X128734999Y-77822770D01*
X128734999Y-77822770D02*
X128795476Y-77762294D01*
X128795476Y-77762294D02*
X128916428Y-77701818D01*
X128916428Y-77701818D02*
X129158333Y-77701818D01*
X129158333Y-77701818D02*
X129279285Y-77762294D01*
X129279285Y-77762294D02*
X129339761Y-77822770D01*
X129339761Y-77822770D02*
X129400238Y-77943722D01*
X129400238Y-77943722D02*
X129400238Y-78004199D01*
X129400238Y-78004199D02*
X129339761Y-78125151D01*
X129339761Y-78125151D02*
X129279285Y-78185627D01*
X129279285Y-78185627D02*
X129158333Y-78246103D01*
X129158333Y-78246103D02*
X128916428Y-78246103D01*
X128916428Y-78246103D02*
X128795476Y-78306580D01*
X128795476Y-78306580D02*
X128734999Y-78367056D01*
X128734999Y-78367056D02*
X128674523Y-78488008D01*
X128674523Y-78488008D02*
X128674523Y-78729913D01*
X128674523Y-78729913D02*
X128734999Y-78850865D01*
X128734999Y-78850865D02*
X128795476Y-78911342D01*
X128795476Y-78911342D02*
X128916428Y-78971818D01*
X128916428Y-78971818D02*
X129158333Y-78971818D01*
X129158333Y-78971818D02*
X129279285Y-78911342D01*
X129279285Y-78911342D02*
X129339761Y-78850865D01*
X129339761Y-78850865D02*
X129400238Y-78729913D01*
X129400238Y-78729913D02*
X129400238Y-78488008D01*
X129400238Y-78488008D02*
X129339761Y-78367056D01*
X129339761Y-78367056D02*
X129279285Y-78306580D01*
X129279285Y-78306580D02*
X129158333Y-78246103D01*
D10*
X157194580Y-86617857D02*
X157242200Y-86665476D01*
X157242200Y-86665476D02*
X157289819Y-86808333D01*
X157289819Y-86808333D02*
X157289819Y-86903571D01*
X157289819Y-86903571D02*
X157242200Y-87046428D01*
X157242200Y-87046428D02*
X157146961Y-87141666D01*
X157146961Y-87141666D02*
X157051723Y-87189285D01*
X157051723Y-87189285D02*
X156861247Y-87236904D01*
X156861247Y-87236904D02*
X156718390Y-87236904D01*
X156718390Y-87236904D02*
X156527914Y-87189285D01*
X156527914Y-87189285D02*
X156432676Y-87141666D01*
X156432676Y-87141666D02*
X156337438Y-87046428D01*
X156337438Y-87046428D02*
X156289819Y-86903571D01*
X156289819Y-86903571D02*
X156289819Y-86808333D01*
X156289819Y-86808333D02*
X156337438Y-86665476D01*
X156337438Y-86665476D02*
X156385057Y-86617857D01*
X156385057Y-86236904D02*
X156337438Y-86189285D01*
X156337438Y-86189285D02*
X156289819Y-86094047D01*
X156289819Y-86094047D02*
X156289819Y-85855952D01*
X156289819Y-85855952D02*
X156337438Y-85760714D01*
X156337438Y-85760714D02*
X156385057Y-85713095D01*
X156385057Y-85713095D02*
X156480295Y-85665476D01*
X156480295Y-85665476D02*
X156575533Y-85665476D01*
X156575533Y-85665476D02*
X156718390Y-85713095D01*
X156718390Y-85713095D02*
X157289819Y-86284523D01*
X157289819Y-86284523D02*
X157289819Y-85665476D01*
X156289819Y-85046428D02*
X156289819Y-84951190D01*
X156289819Y-84951190D02*
X156337438Y-84855952D01*
X156337438Y-84855952D02*
X156385057Y-84808333D01*
X156385057Y-84808333D02*
X156480295Y-84760714D01*
X156480295Y-84760714D02*
X156670771Y-84713095D01*
X156670771Y-84713095D02*
X156908866Y-84713095D01*
X156908866Y-84713095D02*
X157099342Y-84760714D01*
X157099342Y-84760714D02*
X157194580Y-84808333D01*
X157194580Y-84808333D02*
X157242200Y-84855952D01*
X157242200Y-84855952D02*
X157289819Y-84951190D01*
X157289819Y-84951190D02*
X157289819Y-85046428D01*
X157289819Y-85046428D02*
X157242200Y-85141666D01*
X157242200Y-85141666D02*
X157194580Y-85189285D01*
X157194580Y-85189285D02*
X157099342Y-85236904D01*
X157099342Y-85236904D02*
X156908866Y-85284523D01*
X156908866Y-85284523D02*
X156670771Y-85284523D01*
X156670771Y-85284523D02*
X156480295Y-85236904D01*
X156480295Y-85236904D02*
X156385057Y-85189285D01*
X156385057Y-85189285D02*
X156337438Y-85141666D01*
X156337438Y-85141666D02*
X156289819Y-85046428D01*
X135499817Y-82964166D02*
X135023626Y-83297499D01*
X135499817Y-83535594D02*
X134499817Y-83535594D01*
X134499817Y-83535594D02*
X134499817Y-83154642D01*
X134499817Y-83154642D02*
X134547436Y-83059404D01*
X134547436Y-83059404D02*
X134595055Y-83011785D01*
X134595055Y-83011785D02*
X134690293Y-82964166D01*
X134690293Y-82964166D02*
X134833150Y-82964166D01*
X134833150Y-82964166D02*
X134928388Y-83011785D01*
X134928388Y-83011785D02*
X134976007Y-83059404D01*
X134976007Y-83059404D02*
X135023626Y-83154642D01*
X135023626Y-83154642D02*
X135023626Y-83535594D01*
X134928388Y-82392737D02*
X134880769Y-82487975D01*
X134880769Y-82487975D02*
X134833150Y-82535594D01*
X134833150Y-82535594D02*
X134737912Y-82583213D01*
X134737912Y-82583213D02*
X134690293Y-82583213D01*
X134690293Y-82583213D02*
X134595055Y-82535594D01*
X134595055Y-82535594D02*
X134547436Y-82487975D01*
X134547436Y-82487975D02*
X134499817Y-82392737D01*
X134499817Y-82392737D02*
X134499817Y-82202261D01*
X134499817Y-82202261D02*
X134547436Y-82107023D01*
X134547436Y-82107023D02*
X134595055Y-82059404D01*
X134595055Y-82059404D02*
X134690293Y-82011785D01*
X134690293Y-82011785D02*
X134737912Y-82011785D01*
X134737912Y-82011785D02*
X134833150Y-82059404D01*
X134833150Y-82059404D02*
X134880769Y-82107023D01*
X134880769Y-82107023D02*
X134928388Y-82202261D01*
X134928388Y-82202261D02*
X134928388Y-82392737D01*
X134928388Y-82392737D02*
X134976007Y-82487975D01*
X134976007Y-82487975D02*
X135023626Y-82535594D01*
X135023626Y-82535594D02*
X135118864Y-82583213D01*
X135118864Y-82583213D02*
X135309340Y-82583213D01*
X135309340Y-82583213D02*
X135404578Y-82535594D01*
X135404578Y-82535594D02*
X135452198Y-82487975D01*
X135452198Y-82487975D02*
X135499817Y-82392737D01*
X135499817Y-82392737D02*
X135499817Y-82202261D01*
X135499817Y-82202261D02*
X135452198Y-82107023D01*
X135452198Y-82107023D02*
X135404578Y-82059404D01*
X135404578Y-82059404D02*
X135309340Y-82011785D01*
X135309340Y-82011785D02*
X135118864Y-82011785D01*
X135118864Y-82011785D02*
X135023626Y-82059404D01*
X135023626Y-82059404D02*
X134976007Y-82107023D01*
X134976007Y-82107023D02*
X134928388Y-82202261D01*
X141609817Y-82264166D02*
X141133626Y-82597499D01*
X141609817Y-82835594D02*
X140609817Y-82835594D01*
X140609817Y-82835594D02*
X140609817Y-82454642D01*
X140609817Y-82454642D02*
X140657436Y-82359404D01*
X140657436Y-82359404D02*
X140705055Y-82311785D01*
X140705055Y-82311785D02*
X140800293Y-82264166D01*
X140800293Y-82264166D02*
X140943150Y-82264166D01*
X140943150Y-82264166D02*
X141038388Y-82311785D01*
X141038388Y-82311785D02*
X141086007Y-82359404D01*
X141086007Y-82359404D02*
X141133626Y-82454642D01*
X141133626Y-82454642D02*
X141133626Y-82835594D01*
X140609817Y-81930832D02*
X140609817Y-81264166D01*
X140609817Y-81264166D02*
X141609817Y-81692737D01*
D11*
X153661905Y-81102014D02*
X153661905Y-81340109D01*
X153495239Y-80840109D02*
X153661905Y-81102014D01*
X153661905Y-81102014D02*
X153828572Y-80840109D01*
X153971429Y-80887728D02*
X153995238Y-80863919D01*
X153995238Y-80863919D02*
X154042857Y-80840109D01*
X154042857Y-80840109D02*
X154161905Y-80840109D01*
X154161905Y-80840109D02*
X154209524Y-80863919D01*
X154209524Y-80863919D02*
X154233333Y-80887728D01*
X154233333Y-80887728D02*
X154257143Y-80935347D01*
X154257143Y-80935347D02*
X154257143Y-80982966D01*
X154257143Y-80982966D02*
X154233333Y-81054395D01*
X154233333Y-81054395D02*
X153947619Y-81340109D01*
X153947619Y-81340109D02*
X154257143Y-81340109D01*
D10*
X132857142Y-87517080D02*
X132809523Y-87564700D01*
X132809523Y-87564700D02*
X132666666Y-87612319D01*
X132666666Y-87612319D02*
X132571428Y-87612319D01*
X132571428Y-87612319D02*
X132428571Y-87564700D01*
X132428571Y-87564700D02*
X132333333Y-87469461D01*
X132333333Y-87469461D02*
X132285714Y-87374223D01*
X132285714Y-87374223D02*
X132238095Y-87183747D01*
X132238095Y-87183747D02*
X132238095Y-87040890D01*
X132238095Y-87040890D02*
X132285714Y-86850414D01*
X132285714Y-86850414D02*
X132333333Y-86755176D01*
X132333333Y-86755176D02*
X132428571Y-86659938D01*
X132428571Y-86659938D02*
X132571428Y-86612319D01*
X132571428Y-86612319D02*
X132666666Y-86612319D01*
X132666666Y-86612319D02*
X132809523Y-86659938D01*
X132809523Y-86659938D02*
X132857142Y-86707557D01*
X133809523Y-87612319D02*
X133238095Y-87612319D01*
X133523809Y-87612319D02*
X133523809Y-86612319D01*
X133523809Y-86612319D02*
X133428571Y-86755176D01*
X133428571Y-86755176D02*
X133333333Y-86850414D01*
X133333333Y-86850414D02*
X133238095Y-86898033D01*
X134666666Y-86945652D02*
X134666666Y-87612319D01*
X134428571Y-86564700D02*
X134190476Y-87278985D01*
X134190476Y-87278985D02*
X134809523Y-87278985D01*
X149057142Y-85319580D02*
X149009523Y-85367200D01*
X149009523Y-85367200D02*
X148866666Y-85414819D01*
X148866666Y-85414819D02*
X148771428Y-85414819D01*
X148771428Y-85414819D02*
X148628571Y-85367200D01*
X148628571Y-85367200D02*
X148533333Y-85271961D01*
X148533333Y-85271961D02*
X148485714Y-85176723D01*
X148485714Y-85176723D02*
X148438095Y-84986247D01*
X148438095Y-84986247D02*
X148438095Y-84843390D01*
X148438095Y-84843390D02*
X148485714Y-84652914D01*
X148485714Y-84652914D02*
X148533333Y-84557676D01*
X148533333Y-84557676D02*
X148628571Y-84462438D01*
X148628571Y-84462438D02*
X148771428Y-84414819D01*
X148771428Y-84414819D02*
X148866666Y-84414819D01*
X148866666Y-84414819D02*
X149009523Y-84462438D01*
X149009523Y-84462438D02*
X149057142Y-84510057D01*
X149438095Y-84510057D02*
X149485714Y-84462438D01*
X149485714Y-84462438D02*
X149580952Y-84414819D01*
X149580952Y-84414819D02*
X149819047Y-84414819D01*
X149819047Y-84414819D02*
X149914285Y-84462438D01*
X149914285Y-84462438D02*
X149961904Y-84510057D01*
X149961904Y-84510057D02*
X150009523Y-84605295D01*
X150009523Y-84605295D02*
X150009523Y-84700533D01*
X150009523Y-84700533D02*
X149961904Y-84843390D01*
X149961904Y-84843390D02*
X149390476Y-85414819D01*
X149390476Y-85414819D02*
X150009523Y-85414819D01*
X150866666Y-84414819D02*
X150676190Y-84414819D01*
X150676190Y-84414819D02*
X150580952Y-84462438D01*
X150580952Y-84462438D02*
X150533333Y-84510057D01*
X150533333Y-84510057D02*
X150438095Y-84652914D01*
X150438095Y-84652914D02*
X150390476Y-84843390D01*
X150390476Y-84843390D02*
X150390476Y-85224342D01*
X150390476Y-85224342D02*
X150438095Y-85319580D01*
X150438095Y-85319580D02*
X150485714Y-85367200D01*
X150485714Y-85367200D02*
X150580952Y-85414819D01*
X150580952Y-85414819D02*
X150771428Y-85414819D01*
X150771428Y-85414819D02*
X150866666Y-85367200D01*
X150866666Y-85367200D02*
X150914285Y-85319580D01*
X150914285Y-85319580D02*
X150961904Y-85224342D01*
X150961904Y-85224342D02*
X150961904Y-84986247D01*
X150961904Y-84986247D02*
X150914285Y-84891009D01*
X150914285Y-84891009D02*
X150866666Y-84843390D01*
X150866666Y-84843390D02*
X150771428Y-84795771D01*
X150771428Y-84795771D02*
X150580952Y-84795771D01*
X150580952Y-84795771D02*
X150485714Y-84843390D01*
X150485714Y-84843390D02*
X150438095Y-84891009D01*
X150438095Y-84891009D02*
X150390476Y-84986247D01*
X156213333Y-71704819D02*
X155880000Y-71228628D01*
X155641905Y-71704819D02*
X155641905Y-70704819D01*
X155641905Y-70704819D02*
X156022857Y-70704819D01*
X156022857Y-70704819D02*
X156118095Y-70752438D01*
X156118095Y-70752438D02*
X156165714Y-70800057D01*
X156165714Y-70800057D02*
X156213333Y-70895295D01*
X156213333Y-70895295D02*
X156213333Y-71038152D01*
X156213333Y-71038152D02*
X156165714Y-71133390D01*
X156165714Y-71133390D02*
X156118095Y-71181009D01*
X156118095Y-71181009D02*
X156022857Y-71228628D01*
X156022857Y-71228628D02*
X155641905Y-71228628D01*
X157070476Y-71038152D02*
X157070476Y-71704819D01*
X156832381Y-70657200D02*
X156594286Y-71371485D01*
X156594286Y-71371485D02*
X157213333Y-71371485D01*
D12*
X130847237Y-73224318D02*
X130847237Y-71954318D01*
X132177714Y-73103365D02*
X132117238Y-73163842D01*
X132117238Y-73163842D02*
X131935809Y-73224318D01*
X131935809Y-73224318D02*
X131814857Y-73224318D01*
X131814857Y-73224318D02*
X131633428Y-73163842D01*
X131633428Y-73163842D02*
X131512476Y-73042889D01*
X131512476Y-73042889D02*
X131451999Y-72921937D01*
X131451999Y-72921937D02*
X131391523Y-72680032D01*
X131391523Y-72680032D02*
X131391523Y-72498603D01*
X131391523Y-72498603D02*
X131451999Y-72256699D01*
X131451999Y-72256699D02*
X131512476Y-72135746D01*
X131512476Y-72135746D02*
X131633428Y-72014794D01*
X131633428Y-72014794D02*
X131814857Y-71954318D01*
X131814857Y-71954318D02*
X131935809Y-71954318D01*
X131935809Y-71954318D02*
X132117238Y-72014794D01*
X132117238Y-72014794D02*
X132177714Y-72075270D01*
X132661523Y-72075270D02*
X132721999Y-72014794D01*
X132721999Y-72014794D02*
X132842952Y-71954318D01*
X132842952Y-71954318D02*
X133145333Y-71954318D01*
X133145333Y-71954318D02*
X133266285Y-72014794D01*
X133266285Y-72014794D02*
X133326761Y-72075270D01*
X133326761Y-72075270D02*
X133387238Y-72196222D01*
X133387238Y-72196222D02*
X133387238Y-72317175D01*
X133387238Y-72317175D02*
X133326761Y-72498603D01*
X133326761Y-72498603D02*
X132601047Y-73224318D01*
X132601047Y-73224318D02*
X133387238Y-73224318D01*
D10*
X138112140Y-86017080D02*
X138064521Y-86064700D01*
X138064521Y-86064700D02*
X137921664Y-86112319D01*
X137921664Y-86112319D02*
X137826426Y-86112319D01*
X137826426Y-86112319D02*
X137683569Y-86064700D01*
X137683569Y-86064700D02*
X137588331Y-85969461D01*
X137588331Y-85969461D02*
X137540712Y-85874223D01*
X137540712Y-85874223D02*
X137493093Y-85683747D01*
X137493093Y-85683747D02*
X137493093Y-85540890D01*
X137493093Y-85540890D02*
X137540712Y-85350414D01*
X137540712Y-85350414D02*
X137588331Y-85255176D01*
X137588331Y-85255176D02*
X137683569Y-85159938D01*
X137683569Y-85159938D02*
X137826426Y-85112319D01*
X137826426Y-85112319D02*
X137921664Y-85112319D01*
X137921664Y-85112319D02*
X138064521Y-85159938D01*
X138064521Y-85159938D02*
X138112140Y-85207557D01*
X139064521Y-86112319D02*
X138493093Y-86112319D01*
X138778807Y-86112319D02*
X138778807Y-85112319D01*
X138778807Y-85112319D02*
X138683569Y-85255176D01*
X138683569Y-85255176D02*
X138588331Y-85350414D01*
X138588331Y-85350414D02*
X138493093Y-85398033D01*
X139683569Y-85112319D02*
X139778807Y-85112319D01*
X139778807Y-85112319D02*
X139874045Y-85159938D01*
X139874045Y-85159938D02*
X139921664Y-85207557D01*
X139921664Y-85207557D02*
X139969283Y-85302795D01*
X139969283Y-85302795D02*
X140016902Y-85493271D01*
X140016902Y-85493271D02*
X140016902Y-85731366D01*
X140016902Y-85731366D02*
X139969283Y-85921842D01*
X139969283Y-85921842D02*
X139921664Y-86017080D01*
X139921664Y-86017080D02*
X139874045Y-86064700D01*
X139874045Y-86064700D02*
X139778807Y-86112319D01*
X139778807Y-86112319D02*
X139683569Y-86112319D01*
X139683569Y-86112319D02*
X139588331Y-86064700D01*
X139588331Y-86064700D02*
X139540712Y-86017080D01*
X139540712Y-86017080D02*
X139493093Y-85921842D01*
X139493093Y-85921842D02*
X139445474Y-85731366D01*
X139445474Y-85731366D02*
X139445474Y-85493271D01*
X139445474Y-85493271D02*
X139493093Y-85302795D01*
X139493093Y-85302795D02*
X139540712Y-85207557D01*
X139540712Y-85207557D02*
X139588331Y-85159938D01*
X139588331Y-85159938D02*
X139683569Y-85112319D01*
X135657142Y-73389580D02*
X135609523Y-73437200D01*
X135609523Y-73437200D02*
X135466666Y-73484819D01*
X135466666Y-73484819D02*
X135371428Y-73484819D01*
X135371428Y-73484819D02*
X135228571Y-73437200D01*
X135228571Y-73437200D02*
X135133333Y-73341961D01*
X135133333Y-73341961D02*
X135085714Y-73246723D01*
X135085714Y-73246723D02*
X135038095Y-73056247D01*
X135038095Y-73056247D02*
X135038095Y-72913390D01*
X135038095Y-72913390D02*
X135085714Y-72722914D01*
X135085714Y-72722914D02*
X135133333Y-72627676D01*
X135133333Y-72627676D02*
X135228571Y-72532438D01*
X135228571Y-72532438D02*
X135371428Y-72484819D01*
X135371428Y-72484819D02*
X135466666Y-72484819D01*
X135466666Y-72484819D02*
X135609523Y-72532438D01*
X135609523Y-72532438D02*
X135657142Y-72580057D01*
X136514285Y-72818152D02*
X136514285Y-73484819D01*
X136276190Y-72437200D02*
X136038095Y-73151485D01*
X136038095Y-73151485D02*
X136657142Y-73151485D01*
X136990476Y-72580057D02*
X137038095Y-72532438D01*
X137038095Y-72532438D02*
X137133333Y-72484819D01*
X137133333Y-72484819D02*
X137371428Y-72484819D01*
X137371428Y-72484819D02*
X137466666Y-72532438D01*
X137466666Y-72532438D02*
X137514285Y-72580057D01*
X137514285Y-72580057D02*
X137561904Y-72675295D01*
X137561904Y-72675295D02*
X137561904Y-72770533D01*
X137561904Y-72770533D02*
X137514285Y-72913390D01*
X137514285Y-72913390D02*
X136942857Y-73484819D01*
X136942857Y-73484819D02*
X137561904Y-73484819D01*
X155457142Y-55469580D02*
X155409523Y-55517200D01*
X155409523Y-55517200D02*
X155266666Y-55564819D01*
X155266666Y-55564819D02*
X155171428Y-55564819D01*
X155171428Y-55564819D02*
X155028571Y-55517200D01*
X155028571Y-55517200D02*
X154933333Y-55421961D01*
X154933333Y-55421961D02*
X154885714Y-55326723D01*
X154885714Y-55326723D02*
X154838095Y-55136247D01*
X154838095Y-55136247D02*
X154838095Y-54993390D01*
X154838095Y-54993390D02*
X154885714Y-54802914D01*
X154885714Y-54802914D02*
X154933333Y-54707676D01*
X154933333Y-54707676D02*
X155028571Y-54612438D01*
X155028571Y-54612438D02*
X155171428Y-54564819D01*
X155171428Y-54564819D02*
X155266666Y-54564819D01*
X155266666Y-54564819D02*
X155409523Y-54612438D01*
X155409523Y-54612438D02*
X155457142Y-54660057D01*
X155790476Y-54564819D02*
X156409523Y-54564819D01*
X156409523Y-54564819D02*
X156076190Y-54945771D01*
X156076190Y-54945771D02*
X156219047Y-54945771D01*
X156219047Y-54945771D02*
X156314285Y-54993390D01*
X156314285Y-54993390D02*
X156361904Y-55041009D01*
X156361904Y-55041009D02*
X156409523Y-55136247D01*
X156409523Y-55136247D02*
X156409523Y-55374342D01*
X156409523Y-55374342D02*
X156361904Y-55469580D01*
X156361904Y-55469580D02*
X156314285Y-55517200D01*
X156314285Y-55517200D02*
X156219047Y-55564819D01*
X156219047Y-55564819D02*
X155933333Y-55564819D01*
X155933333Y-55564819D02*
X155838095Y-55517200D01*
X155838095Y-55517200D02*
X155790476Y-55469580D01*
X157028571Y-54564819D02*
X157123809Y-54564819D01*
X157123809Y-54564819D02*
X157219047Y-54612438D01*
X157219047Y-54612438D02*
X157266666Y-54660057D01*
X157266666Y-54660057D02*
X157314285Y-54755295D01*
X157314285Y-54755295D02*
X157361904Y-54945771D01*
X157361904Y-54945771D02*
X157361904Y-55183866D01*
X157361904Y-55183866D02*
X157314285Y-55374342D01*
X157314285Y-55374342D02*
X157266666Y-55469580D01*
X157266666Y-55469580D02*
X157219047Y-55517200D01*
X157219047Y-55517200D02*
X157123809Y-55564819D01*
X157123809Y-55564819D02*
X157028571Y-55564819D01*
X157028571Y-55564819D02*
X156933333Y-55517200D01*
X156933333Y-55517200D02*
X156885714Y-55469580D01*
X156885714Y-55469580D02*
X156838095Y-55374342D01*
X156838095Y-55374342D02*
X156790476Y-55183866D01*
X156790476Y-55183866D02*
X156790476Y-54945771D01*
X156790476Y-54945771D02*
X156838095Y-54755295D01*
X156838095Y-54755295D02*
X156885714Y-54660057D01*
X156885714Y-54660057D02*
X156933333Y-54612438D01*
X156933333Y-54612438D02*
X157028571Y-54564819D01*
X128509733Y-50795580D02*
X128462114Y-50843200D01*
X128462114Y-50843200D02*
X128319257Y-50890819D01*
X128319257Y-50890819D02*
X128224019Y-50890819D01*
X128224019Y-50890819D02*
X128081162Y-50843200D01*
X128081162Y-50843200D02*
X127985924Y-50747961D01*
X127985924Y-50747961D02*
X127938305Y-50652723D01*
X127938305Y-50652723D02*
X127890686Y-50462247D01*
X127890686Y-50462247D02*
X127890686Y-50319390D01*
X127890686Y-50319390D02*
X127938305Y-50128914D01*
X127938305Y-50128914D02*
X127985924Y-50033676D01*
X127985924Y-50033676D02*
X128081162Y-49938438D01*
X128081162Y-49938438D02*
X128224019Y-49890819D01*
X128224019Y-49890819D02*
X128319257Y-49890819D01*
X128319257Y-49890819D02*
X128462114Y-49938438D01*
X128462114Y-49938438D02*
X128509733Y-49986057D01*
X128890686Y-49986057D02*
X128938305Y-49938438D01*
X128938305Y-49938438D02*
X129033543Y-49890819D01*
X129033543Y-49890819D02*
X129271638Y-49890819D01*
X129271638Y-49890819D02*
X129366876Y-49938438D01*
X129366876Y-49938438D02*
X129414495Y-49986057D01*
X129414495Y-49986057D02*
X129462114Y-50081295D01*
X129462114Y-50081295D02*
X129462114Y-50176533D01*
X129462114Y-50176533D02*
X129414495Y-50319390D01*
X129414495Y-50319390D02*
X128843067Y-50890819D01*
X128843067Y-50890819D02*
X129462114Y-50890819D01*
X141609817Y-83664166D02*
X141133626Y-83997499D01*
X141609817Y-84235594D02*
X140609817Y-84235594D01*
X140609817Y-84235594D02*
X140609817Y-83854642D01*
X140609817Y-83854642D02*
X140657436Y-83759404D01*
X140657436Y-83759404D02*
X140705055Y-83711785D01*
X140705055Y-83711785D02*
X140800293Y-83664166D01*
X140800293Y-83664166D02*
X140943150Y-83664166D01*
X140943150Y-83664166D02*
X141038388Y-83711785D01*
X141038388Y-83711785D02*
X141086007Y-83759404D01*
X141086007Y-83759404D02*
X141133626Y-83854642D01*
X141133626Y-83854642D02*
X141133626Y-84235594D01*
X141609817Y-83187975D02*
X141609817Y-82997499D01*
X141609817Y-82997499D02*
X141562198Y-82902261D01*
X141562198Y-82902261D02*
X141514578Y-82854642D01*
X141514578Y-82854642D02*
X141371721Y-82759404D01*
X141371721Y-82759404D02*
X141181245Y-82711785D01*
X141181245Y-82711785D02*
X140800293Y-82711785D01*
X140800293Y-82711785D02*
X140705055Y-82759404D01*
X140705055Y-82759404D02*
X140657436Y-82807023D01*
X140657436Y-82807023D02*
X140609817Y-82902261D01*
X140609817Y-82902261D02*
X140609817Y-83092737D01*
X140609817Y-83092737D02*
X140657436Y-83187975D01*
X140657436Y-83187975D02*
X140705055Y-83235594D01*
X140705055Y-83235594D02*
X140800293Y-83283213D01*
X140800293Y-83283213D02*
X141038388Y-83283213D01*
X141038388Y-83283213D02*
X141133626Y-83235594D01*
X141133626Y-83235594D02*
X141181245Y-83187975D01*
X141181245Y-83187975D02*
X141228864Y-83092737D01*
X141228864Y-83092737D02*
X141228864Y-82902261D01*
X141228864Y-82902261D02*
X141181245Y-82807023D01*
X141181245Y-82807023D02*
X141133626Y-82759404D01*
X141133626Y-82759404D02*
X141038388Y-82711785D01*
X126957142Y-81257080D02*
X126909523Y-81304700D01*
X126909523Y-81304700D02*
X126766666Y-81352319D01*
X126766666Y-81352319D02*
X126671428Y-81352319D01*
X126671428Y-81352319D02*
X126528571Y-81304700D01*
X126528571Y-81304700D02*
X126433333Y-81209461D01*
X126433333Y-81209461D02*
X126385714Y-81114223D01*
X126385714Y-81114223D02*
X126338095Y-80923747D01*
X126338095Y-80923747D02*
X126338095Y-80780890D01*
X126338095Y-80780890D02*
X126385714Y-80590414D01*
X126385714Y-80590414D02*
X126433333Y-80495176D01*
X126433333Y-80495176D02*
X126528571Y-80399938D01*
X126528571Y-80399938D02*
X126671428Y-80352319D01*
X126671428Y-80352319D02*
X126766666Y-80352319D01*
X126766666Y-80352319D02*
X126909523Y-80399938D01*
X126909523Y-80399938D02*
X126957142Y-80447557D01*
X127338095Y-80447557D02*
X127385714Y-80399938D01*
X127385714Y-80399938D02*
X127480952Y-80352319D01*
X127480952Y-80352319D02*
X127719047Y-80352319D01*
X127719047Y-80352319D02*
X127814285Y-80399938D01*
X127814285Y-80399938D02*
X127861904Y-80447557D01*
X127861904Y-80447557D02*
X127909523Y-80542795D01*
X127909523Y-80542795D02*
X127909523Y-80638033D01*
X127909523Y-80638033D02*
X127861904Y-80780890D01*
X127861904Y-80780890D02*
X127290476Y-81352319D01*
X127290476Y-81352319D02*
X127909523Y-81352319D01*
X128290476Y-80447557D02*
X128338095Y-80399938D01*
X128338095Y-80399938D02*
X128433333Y-80352319D01*
X128433333Y-80352319D02*
X128671428Y-80352319D01*
X128671428Y-80352319D02*
X128766666Y-80399938D01*
X128766666Y-80399938D02*
X128814285Y-80447557D01*
X128814285Y-80447557D02*
X128861904Y-80542795D01*
X128861904Y-80542795D02*
X128861904Y-80638033D01*
X128861904Y-80638033D02*
X128814285Y-80780890D01*
X128814285Y-80780890D02*
X128242857Y-81352319D01*
X128242857Y-81352319D02*
X128861904Y-81352319D01*
D12*
X156174318Y-58394524D02*
X154904318Y-58394524D01*
X156053365Y-57064047D02*
X156113842Y-57124523D01*
X156113842Y-57124523D02*
X156174318Y-57305952D01*
X156174318Y-57305952D02*
X156174318Y-57426904D01*
X156174318Y-57426904D02*
X156113842Y-57608333D01*
X156113842Y-57608333D02*
X155992889Y-57729285D01*
X155992889Y-57729285D02*
X155871937Y-57789762D01*
X155871937Y-57789762D02*
X155630032Y-57850238D01*
X155630032Y-57850238D02*
X155448603Y-57850238D01*
X155448603Y-57850238D02*
X155206699Y-57789762D01*
X155206699Y-57789762D02*
X155085746Y-57729285D01*
X155085746Y-57729285D02*
X154964794Y-57608333D01*
X154964794Y-57608333D02*
X154904318Y-57426904D01*
X154904318Y-57426904D02*
X154904318Y-57305952D01*
X154904318Y-57305952D02*
X154964794Y-57124523D01*
X154964794Y-57124523D02*
X155025270Y-57064047D01*
X156174318Y-55854523D02*
X156174318Y-56580238D01*
X156174318Y-56217381D02*
X154904318Y-56217381D01*
X154904318Y-56217381D02*
X155085746Y-56338333D01*
X155085746Y-56338333D02*
X155206699Y-56459285D01*
X155206699Y-56459285D02*
X155267175Y-56580238D01*
X154904318Y-55068333D02*
X154904318Y-54947380D01*
X154904318Y-54947380D02*
X154964794Y-54826428D01*
X154964794Y-54826428D02*
X155025270Y-54765952D01*
X155025270Y-54765952D02*
X155146222Y-54705476D01*
X155146222Y-54705476D02*
X155388127Y-54644999D01*
X155388127Y-54644999D02*
X155690508Y-54644999D01*
X155690508Y-54644999D02*
X155932413Y-54705476D01*
X155932413Y-54705476D02*
X156053365Y-54765952D01*
X156053365Y-54765952D02*
X156113842Y-54826428D01*
X156113842Y-54826428D02*
X156174318Y-54947380D01*
X156174318Y-54947380D02*
X156174318Y-55068333D01*
X156174318Y-55068333D02*
X156113842Y-55189285D01*
X156113842Y-55189285D02*
X156053365Y-55249761D01*
X156053365Y-55249761D02*
X155932413Y-55310238D01*
X155932413Y-55310238D02*
X155690508Y-55370714D01*
X155690508Y-55370714D02*
X155388127Y-55370714D01*
X155388127Y-55370714D02*
X155146222Y-55310238D01*
X155146222Y-55310238D02*
X155025270Y-55249761D01*
X155025270Y-55249761D02*
X154964794Y-55189285D01*
X154964794Y-55189285D02*
X154904318Y-55068333D01*
X145224316Y-86687262D02*
X143954316Y-86687262D01*
X145103363Y-85356785D02*
X145163840Y-85417261D01*
X145163840Y-85417261D02*
X145224316Y-85598690D01*
X145224316Y-85598690D02*
X145224316Y-85719642D01*
X145224316Y-85719642D02*
X145163840Y-85901071D01*
X145163840Y-85901071D02*
X145042887Y-86022023D01*
X145042887Y-86022023D02*
X144921935Y-86082500D01*
X144921935Y-86082500D02*
X144680030Y-86142976D01*
X144680030Y-86142976D02*
X144498601Y-86142976D01*
X144498601Y-86142976D02*
X144256697Y-86082500D01*
X144256697Y-86082500D02*
X144135744Y-86022023D01*
X144135744Y-86022023D02*
X144014792Y-85901071D01*
X144014792Y-85901071D02*
X143954316Y-85719642D01*
X143954316Y-85719642D02*
X143954316Y-85598690D01*
X143954316Y-85598690D02*
X144014792Y-85417261D01*
X144014792Y-85417261D02*
X144075268Y-85356785D01*
X143954316Y-84268214D02*
X143954316Y-84510119D01*
X143954316Y-84510119D02*
X144014792Y-84631071D01*
X144014792Y-84631071D02*
X144075268Y-84691547D01*
X144075268Y-84691547D02*
X144256697Y-84812500D01*
X144256697Y-84812500D02*
X144498601Y-84872976D01*
X144498601Y-84872976D02*
X144982411Y-84872976D01*
X144982411Y-84872976D02*
X145103363Y-84812500D01*
X145103363Y-84812500D02*
X145163840Y-84752023D01*
X145163840Y-84752023D02*
X145224316Y-84631071D01*
X145224316Y-84631071D02*
X145224316Y-84389166D01*
X145224316Y-84389166D02*
X145163840Y-84268214D01*
X145163840Y-84268214D02*
X145103363Y-84207738D01*
X145103363Y-84207738D02*
X144982411Y-84147261D01*
X144982411Y-84147261D02*
X144680030Y-84147261D01*
X144680030Y-84147261D02*
X144559078Y-84207738D01*
X144559078Y-84207738D02*
X144498601Y-84268214D01*
X144498601Y-84268214D02*
X144438125Y-84389166D01*
X144438125Y-84389166D02*
X144438125Y-84631071D01*
X144438125Y-84631071D02*
X144498601Y-84752023D01*
X144498601Y-84752023D02*
X144559078Y-84812500D01*
X144559078Y-84812500D02*
X144680030Y-84872976D01*
D10*
X130404819Y-80190357D02*
X129928628Y-80523690D01*
X130404819Y-80761785D02*
X129404819Y-80761785D01*
X129404819Y-80761785D02*
X129404819Y-80380833D01*
X129404819Y-80380833D02*
X129452438Y-80285595D01*
X129452438Y-80285595D02*
X129500057Y-80237976D01*
X129500057Y-80237976D02*
X129595295Y-80190357D01*
X129595295Y-80190357D02*
X129738152Y-80190357D01*
X129738152Y-80190357D02*
X129833390Y-80237976D01*
X129833390Y-80237976D02*
X129881009Y-80285595D01*
X129881009Y-80285595D02*
X129928628Y-80380833D01*
X129928628Y-80380833D02*
X129928628Y-80761785D01*
X130404819Y-79237976D02*
X130404819Y-79809404D01*
X130404819Y-79523690D02*
X129404819Y-79523690D01*
X129404819Y-79523690D02*
X129547676Y-79618928D01*
X129547676Y-79618928D02*
X129642914Y-79714166D01*
X129642914Y-79714166D02*
X129690533Y-79809404D01*
X129404819Y-78904642D02*
X129404819Y-78285595D01*
X129404819Y-78285595D02*
X129785771Y-78618928D01*
X129785771Y-78618928D02*
X129785771Y-78476071D01*
X129785771Y-78476071D02*
X129833390Y-78380833D01*
X129833390Y-78380833D02*
X129881009Y-78333214D01*
X129881009Y-78333214D02*
X129976247Y-78285595D01*
X129976247Y-78285595D02*
X130214342Y-78285595D01*
X130214342Y-78285595D02*
X130309580Y-78333214D01*
X130309580Y-78333214D02*
X130357200Y-78380833D01*
X130357200Y-78380833D02*
X130404819Y-78476071D01*
X130404819Y-78476071D02*
X130404819Y-78761785D01*
X130404819Y-78761785D02*
X130357200Y-78857023D01*
X130357200Y-78857023D02*
X130309580Y-78904642D01*
X136492140Y-83752319D02*
X136158807Y-83276128D01*
X135920712Y-83752319D02*
X135920712Y-82752319D01*
X135920712Y-82752319D02*
X136301664Y-82752319D01*
X136301664Y-82752319D02*
X136396902Y-82799938D01*
X136396902Y-82799938D02*
X136444521Y-82847557D01*
X136444521Y-82847557D02*
X136492140Y-82942795D01*
X136492140Y-82942795D02*
X136492140Y-83085652D01*
X136492140Y-83085652D02*
X136444521Y-83180890D01*
X136444521Y-83180890D02*
X136396902Y-83228509D01*
X136396902Y-83228509D02*
X136301664Y-83276128D01*
X136301664Y-83276128D02*
X135920712Y-83276128D01*
X137444521Y-83752319D02*
X136873093Y-83752319D01*
X137158807Y-83752319D02*
X137158807Y-82752319D01*
X137158807Y-82752319D02*
X137063569Y-82895176D01*
X137063569Y-82895176D02*
X136968331Y-82990414D01*
X136968331Y-82990414D02*
X136873093Y-83038033D01*
X138063569Y-82752319D02*
X138158807Y-82752319D01*
X138158807Y-82752319D02*
X138254045Y-82799938D01*
X138254045Y-82799938D02*
X138301664Y-82847557D01*
X138301664Y-82847557D02*
X138349283Y-82942795D01*
X138349283Y-82942795D02*
X138396902Y-83133271D01*
X138396902Y-83133271D02*
X138396902Y-83371366D01*
X138396902Y-83371366D02*
X138349283Y-83561842D01*
X138349283Y-83561842D02*
X138301664Y-83657080D01*
X138301664Y-83657080D02*
X138254045Y-83704700D01*
X138254045Y-83704700D02*
X138158807Y-83752319D01*
X138158807Y-83752319D02*
X138063569Y-83752319D01*
X138063569Y-83752319D02*
X137968331Y-83704700D01*
X137968331Y-83704700D02*
X137920712Y-83657080D01*
X137920712Y-83657080D02*
X137873093Y-83561842D01*
X137873093Y-83561842D02*
X137825474Y-83371366D01*
X137825474Y-83371366D02*
X137825474Y-83133271D01*
X137825474Y-83133271D02*
X137873093Y-82942795D01*
X137873093Y-82942795D02*
X137920712Y-82847557D01*
X137920712Y-82847557D02*
X137968331Y-82799938D01*
X137968331Y-82799938D02*
X138063569Y-82752319D01*
X149062142Y-86269580D02*
X149014523Y-86317200D01*
X149014523Y-86317200D02*
X148871666Y-86364819D01*
X148871666Y-86364819D02*
X148776428Y-86364819D01*
X148776428Y-86364819D02*
X148633571Y-86317200D01*
X148633571Y-86317200D02*
X148538333Y-86221961D01*
X148538333Y-86221961D02*
X148490714Y-86126723D01*
X148490714Y-86126723D02*
X148443095Y-85936247D01*
X148443095Y-85936247D02*
X148443095Y-85793390D01*
X148443095Y-85793390D02*
X148490714Y-85602914D01*
X148490714Y-85602914D02*
X148538333Y-85507676D01*
X148538333Y-85507676D02*
X148633571Y-85412438D01*
X148633571Y-85412438D02*
X148776428Y-85364819D01*
X148776428Y-85364819D02*
X148871666Y-85364819D01*
X148871666Y-85364819D02*
X149014523Y-85412438D01*
X149014523Y-85412438D02*
X149062142Y-85460057D01*
X149443095Y-85460057D02*
X149490714Y-85412438D01*
X149490714Y-85412438D02*
X149585952Y-85364819D01*
X149585952Y-85364819D02*
X149824047Y-85364819D01*
X149824047Y-85364819D02*
X149919285Y-85412438D01*
X149919285Y-85412438D02*
X149966904Y-85460057D01*
X149966904Y-85460057D02*
X150014523Y-85555295D01*
X150014523Y-85555295D02*
X150014523Y-85650533D01*
X150014523Y-85650533D02*
X149966904Y-85793390D01*
X149966904Y-85793390D02*
X149395476Y-86364819D01*
X149395476Y-86364819D02*
X150014523Y-86364819D01*
X150347857Y-85364819D02*
X151014523Y-85364819D01*
X151014523Y-85364819D02*
X150585952Y-86364819D01*
D12*
X142256531Y-83271818D02*
X141651769Y-83271818D01*
X141651769Y-83271818D02*
X141651769Y-82001818D01*
X142619388Y-82122770D02*
X142679864Y-82062294D01*
X142679864Y-82062294D02*
X142800817Y-82001818D01*
X142800817Y-82001818D02*
X143103198Y-82001818D01*
X143103198Y-82001818D02*
X143224150Y-82062294D01*
X143224150Y-82062294D02*
X143284626Y-82122770D01*
X143284626Y-82122770D02*
X143345103Y-82243722D01*
X143345103Y-82243722D02*
X143345103Y-82364675D01*
X143345103Y-82364675D02*
X143284626Y-82546103D01*
X143284626Y-82546103D02*
X142558912Y-83271818D01*
X142558912Y-83271818D02*
X143345103Y-83271818D01*
D10*
X108099780Y-116443966D02*
X108147400Y-116491585D01*
X108147400Y-116491585D02*
X108195019Y-116634442D01*
X108195019Y-116634442D02*
X108195019Y-116729680D01*
X108195019Y-116729680D02*
X108147400Y-116872537D01*
X108147400Y-116872537D02*
X108052161Y-116967775D01*
X108052161Y-116967775D02*
X107956923Y-117015394D01*
X107956923Y-117015394D02*
X107766447Y-117063013D01*
X107766447Y-117063013D02*
X107623590Y-117063013D01*
X107623590Y-117063013D02*
X107433114Y-117015394D01*
X107433114Y-117015394D02*
X107337876Y-116967775D01*
X107337876Y-116967775D02*
X107242638Y-116872537D01*
X107242638Y-116872537D02*
X107195019Y-116729680D01*
X107195019Y-116729680D02*
X107195019Y-116634442D01*
X107195019Y-116634442D02*
X107242638Y-116491585D01*
X107242638Y-116491585D02*
X107290257Y-116443966D01*
X107528352Y-115586823D02*
X108195019Y-115586823D01*
X107147400Y-115824918D02*
X107861685Y-116063013D01*
X107861685Y-116063013D02*
X107861685Y-115443966D01*
X149183333Y-84399819D02*
X148707143Y-84399819D01*
X148707143Y-84399819D02*
X148707143Y-83399819D01*
X149992857Y-83399819D02*
X149516667Y-83399819D01*
X149516667Y-83399819D02*
X149469048Y-83876009D01*
X149469048Y-83876009D02*
X149516667Y-83828390D01*
X149516667Y-83828390D02*
X149611905Y-83780771D01*
X149611905Y-83780771D02*
X149850000Y-83780771D01*
X149850000Y-83780771D02*
X149945238Y-83828390D01*
X149945238Y-83828390D02*
X149992857Y-83876009D01*
X149992857Y-83876009D02*
X150040476Y-83971247D01*
X150040476Y-83971247D02*
X150040476Y-84209342D01*
X150040476Y-84209342D02*
X149992857Y-84304580D01*
X149992857Y-84304580D02*
X149945238Y-84352200D01*
X149945238Y-84352200D02*
X149850000Y-84399819D01*
X149850000Y-84399819D02*
X149611905Y-84399819D01*
X149611905Y-84399819D02*
X149516667Y-84352200D01*
X149516667Y-84352200D02*
X149469048Y-84304580D01*
X147824580Y-79282857D02*
X147872200Y-79330476D01*
X147872200Y-79330476D02*
X147919819Y-79473333D01*
X147919819Y-79473333D02*
X147919819Y-79568571D01*
X147919819Y-79568571D02*
X147872200Y-79711428D01*
X147872200Y-79711428D02*
X147776961Y-79806666D01*
X147776961Y-79806666D02*
X147681723Y-79854285D01*
X147681723Y-79854285D02*
X147491247Y-79901904D01*
X147491247Y-79901904D02*
X147348390Y-79901904D01*
X147348390Y-79901904D02*
X147157914Y-79854285D01*
X147157914Y-79854285D02*
X147062676Y-79806666D01*
X147062676Y-79806666D02*
X146967438Y-79711428D01*
X146967438Y-79711428D02*
X146919819Y-79568571D01*
X146919819Y-79568571D02*
X146919819Y-79473333D01*
X146919819Y-79473333D02*
X146967438Y-79330476D01*
X146967438Y-79330476D02*
X147015057Y-79282857D01*
X146919819Y-78949523D02*
X146919819Y-78330476D01*
X146919819Y-78330476D02*
X147300771Y-78663809D01*
X147300771Y-78663809D02*
X147300771Y-78520952D01*
X147300771Y-78520952D02*
X147348390Y-78425714D01*
X147348390Y-78425714D02*
X147396009Y-78378095D01*
X147396009Y-78378095D02*
X147491247Y-78330476D01*
X147491247Y-78330476D02*
X147729342Y-78330476D01*
X147729342Y-78330476D02*
X147824580Y-78378095D01*
X147824580Y-78378095D02*
X147872200Y-78425714D01*
X147872200Y-78425714D02*
X147919819Y-78520952D01*
X147919819Y-78520952D02*
X147919819Y-78806666D01*
X147919819Y-78806666D02*
X147872200Y-78901904D01*
X147872200Y-78901904D02*
X147824580Y-78949523D01*
X147919819Y-77378095D02*
X147919819Y-77949523D01*
X147919819Y-77663809D02*
X146919819Y-77663809D01*
X146919819Y-77663809D02*
X147062676Y-77759047D01*
X147062676Y-77759047D02*
X147157914Y-77854285D01*
X147157914Y-77854285D02*
X147205533Y-77949523D01*
D11*
X141818253Y-67472419D02*
X141818253Y-68186704D01*
X141818253Y-68186704D02*
X141770634Y-68329561D01*
X141770634Y-68329561D02*
X141675396Y-68424800D01*
X141675396Y-68424800D02*
X141532539Y-68472419D01*
X141532539Y-68472419D02*
X141437301Y-68472419D01*
X142199206Y-67472419D02*
X142818253Y-67472419D01*
X142818253Y-67472419D02*
X142484920Y-67853371D01*
X142484920Y-67853371D02*
X142627777Y-67853371D01*
X142627777Y-67853371D02*
X142723015Y-67900990D01*
X142723015Y-67900990D02*
X142770634Y-67948609D01*
X142770634Y-67948609D02*
X142818253Y-68043847D01*
X142818253Y-68043847D02*
X142818253Y-68281942D01*
X142818253Y-68281942D02*
X142770634Y-68377180D01*
X142770634Y-68377180D02*
X142723015Y-68424800D01*
X142723015Y-68424800D02*
X142627777Y-68472419D01*
X142627777Y-68472419D02*
X142342063Y-68472419D01*
X142342063Y-68472419D02*
X142246825Y-68424800D01*
X142246825Y-68424800D02*
X142199206Y-68377180D01*
D10*
X155272447Y-81324819D02*
X154796257Y-81324819D01*
X154796257Y-81324819D02*
X154796257Y-80324819D01*
X156034352Y-80324819D02*
X155843876Y-80324819D01*
X155843876Y-80324819D02*
X155748638Y-80372438D01*
X155748638Y-80372438D02*
X155701019Y-80420057D01*
X155701019Y-80420057D02*
X155605781Y-80562914D01*
X155605781Y-80562914D02*
X155558162Y-80753390D01*
X155558162Y-80753390D02*
X155558162Y-81134342D01*
X155558162Y-81134342D02*
X155605781Y-81229580D01*
X155605781Y-81229580D02*
X155653400Y-81277200D01*
X155653400Y-81277200D02*
X155748638Y-81324819D01*
X155748638Y-81324819D02*
X155939114Y-81324819D01*
X155939114Y-81324819D02*
X156034352Y-81277200D01*
X156034352Y-81277200D02*
X156081971Y-81229580D01*
X156081971Y-81229580D02*
X156129590Y-81134342D01*
X156129590Y-81134342D02*
X156129590Y-80896247D01*
X156129590Y-80896247D02*
X156081971Y-80801009D01*
X156081971Y-80801009D02*
X156034352Y-80753390D01*
X156034352Y-80753390D02*
X155939114Y-80705771D01*
X155939114Y-80705771D02*
X155748638Y-80705771D01*
X155748638Y-80705771D02*
X155653400Y-80753390D01*
X155653400Y-80753390D02*
X155605781Y-80801009D01*
X155605781Y-80801009D02*
X155558162Y-80896247D01*
X153699580Y-82017857D02*
X153747200Y-82065476D01*
X153747200Y-82065476D02*
X153794819Y-82208333D01*
X153794819Y-82208333D02*
X153794819Y-82303571D01*
X153794819Y-82303571D02*
X153747200Y-82446428D01*
X153747200Y-82446428D02*
X153651961Y-82541666D01*
X153651961Y-82541666D02*
X153556723Y-82589285D01*
X153556723Y-82589285D02*
X153366247Y-82636904D01*
X153366247Y-82636904D02*
X153223390Y-82636904D01*
X153223390Y-82636904D02*
X153032914Y-82589285D01*
X153032914Y-82589285D02*
X152937676Y-82541666D01*
X152937676Y-82541666D02*
X152842438Y-82446428D01*
X152842438Y-82446428D02*
X152794819Y-82303571D01*
X152794819Y-82303571D02*
X152794819Y-82208333D01*
X152794819Y-82208333D02*
X152842438Y-82065476D01*
X152842438Y-82065476D02*
X152890057Y-82017857D01*
X152794819Y-81684523D02*
X152794819Y-81065476D01*
X152794819Y-81065476D02*
X153175771Y-81398809D01*
X153175771Y-81398809D02*
X153175771Y-81255952D01*
X153175771Y-81255952D02*
X153223390Y-81160714D01*
X153223390Y-81160714D02*
X153271009Y-81113095D01*
X153271009Y-81113095D02*
X153366247Y-81065476D01*
X153366247Y-81065476D02*
X153604342Y-81065476D01*
X153604342Y-81065476D02*
X153699580Y-81113095D01*
X153699580Y-81113095D02*
X153747200Y-81160714D01*
X153747200Y-81160714D02*
X153794819Y-81255952D01*
X153794819Y-81255952D02*
X153794819Y-81541666D01*
X153794819Y-81541666D02*
X153747200Y-81636904D01*
X153747200Y-81636904D02*
X153699580Y-81684523D01*
X152794819Y-80208333D02*
X152794819Y-80398809D01*
X152794819Y-80398809D02*
X152842438Y-80494047D01*
X152842438Y-80494047D02*
X152890057Y-80541666D01*
X152890057Y-80541666D02*
X153032914Y-80636904D01*
X153032914Y-80636904D02*
X153223390Y-80684523D01*
X153223390Y-80684523D02*
X153604342Y-80684523D01*
X153604342Y-80684523D02*
X153699580Y-80636904D01*
X153699580Y-80636904D02*
X153747200Y-80589285D01*
X153747200Y-80589285D02*
X153794819Y-80494047D01*
X153794819Y-80494047D02*
X153794819Y-80303571D01*
X153794819Y-80303571D02*
X153747200Y-80208333D01*
X153747200Y-80208333D02*
X153699580Y-80160714D01*
X153699580Y-80160714D02*
X153604342Y-80113095D01*
X153604342Y-80113095D02*
X153366247Y-80113095D01*
X153366247Y-80113095D02*
X153271009Y-80160714D01*
X153271009Y-80160714D02*
X153223390Y-80208333D01*
X153223390Y-80208333D02*
X153175771Y-80303571D01*
X153175771Y-80303571D02*
X153175771Y-80494047D01*
X153175771Y-80494047D02*
X153223390Y-80589285D01*
X153223390Y-80589285D02*
X153271009Y-80636904D01*
X153271009Y-80636904D02*
X153366247Y-80684523D01*
X151032142Y-83414580D02*
X150984523Y-83462200D01*
X150984523Y-83462200D02*
X150841666Y-83509819D01*
X150841666Y-83509819D02*
X150746428Y-83509819D01*
X150746428Y-83509819D02*
X150603571Y-83462200D01*
X150603571Y-83462200D02*
X150508333Y-83366961D01*
X150508333Y-83366961D02*
X150460714Y-83271723D01*
X150460714Y-83271723D02*
X150413095Y-83081247D01*
X150413095Y-83081247D02*
X150413095Y-82938390D01*
X150413095Y-82938390D02*
X150460714Y-82747914D01*
X150460714Y-82747914D02*
X150508333Y-82652676D01*
X150508333Y-82652676D02*
X150603571Y-82557438D01*
X150603571Y-82557438D02*
X150746428Y-82509819D01*
X150746428Y-82509819D02*
X150841666Y-82509819D01*
X150841666Y-82509819D02*
X150984523Y-82557438D01*
X150984523Y-82557438D02*
X151032142Y-82605057D01*
X151365476Y-82509819D02*
X151984523Y-82509819D01*
X151984523Y-82509819D02*
X151651190Y-82890771D01*
X151651190Y-82890771D02*
X151794047Y-82890771D01*
X151794047Y-82890771D02*
X151889285Y-82938390D01*
X151889285Y-82938390D02*
X151936904Y-82986009D01*
X151936904Y-82986009D02*
X151984523Y-83081247D01*
X151984523Y-83081247D02*
X151984523Y-83319342D01*
X151984523Y-83319342D02*
X151936904Y-83414580D01*
X151936904Y-83414580D02*
X151889285Y-83462200D01*
X151889285Y-83462200D02*
X151794047Y-83509819D01*
X151794047Y-83509819D02*
X151508333Y-83509819D01*
X151508333Y-83509819D02*
X151413095Y-83462200D01*
X151413095Y-83462200D02*
X151365476Y-83414580D01*
X152889285Y-82509819D02*
X152413095Y-82509819D01*
X152413095Y-82509819D02*
X152365476Y-82986009D01*
X152365476Y-82986009D02*
X152413095Y-82938390D01*
X152413095Y-82938390D02*
X152508333Y-82890771D01*
X152508333Y-82890771D02*
X152746428Y-82890771D01*
X152746428Y-82890771D02*
X152841666Y-82938390D01*
X152841666Y-82938390D02*
X152889285Y-82986009D01*
X152889285Y-82986009D02*
X152936904Y-83081247D01*
X152936904Y-83081247D02*
X152936904Y-83319342D01*
X152936904Y-83319342D02*
X152889285Y-83414580D01*
X152889285Y-83414580D02*
X152841666Y-83462200D01*
X152841666Y-83462200D02*
X152746428Y-83509819D01*
X152746428Y-83509819D02*
X152508333Y-83509819D01*
X152508333Y-83509819D02*
X152413095Y-83462200D01*
X152413095Y-83462200D02*
X152365476Y-83414580D01*
X139288331Y-82417080D02*
X139240712Y-82464700D01*
X139240712Y-82464700D02*
X139097855Y-82512319D01*
X139097855Y-82512319D02*
X139002617Y-82512319D01*
X139002617Y-82512319D02*
X138859760Y-82464700D01*
X138859760Y-82464700D02*
X138764522Y-82369461D01*
X138764522Y-82369461D02*
X138716903Y-82274223D01*
X138716903Y-82274223D02*
X138669284Y-82083747D01*
X138669284Y-82083747D02*
X138669284Y-81940890D01*
X138669284Y-81940890D02*
X138716903Y-81750414D01*
X138716903Y-81750414D02*
X138764522Y-81655176D01*
X138764522Y-81655176D02*
X138859760Y-81559938D01*
X138859760Y-81559938D02*
X139002617Y-81512319D01*
X139002617Y-81512319D02*
X139097855Y-81512319D01*
X139097855Y-81512319D02*
X139240712Y-81559938D01*
X139240712Y-81559938D02*
X139288331Y-81607557D01*
X139764522Y-82512319D02*
X139954998Y-82512319D01*
X139954998Y-82512319D02*
X140050236Y-82464700D01*
X140050236Y-82464700D02*
X140097855Y-82417080D01*
X140097855Y-82417080D02*
X140193093Y-82274223D01*
X140193093Y-82274223D02*
X140240712Y-82083747D01*
X140240712Y-82083747D02*
X140240712Y-81702795D01*
X140240712Y-81702795D02*
X140193093Y-81607557D01*
X140193093Y-81607557D02*
X140145474Y-81559938D01*
X140145474Y-81559938D02*
X140050236Y-81512319D01*
X140050236Y-81512319D02*
X139859760Y-81512319D01*
X139859760Y-81512319D02*
X139764522Y-81559938D01*
X139764522Y-81559938D02*
X139716903Y-81607557D01*
X139716903Y-81607557D02*
X139669284Y-81702795D01*
X139669284Y-81702795D02*
X139669284Y-81940890D01*
X139669284Y-81940890D02*
X139716903Y-82036128D01*
X139716903Y-82036128D02*
X139764522Y-82083747D01*
X139764522Y-82083747D02*
X139859760Y-82131366D01*
X139859760Y-82131366D02*
X140050236Y-82131366D01*
X140050236Y-82131366D02*
X140145474Y-82083747D01*
X140145474Y-82083747D02*
X140193093Y-82036128D01*
X140193093Y-82036128D02*
X140240712Y-81940890D01*
X131049580Y-82390357D02*
X131097200Y-82437976D01*
X131097200Y-82437976D02*
X131144819Y-82580833D01*
X131144819Y-82580833D02*
X131144819Y-82676071D01*
X131144819Y-82676071D02*
X131097200Y-82818928D01*
X131097200Y-82818928D02*
X131001961Y-82914166D01*
X131001961Y-82914166D02*
X130906723Y-82961785D01*
X130906723Y-82961785D02*
X130716247Y-83009404D01*
X130716247Y-83009404D02*
X130573390Y-83009404D01*
X130573390Y-83009404D02*
X130382914Y-82961785D01*
X130382914Y-82961785D02*
X130287676Y-82914166D01*
X130287676Y-82914166D02*
X130192438Y-82818928D01*
X130192438Y-82818928D02*
X130144819Y-82676071D01*
X130144819Y-82676071D02*
X130144819Y-82580833D01*
X130144819Y-82580833D02*
X130192438Y-82437976D01*
X130192438Y-82437976D02*
X130240057Y-82390357D01*
X131144819Y-81437976D02*
X131144819Y-82009404D01*
X131144819Y-81723690D02*
X130144819Y-81723690D01*
X130144819Y-81723690D02*
X130287676Y-81818928D01*
X130287676Y-81818928D02*
X130382914Y-81914166D01*
X130382914Y-81914166D02*
X130430533Y-82009404D01*
X130240057Y-81057023D02*
X130192438Y-81009404D01*
X130192438Y-81009404D02*
X130144819Y-80914166D01*
X130144819Y-80914166D02*
X130144819Y-80676071D01*
X130144819Y-80676071D02*
X130192438Y-80580833D01*
X130192438Y-80580833D02*
X130240057Y-80533214D01*
X130240057Y-80533214D02*
X130335295Y-80485595D01*
X130335295Y-80485595D02*
X130430533Y-80485595D01*
X130430533Y-80485595D02*
X130573390Y-80533214D01*
X130573390Y-80533214D02*
X131144819Y-81104642D01*
X131144819Y-81104642D02*
X131144819Y-80485595D01*
D12*
X134574318Y-82459166D02*
X134574318Y-83063928D01*
X134574318Y-83063928D02*
X133304318Y-83063928D01*
X134574318Y-81370594D02*
X134574318Y-82096309D01*
X134574318Y-81733452D02*
X133304318Y-81733452D01*
X133304318Y-81733452D02*
X133485746Y-81854404D01*
X133485746Y-81854404D02*
X133606699Y-81975356D01*
X133606699Y-81975356D02*
X133667175Y-82096309D01*
X150572351Y-80113370D02*
X150572351Y-78843370D01*
X151902828Y-79992417D02*
X151842352Y-80052894D01*
X151842352Y-80052894D02*
X151660923Y-80113370D01*
X151660923Y-80113370D02*
X151539971Y-80113370D01*
X151539971Y-80113370D02*
X151358542Y-80052894D01*
X151358542Y-80052894D02*
X151237590Y-79931941D01*
X151237590Y-79931941D02*
X151177113Y-79810989D01*
X151177113Y-79810989D02*
X151116637Y-79569084D01*
X151116637Y-79569084D02*
X151116637Y-79387655D01*
X151116637Y-79387655D02*
X151177113Y-79145751D01*
X151177113Y-79145751D02*
X151237590Y-79024798D01*
X151237590Y-79024798D02*
X151358542Y-78903846D01*
X151358542Y-78903846D02*
X151539971Y-78843370D01*
X151539971Y-78843370D02*
X151660923Y-78843370D01*
X151660923Y-78843370D02*
X151842352Y-78903846D01*
X151842352Y-78903846D02*
X151902828Y-78964322D01*
X152507590Y-80113370D02*
X152749494Y-80113370D01*
X152749494Y-80113370D02*
X152870447Y-80052894D01*
X152870447Y-80052894D02*
X152930923Y-79992417D01*
X152930923Y-79992417D02*
X153051875Y-79810989D01*
X153051875Y-79810989D02*
X153112352Y-79569084D01*
X153112352Y-79569084D02*
X153112352Y-79085274D01*
X153112352Y-79085274D02*
X153051875Y-78964322D01*
X153051875Y-78964322D02*
X152991399Y-78903846D01*
X152991399Y-78903846D02*
X152870447Y-78843370D01*
X152870447Y-78843370D02*
X152628542Y-78843370D01*
X152628542Y-78843370D02*
X152507590Y-78903846D01*
X152507590Y-78903846D02*
X152447113Y-78964322D01*
X152447113Y-78964322D02*
X152386637Y-79085274D01*
X152386637Y-79085274D02*
X152386637Y-79387655D01*
X152386637Y-79387655D02*
X152447113Y-79508608D01*
X152447113Y-79508608D02*
X152507590Y-79569084D01*
X152507590Y-79569084D02*
X152628542Y-79629560D01*
X152628542Y-79629560D02*
X152870447Y-79629560D01*
X152870447Y-79629560D02*
X152991399Y-79569084D01*
X152991399Y-79569084D02*
X153051875Y-79508608D01*
X153051875Y-79508608D02*
X153112352Y-79387655D01*
D10*
X135688095Y-74324819D02*
X135688095Y-75134342D01*
X135688095Y-75134342D02*
X135735714Y-75229580D01*
X135735714Y-75229580D02*
X135783333Y-75277200D01*
X135783333Y-75277200D02*
X135878571Y-75324819D01*
X135878571Y-75324819D02*
X136069047Y-75324819D01*
X136069047Y-75324819D02*
X136164285Y-75277200D01*
X136164285Y-75277200D02*
X136211904Y-75229580D01*
X136211904Y-75229580D02*
X136259523Y-75134342D01*
X136259523Y-75134342D02*
X136259523Y-74324819D01*
X136640476Y-74324819D02*
X137259523Y-74324819D01*
X137259523Y-74324819D02*
X136926190Y-74705771D01*
X136926190Y-74705771D02*
X137069047Y-74705771D01*
X137069047Y-74705771D02*
X137164285Y-74753390D01*
X137164285Y-74753390D02*
X137211904Y-74801009D01*
X137211904Y-74801009D02*
X137259523Y-74896247D01*
X137259523Y-74896247D02*
X137259523Y-75134342D01*
X137259523Y-75134342D02*
X137211904Y-75229580D01*
X137211904Y-75229580D02*
X137164285Y-75277200D01*
X137164285Y-75277200D02*
X137069047Y-75324819D01*
X137069047Y-75324819D02*
X136783333Y-75324819D01*
X136783333Y-75324819D02*
X136688095Y-75277200D01*
X136688095Y-75277200D02*
X136640476Y-75229580D01*
X133063333Y-71419580D02*
X133015714Y-71467200D01*
X133015714Y-71467200D02*
X132872857Y-71514819D01*
X132872857Y-71514819D02*
X132777619Y-71514819D01*
X132777619Y-71514819D02*
X132634762Y-71467200D01*
X132634762Y-71467200D02*
X132539524Y-71371961D01*
X132539524Y-71371961D02*
X132491905Y-71276723D01*
X132491905Y-71276723D02*
X132444286Y-71086247D01*
X132444286Y-71086247D02*
X132444286Y-70943390D01*
X132444286Y-70943390D02*
X132491905Y-70752914D01*
X132491905Y-70752914D02*
X132539524Y-70657676D01*
X132539524Y-70657676D02*
X132634762Y-70562438D01*
X132634762Y-70562438D02*
X132777619Y-70514819D01*
X132777619Y-70514819D02*
X132872857Y-70514819D01*
X132872857Y-70514819D02*
X133015714Y-70562438D01*
X133015714Y-70562438D02*
X133063333Y-70610057D01*
X133634762Y-70943390D02*
X133539524Y-70895771D01*
X133539524Y-70895771D02*
X133491905Y-70848152D01*
X133491905Y-70848152D02*
X133444286Y-70752914D01*
X133444286Y-70752914D02*
X133444286Y-70705295D01*
X133444286Y-70705295D02*
X133491905Y-70610057D01*
X133491905Y-70610057D02*
X133539524Y-70562438D01*
X133539524Y-70562438D02*
X133634762Y-70514819D01*
X133634762Y-70514819D02*
X133825238Y-70514819D01*
X133825238Y-70514819D02*
X133920476Y-70562438D01*
X133920476Y-70562438D02*
X133968095Y-70610057D01*
X133968095Y-70610057D02*
X134015714Y-70705295D01*
X134015714Y-70705295D02*
X134015714Y-70752914D01*
X134015714Y-70752914D02*
X133968095Y-70848152D01*
X133968095Y-70848152D02*
X133920476Y-70895771D01*
X133920476Y-70895771D02*
X133825238Y-70943390D01*
X133825238Y-70943390D02*
X133634762Y-70943390D01*
X133634762Y-70943390D02*
X133539524Y-70991009D01*
X133539524Y-70991009D02*
X133491905Y-71038628D01*
X133491905Y-71038628D02*
X133444286Y-71133866D01*
X133444286Y-71133866D02*
X133444286Y-71324342D01*
X133444286Y-71324342D02*
X133491905Y-71419580D01*
X133491905Y-71419580D02*
X133539524Y-71467200D01*
X133539524Y-71467200D02*
X133634762Y-71514819D01*
X133634762Y-71514819D02*
X133825238Y-71514819D01*
X133825238Y-71514819D02*
X133920476Y-71467200D01*
X133920476Y-71467200D02*
X133968095Y-71419580D01*
X133968095Y-71419580D02*
X134015714Y-71324342D01*
X134015714Y-71324342D02*
X134015714Y-71133866D01*
X134015714Y-71133866D02*
X133968095Y-71038628D01*
X133968095Y-71038628D02*
X133920476Y-70991009D01*
X133920476Y-70991009D02*
X133825238Y-70943390D01*
X127164780Y-54675066D02*
X127212400Y-54722685D01*
X127212400Y-54722685D02*
X127260019Y-54865542D01*
X127260019Y-54865542D02*
X127260019Y-54960780D01*
X127260019Y-54960780D02*
X127212400Y-55103637D01*
X127212400Y-55103637D02*
X127117161Y-55198875D01*
X127117161Y-55198875D02*
X127021923Y-55246494D01*
X127021923Y-55246494D02*
X126831447Y-55294113D01*
X126831447Y-55294113D02*
X126688590Y-55294113D01*
X126688590Y-55294113D02*
X126498114Y-55246494D01*
X126498114Y-55246494D02*
X126402876Y-55198875D01*
X126402876Y-55198875D02*
X126307638Y-55103637D01*
X126307638Y-55103637D02*
X126260019Y-54960780D01*
X126260019Y-54960780D02*
X126260019Y-54865542D01*
X126260019Y-54865542D02*
X126307638Y-54722685D01*
X126307638Y-54722685D02*
X126355257Y-54675066D01*
X126260019Y-53817923D02*
X126260019Y-54008399D01*
X126260019Y-54008399D02*
X126307638Y-54103637D01*
X126307638Y-54103637D02*
X126355257Y-54151256D01*
X126355257Y-54151256D02*
X126498114Y-54246494D01*
X126498114Y-54246494D02*
X126688590Y-54294113D01*
X126688590Y-54294113D02*
X127069542Y-54294113D01*
X127069542Y-54294113D02*
X127164780Y-54246494D01*
X127164780Y-54246494D02*
X127212400Y-54198875D01*
X127212400Y-54198875D02*
X127260019Y-54103637D01*
X127260019Y-54103637D02*
X127260019Y-53913161D01*
X127260019Y-53913161D02*
X127212400Y-53817923D01*
X127212400Y-53817923D02*
X127164780Y-53770304D01*
X127164780Y-53770304D02*
X127069542Y-53722685D01*
X127069542Y-53722685D02*
X126831447Y-53722685D01*
X126831447Y-53722685D02*
X126736209Y-53770304D01*
X126736209Y-53770304D02*
X126688590Y-53817923D01*
X126688590Y-53817923D02*
X126640971Y-53913161D01*
X126640971Y-53913161D02*
X126640971Y-54103637D01*
X126640971Y-54103637D02*
X126688590Y-54198875D01*
X126688590Y-54198875D02*
X126736209Y-54246494D01*
X126736209Y-54246494D02*
X126831447Y-54294113D01*
X140482142Y-84579819D02*
X140148809Y-84103628D01*
X139910714Y-84579819D02*
X139910714Y-83579819D01*
X139910714Y-83579819D02*
X140291666Y-83579819D01*
X140291666Y-83579819D02*
X140386904Y-83627438D01*
X140386904Y-83627438D02*
X140434523Y-83675057D01*
X140434523Y-83675057D02*
X140482142Y-83770295D01*
X140482142Y-83770295D02*
X140482142Y-83913152D01*
X140482142Y-83913152D02*
X140434523Y-84008390D01*
X140434523Y-84008390D02*
X140386904Y-84056009D01*
X140386904Y-84056009D02*
X140291666Y-84103628D01*
X140291666Y-84103628D02*
X139910714Y-84103628D01*
X141434523Y-84579819D02*
X140863095Y-84579819D01*
X141148809Y-84579819D02*
X141148809Y-83579819D01*
X141148809Y-83579819D02*
X141053571Y-83722676D01*
X141053571Y-83722676D02*
X140958333Y-83817914D01*
X140958333Y-83817914D02*
X140863095Y-83865533D01*
X141815476Y-83675057D02*
X141863095Y-83627438D01*
X141863095Y-83627438D02*
X141958333Y-83579819D01*
X141958333Y-83579819D02*
X142196428Y-83579819D01*
X142196428Y-83579819D02*
X142291666Y-83627438D01*
X142291666Y-83627438D02*
X142339285Y-83675057D01*
X142339285Y-83675057D02*
X142386904Y-83770295D01*
X142386904Y-83770295D02*
X142386904Y-83865533D01*
X142386904Y-83865533D02*
X142339285Y-84008390D01*
X142339285Y-84008390D02*
X141767857Y-84579819D01*
X141767857Y-84579819D02*
X142386904Y-84579819D01*
X147604819Y-58211904D02*
X148414342Y-58211904D01*
X148414342Y-58211904D02*
X148509580Y-58164285D01*
X148509580Y-58164285D02*
X148557200Y-58116666D01*
X148557200Y-58116666D02*
X148604819Y-58021428D01*
X148604819Y-58021428D02*
X148604819Y-57830952D01*
X148604819Y-57830952D02*
X148557200Y-57735714D01*
X148557200Y-57735714D02*
X148509580Y-57688095D01*
X148509580Y-57688095D02*
X148414342Y-57640476D01*
X148414342Y-57640476D02*
X147604819Y-57640476D01*
X147700057Y-57211904D02*
X147652438Y-57164285D01*
X147652438Y-57164285D02*
X147604819Y-57069047D01*
X147604819Y-57069047D02*
X147604819Y-56830952D01*
X147604819Y-56830952D02*
X147652438Y-56735714D01*
X147652438Y-56735714D02*
X147700057Y-56688095D01*
X147700057Y-56688095D02*
X147795295Y-56640476D01*
X147795295Y-56640476D02*
X147890533Y-56640476D01*
X147890533Y-56640476D02*
X148033390Y-56688095D01*
X148033390Y-56688095D02*
X148604819Y-57259523D01*
X148604819Y-57259523D02*
X148604819Y-56640476D01*
X133369580Y-84240357D02*
X133417200Y-84287976D01*
X133417200Y-84287976D02*
X133464819Y-84430833D01*
X133464819Y-84430833D02*
X133464819Y-84526071D01*
X133464819Y-84526071D02*
X133417200Y-84668928D01*
X133417200Y-84668928D02*
X133321961Y-84764166D01*
X133321961Y-84764166D02*
X133226723Y-84811785D01*
X133226723Y-84811785D02*
X133036247Y-84859404D01*
X133036247Y-84859404D02*
X132893390Y-84859404D01*
X132893390Y-84859404D02*
X132702914Y-84811785D01*
X132702914Y-84811785D02*
X132607676Y-84764166D01*
X132607676Y-84764166D02*
X132512438Y-84668928D01*
X132512438Y-84668928D02*
X132464819Y-84526071D01*
X132464819Y-84526071D02*
X132464819Y-84430833D01*
X132464819Y-84430833D02*
X132512438Y-84287976D01*
X132512438Y-84287976D02*
X132560057Y-84240357D01*
X132560057Y-83859404D02*
X132512438Y-83811785D01*
X132512438Y-83811785D02*
X132464819Y-83716547D01*
X132464819Y-83716547D02*
X132464819Y-83478452D01*
X132464819Y-83478452D02*
X132512438Y-83383214D01*
X132512438Y-83383214D02*
X132560057Y-83335595D01*
X132560057Y-83335595D02*
X132655295Y-83287976D01*
X132655295Y-83287976D02*
X132750533Y-83287976D01*
X132750533Y-83287976D02*
X132893390Y-83335595D01*
X132893390Y-83335595D02*
X133464819Y-83907023D01*
X133464819Y-83907023D02*
X133464819Y-83287976D01*
X133464819Y-82335595D02*
X133464819Y-82907023D01*
X133464819Y-82621309D02*
X132464819Y-82621309D01*
X132464819Y-82621309D02*
X132607676Y-82716547D01*
X132607676Y-82716547D02*
X132702914Y-82811785D01*
X132702914Y-82811785D02*
X132750533Y-82907023D01*
X133159580Y-85885357D02*
X133207200Y-85932976D01*
X133207200Y-85932976D02*
X133254819Y-86075833D01*
X133254819Y-86075833D02*
X133254819Y-86171071D01*
X133254819Y-86171071D02*
X133207200Y-86313928D01*
X133207200Y-86313928D02*
X133111961Y-86409166D01*
X133111961Y-86409166D02*
X133016723Y-86456785D01*
X133016723Y-86456785D02*
X132826247Y-86504404D01*
X132826247Y-86504404D02*
X132683390Y-86504404D01*
X132683390Y-86504404D02*
X132492914Y-86456785D01*
X132492914Y-86456785D02*
X132397676Y-86409166D01*
X132397676Y-86409166D02*
X132302438Y-86313928D01*
X132302438Y-86313928D02*
X132254819Y-86171071D01*
X132254819Y-86171071D02*
X132254819Y-86075833D01*
X132254819Y-86075833D02*
X132302438Y-85932976D01*
X132302438Y-85932976D02*
X132350057Y-85885357D01*
X133254819Y-84932976D02*
X133254819Y-85504404D01*
X133254819Y-85218690D02*
X132254819Y-85218690D01*
X132254819Y-85218690D02*
X132397676Y-85313928D01*
X132397676Y-85313928D02*
X132492914Y-85409166D01*
X132492914Y-85409166D02*
X132540533Y-85504404D01*
X133254819Y-83980595D02*
X133254819Y-84552023D01*
X133254819Y-84266309D02*
X132254819Y-84266309D01*
X132254819Y-84266309D02*
X132397676Y-84361547D01*
X132397676Y-84361547D02*
X132492914Y-84456785D01*
X132492914Y-84456785D02*
X132540533Y-84552023D01*
X132857142Y-86567080D02*
X132809523Y-86614700D01*
X132809523Y-86614700D02*
X132666666Y-86662319D01*
X132666666Y-86662319D02*
X132571428Y-86662319D01*
X132571428Y-86662319D02*
X132428571Y-86614700D01*
X132428571Y-86614700D02*
X132333333Y-86519461D01*
X132333333Y-86519461D02*
X132285714Y-86424223D01*
X132285714Y-86424223D02*
X132238095Y-86233747D01*
X132238095Y-86233747D02*
X132238095Y-86090890D01*
X132238095Y-86090890D02*
X132285714Y-85900414D01*
X132285714Y-85900414D02*
X132333333Y-85805176D01*
X132333333Y-85805176D02*
X132428571Y-85709938D01*
X132428571Y-85709938D02*
X132571428Y-85662319D01*
X132571428Y-85662319D02*
X132666666Y-85662319D01*
X132666666Y-85662319D02*
X132809523Y-85709938D01*
X132809523Y-85709938D02*
X132857142Y-85757557D01*
X133809523Y-86662319D02*
X133238095Y-86662319D01*
X133523809Y-86662319D02*
X133523809Y-85662319D01*
X133523809Y-85662319D02*
X133428571Y-85805176D01*
X133428571Y-85805176D02*
X133333333Y-85900414D01*
X133333333Y-85900414D02*
X133238095Y-85948033D01*
X134142857Y-85662319D02*
X134761904Y-85662319D01*
X134761904Y-85662319D02*
X134428571Y-86043271D01*
X134428571Y-86043271D02*
X134571428Y-86043271D01*
X134571428Y-86043271D02*
X134666666Y-86090890D01*
X134666666Y-86090890D02*
X134714285Y-86138509D01*
X134714285Y-86138509D02*
X134761904Y-86233747D01*
X134761904Y-86233747D02*
X134761904Y-86471842D01*
X134761904Y-86471842D02*
X134714285Y-86567080D01*
X134714285Y-86567080D02*
X134666666Y-86614700D01*
X134666666Y-86614700D02*
X134571428Y-86662319D01*
X134571428Y-86662319D02*
X134285714Y-86662319D01*
X134285714Y-86662319D02*
X134190476Y-86614700D01*
X134190476Y-86614700D02*
X134142857Y-86567080D01*
X144225578Y-86790357D02*
X144273198Y-86837976D01*
X144273198Y-86837976D02*
X144320817Y-86980833D01*
X144320817Y-86980833D02*
X144320817Y-87076071D01*
X144320817Y-87076071D02*
X144273198Y-87218928D01*
X144273198Y-87218928D02*
X144177959Y-87314166D01*
X144177959Y-87314166D02*
X144082721Y-87361785D01*
X144082721Y-87361785D02*
X143892245Y-87409404D01*
X143892245Y-87409404D02*
X143749388Y-87409404D01*
X143749388Y-87409404D02*
X143558912Y-87361785D01*
X143558912Y-87361785D02*
X143463674Y-87314166D01*
X143463674Y-87314166D02*
X143368436Y-87218928D01*
X143368436Y-87218928D02*
X143320817Y-87076071D01*
X143320817Y-87076071D02*
X143320817Y-86980833D01*
X143320817Y-86980833D02*
X143368436Y-86837976D01*
X143368436Y-86837976D02*
X143416055Y-86790357D01*
X144320817Y-85837976D02*
X144320817Y-86409404D01*
X144320817Y-86123690D02*
X143320817Y-86123690D01*
X143320817Y-86123690D02*
X143463674Y-86218928D01*
X143463674Y-86218928D02*
X143558912Y-86314166D01*
X143558912Y-86314166D02*
X143606531Y-86409404D01*
X143320817Y-84933214D02*
X143320817Y-85409404D01*
X143320817Y-85409404D02*
X143797007Y-85457023D01*
X143797007Y-85457023D02*
X143749388Y-85409404D01*
X143749388Y-85409404D02*
X143701769Y-85314166D01*
X143701769Y-85314166D02*
X143701769Y-85076071D01*
X143701769Y-85076071D02*
X143749388Y-84980833D01*
X143749388Y-84980833D02*
X143797007Y-84933214D01*
X143797007Y-84933214D02*
X143892245Y-84885595D01*
X143892245Y-84885595D02*
X144130340Y-84885595D01*
X144130340Y-84885595D02*
X144225578Y-84933214D01*
X144225578Y-84933214D02*
X144273198Y-84980833D01*
X144273198Y-84980833D02*
X144320817Y-85076071D01*
X144320817Y-85076071D02*
X144320817Y-85314166D01*
X144320817Y-85314166D02*
X144273198Y-85409404D01*
X144273198Y-85409404D02*
X144225578Y-85457023D01*
X148749580Y-79282857D02*
X148797200Y-79330476D01*
X148797200Y-79330476D02*
X148844819Y-79473333D01*
X148844819Y-79473333D02*
X148844819Y-79568571D01*
X148844819Y-79568571D02*
X148797200Y-79711428D01*
X148797200Y-79711428D02*
X148701961Y-79806666D01*
X148701961Y-79806666D02*
X148606723Y-79854285D01*
X148606723Y-79854285D02*
X148416247Y-79901904D01*
X148416247Y-79901904D02*
X148273390Y-79901904D01*
X148273390Y-79901904D02*
X148082914Y-79854285D01*
X148082914Y-79854285D02*
X147987676Y-79806666D01*
X147987676Y-79806666D02*
X147892438Y-79711428D01*
X147892438Y-79711428D02*
X147844819Y-79568571D01*
X147844819Y-79568571D02*
X147844819Y-79473333D01*
X147844819Y-79473333D02*
X147892438Y-79330476D01*
X147892438Y-79330476D02*
X147940057Y-79282857D01*
X147844819Y-78949523D02*
X147844819Y-78330476D01*
X147844819Y-78330476D02*
X148225771Y-78663809D01*
X148225771Y-78663809D02*
X148225771Y-78520952D01*
X148225771Y-78520952D02*
X148273390Y-78425714D01*
X148273390Y-78425714D02*
X148321009Y-78378095D01*
X148321009Y-78378095D02*
X148416247Y-78330476D01*
X148416247Y-78330476D02*
X148654342Y-78330476D01*
X148654342Y-78330476D02*
X148749580Y-78378095D01*
X148749580Y-78378095D02*
X148797200Y-78425714D01*
X148797200Y-78425714D02*
X148844819Y-78520952D01*
X148844819Y-78520952D02*
X148844819Y-78806666D01*
X148844819Y-78806666D02*
X148797200Y-78901904D01*
X148797200Y-78901904D02*
X148749580Y-78949523D01*
X148178152Y-77473333D02*
X148844819Y-77473333D01*
X147797200Y-77711428D02*
X148511485Y-77949523D01*
X148511485Y-77949523D02*
X148511485Y-77330476D01*
X131804819Y-80190357D02*
X131328628Y-80523690D01*
X131804819Y-80761785D02*
X130804819Y-80761785D01*
X130804819Y-80761785D02*
X130804819Y-80380833D01*
X130804819Y-80380833D02*
X130852438Y-80285595D01*
X130852438Y-80285595D02*
X130900057Y-80237976D01*
X130900057Y-80237976D02*
X130995295Y-80190357D01*
X130995295Y-80190357D02*
X131138152Y-80190357D01*
X131138152Y-80190357D02*
X131233390Y-80237976D01*
X131233390Y-80237976D02*
X131281009Y-80285595D01*
X131281009Y-80285595D02*
X131328628Y-80380833D01*
X131328628Y-80380833D02*
X131328628Y-80761785D01*
X131804819Y-79237976D02*
X131804819Y-79809404D01*
X131804819Y-79523690D02*
X130804819Y-79523690D01*
X130804819Y-79523690D02*
X130947676Y-79618928D01*
X130947676Y-79618928D02*
X131042914Y-79714166D01*
X131042914Y-79714166D02*
X131090533Y-79809404D01*
X131138152Y-78380833D02*
X131804819Y-78380833D01*
X130757200Y-78618928D02*
X131471485Y-78857023D01*
X131471485Y-78857023D02*
X131471485Y-78237976D01*
D12*
X116176667Y-66704318D02*
X116176667Y-67611461D01*
X116176667Y-67611461D02*
X116116190Y-67792889D01*
X116116190Y-67792889D02*
X115995238Y-67913842D01*
X115995238Y-67913842D02*
X115813809Y-67974318D01*
X115813809Y-67974318D02*
X115692857Y-67974318D01*
X116720952Y-66825270D02*
X116781428Y-66764794D01*
X116781428Y-66764794D02*
X116902381Y-66704318D01*
X116902381Y-66704318D02*
X117204762Y-66704318D01*
X117204762Y-66704318D02*
X117325714Y-66764794D01*
X117325714Y-66764794D02*
X117386190Y-66825270D01*
X117386190Y-66825270D02*
X117446667Y-66946222D01*
X117446667Y-66946222D02*
X117446667Y-67067175D01*
X117446667Y-67067175D02*
X117386190Y-67248603D01*
X117386190Y-67248603D02*
X116660476Y-67974318D01*
X116660476Y-67974318D02*
X117446667Y-67974318D01*
D13*
X134740000Y-72637836D02*
X134740000Y-72422164D01*
X135460000Y-72637836D02*
X135460000Y-72422164D01*
X152344800Y-56912164D02*
X152344800Y-57127836D01*
X151624800Y-56912164D02*
X151624800Y-57127836D01*
X124030000Y-86230000D02*
X122700000Y-86230000D01*
X124030000Y-84900000D02*
X124030000Y-86230000D01*
X124030000Y-83630000D02*
X124030000Y-70870000D01*
X124030000Y-83630000D02*
X121370000Y-83630000D01*
X124030000Y-70870000D02*
X121370000Y-70870000D01*
X121370000Y-83630000D02*
X121370000Y-70870000D01*
D11*
X158153114Y-80951000D02*
X158153114Y-82729000D01*
X156375114Y-80951000D02*
X156375114Y-82729000D01*
X158326166Y-80697000D02*
G75*
G03*
X158326166Y-80697000I-46052J0D01*
G01*
D14*
X141099998Y-84397500D02*
X141099998Y-84397500D01*
X141099998Y-84197500D02*
X141099998Y-84197500D01*
X141099998Y-84197500D02*
G75*
G03*
X141099998Y-84397500I0J-100000D01*
G01*
X141099998Y-84397500D02*
G75*
G03*
X141099998Y-84197500I0J100000D01*
G01*
D13*
X144598162Y-80686500D02*
X144813834Y-80686500D01*
X144598162Y-81406500D02*
X144813834Y-81406500D01*
X131242164Y-69540000D02*
X131457836Y-69540000D01*
X131242164Y-70260000D02*
X131457836Y-70260000D01*
D14*
X119625000Y-51225000D02*
X119625000Y-51225000D01*
X119625000Y-51425000D02*
X119625000Y-51425000D01*
D11*
X120300000Y-52525000D02*
X122950000Y-52525000D01*
X120325000Y-50925000D02*
X122925000Y-50925000D01*
D14*
X119625000Y-51425000D02*
G75*
G03*
X119625000Y-51225000I0J100000D01*
G01*
X119625000Y-51225000D02*
G75*
G03*
X119625000Y-51425000I0J-100000D01*
G01*
D13*
X153310000Y-56912164D02*
X153310000Y-57127836D01*
X152590000Y-56912164D02*
X152590000Y-57127836D01*
X148790000Y-81207779D02*
X148790000Y-80882221D01*
X149810000Y-81207779D02*
X149810000Y-80882221D01*
X149530000Y-86692164D02*
X149530000Y-86907836D01*
X148810000Y-86692164D02*
X148810000Y-86907836D01*
X153679114Y-79382836D02*
X153679114Y-79167164D01*
X154399114Y-79382836D02*
X154399114Y-79167164D01*
D14*
X154725000Y-86150000D02*
X153325000Y-86150000D01*
D13*
X138160000Y-73172164D02*
X138160000Y-73387836D01*
X137440000Y-73172164D02*
X137440000Y-73387836D01*
D15*
X152725000Y-87875000D02*
G75*
G03*
X152725000Y-87875000I-125000J0D01*
G01*
X139629998Y-84097500D02*
G75*
G03*
X139629998Y-84097500I-125000J0D01*
G01*
D14*
X119785000Y-59350000D02*
X119785000Y-58550000D01*
D11*
X119150000Y-55350000D02*
X119150000Y-55350000D01*
X119150000Y-55250000D02*
X119150000Y-55250000D01*
D14*
X113435000Y-59350000D02*
X113435000Y-58550000D01*
D11*
X119150000Y-55250000D02*
G75*
G03*
X119150000Y-55350000I0J-50000D01*
G01*
X119150000Y-55350000D02*
G75*
G03*
X119150000Y-55250000I0J50000D01*
G01*
D13*
X148460000Y-82224664D02*
X148460000Y-82440336D01*
X147740000Y-82224664D02*
X147740000Y-82440336D01*
D14*
X113850000Y-51225000D02*
X113850000Y-51225000D01*
X113850000Y-51425000D02*
X113850000Y-51425000D01*
D11*
X114525000Y-52525000D02*
X117175000Y-52525000D01*
X114550000Y-50925000D02*
X117150000Y-50925000D01*
D14*
X113850000Y-51425000D02*
G75*
G03*
X113850000Y-51225000I0J100000D01*
G01*
X113850000Y-51225000D02*
G75*
G03*
X113850000Y-51425000I0J-100000D01*
G01*
D13*
X131490000Y-80005336D02*
X131490000Y-79789664D01*
X132210000Y-80005336D02*
X132210000Y-79789664D01*
X128607836Y-86060000D02*
X128392164Y-86060000D01*
X128607836Y-85340000D02*
X128392164Y-85340000D01*
X130448164Y-48916000D02*
X130663836Y-48916000D01*
X130448164Y-49636000D02*
X130663836Y-49636000D01*
D11*
X131423800Y-83597500D02*
X131423800Y-83597500D01*
X131323800Y-83597500D02*
X131323800Y-83597500D01*
X131323800Y-83597500D02*
G75*
G03*
X131423800Y-83597500I50000J0D01*
G01*
X131423800Y-83597500D02*
G75*
G03*
X131323800Y-83597500I-50000J0D01*
G01*
D14*
X127105000Y-77897500D02*
X127600000Y-77402500D01*
X127105000Y-79392500D02*
X127105000Y-77897500D01*
X127600000Y-77402500D02*
X129095000Y-77402500D01*
X129095000Y-77402500D02*
X129095000Y-79392500D01*
X129095000Y-79392500D02*
X127105000Y-79392500D01*
X127205000Y-77402500D02*
G75*
G03*
X127205000Y-77402500I-100000J0D01*
G01*
D13*
X156035000Y-85867164D02*
X156035000Y-86082836D01*
X155315000Y-85867164D02*
X155315000Y-86082836D01*
D11*
X152630000Y-82257000D02*
X155170000Y-82257000D01*
X155170000Y-82257000D02*
X155170000Y-84543000D01*
X155170000Y-84543000D02*
X152630000Y-84543000D01*
X152630000Y-84543000D02*
X152630000Y-82257000D01*
X152928228Y-84797000D02*
G75*
G03*
X152928228Y-84797000I-44228J0D01*
G01*
D13*
X133607836Y-86357500D02*
X133392164Y-86357500D01*
X133607836Y-85637500D02*
X133392164Y-85637500D01*
X149807836Y-84160000D02*
X149592164Y-84160000D01*
X149807836Y-83440000D02*
X149592164Y-83440000D01*
D11*
X134187000Y-73400000D02*
X134187000Y-73400000D01*
X134087000Y-73400000D02*
X134087000Y-73400000D01*
X134087000Y-73400000D02*
G75*
G03*
X134187000Y-73400000I50000J0D01*
G01*
X134187000Y-73400000D02*
G75*
G03*
X134087000Y-73400000I-50000J0D01*
G01*
D13*
X138862834Y-84857500D02*
X138647162Y-84857500D01*
X138862834Y-84137500D02*
X138647162Y-84137500D01*
X156207836Y-54310000D02*
X155992164Y-54310000D01*
X156207836Y-53590000D02*
X155992164Y-53590000D01*
X128784236Y-49636000D02*
X128568564Y-49636000D01*
X128784236Y-48916000D02*
X128568564Y-48916000D01*
D14*
X154025000Y-58350000D02*
X154025000Y-57450000D01*
X154150000Y-57100000D02*
X154150000Y-56000000D01*
X157050000Y-57100000D02*
X154150000Y-57100000D01*
X154150000Y-56000000D02*
X157050000Y-56000000D01*
X157050000Y-56000000D02*
X157050000Y-57100000D01*
D15*
X146099998Y-84097500D02*
G75*
G03*
X146099998Y-84097500I-125000J0D01*
G01*
D13*
X149812836Y-85110000D02*
X149597164Y-85110000D01*
X149812836Y-84390000D02*
X149597164Y-84390000D01*
D14*
X145008198Y-81997500D02*
X145008198Y-83397500D01*
D13*
X127351200Y-51240636D02*
X127351200Y-51024964D01*
X128071200Y-51240636D02*
X128071200Y-51024964D01*
X148265000Y-78747836D02*
X148265000Y-78532164D01*
X148985000Y-78747836D02*
X148985000Y-78532164D01*
D14*
X152850587Y-64764000D02*
X153358587Y-64764000D01*
X153358587Y-62851000D02*
X153358587Y-64764000D01*
X153358587Y-62851000D02*
X156406587Y-62851000D01*
X153358587Y-69066000D02*
X152850587Y-69066000D01*
X153358587Y-69066000D02*
X153358587Y-70979000D01*
X153358587Y-70979000D02*
X156406587Y-70979000D01*
X156406587Y-62851000D02*
X156406587Y-64764000D01*
X156406587Y-69066000D02*
X156406587Y-70979000D01*
D11*
X156682587Y-69365000D02*
X156682587Y-69365000D01*
X156782587Y-69365000D02*
X156782587Y-69365000D01*
X156782587Y-69365000D02*
G75*
G03*
X156682587Y-69365000I-50000J0D01*
G01*
X156682587Y-69365000D02*
G75*
G03*
X156782587Y-69365000I50000J0D01*
G01*
D13*
X154140000Y-81482836D02*
X154140000Y-81267164D01*
X154860000Y-81482836D02*
X154860000Y-81267164D01*
X151782836Y-82255000D02*
X151567164Y-82255000D01*
X151782836Y-81535000D02*
X151567164Y-81535000D01*
X139562834Y-81257500D02*
X139347162Y-81257500D01*
X139562834Y-80537500D02*
X139347162Y-80537500D01*
X131490000Y-81855336D02*
X131490000Y-81639664D01*
X132210000Y-81855336D02*
X132210000Y-81639664D01*
D14*
X135150000Y-82247500D02*
X132850000Y-82247500D01*
X153471114Y-80938052D02*
X153013114Y-81396052D01*
X153471114Y-77680052D02*
X153471114Y-80938052D01*
X153012114Y-81397052D02*
X150154114Y-81397052D01*
X150154114Y-81397052D02*
X150154114Y-77680052D01*
X150154114Y-77680052D02*
X153471114Y-77680052D01*
X153570114Y-81397052D02*
G75*
G03*
X153570114Y-81397052I-100000J0D01*
G01*
D13*
X137210000Y-72470000D02*
X137210000Y-72790000D01*
X136890000Y-72470000D02*
X137210000Y-72470000D01*
X136450000Y-73990000D02*
X137210000Y-73230000D01*
X136010000Y-73990000D02*
X135690000Y-73990000D01*
X136010000Y-73990000D02*
X135690000Y-73990000D01*
X136010000Y-73990000D02*
X135690000Y-73990000D01*
X136010000Y-72470000D02*
X135690000Y-72470000D01*
X135690000Y-73990000D02*
X135690000Y-73670000D01*
X135690000Y-73990000D02*
X135690000Y-73670000D01*
X135690000Y-73990000D02*
X135690000Y-73670000D01*
X135690000Y-72470000D02*
X135690000Y-72790000D01*
D14*
X137190000Y-73870000D02*
G75*
G03*
X137190000Y-73870000I-100000J0D01*
G01*
D13*
X133337836Y-70260000D02*
X133122164Y-70260000D01*
X133337836Y-69540000D02*
X133122164Y-69540000D01*
X127605200Y-54616236D02*
X127605200Y-54400564D01*
X128325200Y-54616236D02*
X128325200Y-54400564D01*
X149150000Y-55800000D02*
X151750000Y-55800000D01*
X149150000Y-58300000D02*
X149150000Y-55800000D01*
X149950000Y-59100000D02*
X149150000Y-58300000D01*
X151750000Y-55800000D02*
X151750000Y-59100000D01*
X151750000Y-59100000D02*
X149950000Y-59100000D01*
X132210000Y-83489664D02*
X132210000Y-83705336D01*
X131490000Y-83489664D02*
X131490000Y-83705336D01*
X133607836Y-85407500D02*
X133392164Y-85407500D01*
X133607836Y-84687500D02*
X133392164Y-84687500D01*
X142489998Y-86255336D02*
X142489998Y-86039664D01*
X143209998Y-86255336D02*
X143209998Y-86039664D01*
X149190000Y-78747836D02*
X149190000Y-78532164D01*
X149910000Y-78747836D02*
X149910000Y-78532164D01*
D14*
X119775000Y-67800000D02*
X119775000Y-67000000D01*
D11*
X119140000Y-63800000D02*
X119140000Y-63800000D01*
X119140000Y-63700000D02*
X119140000Y-63700000D01*
D14*
X113425000Y-67800000D02*
X113425000Y-67000000D01*
D11*
X119140000Y-63700000D02*
G75*
G03*
X119140000Y-63800000I0J-50000D01*
G01*
X119140000Y-63800000D02*
G75*
G03*
X119140000Y-63700000I0J50000D01*
G01*
%LPC*%
D16*
X135100000Y-73010000D03*
X135100000Y-72050000D03*
D17*
X151984800Y-56540000D03*
X151984800Y-57500000D03*
D18*
X122700000Y-84900000D03*
D19*
X122700000Y-82360000D03*
X122700000Y-79820000D03*
X122700000Y-77280000D03*
X122700000Y-74740000D03*
X122700000Y-72200000D03*
D20*
X157264114Y-80465000D03*
X157264114Y-83215000D03*
D21*
X155400000Y-82845000D03*
X155400000Y-83485000D03*
D22*
X141099998Y-83472500D03*
D23*
X141599998Y-83472500D03*
X142099998Y-83472500D03*
D22*
X142599998Y-83472500D03*
D24*
X142749998Y-82797500D03*
D22*
X142599998Y-82122500D03*
D23*
X142099998Y-82122500D03*
X141599998Y-82122500D03*
D22*
X141099998Y-82122500D03*
D24*
X140949998Y-82797500D03*
D25*
X144225998Y-81046500D03*
X145185998Y-81046500D03*
X130870000Y-69900000D03*
X131830000Y-69900000D03*
D26*
X130632600Y-48412400D03*
X129992600Y-48412400D03*
X129325000Y-79847500D03*
X128685000Y-79847500D03*
D27*
X135000000Y-74520000D03*
X135000000Y-73880000D03*
D28*
X128559600Y-48412400D03*
X129199600Y-48412400D03*
D29*
X120300000Y-51350000D03*
X120300000Y-52100000D03*
X122950000Y-51350000D03*
X122950000Y-52100000D03*
D17*
X152950000Y-56540000D03*
X152950000Y-57500000D03*
D30*
X149300000Y-81832500D03*
X149300000Y-80257500D03*
D17*
X149170000Y-86320000D03*
X149170000Y-87280000D03*
D27*
X126847600Y-51300400D03*
X126847600Y-50660400D03*
D21*
X127101600Y-55661600D03*
X127101600Y-56301600D03*
D16*
X154039114Y-79755000D03*
X154039114Y-78795000D03*
D31*
X154025000Y-85350000D03*
X154025000Y-86950000D03*
D17*
X137800000Y-72800000D03*
X137800000Y-73760000D03*
D27*
X152400000Y-83960000D03*
X152400000Y-83320000D03*
D32*
X152300000Y-87200000D03*
X152300000Y-86550000D03*
X152300000Y-85900000D03*
X150200000Y-85900000D03*
X150200000Y-86550000D03*
X150200000Y-87200000D03*
D33*
X151250000Y-86550000D03*
D26*
X142320000Y-80100000D03*
X141680000Y-80100000D03*
D34*
X139154998Y-83447500D03*
X139154998Y-82947500D03*
X139154998Y-82447500D03*
X139154998Y-81947500D03*
X137054998Y-81947500D03*
X137054998Y-82447500D03*
X137054998Y-82947500D03*
X137054998Y-83447500D03*
D35*
X138104998Y-82697500D03*
D21*
X150400000Y-81800000D03*
X150400000Y-82440000D03*
D28*
X156060000Y-73000000D03*
X156700000Y-73000000D03*
D36*
X119150000Y-57000000D03*
X119150000Y-60900000D03*
X117880000Y-57000000D03*
X117880000Y-60900000D03*
X116610000Y-57000000D03*
X116610000Y-60900000D03*
X115340000Y-57000000D03*
X115340000Y-60900000D03*
X114070000Y-57000000D03*
X114070000Y-60900000D03*
D17*
X148100000Y-81852500D03*
X148100000Y-82812500D03*
D27*
X127101600Y-54879200D03*
X127101600Y-54239200D03*
D29*
X114525000Y-51350000D03*
X114525000Y-52100000D03*
X117175000Y-51350000D03*
X117175000Y-52100000D03*
D16*
X131850000Y-80377500D03*
X131850000Y-79417500D03*
D37*
X128980000Y-85700000D03*
X128020000Y-85700000D03*
D25*
X130076000Y-49276000D03*
X131036000Y-49276000D03*
D38*
X130423800Y-83597500D03*
X130423800Y-83147500D03*
X130423800Y-82697500D03*
X130423800Y-82247500D03*
X130423800Y-81797500D03*
D39*
X130673800Y-81247500D03*
D40*
X130423800Y-80897500D03*
D41*
X130023800Y-80997500D03*
X129623800Y-80997500D03*
X129223800Y-80997500D03*
X128823800Y-80997500D03*
D40*
X128423800Y-80897500D03*
D39*
X128173800Y-81247500D03*
D38*
X128423800Y-81797500D03*
X128423800Y-82247500D03*
X128423800Y-82697500D03*
X128423800Y-83147500D03*
X128423800Y-83597500D03*
D40*
X128423800Y-84497500D03*
D39*
X128173800Y-84147500D03*
D41*
X128823800Y-84397500D03*
X129223800Y-84397500D03*
X129623800Y-84397500D03*
X130023800Y-84397500D03*
D39*
X130673800Y-84147500D03*
D40*
X130423800Y-84497500D03*
D42*
X127600000Y-77897500D03*
X128100000Y-77897500D03*
X128600000Y-77897500D03*
X127600000Y-78397500D03*
X128100000Y-78397500D03*
X128600000Y-78397500D03*
X127600000Y-78897500D03*
X128100000Y-78897500D03*
X128600000Y-78897500D03*
D17*
X155675000Y-85495000D03*
X155675000Y-86455000D03*
D27*
X136094998Y-83117500D03*
X136094998Y-82477500D03*
D21*
X140104998Y-81777500D03*
X140104998Y-82417500D03*
D43*
X153200000Y-83950000D03*
X154600000Y-83950000D03*
X154600000Y-82850000D03*
X153200000Y-82850000D03*
D37*
X133980000Y-85997500D03*
X133020000Y-85997500D03*
X150180000Y-83800000D03*
X149220000Y-83800000D03*
D28*
X156060000Y-72300000D03*
X156700000Y-72300000D03*
D44*
X133250000Y-73400000D03*
X133250000Y-72900000D03*
X133250000Y-72400000D03*
X133250000Y-71900000D03*
D45*
X132587000Y-71737000D03*
X132087000Y-71737000D03*
X131587000Y-71737000D03*
D44*
X130924000Y-71900000D03*
X130924000Y-72400000D03*
X130924000Y-72900000D03*
X130924000Y-73400000D03*
D45*
X131587000Y-73563000D03*
X132087000Y-73563000D03*
X132587000Y-73563000D03*
D37*
X139234998Y-84497500D03*
X138274998Y-84497500D03*
D26*
X136620000Y-71980000D03*
X135980000Y-71980000D03*
D37*
X156580000Y-53950000D03*
X155620000Y-53950000D03*
X129156400Y-49276000D03*
X128196400Y-49276000D03*
D21*
X140104998Y-83177500D03*
X140104998Y-83817500D03*
D26*
X127920000Y-79847500D03*
X127280000Y-79847500D03*
D46*
X154650000Y-57900000D03*
X155600000Y-57900000D03*
X156550000Y-57900000D03*
X156550000Y-55200000D03*
X155600000Y-55200000D03*
X154650000Y-55200000D03*
D47*
X145299998Y-84397500D03*
X144649998Y-84397500D03*
X143999998Y-84397500D03*
X143999998Y-86497500D03*
X144649998Y-86497500D03*
X145299998Y-86497500D03*
D48*
X144649998Y-85447500D03*
D27*
X131000000Y-79867500D03*
X131000000Y-79227500D03*
D28*
X136814998Y-84347500D03*
X137454998Y-84347500D03*
D37*
X150185000Y-84750000D03*
X149225000Y-84750000D03*
D49*
X144208198Y-82697500D03*
X145808198Y-82697500D03*
D16*
X127711200Y-51612800D03*
X127711200Y-50652800D03*
D26*
X149670000Y-82895000D03*
X149030000Y-82895000D03*
D16*
X148625000Y-79120000D03*
X148625000Y-78160000D03*
D50*
X155932587Y-69365000D03*
D51*
X153982587Y-64030000D03*
D52*
X153997587Y-63440000D03*
X155767587Y-63440000D03*
D51*
X155782587Y-64030000D03*
D50*
X155932587Y-69015000D03*
X155932587Y-68665000D03*
X155932587Y-68315000D03*
X155932587Y-67965000D03*
X155932587Y-67615000D03*
X155932587Y-67265000D03*
X155932587Y-66915000D03*
X155932587Y-66565000D03*
X155932587Y-66215000D03*
X155932587Y-65865000D03*
X155932587Y-65515000D03*
X155932587Y-65165000D03*
X155932587Y-64815000D03*
X155932587Y-64465000D03*
X153832587Y-64465000D03*
X153832587Y-64815000D03*
X153832587Y-65165000D03*
X153832587Y-65515000D03*
X153832587Y-65865000D03*
X153832587Y-66215000D03*
X153832587Y-66565000D03*
X153832587Y-66915000D03*
X153832587Y-67265000D03*
X153832587Y-67615000D03*
X153832587Y-67965000D03*
X153832587Y-68315000D03*
X153832587Y-68665000D03*
X153832587Y-69015000D03*
X153832587Y-69365000D03*
D51*
X153982587Y-69800000D03*
D52*
X153997587Y-70390000D03*
X155767587Y-70390000D03*
D51*
X155782587Y-69800000D03*
D53*
X155924114Y-79700000D03*
X154954114Y-79700000D03*
D16*
X154500000Y-81855000D03*
X154500000Y-80895000D03*
D37*
X152155000Y-81895000D03*
X151195000Y-81895000D03*
X139934998Y-80897500D03*
X138974998Y-80897500D03*
D16*
X131850000Y-82227500D03*
X131850000Y-81267500D03*
D54*
X134000000Y-81097500D03*
X134000000Y-83397500D03*
D55*
X153012114Y-80939052D03*
X152612114Y-80939052D03*
X152212114Y-80939052D03*
X151812114Y-80939052D03*
X151412114Y-80939052D03*
X151012114Y-80939052D03*
X150612114Y-80939052D03*
X152612114Y-80539052D03*
X152212114Y-80539052D03*
X151812114Y-80539052D03*
X151412114Y-80539052D03*
X151012114Y-80539052D03*
X150612114Y-80539052D03*
X152612114Y-80139052D03*
X152212114Y-80139052D03*
X151812114Y-80139052D03*
X151412114Y-80139052D03*
X151012114Y-80139052D03*
X150612114Y-80139052D03*
X153012114Y-79739052D03*
X152612114Y-79739052D03*
X152212114Y-79739052D03*
X151012114Y-79739052D03*
X150612114Y-79739052D03*
X153012114Y-79339052D03*
X152612114Y-79339052D03*
X152212114Y-79339052D03*
X151012114Y-79339052D03*
X150612114Y-79339052D03*
X153012114Y-78939052D03*
X152612114Y-78939052D03*
X152212114Y-78939052D03*
X151812114Y-78939052D03*
X151412114Y-78939052D03*
X151012114Y-78939052D03*
X150612114Y-78939052D03*
X153012114Y-78539052D03*
X152612114Y-78539052D03*
X152212114Y-78539052D03*
X151812114Y-78539052D03*
X151412114Y-78539052D03*
X151012114Y-78539052D03*
X150612114Y-78539052D03*
X153012114Y-78139052D03*
X152612114Y-78139052D03*
X152212114Y-78139052D03*
X151812114Y-78139052D03*
X151412114Y-78139052D03*
X151012114Y-78139052D03*
X150612114Y-78139052D03*
D56*
X136850000Y-73630000D03*
X136450000Y-73630000D03*
X136050000Y-73630000D03*
X136850000Y-73230000D03*
X136450000Y-73230000D03*
X136050000Y-73230000D03*
X136850000Y-72830000D03*
X136450000Y-72830000D03*
X136050000Y-72830000D03*
D37*
X133710000Y-69900000D03*
X132750000Y-69900000D03*
D16*
X127965200Y-54988400D03*
X127965200Y-54028400D03*
D28*
X140805000Y-85175000D03*
X141445000Y-85175000D03*
D57*
X149800000Y-58325000D03*
X150450000Y-58325000D03*
X151100000Y-58325000D03*
X151100000Y-56575000D03*
X150450000Y-56575000D03*
X149800000Y-56575000D03*
D17*
X131850000Y-83117500D03*
X131850000Y-84077500D03*
D21*
X131750000Y-84922500D03*
X131750000Y-85562500D03*
D37*
X133980000Y-85047500D03*
X133020000Y-85047500D03*
D16*
X142849998Y-86627500D03*
X142849998Y-85667500D03*
X149550000Y-79120000D03*
X149550000Y-78160000D03*
D21*
X130300000Y-79227500D03*
X130300000Y-79867500D03*
D36*
X119140000Y-65450000D03*
X119140000Y-69350000D03*
X117870000Y-65450000D03*
X117870000Y-69350000D03*
X116600000Y-65450000D03*
X116600000Y-69350000D03*
X115330000Y-65450000D03*
X115330000Y-69350000D03*
X114060000Y-65450000D03*
X114060000Y-69350000D03*
D58*
X111055000Y-65395000D03*
X111055000Y-58795000D03*
D59*
X146749998Y-80467500D03*
X136509998Y-80467500D03*
X136509998Y-85627500D03*
X146749998Y-85627500D03*
%LPD*%
M02*
