%TF.GenerationSoftware,KiCad,Pcbnew,7.0.1*%
%TF.CreationDate,2024-02-26T17:05:23+01:00*%
%TF.ProjectId,armband,61726d62-616e-4642-9e6b-696361645f70,rev?*%
%TF.SameCoordinates,Original*%
%TF.FileFunction,Paste,Top*%
%TF.FilePolarity,Positive*%
%FSLAX46Y46*%
G04 Gerber Fmt 4.6, Leading zero omitted, Abs format (unit mm)*
G04 Created by KiCad (PCBNEW 7.0.1) date 2024-02-26 17:05:23*
%MOMM*%
%LPD*%
G01*
G04 APERTURE LIST*
G04 Aperture macros list*
%AMRoundRect*
0 Rectangle with rounded corners*
0 $1 Rounding radius*
0 $2 $3 $4 $5 $6 $7 $8 $9 X,Y pos of 4 corners*
0 Add a 4 corners polygon primitive as box body*
4,1,4,$2,$3,$4,$5,$6,$7,$8,$9,$2,$3,0*
0 Add four circle primitives for the rounded corners*
1,1,$1+$1,$2,$3*
1,1,$1+$1,$4,$5*
1,1,$1+$1,$6,$7*
1,1,$1+$1,$8,$9*
0 Add four rect primitives between the rounded corners*
20,1,$1+$1,$2,$3,$4,$5,0*
20,1,$1+$1,$4,$5,$6,$7,0*
20,1,$1+$1,$6,$7,$8,$9,0*
20,1,$1+$1,$8,$9,$2,$3,0*%
G04 Aperture macros list end*
%ADD10RoundRect,0.140000X0.170000X-0.140000X0.170000X0.140000X-0.170000X0.140000X-0.170000X-0.140000X0*%
%ADD11RoundRect,0.140000X-0.170000X0.140000X-0.170000X-0.140000X0.170000X-0.140000X0.170000X0.140000X0*%
%ADD12RoundRect,0.079500X-0.100500X0.079500X-0.100500X-0.079500X0.100500X-0.079500X0.100500X0.079500X0*%
%ADD13R,1.700000X0.400000*%
%ADD14R,0.250000X0.550000*%
%ADD15R,0.200000X0.550000*%
%ADD16R,0.600000X0.300000*%
%ADD17RoundRect,0.140000X-0.140000X-0.170000X0.140000X-0.170000X0.140000X0.170000X-0.140000X0.170000X0*%
%ADD18RoundRect,0.079500X0.079500X0.100500X-0.079500X0.100500X-0.079500X-0.100500X0.079500X-0.100500X0*%
%ADD19RoundRect,0.079500X0.100500X-0.079500X0.100500X0.079500X-0.100500X0.079500X-0.100500X-0.079500X0*%
%ADD20RoundRect,0.079500X-0.079500X-0.100500X0.079500X-0.100500X0.079500X0.100500X-0.079500X0.100500X0*%
%ADD21R,0.550000X0.550000*%
%ADD22RoundRect,0.218750X0.256250X-0.218750X0.256250X0.218750X-0.256250X0.218750X-0.256250X-0.218750X0*%
%ADD23R,1.800000X0.800000*%
%ADD24R,0.600000X0.350000*%
%ADD25R,1.100000X1.700000*%
%ADD26R,0.700000X0.300000*%
%ADD27R,1.000000X1.700000*%
%ADD28R,0.760000X2.400000*%
%ADD29RoundRect,0.140000X0.140000X0.170000X-0.140000X0.170000X-0.140000X-0.170000X0.140000X-0.170000X0*%
%ADD30R,1.200000X0.200000*%
%ADD31R,0.700000X0.200000*%
%ADD32R,0.200000X0.500000*%
%ADD33R,0.200000X0.700000*%
%ADD34C,0.290000*%
%ADD35R,0.950000X0.950000*%
%ADD36R,0.900000X0.800000*%
%ADD37R,0.475000X0.250000*%
%ADD38R,0.250000X0.475000*%
%ADD39R,0.550000X0.900000*%
%ADD40R,0.350000X0.600000*%
%ADD41R,1.700000X1.100000*%
%ADD42R,0.800000X1.800000*%
%ADD43R,0.500000X0.200000*%
%ADD44R,0.380000X0.280000*%
%ADD45R,0.730000X0.600000*%
%ADD46RoundRect,0.147500X0.147500X0.172500X-0.147500X0.172500X-0.147500X-0.172500X0.147500X-0.172500X0*%
%ADD47R,2.800000X1.850000*%
%ADD48C,0.250000*%
%ADD49C,0.269000*%
%ADD50R,0.300000X0.550000*%
G04 APERTURE END LIST*
D10*
%TO.C,C41*%
X135100000Y-73010000D03*
X135100000Y-72050000D03*
%TD*%
D11*
%TO.C,C28*%
X151984800Y-56540000D03*
X151984800Y-57500000D03*
%TD*%
D12*
%TO.C,R15*%
X116100000Y-72205000D03*
X116100000Y-72895000D03*
%TD*%
D13*
%TO.C,AE1*%
X157264114Y-80465000D03*
X157264114Y-83215000D03*
%TD*%
D12*
%TO.C,C37*%
X155400000Y-82820000D03*
X155400000Y-83510000D03*
%TD*%
D14*
%TO.C,IC4*%
X141099998Y-83472500D03*
D15*
X141599998Y-83472500D03*
X142099998Y-83472500D03*
D14*
X142599998Y-83472500D03*
D16*
X142749998Y-82797500D03*
D14*
X142599998Y-82122500D03*
D15*
X142099998Y-82122500D03*
X141599998Y-82122500D03*
D14*
X141099998Y-82122500D03*
D16*
X140949998Y-82797500D03*
%TD*%
D17*
%TO.C,C16*%
X144225998Y-81046500D03*
X145185998Y-81046500D03*
%TD*%
%TO.C,C7*%
X130870000Y-69900000D03*
X131830000Y-69900000D03*
%TD*%
D18*
%TO.C,R1*%
X130657600Y-48412400D03*
X129967600Y-48412400D03*
%TD*%
%TO.C,C23*%
X129350000Y-79847500D03*
X128660000Y-79847500D03*
%TD*%
D19*
%TO.C,R6*%
X135000000Y-74545000D03*
X135000000Y-73855000D03*
%TD*%
D20*
%TO.C,R2*%
X128534600Y-48412400D03*
X129224600Y-48412400D03*
%TD*%
D21*
%TO.C,SW2*%
X120300000Y-51350000D03*
X120300000Y-52100000D03*
X122950000Y-51350000D03*
X122950000Y-52100000D03*
%TD*%
D11*
%TO.C,C29*%
X152950000Y-56540000D03*
X152950000Y-57500000D03*
%TD*%
D22*
%TO.C,L4*%
X149300000Y-81832500D03*
X149300000Y-80257500D03*
%TD*%
D11*
%TO.C,C19*%
X149170000Y-86320000D03*
X149170000Y-87280000D03*
%TD*%
D19*
%TO.C,C3*%
X126847600Y-51325400D03*
X126847600Y-50635400D03*
%TD*%
D12*
%TO.C,R5*%
X127101600Y-55636600D03*
X127101600Y-56326600D03*
%TD*%
D10*
%TO.C,C39*%
X154039114Y-79755000D03*
X154039114Y-78795000D03*
%TD*%
D23*
%TO.C,L3*%
X154025000Y-85350000D03*
X154025000Y-86950000D03*
%TD*%
D11*
%TO.C,C40*%
X137800000Y-72800000D03*
X137800000Y-73760000D03*
%TD*%
D19*
%TO.C,C38*%
X152400000Y-83985000D03*
X152400000Y-83295000D03*
%TD*%
D24*
%TO.C,IC7*%
X152300000Y-87200000D03*
X152300000Y-86550000D03*
X152300000Y-85900000D03*
X150200000Y-85900000D03*
X150200000Y-86550000D03*
X150200000Y-87200000D03*
D25*
X151250000Y-86550000D03*
%TD*%
D18*
%TO.C,R11*%
X142345000Y-80100000D03*
X141655000Y-80100000D03*
%TD*%
D26*
%TO.C,IC3*%
X139154998Y-83447500D03*
X139154998Y-82947500D03*
X139154998Y-82447500D03*
X139154998Y-81947500D03*
X137054998Y-81947500D03*
X137054998Y-82447500D03*
X137054998Y-82947500D03*
X137054998Y-83447500D03*
D27*
X138104998Y-82697500D03*
%TD*%
D12*
%TO.C,C32*%
X150400000Y-81775000D03*
X150400000Y-82465000D03*
%TD*%
D20*
%TO.C,R3*%
X156035000Y-73000000D03*
X156725000Y-73000000D03*
%TD*%
D28*
%TO.C,J6*%
X119150000Y-57000000D03*
X119150000Y-60900000D03*
X117880000Y-57000000D03*
X117880000Y-60900000D03*
X116610000Y-57000000D03*
X116610000Y-60900000D03*
X115340000Y-57000000D03*
X115340000Y-60900000D03*
X114070000Y-57000000D03*
X114070000Y-60900000D03*
%TD*%
D11*
%TO.C,C33*%
X148100000Y-81852500D03*
X148100000Y-82812500D03*
%TD*%
D19*
%TO.C,C5*%
X127101600Y-54904200D03*
X127101600Y-54214200D03*
%TD*%
D21*
%TO.C,SW1*%
X114525000Y-51350000D03*
X114525000Y-52100000D03*
X117175000Y-51350000D03*
X117175000Y-52100000D03*
%TD*%
D10*
%TO.C,C17*%
X131850000Y-80377500D03*
X131850000Y-79417500D03*
%TD*%
D29*
%TO.C,C18*%
X128980000Y-85700000D03*
X128020000Y-85700000D03*
%TD*%
D17*
%TO.C,C1*%
X130076000Y-49276000D03*
X131036000Y-49276000D03*
%TD*%
D30*
%TO.C,IC5*%
X130423800Y-83597500D03*
X130423800Y-83147500D03*
X130423800Y-82697500D03*
X130423800Y-82247500D03*
X130423800Y-81797500D03*
D31*
X130673800Y-81247500D03*
D32*
X130423800Y-80897500D03*
D33*
X130023800Y-80997500D03*
X129623800Y-80997500D03*
X129223800Y-80997500D03*
X128823800Y-80997500D03*
D32*
X128423800Y-80897500D03*
D31*
X128173800Y-81247500D03*
D30*
X128423800Y-81797500D03*
X128423800Y-82247500D03*
X128423800Y-82697500D03*
X128423800Y-83147500D03*
X128423800Y-83597500D03*
D32*
X128423800Y-84497500D03*
D31*
X128173800Y-84147500D03*
D33*
X128823800Y-84397500D03*
X129223800Y-84397500D03*
X129623800Y-84397500D03*
X130023800Y-84397500D03*
D31*
X130673800Y-84147500D03*
D32*
X130423800Y-84497500D03*
%TD*%
D34*
%TO.C,IC8*%
X127600000Y-77897500D03*
X128100000Y-77897500D03*
X128600000Y-77897500D03*
X127600000Y-78397500D03*
X128100000Y-78397500D03*
X128600000Y-78397500D03*
X127600000Y-78897500D03*
X128100000Y-78897500D03*
X128600000Y-78897500D03*
%TD*%
D11*
%TO.C,C20*%
X155675000Y-85495000D03*
X155675000Y-86455000D03*
%TD*%
D19*
%TO.C,R8*%
X136094998Y-83142500D03*
X136094998Y-82452500D03*
%TD*%
D35*
%TO.C,D2*%
X112400000Y-72500000D03*
X113900000Y-72500000D03*
%TD*%
D12*
%TO.C,R7*%
X140104998Y-81752500D03*
X140104998Y-82442500D03*
%TD*%
D36*
%TO.C,Y2*%
X153200000Y-83950000D03*
X154600000Y-83950000D03*
X154600000Y-82850000D03*
X153200000Y-82850000D03*
%TD*%
D29*
%TO.C,C14*%
X133980000Y-85997500D03*
X133020000Y-85997500D03*
%TD*%
%TO.C,C26*%
X150180000Y-83800000D03*
X149220000Y-83800000D03*
%TD*%
D20*
%TO.C,R4*%
X156035000Y-72300000D03*
X156725000Y-72300000D03*
%TD*%
D37*
%TO.C,IC2*%
X133250000Y-73400000D03*
X133250000Y-72900000D03*
X133250000Y-72400000D03*
X133250000Y-71900000D03*
D38*
X132587000Y-71737000D03*
X132087000Y-71737000D03*
X131587000Y-71737000D03*
D37*
X130924000Y-71900000D03*
X130924000Y-72400000D03*
X130924000Y-72900000D03*
X130924000Y-73400000D03*
D38*
X131587000Y-73563000D03*
X132087000Y-73563000D03*
X132587000Y-73563000D03*
%TD*%
D29*
%TO.C,C10*%
X139234998Y-84497500D03*
X138274998Y-84497500D03*
%TD*%
D18*
%TO.C,C42*%
X136645000Y-71980000D03*
X135955000Y-71980000D03*
%TD*%
D29*
%TO.C,C30*%
X156580000Y-53950000D03*
X155620000Y-53950000D03*
%TD*%
%TO.C,C2*%
X129156400Y-49276000D03*
X128196400Y-49276000D03*
%TD*%
D12*
%TO.C,R9*%
X140104998Y-83152500D03*
X140104998Y-83842500D03*
%TD*%
D18*
%TO.C,C22*%
X127945000Y-79847500D03*
X127255000Y-79847500D03*
%TD*%
D39*
%TO.C,IC10*%
X154650000Y-57900000D03*
X155600000Y-57900000D03*
X156550000Y-57900000D03*
X156550000Y-55200000D03*
X155600000Y-55200000D03*
X154650000Y-55200000D03*
%TD*%
D40*
%TO.C,IC6*%
X145299998Y-84397500D03*
X144649998Y-84397500D03*
X143999998Y-84397500D03*
X143999998Y-86497500D03*
X144649998Y-86497500D03*
X145299998Y-86497500D03*
D41*
X144649998Y-85447500D03*
%TD*%
D19*
%TO.C,R13*%
X131000000Y-79892500D03*
X131000000Y-79202500D03*
%TD*%
D20*
%TO.C,R10*%
X136789998Y-84347500D03*
X137479998Y-84347500D03*
%TD*%
D29*
%TO.C,C27*%
X150185000Y-84750000D03*
X149225000Y-84750000D03*
%TD*%
D42*
%TO.C,L2*%
X144208198Y-82697500D03*
X145808198Y-82697500D03*
%TD*%
D10*
%TO.C,C4*%
X127711200Y-51612800D03*
X127711200Y-50652800D03*
%TD*%
D18*
%TO.C,L5*%
X149695000Y-82895000D03*
X149005000Y-82895000D03*
%TD*%
D10*
%TO.C,C31*%
X148625000Y-79120000D03*
X148625000Y-78160000D03*
%TD*%
D43*
%TO.C,J3*%
X155932587Y-69365000D03*
D44*
X153982587Y-64030000D03*
D45*
X153997587Y-63440000D03*
X155767587Y-63440000D03*
D44*
X155782587Y-64030000D03*
D43*
X155932587Y-69015000D03*
X155932587Y-68665000D03*
X155932587Y-68315000D03*
X155932587Y-67965000D03*
X155932587Y-67615000D03*
X155932587Y-67265000D03*
X155932587Y-66915000D03*
X155932587Y-66565000D03*
X155932587Y-66215000D03*
X155932587Y-65865000D03*
X155932587Y-65515000D03*
X155932587Y-65165000D03*
X155932587Y-64815000D03*
X155932587Y-64465000D03*
X153832587Y-64465000D03*
X153832587Y-64815000D03*
X153832587Y-65165000D03*
X153832587Y-65515000D03*
X153832587Y-65865000D03*
X153832587Y-66215000D03*
X153832587Y-66565000D03*
X153832587Y-66915000D03*
X153832587Y-67265000D03*
X153832587Y-67615000D03*
X153832587Y-67965000D03*
X153832587Y-68315000D03*
X153832587Y-68665000D03*
X153832587Y-69015000D03*
X153832587Y-69365000D03*
D44*
X153982587Y-69800000D03*
D45*
X153997587Y-70390000D03*
X155767587Y-70390000D03*
D44*
X155782587Y-69800000D03*
%TD*%
D19*
%TO.C,R16*%
X115300000Y-72895000D03*
X115300000Y-72205000D03*
%TD*%
D46*
%TO.C,L6*%
X155924114Y-79700000D03*
X154954114Y-79700000D03*
%TD*%
D10*
%TO.C,C36*%
X154500000Y-81855000D03*
X154500000Y-80895000D03*
%TD*%
D29*
%TO.C,C35*%
X152155000Y-81895000D03*
X151195000Y-81895000D03*
%TD*%
%TO.C,C9*%
X139934998Y-80897500D03*
X138974998Y-80897500D03*
%TD*%
D10*
%TO.C,C12*%
X131850000Y-82227500D03*
X131850000Y-81267500D03*
%TD*%
D47*
%TO.C,L1*%
X134000000Y-81097500D03*
X134000000Y-83397500D03*
%TD*%
D48*
%TO.C,IC9*%
X153012114Y-80939052D03*
X152612114Y-80939052D03*
X152212114Y-80939052D03*
X151812114Y-80939052D03*
X151412114Y-80939052D03*
X151012114Y-80939052D03*
X150612114Y-80939052D03*
X152612114Y-80539052D03*
X152212114Y-80539052D03*
X151812114Y-80539052D03*
X151412114Y-80539052D03*
X151012114Y-80539052D03*
X150612114Y-80539052D03*
X152612114Y-80139052D03*
X152212114Y-80139052D03*
X151812114Y-80139052D03*
X151412114Y-80139052D03*
X151012114Y-80139052D03*
X150612114Y-80139052D03*
X153012114Y-79739052D03*
X152612114Y-79739052D03*
X152212114Y-79739052D03*
X151012114Y-79739052D03*
X150612114Y-79739052D03*
X153012114Y-79339052D03*
X152612114Y-79339052D03*
X152212114Y-79339052D03*
X151012114Y-79339052D03*
X150612114Y-79339052D03*
X153012114Y-78939052D03*
X152612114Y-78939052D03*
X152212114Y-78939052D03*
X151812114Y-78939052D03*
X151412114Y-78939052D03*
X151012114Y-78939052D03*
X150612114Y-78939052D03*
X153012114Y-78539052D03*
X152612114Y-78539052D03*
X152212114Y-78539052D03*
X151812114Y-78539052D03*
X151412114Y-78539052D03*
X151012114Y-78539052D03*
X150612114Y-78539052D03*
X153012114Y-78139052D03*
X152612114Y-78139052D03*
X152212114Y-78139052D03*
X151812114Y-78139052D03*
X151412114Y-78139052D03*
X151012114Y-78139052D03*
X150612114Y-78139052D03*
%TD*%
D49*
%TO.C,U3*%
X136850000Y-73630000D03*
X136450000Y-73630000D03*
X136050000Y-73630000D03*
X136850000Y-73230000D03*
X136450000Y-73230000D03*
X136050000Y-73230000D03*
X136850000Y-72830000D03*
X136450000Y-72830000D03*
X136050000Y-72830000D03*
%TD*%
D29*
%TO.C,C8*%
X133710000Y-69900000D03*
X132750000Y-69900000D03*
%TD*%
D10*
%TO.C,C6*%
X127965200Y-54988400D03*
X127965200Y-54028400D03*
%TD*%
D20*
%TO.C,R12*%
X140780000Y-85175000D03*
X141470000Y-85175000D03*
%TD*%
D50*
%TO.C,U2*%
X149800000Y-58325000D03*
X150450000Y-58325000D03*
X151100000Y-58325000D03*
X151100000Y-56575000D03*
X150450000Y-56575000D03*
X149800000Y-56575000D03*
%TD*%
D11*
%TO.C,C21*%
X131850000Y-83117500D03*
X131850000Y-84077500D03*
%TD*%
D12*
%TO.C,C11*%
X131750000Y-84897500D03*
X131750000Y-85587500D03*
%TD*%
D29*
%TO.C,C13*%
X133980000Y-85047500D03*
X133020000Y-85047500D03*
%TD*%
D10*
%TO.C,C15*%
X142849998Y-86627500D03*
X142849998Y-85667500D03*
%TD*%
%TO.C,C34*%
X149550000Y-79120000D03*
X149550000Y-78160000D03*
%TD*%
D12*
%TO.C,R14*%
X130300000Y-79202500D03*
X130300000Y-79892500D03*
%TD*%
D28*
%TO.C,J2*%
X119140000Y-65450000D03*
X119140000Y-69350000D03*
X117870000Y-65450000D03*
X117870000Y-69350000D03*
X116600000Y-65450000D03*
X116600000Y-69350000D03*
X115330000Y-65450000D03*
X115330000Y-69350000D03*
X114060000Y-65450000D03*
X114060000Y-69350000D03*
%TD*%
D35*
%TO.C,D1*%
X118880000Y-72560000D03*
X117380000Y-72560000D03*
%TD*%
M02*
