G04 #@! TF.GenerationSoftware,KiCad,Pcbnew,7.0.9*
G04 #@! TF.CreationDate,2024-02-17T17:22:41+01:00*
G04 #@! TF.ProjectId,armband,61726d62-616e-4642-9e6b-696361645f70,rev?*
G04 #@! TF.SameCoordinates,Original*
G04 #@! TF.FileFunction,Paste,Top*
G04 #@! TF.FilePolarity,Positive*
%FSLAX46Y46*%
G04 Gerber Fmt 4.6, Leading zero omitted, Abs format (unit mm)*
G04 Created by KiCad (PCBNEW 7.0.9) date 2024-02-17 17:22:41*
%MOMM*%
%LPD*%
G01*
G04 APERTURE LIST*
G04 Aperture macros list*
%AMRoundRect*
0 Rectangle with rounded corners*
0 $1 Rounding radius*
0 $2 $3 $4 $5 $6 $7 $8 $9 X,Y pos of 4 corners*
0 Add a 4 corners polygon primitive as box body*
4,1,4,$2,$3,$4,$5,$6,$7,$8,$9,$2,$3,0*
0 Add four circle primitives for the rounded corners*
1,1,$1+$1,$2,$3*
1,1,$1+$1,$4,$5*
1,1,$1+$1,$6,$7*
1,1,$1+$1,$8,$9*
0 Add four rect primitives between the rounded corners*
20,1,$1+$1,$2,$3,$4,$5,0*
20,1,$1+$1,$4,$5,$6,$7,0*
20,1,$1+$1,$6,$7,$8,$9,0*
20,1,$1+$1,$8,$9,$2,$3,0*%
G04 Aperture macros list end*
%ADD10RoundRect,0.140000X0.170000X-0.140000X0.170000X0.140000X-0.170000X0.140000X-0.170000X-0.140000X0*%
%ADD11RoundRect,0.140000X-0.170000X0.140000X-0.170000X-0.140000X0.170000X-0.140000X0.170000X0.140000X0*%
%ADD12R,1.700000X0.400000*%
%ADD13RoundRect,0.079500X-0.100500X0.079500X-0.100500X-0.079500X0.100500X-0.079500X0.100500X0.079500X0*%
%ADD14R,0.250000X0.550000*%
%ADD15R,0.200000X0.550000*%
%ADD16R,0.600000X0.300000*%
%ADD17RoundRect,0.140000X-0.140000X-0.170000X0.140000X-0.170000X0.140000X0.170000X-0.140000X0.170000X0*%
%ADD18RoundRect,0.079500X0.079500X0.100500X-0.079500X0.100500X-0.079500X-0.100500X0.079500X-0.100500X0*%
%ADD19RoundRect,0.079500X0.100500X-0.079500X0.100500X0.079500X-0.100500X0.079500X-0.100500X-0.079500X0*%
%ADD20RoundRect,0.079500X-0.079500X-0.100500X0.079500X-0.100500X0.079500X0.100500X-0.079500X0.100500X0*%
%ADD21R,0.550000X0.550000*%
%ADD22RoundRect,0.218750X0.256250X-0.218750X0.256250X0.218750X-0.256250X0.218750X-0.256250X-0.218750X0*%
%ADD23R,1.800000X0.800000*%
%ADD24R,0.600000X0.350000*%
%ADD25R,1.100000X1.700000*%
%ADD26R,0.700000X0.300000*%
%ADD27R,1.000000X1.700000*%
%ADD28R,0.760000X2.400000*%
%ADD29RoundRect,0.140000X0.140000X0.170000X-0.140000X0.170000X-0.140000X-0.170000X0.140000X-0.170000X0*%
%ADD30R,1.200000X0.200000*%
%ADD31R,0.700000X0.200000*%
%ADD32R,0.200000X0.500000*%
%ADD33R,0.200000X0.700000*%
%ADD34C,0.290000*%
%ADD35R,0.900000X0.800000*%
%ADD36R,0.475000X0.250000*%
%ADD37R,0.250000X0.475000*%
%ADD38R,0.550000X0.900000*%
%ADD39R,0.350000X0.600000*%
%ADD40R,1.700000X1.100000*%
%ADD41R,0.800000X1.800000*%
%ADD42R,0.500000X0.200000*%
%ADD43R,0.380000X0.280000*%
%ADD44R,0.730000X0.600000*%
%ADD45RoundRect,0.147500X0.147500X0.172500X-0.147500X0.172500X-0.147500X-0.172500X0.147500X-0.172500X0*%
%ADD46R,2.800000X1.850000*%
%ADD47C,0.250000*%
%ADD48C,0.269000*%
%ADD49R,0.300000X0.550000*%
G04 APERTURE END LIST*
D10*
X135100000Y-73010000D03*
X135100000Y-72050000D03*
D11*
X151984800Y-56540000D03*
X151984800Y-57500000D03*
D12*
X157264114Y-80465000D03*
X157264114Y-83215000D03*
D13*
X155400000Y-82820000D03*
X155400000Y-83510000D03*
D14*
X141099998Y-83472500D03*
D15*
X141599998Y-83472500D03*
X142099998Y-83472500D03*
D14*
X142599998Y-83472500D03*
D16*
X142749998Y-82797500D03*
D14*
X142599998Y-82122500D03*
D15*
X142099998Y-82122500D03*
X141599998Y-82122500D03*
D14*
X141099998Y-82122500D03*
D16*
X140949998Y-82797500D03*
D17*
X144225998Y-81046500D03*
X145185998Y-81046500D03*
X130870000Y-69900000D03*
X131830000Y-69900000D03*
D18*
X130657600Y-48412400D03*
X129967600Y-48412400D03*
X129350000Y-79847500D03*
X128660000Y-79847500D03*
D19*
X135000000Y-74545000D03*
X135000000Y-73855000D03*
D20*
X128534600Y-48412400D03*
X129224600Y-48412400D03*
D21*
X120300000Y-51350000D03*
X120300000Y-52100000D03*
X122950000Y-51350000D03*
X122950000Y-52100000D03*
D11*
X152950000Y-56540000D03*
X152950000Y-57500000D03*
D22*
X149300000Y-81832500D03*
X149300000Y-80257500D03*
D11*
X149170000Y-86320000D03*
X149170000Y-87280000D03*
D19*
X126847600Y-51325400D03*
X126847600Y-50635400D03*
D13*
X127101600Y-55636600D03*
X127101600Y-56326600D03*
D10*
X154039114Y-79755000D03*
X154039114Y-78795000D03*
D23*
X154025000Y-85350000D03*
X154025000Y-86950000D03*
D11*
X137800000Y-72800000D03*
X137800000Y-73760000D03*
D19*
X152400000Y-83985000D03*
X152400000Y-83295000D03*
D24*
X152300000Y-87200000D03*
X152300000Y-86550000D03*
X152300000Y-85900000D03*
X150200000Y-85900000D03*
X150200000Y-86550000D03*
X150200000Y-87200000D03*
D25*
X151250000Y-86550000D03*
D18*
X142345000Y-80100000D03*
X141655000Y-80100000D03*
D26*
X139154998Y-83447500D03*
X139154998Y-82947500D03*
X139154998Y-82447500D03*
X139154998Y-81947500D03*
X137054998Y-81947500D03*
X137054998Y-82447500D03*
X137054998Y-82947500D03*
X137054998Y-83447500D03*
D27*
X138104998Y-82697500D03*
D13*
X150400000Y-81775000D03*
X150400000Y-82465000D03*
D20*
X156035000Y-73000000D03*
X156725000Y-73000000D03*
D28*
X119150000Y-57000000D03*
X119150000Y-60900000D03*
X117880000Y-57000000D03*
X117880000Y-60900000D03*
X116610000Y-57000000D03*
X116610000Y-60900000D03*
X115340000Y-57000000D03*
X115340000Y-60900000D03*
X114070000Y-57000000D03*
X114070000Y-60900000D03*
D11*
X148100000Y-81852500D03*
X148100000Y-82812500D03*
D19*
X127101600Y-54904200D03*
X127101600Y-54214200D03*
D21*
X114525000Y-51350000D03*
X114525000Y-52100000D03*
X117175000Y-51350000D03*
X117175000Y-52100000D03*
D10*
X131850000Y-80377500D03*
X131850000Y-79417500D03*
D29*
X128980000Y-85700000D03*
X128020000Y-85700000D03*
D17*
X130076000Y-49276000D03*
X131036000Y-49276000D03*
D30*
X130423800Y-83597500D03*
X130423800Y-83147500D03*
X130423800Y-82697500D03*
X130423800Y-82247500D03*
X130423800Y-81797500D03*
D31*
X130673800Y-81247500D03*
D32*
X130423800Y-80897500D03*
D33*
X130023800Y-80997500D03*
X129623800Y-80997500D03*
X129223800Y-80997500D03*
X128823800Y-80997500D03*
D32*
X128423800Y-80897500D03*
D31*
X128173800Y-81247500D03*
D30*
X128423800Y-81797500D03*
X128423800Y-82247500D03*
X128423800Y-82697500D03*
X128423800Y-83147500D03*
X128423800Y-83597500D03*
D32*
X128423800Y-84497500D03*
D31*
X128173800Y-84147500D03*
D33*
X128823800Y-84397500D03*
X129223800Y-84397500D03*
X129623800Y-84397500D03*
X130023800Y-84397500D03*
D31*
X130673800Y-84147500D03*
D32*
X130423800Y-84497500D03*
D34*
X127600000Y-77897500D03*
X128100000Y-77897500D03*
X128600000Y-77897500D03*
X127600000Y-78397500D03*
X128100000Y-78397500D03*
X128600000Y-78397500D03*
X127600000Y-78897500D03*
X128100000Y-78897500D03*
X128600000Y-78897500D03*
D11*
X155675000Y-85495000D03*
X155675000Y-86455000D03*
D19*
X136094998Y-83142500D03*
X136094998Y-82452500D03*
D13*
X140104998Y-81752500D03*
X140104998Y-82442500D03*
D35*
X153200000Y-83950000D03*
X154600000Y-83950000D03*
X154600000Y-82850000D03*
X153200000Y-82850000D03*
D29*
X133980000Y-85997500D03*
X133020000Y-85997500D03*
X150180000Y-83800000D03*
X149220000Y-83800000D03*
D20*
X156035000Y-72300000D03*
X156725000Y-72300000D03*
D36*
X133250000Y-73400000D03*
X133250000Y-72900000D03*
X133250000Y-72400000D03*
X133250000Y-71900000D03*
D37*
X132587000Y-71737000D03*
X132087000Y-71737000D03*
X131587000Y-71737000D03*
D36*
X130924000Y-71900000D03*
X130924000Y-72400000D03*
X130924000Y-72900000D03*
X130924000Y-73400000D03*
D37*
X131587000Y-73563000D03*
X132087000Y-73563000D03*
X132587000Y-73563000D03*
D29*
X139234998Y-84497500D03*
X138274998Y-84497500D03*
D18*
X136645000Y-71980000D03*
X135955000Y-71980000D03*
D29*
X156580000Y-53950000D03*
X155620000Y-53950000D03*
X129156400Y-49276000D03*
X128196400Y-49276000D03*
D13*
X140104998Y-83152500D03*
X140104998Y-83842500D03*
D18*
X127945000Y-79847500D03*
X127255000Y-79847500D03*
D38*
X154650000Y-57900000D03*
X155600000Y-57900000D03*
X156550000Y-57900000D03*
X156550000Y-55200000D03*
X155600000Y-55200000D03*
X154650000Y-55200000D03*
D39*
X145299998Y-84397500D03*
X144649998Y-84397500D03*
X143999998Y-84397500D03*
X143999998Y-86497500D03*
X144649998Y-86497500D03*
X145299998Y-86497500D03*
D40*
X144649998Y-85447500D03*
D19*
X131000000Y-79892500D03*
X131000000Y-79202500D03*
D20*
X136789998Y-84347500D03*
X137479998Y-84347500D03*
D29*
X150185000Y-84750000D03*
X149225000Y-84750000D03*
D41*
X144208198Y-82697500D03*
X145808198Y-82697500D03*
D10*
X127711200Y-51612800D03*
X127711200Y-50652800D03*
D18*
X149695000Y-82895000D03*
X149005000Y-82895000D03*
D10*
X148625000Y-79120000D03*
X148625000Y-78160000D03*
D42*
X155932587Y-69365000D03*
D43*
X153982587Y-64030000D03*
D44*
X153997587Y-63440000D03*
X155767587Y-63440000D03*
D43*
X155782587Y-64030000D03*
D42*
X155932587Y-69015000D03*
X155932587Y-68665000D03*
X155932587Y-68315000D03*
X155932587Y-67965000D03*
X155932587Y-67615000D03*
X155932587Y-67265000D03*
X155932587Y-66915000D03*
X155932587Y-66565000D03*
X155932587Y-66215000D03*
X155932587Y-65865000D03*
X155932587Y-65515000D03*
X155932587Y-65165000D03*
X155932587Y-64815000D03*
X155932587Y-64465000D03*
X153832587Y-64465000D03*
X153832587Y-64815000D03*
X153832587Y-65165000D03*
X153832587Y-65515000D03*
X153832587Y-65865000D03*
X153832587Y-66215000D03*
X153832587Y-66565000D03*
X153832587Y-66915000D03*
X153832587Y-67265000D03*
X153832587Y-67615000D03*
X153832587Y-67965000D03*
X153832587Y-68315000D03*
X153832587Y-68665000D03*
X153832587Y-69015000D03*
X153832587Y-69365000D03*
D43*
X153982587Y-69800000D03*
D44*
X153997587Y-70390000D03*
X155767587Y-70390000D03*
D43*
X155782587Y-69800000D03*
D45*
X155924114Y-79700000D03*
X154954114Y-79700000D03*
D10*
X154500000Y-81855000D03*
X154500000Y-80895000D03*
D29*
X152155000Y-81895000D03*
X151195000Y-81895000D03*
X139934998Y-80897500D03*
X138974998Y-80897500D03*
D10*
X131850000Y-82227500D03*
X131850000Y-81267500D03*
D46*
X134000000Y-81097500D03*
X134000000Y-83397500D03*
D47*
X153012114Y-80939052D03*
X152612114Y-80939052D03*
X152212114Y-80939052D03*
X151812114Y-80939052D03*
X151412114Y-80939052D03*
X151012114Y-80939052D03*
X150612114Y-80939052D03*
X152612114Y-80539052D03*
X152212114Y-80539052D03*
X151812114Y-80539052D03*
X151412114Y-80539052D03*
X151012114Y-80539052D03*
X150612114Y-80539052D03*
X152612114Y-80139052D03*
X152212114Y-80139052D03*
X151812114Y-80139052D03*
X151412114Y-80139052D03*
X151012114Y-80139052D03*
X150612114Y-80139052D03*
X153012114Y-79739052D03*
X152612114Y-79739052D03*
X152212114Y-79739052D03*
X151012114Y-79739052D03*
X150612114Y-79739052D03*
X153012114Y-79339052D03*
X152612114Y-79339052D03*
X152212114Y-79339052D03*
X151012114Y-79339052D03*
X150612114Y-79339052D03*
X153012114Y-78939052D03*
X152612114Y-78939052D03*
X152212114Y-78939052D03*
X151812114Y-78939052D03*
X151412114Y-78939052D03*
X151012114Y-78939052D03*
X150612114Y-78939052D03*
X153012114Y-78539052D03*
X152612114Y-78539052D03*
X152212114Y-78539052D03*
X151812114Y-78539052D03*
X151412114Y-78539052D03*
X151012114Y-78539052D03*
X150612114Y-78539052D03*
X153012114Y-78139052D03*
X152612114Y-78139052D03*
X152212114Y-78139052D03*
X151812114Y-78139052D03*
X151412114Y-78139052D03*
X151012114Y-78139052D03*
X150612114Y-78139052D03*
D48*
X136850000Y-73630000D03*
X136450000Y-73630000D03*
X136050000Y-73630000D03*
X136850000Y-73230000D03*
X136450000Y-73230000D03*
X136050000Y-73230000D03*
X136850000Y-72830000D03*
X136450000Y-72830000D03*
X136050000Y-72830000D03*
D29*
X133710000Y-69900000D03*
X132750000Y-69900000D03*
D10*
X127965200Y-54988400D03*
X127965200Y-54028400D03*
D20*
X140780000Y-85175000D03*
X141470000Y-85175000D03*
D49*
X149800000Y-58325000D03*
X150450000Y-58325000D03*
X151100000Y-58325000D03*
X151100000Y-56575000D03*
X150450000Y-56575000D03*
X149800000Y-56575000D03*
D11*
X131850000Y-83117500D03*
X131850000Y-84077500D03*
D13*
X131750000Y-84897500D03*
X131750000Y-85587500D03*
D29*
X133980000Y-85047500D03*
X133020000Y-85047500D03*
D10*
X142849998Y-86627500D03*
X142849998Y-85667500D03*
X149550000Y-79120000D03*
X149550000Y-78160000D03*
D13*
X130300000Y-79202500D03*
X130300000Y-79892500D03*
D28*
X119140000Y-65450000D03*
X119140000Y-69350000D03*
X117870000Y-65450000D03*
X117870000Y-69350000D03*
X116600000Y-65450000D03*
X116600000Y-69350000D03*
X115330000Y-65450000D03*
X115330000Y-69350000D03*
X114060000Y-65450000D03*
X114060000Y-69350000D03*
M02*
