M48
; DRILL file {KiCad 7.0.1} date Mon Feb 26 17:06:10 2024
; FORMAT={-:-/ absolute / metric / decimal}
; #@! TF.CreationDate,2024-02-26T17:06:10+01:00
; #@! TF.GenerationSoftware,Kicad,Pcbnew,7.0.1
; #@! TF.FileFunction,Plated,1,6,PTH
FMAT,2
METRIC
; #@! TA.AperFunction,Plated,PTH,ViaDrill
T1C0.200
; #@! TA.AperFunction,Plated,PTH,ComponentDrill
T2C0.750
; #@! TA.AperFunction,Plated,PTH,ComponentDrill
T3C1.000
%
G90
G05
T1
X111.71Y-72.51
X114.09Y-62.46
X114.525Y-51.7
X116.66Y-62.95
X117.15Y-50.8
X117.25Y-65.46
X119.3Y-63.06
X119.65Y-72.57
X119.71Y-65.44
X119.93Y-62.64
X120.3Y-51.75
X120.4Y-56.2
X121.67Y-83.49
X122.95Y-63.2
X123.148Y-65.372
X124.333Y-51.181
X124.333Y-51.943
X124.48Y-60.23
X124.7Y-62.88
X124.7Y-83.91
X126.746Y-51.562
X126.797Y-54.915
X126.9Y-78.9
X126.9Y-84.415
X126.91Y-82.3
X126.92Y-60.23
X126.93Y-78.22
X126.95Y-79.85
X127.0Y-63.66
X127.102Y-57.556
X127.2Y-65.4
X127.2Y-66.0
X127.2Y-66.6
X127.2Y-67.2
X127.2Y-67.8
X127.2Y-68.4
X127.2Y-69.0
X127.2Y-69.6
X127.2Y-70.2
X127.2Y-70.8
X127.23Y-81.29
X127.254Y-50.8
X127.35Y-83.147
X127.356Y-54.204
X127.381Y-76.327
X127.45Y-83.75
X127.8Y-85.28
X127.84Y-48.76
X127.965Y-54.988
X127.975Y-79.275
X128.1Y-77.647
X128.304Y-80.349
X128.4Y-48.4
X128.425Y-51.485
X128.61Y-75.73
X128.65Y-79.95
X128.824Y-80.45
X128.88Y-54.0
X128.9Y-75.0
X128.9Y-77.9
X128.925Y-72.0
X128.925Y-73.0
X128.93Y-52.984
X129.17Y-85.94
X129.3Y-48.2
X129.4Y-81.797
X129.45Y-82.947
X129.6Y-75.65
X129.74Y-86.41
X129.8Y-83.7
X129.838Y-78.688
X129.9Y-48.2
X130.032Y-79.867
X130.04Y-78.2
X130.067Y-79.227
X130.1Y-77.0
X130.625Y-75.675
X130.8Y-48.4
X130.86Y-77.07
X131.08Y-78.9
X131.09Y-86.41
X131.6Y-71.4
X131.6Y-75.675
X131.6Y-79.4
X131.71Y-77.1
X131.8Y-80.621
X131.83Y-69.6
X132.0Y-84.95
X132.6Y-75.675
X132.75Y-69.6
X132.8Y-78.3
X132.8Y-79.5
X133.02Y-84.7
X133.1Y-77.05
X133.4Y-78.3
X133.4Y-79.5
X133.6Y-75.675
X134.0Y-78.3
X134.0Y-79.5
X134.3Y-85.998
X134.6Y-75.675
X134.6Y-78.3
X134.6Y-79.5
X134.8Y-73.88
X134.87Y-68.99
X134.88Y-67.02
X135.0Y-69.75
X135.1Y-71.7
X135.2Y-78.3
X135.2Y-79.5
X135.7Y-76.8
X135.76Y-83.8
X135.8Y-78.3
X135.8Y-79.5
X135.8Y-83.15
X135.9Y-68.0
X136.455Y-81.897
X136.5Y-78.3
X136.5Y-79.5
X136.91Y-67.0
X136.91Y-69.0
X137.05Y-83.597
X137.1Y-78.3
X137.1Y-79.5
X137.4Y-84.6
X137.8Y-78.3
X137.8Y-79.5
X138.1Y-73.76
X138.1Y-83.4
X138.3Y-84.7
X138.4Y-78.3
X138.4Y-79.5
X138.65Y-80.697
X138.65Y-85.397
X139.319Y-77.089
X139.505Y-85.397
X139.655Y-80.897
X139.95Y-83.797
X140.23Y-86.05
X140.3Y-78.3
X140.3Y-79.5
X140.355Y-85.147
X140.5Y-80.3
X140.65Y-82.797
X140.89Y-78.3
X140.9Y-79.5
X140.972Y-84.335
X141.1Y-83.472
X141.205Y-80.947
X141.22Y-85.87
X141.48Y-84.48
X141.5Y-78.3
X141.5Y-79.5
X141.5Y-80.1
X141.6Y-82.498
X142.05Y-81.197
X142.075Y-84.797
X142.09Y-78.3
X142.1Y-79.5
X142.7Y-78.3
X142.7Y-79.5
X142.85Y-86.797
X142.875Y-80.15
X142.9Y-82.797
X143.29Y-78.3
X143.3Y-79.5
X143.45Y-81.597
X143.45Y-84.297
X143.45Y-85.998
X144.25Y-80.097
X144.575Y-75.6
X144.605Y-85.397
X145.186Y-81.046
X145.6Y-76.8
X146.625Y-76.525
X147.86Y-77.63
X147.975Y-80.825
X148.1Y-83.0
X148.13Y-80.04
X148.15Y-85.68
X148.2Y-87.1
X148.4Y-78.2
X148.4Y-83.7
X149.3Y-80.257
X149.4Y-79.1
X150.125Y-78.625
X150.225Y-79.25
X150.5Y-84.8
X150.6Y-76.5
X151.01Y-78.538
X151.012Y-80.539
X151.3Y-87.3
X151.413Y-78.538
X151.62Y-79.53
X151.625Y-75.625
X151.675Y-77.65
X152.312Y-77.625
X152.4Y-75.575
X152.4Y-82.7
X152.5Y-84.8
X152.6Y-86.6
X152.62Y-79.74
X153.2Y-86.1
X153.339Y-78.939
X153.43Y-78.12
X153.6Y-75.65
X153.85Y-62.925
X153.9Y-60.77
X154.0Y-80.4
X154.02Y-78.12
X154.2Y-78.8
X154.225Y-62.0
X154.55Y-80.4
X154.7Y-78.8
X154.75Y-62.7
X155.05Y-80.4
X155.2Y-78.8
X155.35Y-61.025
X155.4Y-60.0
X155.4Y-84.1
X155.55Y-80.4
X155.65Y-59.45
X155.7Y-78.8
X155.7Y-85.7
X155.7Y-86.6
X155.8Y-53.95
X155.85Y-70.925
X156.025Y-59.975
X156.05Y-80.4
X156.05Y-80.9
X156.05Y-81.38
X156.05Y-81.88
X156.05Y-82.38
X156.05Y-82.88
X156.05Y-83.38
X156.05Y-83.88
X156.05Y-84.38
X156.05Y-84.85
X156.06Y-72.65
X156.1Y-57.9
X156.2Y-78.8
X156.4Y-69.75
X156.56Y-64.61
X156.68Y-63.43
X156.682Y-68.254
X156.688Y-67.087
X156.7Y-56.6
X156.7Y-73.0
X156.7Y-78.8
X156.73Y-59.38
X156.75Y-53.95
X156.878Y-66.594
X156.95Y-69.1
X157.087Y-64.655
X157.122Y-65.462
X157.2Y-68.15
X157.2Y-78.8
X157.225Y-67.2
X157.398Y-66.685
X157.597Y-65.692
X157.62Y-64.69
X157.7Y-78.8
X158.2Y-78.8
T2
X136.51Y-80.468
X136.51Y-85.627
X146.75Y-80.468
X146.75Y-85.627
T3
X122.7Y-72.2
X122.7Y-74.74
X122.7Y-77.28
X122.7Y-79.82
X122.7Y-82.36
X122.7Y-84.9
T0
M30
