%TF.GenerationSoftware,KiCad,Pcbnew,7.0.1*%
%TF.CreationDate,2024-02-26T17:05:23+01:00*%
%TF.ProjectId,armband,61726d62-616e-4642-9e6b-696361645f70,rev?*%
%TF.SameCoordinates,Original*%
%TF.FileFunction,Legend,Bot*%
%TF.FilePolarity,Positive*%
%FSLAX46Y46*%
G04 Gerber Fmt 4.6, Leading zero omitted, Abs format (unit mm)*
G04 Created by KiCad (PCBNEW 7.0.1) date 2024-02-26 17:05:23*
%MOMM*%
%LPD*%
G01*
G04 APERTURE LIST*
G04 Aperture macros list*
%AMRoundRect*
0 Rectangle with rounded corners*
0 $1 Rounding radius*
0 $2 $3 $4 $5 $6 $7 $8 $9 X,Y pos of 4 corners*
0 Add a 4 corners polygon primitive as box body*
4,1,4,$2,$3,$4,$5,$6,$7,$8,$9,$2,$3,0*
0 Add four circle primitives for the rounded corners*
1,1,$1+$1,$2,$3*
1,1,$1+$1,$4,$5*
1,1,$1+$1,$6,$7*
1,1,$1+$1,$8,$9*
0 Add four rect primitives between the rounded corners*
20,1,$1+$1,$2,$3,$4,$5,0*
20,1,$1+$1,$4,$5,$6,$7,0*
20,1,$1+$1,$6,$7,$8,$9,0*
20,1,$1+$1,$8,$9,$2,$3,0*%
G04 Aperture macros list end*
%ADD10C,0.150000*%
%ADD11C,0.254000*%
%ADD12C,0.120000*%
%ADD13C,0.200000*%
%ADD14C,0.100000*%
%ADD15R,1.700000X1.700000*%
%ADD16O,1.700000X1.700000*%
%ADD17C,1.000000*%
%ADD18RoundRect,0.140000X-0.170000X0.140000X-0.170000X-0.140000X0.170000X-0.140000X0.170000X0.140000X0*%
%ADD19R,0.650000X1.000000*%
%ADD20R,1.000000X0.650000*%
%ADD21R,4.300000X4.300000*%
%ADD22C,0.950000*%
%ADD23R,2.400000X1.100000*%
%ADD24R,1.400000X0.620000*%
%ADD25R,0.500000X0.900000*%
%ADD26C,1.150000*%
%ADD27R,0.750000X0.350000*%
%ADD28R,0.600000X1.550000*%
%ADD29R,1.200000X1.800000*%
G04 APERTURE END LIST*
D10*
X153826095Y-82397523D02*
X153826095Y-81940380D01*
X153826095Y-82168952D02*
X153026095Y-82168952D01*
X153026095Y-82168952D02*
X153140380Y-82092761D01*
X153140380Y-82092761D02*
X153216571Y-82016571D01*
X153216571Y-82016571D02*
X153254666Y-81940380D01*
X153292761Y-82664190D02*
X153826095Y-82854666D01*
X153826095Y-82854666D02*
X153292761Y-83045143D01*
X153368952Y-83464190D02*
X153330857Y-83388000D01*
X153330857Y-83388000D02*
X153292761Y-83349905D01*
X153292761Y-83349905D02*
X153216571Y-83311809D01*
X153216571Y-83311809D02*
X153178476Y-83311809D01*
X153178476Y-83311809D02*
X153102285Y-83349905D01*
X153102285Y-83349905D02*
X153064190Y-83388000D01*
X153064190Y-83388000D02*
X153026095Y-83464190D01*
X153026095Y-83464190D02*
X153026095Y-83616571D01*
X153026095Y-83616571D02*
X153064190Y-83692762D01*
X153064190Y-83692762D02*
X153102285Y-83730857D01*
X153102285Y-83730857D02*
X153178476Y-83768952D01*
X153178476Y-83768952D02*
X153216571Y-83768952D01*
X153216571Y-83768952D02*
X153292761Y-83730857D01*
X153292761Y-83730857D02*
X153330857Y-83692762D01*
X153330857Y-83692762D02*
X153368952Y-83616571D01*
X153368952Y-83616571D02*
X153368952Y-83464190D01*
X153368952Y-83464190D02*
X153407047Y-83388000D01*
X153407047Y-83388000D02*
X153445142Y-83349905D01*
X153445142Y-83349905D02*
X153521333Y-83311809D01*
X153521333Y-83311809D02*
X153673714Y-83311809D01*
X153673714Y-83311809D02*
X153749904Y-83349905D01*
X153749904Y-83349905D02*
X153788000Y-83388000D01*
X153788000Y-83388000D02*
X153826095Y-83464190D01*
X153826095Y-83464190D02*
X153826095Y-83616571D01*
X153826095Y-83616571D02*
X153788000Y-83692762D01*
X153788000Y-83692762D02*
X153749904Y-83730857D01*
X153749904Y-83730857D02*
X153673714Y-83768952D01*
X153673714Y-83768952D02*
X153521333Y-83768952D01*
X153521333Y-83768952D02*
X153445142Y-83730857D01*
X153445142Y-83730857D02*
X153407047Y-83692762D01*
X153407047Y-83692762D02*
X153368952Y-83616571D01*
X155799809Y-83337476D02*
X155837904Y-83413666D01*
X155837904Y-83413666D02*
X155837904Y-83527952D01*
X155837904Y-83527952D02*
X155799809Y-83642238D01*
X155799809Y-83642238D02*
X155723619Y-83718428D01*
X155723619Y-83718428D02*
X155647428Y-83756523D01*
X155647428Y-83756523D02*
X155495047Y-83794619D01*
X155495047Y-83794619D02*
X155380761Y-83794619D01*
X155380761Y-83794619D02*
X155228380Y-83756523D01*
X155228380Y-83756523D02*
X155152190Y-83718428D01*
X155152190Y-83718428D02*
X155076000Y-83642238D01*
X155076000Y-83642238D02*
X155037904Y-83527952D01*
X155037904Y-83527952D02*
X155037904Y-83451761D01*
X155037904Y-83451761D02*
X155076000Y-83337476D01*
X155076000Y-83337476D02*
X155114095Y-83299380D01*
X155114095Y-83299380D02*
X155380761Y-83299380D01*
X155380761Y-83299380D02*
X155380761Y-83451761D01*
X155037904Y-82956523D02*
X155837904Y-82956523D01*
X155837904Y-82956523D02*
X155037904Y-82499380D01*
X155037904Y-82499380D02*
X155837904Y-82499380D01*
X155037904Y-82118428D02*
X155837904Y-82118428D01*
X155837904Y-82118428D02*
X155837904Y-81927952D01*
X155837904Y-81927952D02*
X155799809Y-81813666D01*
X155799809Y-81813666D02*
X155723619Y-81737476D01*
X155723619Y-81737476D02*
X155647428Y-81699381D01*
X155647428Y-81699381D02*
X155495047Y-81661285D01*
X155495047Y-81661285D02*
X155380761Y-81661285D01*
X155380761Y-81661285D02*
X155228380Y-81699381D01*
X155228380Y-81699381D02*
X155152190Y-81737476D01*
X155152190Y-81737476D02*
X155076000Y-81813666D01*
X155076000Y-81813666D02*
X155037904Y-81927952D01*
X155037904Y-81927952D02*
X155037904Y-82118428D01*
D11*
%TO.C,J1*%
X114417526Y-61576667D02*
X115324669Y-61576667D01*
X115324669Y-61576667D02*
X115506097Y-61516190D01*
X115506097Y-61516190D02*
X115627050Y-61395238D01*
X115627050Y-61395238D02*
X115687526Y-61213809D01*
X115687526Y-61213809D02*
X115687526Y-61092857D01*
X115687526Y-62846667D02*
X115687526Y-62120952D01*
X115687526Y-62483809D02*
X114417526Y-62483809D01*
X114417526Y-62483809D02*
X114598954Y-62362857D01*
X114598954Y-62362857D02*
X114719907Y-62241905D01*
X114719907Y-62241905D02*
X114780383Y-62120952D01*
D10*
%TO.C,J4*%
X137566666Y-86570095D02*
X137566666Y-87141523D01*
X137566666Y-87141523D02*
X137604761Y-87255809D01*
X137604761Y-87255809D02*
X137680952Y-87332000D01*
X137680952Y-87332000D02*
X137795237Y-87370095D01*
X137795237Y-87370095D02*
X137871428Y-87370095D01*
X136842856Y-86836761D02*
X136842856Y-87370095D01*
X137033332Y-86532000D02*
X137223809Y-87103428D01*
X137223809Y-87103428D02*
X136728570Y-87103428D01*
%TO.C,U1*%
X150709523Y-79453095D02*
X150709523Y-80100714D01*
X150709523Y-80100714D02*
X150671428Y-80176904D01*
X150671428Y-80176904D02*
X150633333Y-80215000D01*
X150633333Y-80215000D02*
X150557142Y-80253095D01*
X150557142Y-80253095D02*
X150404761Y-80253095D01*
X150404761Y-80253095D02*
X150328571Y-80215000D01*
X150328571Y-80215000D02*
X150290476Y-80176904D01*
X150290476Y-80176904D02*
X150252380Y-80100714D01*
X150252380Y-80100714D02*
X150252380Y-79453095D01*
X149452381Y-80253095D02*
X149909524Y-80253095D01*
X149680952Y-80253095D02*
X149680952Y-79453095D01*
X149680952Y-79453095D02*
X149757143Y-79567380D01*
X149757143Y-79567380D02*
X149833333Y-79643571D01*
X149833333Y-79643571D02*
X149909524Y-79681666D01*
%TO.C,J5*%
X130822666Y-86438095D02*
X130822666Y-87009523D01*
X130822666Y-87009523D02*
X130860761Y-87123809D01*
X130860761Y-87123809D02*
X130936952Y-87200000D01*
X130936952Y-87200000D02*
X131051237Y-87238095D01*
X131051237Y-87238095D02*
X131127428Y-87238095D01*
X130060761Y-86438095D02*
X130441713Y-86438095D01*
X130441713Y-86438095D02*
X130479809Y-86819047D01*
X130479809Y-86819047D02*
X130441713Y-86780952D01*
X130441713Y-86780952D02*
X130365523Y-86742857D01*
X130365523Y-86742857D02*
X130175047Y-86742857D01*
X130175047Y-86742857D02*
X130098856Y-86780952D01*
X130098856Y-86780952D02*
X130060761Y-86819047D01*
X130060761Y-86819047D02*
X130022666Y-86895238D01*
X130022666Y-86895238D02*
X130022666Y-87085714D01*
X130022666Y-87085714D02*
X130060761Y-87161904D01*
X130060761Y-87161904D02*
X130098856Y-87200000D01*
X130098856Y-87200000D02*
X130175047Y-87238095D01*
X130175047Y-87238095D02*
X130365523Y-87238095D01*
X130365523Y-87238095D02*
X130441713Y-87200000D01*
X130441713Y-87200000D02*
X130479809Y-87161904D01*
D12*
%TO.C,TP5*%
X154116000Y-84836000D02*
G75*
G03*
X154116000Y-84836000I-700000J0D01*
G01*
%TO.C,C25*%
X153960000Y-86692164D02*
X153960000Y-86907836D01*
X153240000Y-86692164D02*
X153240000Y-86907836D01*
D13*
%TO.C,IC1*%
X153600000Y-77200000D02*
X153600000Y-77200000D01*
X153600000Y-77200000D02*
X153600000Y-77200000D01*
X153600000Y-77100000D02*
X153600000Y-77100000D01*
X153600000Y-77100000D02*
G75*
G03*
X153600000Y-77200000I0J-50000D01*
G01*
X153600000Y-77100000D02*
G75*
G03*
X153600000Y-77200000I0J-50000D01*
G01*
X153600000Y-77200000D02*
G75*
G03*
X153600000Y-77100000I0J50000D01*
G01*
D14*
%TO.C,J1*%
X107025000Y-69525000D02*
X107025000Y-54475000D01*
X109775000Y-69525000D02*
X107025000Y-69525000D01*
X118775000Y-69525000D02*
X113350000Y-69525000D01*
D13*
X123650000Y-60000000D02*
X123650000Y-60000000D01*
X123650000Y-59800000D02*
X123650000Y-59800000D01*
D14*
X121775000Y-59200000D02*
X121775000Y-55000000D01*
X107025000Y-54475000D02*
X109775000Y-54475000D01*
X118775000Y-54475000D02*
X113350000Y-54475000D01*
D13*
X123650000Y-59800000D02*
G75*
G03*
X123650000Y-60000000I0J-100000D01*
G01*
X123650000Y-60000000D02*
G75*
G03*
X123650000Y-59800000I0J100000D01*
G01*
%TO.C,J4*%
X147049998Y-81447500D02*
X147049998Y-84647500D01*
X145629998Y-85977500D02*
X137629998Y-85977500D01*
X145629998Y-80117500D02*
X137629998Y-80117500D01*
D14*
X144604998Y-79447500D02*
X144604998Y-79447500D01*
X144604998Y-79347500D02*
X144604998Y-79347500D01*
D13*
X136209998Y-84647500D02*
X136209998Y-81447500D01*
D14*
X144604998Y-79347500D02*
G75*
G03*
X144604998Y-79447500I0J-50000D01*
G01*
X144604998Y-79447500D02*
G75*
G03*
X144604998Y-79347500I0J50000D01*
G01*
D12*
%TO.C,C24*%
X154910000Y-86692164D02*
X154910000Y-86907836D01*
X154190000Y-86692164D02*
X154190000Y-86907836D01*
%TO.C,U1*%
X151475000Y-80575000D02*
X148125000Y-80575000D01*
X148125000Y-80575000D02*
X148125000Y-86725000D01*
X152275000Y-81375000D02*
X151475000Y-80575000D01*
X152275000Y-86725000D02*
X152275000Y-81375000D01*
X148125000Y-86725000D02*
X152275000Y-86725000D01*
D14*
%TO.C,J5*%
X133300000Y-82584500D02*
X133300000Y-81297500D01*
X133300000Y-81297500D02*
X132800000Y-81297500D01*
X131800000Y-85547500D02*
X129300000Y-85547500D01*
X128300000Y-82584500D02*
X128300000Y-81297500D01*
X128300000Y-81297500D02*
X128800000Y-81297500D01*
D12*
%TO.C,TP7*%
X156148000Y-84836000D02*
G75*
G03*
X156148000Y-84836000I-700000J0D01*
G01*
%TD*%
%LPC*%
D15*
%TO.C,J7*%
X122700000Y-84900000D03*
D16*
X122700000Y-82360000D03*
X122700000Y-79820000D03*
X122700000Y-77280000D03*
X122700000Y-74740000D03*
X122700000Y-72200000D03*
%TD*%
D17*
%TO.C,TP5*%
X153416000Y-84836000D03*
%TD*%
D18*
%TO.C,C25*%
X153600000Y-86320000D03*
X153600000Y-87280000D03*
%TD*%
D19*
%TO.C,IC1*%
X153600000Y-76175000D03*
X152600000Y-76175000D03*
X151600000Y-76175000D03*
X150600000Y-76175000D03*
X149600000Y-76175000D03*
X148600000Y-76175000D03*
X147600000Y-76175000D03*
X146600000Y-76175000D03*
X145600000Y-76175000D03*
X144600000Y-76175000D03*
X143600000Y-76175000D03*
X142600000Y-76175000D03*
X141600000Y-76175000D03*
X140600000Y-76175000D03*
X139600000Y-76175000D03*
X138600000Y-76175000D03*
X137600000Y-76175000D03*
X136600000Y-76175000D03*
X135600000Y-76175000D03*
X134600000Y-76175000D03*
X133600000Y-76175000D03*
X132600000Y-76175000D03*
X131600000Y-76175000D03*
X130600000Y-76175000D03*
X129600000Y-76175000D03*
D20*
X128425000Y-75000000D03*
X128425000Y-74000000D03*
X128425000Y-73000000D03*
X128425000Y-72000000D03*
X128425000Y-71000000D03*
X128425000Y-70000000D03*
X128425000Y-69000000D03*
X128425000Y-68000000D03*
X128425000Y-67000000D03*
X128425000Y-66000000D03*
X128425000Y-65000000D03*
X128425000Y-64000000D03*
X128425000Y-63000000D03*
X128425000Y-62000000D03*
X128425000Y-61000000D03*
X128425000Y-60000000D03*
X128425000Y-59000000D03*
X128425000Y-58000000D03*
X128425000Y-57000000D03*
X128425000Y-56000000D03*
X128425000Y-55000000D03*
X128425000Y-54000000D03*
X128425000Y-53000000D03*
X128425000Y-52000000D03*
X128425000Y-51000000D03*
D19*
X129600000Y-49825000D03*
X130600000Y-49825000D03*
X131600000Y-49825000D03*
X132600000Y-49825000D03*
X133600000Y-49825000D03*
X134600000Y-49825000D03*
X135600000Y-49825000D03*
X136600000Y-49825000D03*
X137600000Y-49825000D03*
X138600000Y-49825000D03*
X139600000Y-49825000D03*
X140600000Y-49825000D03*
X141600000Y-49825000D03*
X142600000Y-49825000D03*
X143600000Y-49825000D03*
X144600000Y-49825000D03*
X145600000Y-49825000D03*
X146600000Y-49825000D03*
X147600000Y-49825000D03*
X148600000Y-49825000D03*
X149600000Y-49825000D03*
X150600000Y-49825000D03*
X151600000Y-49825000D03*
X152600000Y-49825000D03*
X153600000Y-49825000D03*
D20*
X154775000Y-51000000D03*
X154775000Y-52000000D03*
X154775000Y-53000000D03*
X154775000Y-54000000D03*
X154775000Y-55000000D03*
X154775000Y-56000000D03*
X154775000Y-57000000D03*
X154775000Y-58000000D03*
X154775000Y-59000000D03*
X154775000Y-60000000D03*
X154775000Y-61000000D03*
X154775000Y-62000000D03*
X154775000Y-63000000D03*
X154775000Y-64000000D03*
X154775000Y-65000000D03*
X154775000Y-66000000D03*
X154775000Y-67000000D03*
X154775000Y-68000000D03*
X154775000Y-69000000D03*
X154775000Y-70000000D03*
X154775000Y-71000000D03*
X154775000Y-72000000D03*
X154775000Y-73000000D03*
X154775000Y-74000000D03*
X154775000Y-75000000D03*
D21*
X151600000Y-73000000D03*
X151600000Y-68000000D03*
X151600000Y-63000000D03*
X151600000Y-58000000D03*
X151600000Y-53000000D03*
X146600000Y-73000000D03*
X146600000Y-68000000D03*
X146600000Y-63000000D03*
X146600000Y-58000000D03*
X146600000Y-53000000D03*
X141600000Y-73000000D03*
X141600000Y-68000000D03*
X141600000Y-63000000D03*
X141600000Y-58000000D03*
X141600000Y-53000000D03*
X136600000Y-73000000D03*
X136600000Y-63000000D03*
X136600000Y-58000000D03*
X136600000Y-53000000D03*
X131600000Y-73000000D03*
X131600000Y-68000000D03*
X131600000Y-63000000D03*
X131600000Y-58000000D03*
X131600000Y-53000000D03*
D17*
X137600000Y-69000000D03*
X135600000Y-69000000D03*
X136600000Y-68000000D03*
X137600000Y-67000000D03*
X135600000Y-67000000D03*
%TD*%
D22*
%TO.C,J1*%
X111055000Y-65395000D03*
X111055000Y-58795000D03*
D23*
X120475000Y-70075000D03*
X111475000Y-70075000D03*
X111475000Y-53925000D03*
X120475000Y-53925000D03*
D24*
X122475000Y-59895000D03*
X122475000Y-60995000D03*
X122475000Y-62095000D03*
X122475000Y-63195000D03*
X122475000Y-64295000D03*
X122475000Y-65395000D03*
X122475000Y-66495000D03*
X122475000Y-67595000D03*
X122475000Y-68695000D03*
%TD*%
D25*
%TO.C,J4*%
X144604998Y-80947500D03*
X143754998Y-80947500D03*
X142904998Y-80947500D03*
X142054998Y-80947500D03*
X141204998Y-80947500D03*
X140354998Y-80947500D03*
X139504998Y-80947500D03*
X138654998Y-80947500D03*
X138654998Y-85147500D03*
X139504998Y-85147500D03*
X140354998Y-85147500D03*
X141204998Y-85147500D03*
X142054998Y-85147500D03*
X142904998Y-85147500D03*
X143754998Y-85147500D03*
X144604998Y-85147500D03*
D26*
X146749998Y-80467500D03*
X136509998Y-80467500D03*
X136509998Y-85627500D03*
X146749998Y-85627500D03*
%TD*%
D18*
%TO.C,C24*%
X154550000Y-86320000D03*
X154550000Y-87280000D03*
%TD*%
D27*
%TO.C,U1*%
X151400000Y-81250000D03*
X151400000Y-82050000D03*
X151400000Y-82850000D03*
X151400000Y-83650000D03*
X151400000Y-84450000D03*
X151400000Y-85250000D03*
X151400000Y-86050000D03*
X149000000Y-86050000D03*
X149000000Y-85250000D03*
X149000000Y-84450000D03*
X149000000Y-83650000D03*
X149000000Y-82850000D03*
X149000000Y-82050000D03*
X149000000Y-81250000D03*
%TD*%
D28*
%TO.C,J5*%
X131800000Y-80621500D03*
X130800000Y-80621500D03*
X129800000Y-80621500D03*
D29*
X133100000Y-84497500D03*
X128500000Y-84497500D03*
%TD*%
D17*
%TO.C,TP7*%
X155448000Y-84836000D03*
%TD*%
M02*
