%TF.GenerationSoftware,KiCad,Pcbnew,7.0.1*%
%TF.CreationDate,2024-02-26T17:05:23+01:00*%
%TF.ProjectId,armband,61726d62-616e-4642-9e6b-696361645f70,rev?*%
%TF.SameCoordinates,Original*%
%TF.FileFunction,Profile,NP*%
%FSLAX46Y46*%
G04 Gerber Fmt 4.6, Leading zero omitted, Abs format (unit mm)*
G04 Created by KiCad (PCBNEW 7.0.1) date 2024-02-26 17:05:23*
%MOMM*%
%LPD*%
G01*
G04 APERTURE LIST*
%TA.AperFunction,Profile*%
%ADD10C,0.100000*%
%TD*%
G04 APERTURE END LIST*
D10*
X125476000Y-51816000D02*
X125984000Y-51816000D01*
X125984000Y-60244000D01*
X125476000Y-60244000D01*
X125476000Y-51816000D01*
X125476000Y-47752000D02*
X110000000Y-47752000D01*
X125476000Y-50038000D02*
X125476000Y-47752000D01*
X128542051Y-87884000D02*
X156083000Y-87884000D01*
X120904000Y-86868000D02*
X125476000Y-86868000D01*
X158749915Y-50279236D02*
G75*
G03*
X156191949Y-47721185I-2558015J36D01*
G01*
X110000000Y-47752000D02*
X110000000Y-73500000D01*
X125984000Y-85325949D02*
G75*
G03*
X128542051Y-87884000I2558100J49D01*
G01*
X125476000Y-50038000D02*
X125984000Y-50038000D01*
X120904000Y-73500000D02*
X120904000Y-86868000D01*
X156083000Y-87884000D02*
G75*
G03*
X158750000Y-85217000I0J2667000D01*
G01*
X125984000Y-85325949D02*
X125984000Y-84000000D01*
X125476000Y-86868000D02*
X125476000Y-84000000D01*
X128300815Y-47721185D02*
X156191949Y-47721185D01*
X125984000Y-84000000D02*
X125476000Y-84000000D01*
X158750000Y-50279236D02*
X158750000Y-85217000D01*
X125476000Y-62900000D02*
X125984000Y-62900000D01*
X125984000Y-82390000D01*
X125476000Y-82390000D01*
X125476000Y-62900000D01*
X110000000Y-73500000D02*
X120904000Y-73500000D01*
X128300815Y-47721200D02*
G75*
G03*
X125984000Y-50038000I-15J-2316800D01*
G01*
M02*
