G04 #@! TF.GenerationSoftware,KiCad,Pcbnew,7.0.9*
G04 #@! TF.CreationDate,2024-02-17T17:22:41+01:00*
G04 #@! TF.ProjectId,armband,61726d62-616e-4642-9e6b-696361645f70,rev?*
G04 #@! TF.SameCoordinates,Original*
G04 #@! TF.FileFunction,Soldermask,Bot*
G04 #@! TF.FilePolarity,Negative*
%FSLAX46Y46*%
G04 Gerber Fmt 4.6, Leading zero omitted, Abs format (unit mm)*
G04 Created by KiCad (PCBNEW 7.0.9) date 2024-02-17 17:22:41*
%MOMM*%
%LPD*%
G01*
G04 APERTURE LIST*
G04 Aperture macros list*
%AMRoundRect*
0 Rectangle with rounded corners*
0 $1 Rounding radius*
0 $2 $3 $4 $5 $6 $7 $8 $9 X,Y pos of 4 corners*
0 Add a 4 corners polygon primitive as box body*
4,1,4,$2,$3,$4,$5,$6,$7,$8,$9,$2,$3,0*
0 Add four circle primitives for the rounded corners*
1,1,$1+$1,$2,$3*
1,1,$1+$1,$4,$5*
1,1,$1+$1,$6,$7*
1,1,$1+$1,$8,$9*
0 Add four rect primitives between the rounded corners*
20,1,$1+$1,$2,$3,$4,$5,0*
20,1,$1+$1,$4,$5,$6,$7,0*
20,1,$1+$1,$6,$7,$8,$9,0*
20,1,$1+$1,$8,$9,$2,$3,0*%
G04 Aperture macros list end*
%ADD10R,1.700000X1.700000*%
%ADD11O,1.700000X1.700000*%
%ADD12RoundRect,0.140000X-0.170000X0.140000X-0.170000X-0.140000X0.170000X-0.140000X0.170000X0.140000X0*%
%ADD13R,0.650000X1.000000*%
%ADD14R,1.000000X0.650000*%
%ADD15R,24.300000X15.000000*%
%ADD16R,15.000000X4.300000*%
%ADD17R,24.300000X5.000000*%
%ADD18R,5.000000X4.300000*%
%ADD19C,1.000000*%
%ADD20C,0.950000*%
%ADD21R,2.400000X1.100000*%
%ADD22R,1.400000X0.620000*%
%ADD23R,0.500000X0.900000*%
%ADD24C,1.150000*%
%ADD25R,0.750000X0.350000*%
%ADD26R,0.600000X1.550000*%
%ADD27R,1.200000X1.800000*%
G04 APERTURE END LIST*
D10*
X122700000Y-84900000D03*
D11*
X122700000Y-82360000D03*
X122700000Y-79820000D03*
X122700000Y-77280000D03*
X122700000Y-74740000D03*
X122700000Y-72200000D03*
D12*
X153600000Y-86320000D03*
X153600000Y-87280000D03*
D13*
X153600000Y-76175000D03*
X152600000Y-76175000D03*
X151600000Y-76175000D03*
X150600000Y-76175000D03*
X149600000Y-76175000D03*
X148600000Y-76175000D03*
X147600000Y-76175000D03*
X146600000Y-76175000D03*
X145600000Y-76175000D03*
X144600000Y-76175000D03*
X143600000Y-76175000D03*
X142600000Y-76175000D03*
X141600000Y-76175000D03*
X140600000Y-76175000D03*
X139600000Y-76175000D03*
X138600000Y-76175000D03*
X137600000Y-76175000D03*
X136600000Y-76175000D03*
X135600000Y-76175000D03*
X134600000Y-76175000D03*
X133600000Y-76175000D03*
X132600000Y-76175000D03*
X131600000Y-76175000D03*
X130600000Y-76175000D03*
X129600000Y-76175000D03*
D14*
X128425000Y-75000000D03*
X128425000Y-74000000D03*
X128425000Y-73000000D03*
X128425000Y-72000000D03*
X128425000Y-71000000D03*
X128425000Y-70000000D03*
X128425000Y-69000000D03*
X128425000Y-68000000D03*
X128425000Y-67000000D03*
X128425000Y-66000000D03*
X128425000Y-65000000D03*
X128425000Y-64000000D03*
X128425000Y-63000000D03*
X128425000Y-62000000D03*
X128425000Y-61000000D03*
X128425000Y-60000000D03*
X128425000Y-59000000D03*
X128425000Y-58000000D03*
X128425000Y-57000000D03*
X128425000Y-56000000D03*
X128425000Y-55000000D03*
X128425000Y-54000000D03*
X128425000Y-53000000D03*
X128425000Y-52000000D03*
X128425000Y-51000000D03*
D13*
X129600000Y-49825000D03*
X130600000Y-49825000D03*
X131600000Y-49825000D03*
X132600000Y-49825000D03*
X133600000Y-49825000D03*
X134600000Y-49825000D03*
X135600000Y-49825000D03*
X136600000Y-49825000D03*
X137600000Y-49825000D03*
X138600000Y-49825000D03*
X139600000Y-49825000D03*
X140600000Y-49825000D03*
X141600000Y-49825000D03*
X142600000Y-49825000D03*
X143600000Y-49825000D03*
X144600000Y-49825000D03*
X145600000Y-49825000D03*
X146600000Y-49825000D03*
X147600000Y-49825000D03*
X148600000Y-49825000D03*
X149600000Y-49825000D03*
X150600000Y-49825000D03*
X151600000Y-49825000D03*
X152600000Y-49825000D03*
X153600000Y-49825000D03*
D14*
X154775000Y-51000000D03*
X154775000Y-52000000D03*
X154775000Y-53000000D03*
X154775000Y-54000000D03*
X154775000Y-55000000D03*
X154775000Y-56000000D03*
X154775000Y-57000000D03*
X154775000Y-58000000D03*
X154775000Y-59000000D03*
X154775000Y-60000000D03*
X154775000Y-61000000D03*
X154775000Y-62000000D03*
X154775000Y-63000000D03*
X154775000Y-64000000D03*
X154775000Y-65000000D03*
X154775000Y-66000000D03*
X154775000Y-67000000D03*
X154775000Y-68000000D03*
X154775000Y-69000000D03*
X154775000Y-70000000D03*
X154775000Y-71000000D03*
X154775000Y-72000000D03*
X154775000Y-73000000D03*
X154775000Y-74000000D03*
X154775000Y-75000000D03*
D15*
X141600000Y-58350000D03*
D16*
X146250000Y-68000000D03*
D17*
X141600000Y-72650000D03*
D18*
X131950000Y-68000000D03*
D19*
X137600000Y-69000000D03*
X135600000Y-69000000D03*
X136600000Y-68000000D03*
X137600000Y-67000000D03*
X135600000Y-67000000D03*
D20*
X111055000Y-65395000D03*
X111055000Y-58795000D03*
D21*
X120475000Y-70075000D03*
X111475000Y-70075000D03*
X111475000Y-53925000D03*
X120475000Y-53925000D03*
D22*
X122475000Y-59895000D03*
X122475000Y-60995000D03*
X122475000Y-62095000D03*
X122475000Y-63195000D03*
X122475000Y-64295000D03*
X122475000Y-65395000D03*
X122475000Y-66495000D03*
X122475000Y-67595000D03*
X122475000Y-68695000D03*
D23*
X144604998Y-80947500D03*
X143754998Y-80947500D03*
X142904998Y-80947500D03*
X142054998Y-80947500D03*
X141204998Y-80947500D03*
X140354998Y-80947500D03*
X139504998Y-80947500D03*
X138654998Y-80947500D03*
X138654998Y-85147500D03*
X139504998Y-85147500D03*
X140354998Y-85147500D03*
X141204998Y-85147500D03*
X142054998Y-85147500D03*
X142904998Y-85147500D03*
X143754998Y-85147500D03*
X144604998Y-85147500D03*
D24*
X146749998Y-80467500D03*
X136509998Y-80467500D03*
X136509998Y-85627500D03*
X146749998Y-85627500D03*
D12*
X154550000Y-86320000D03*
X154550000Y-87280000D03*
D25*
X151400000Y-81250000D03*
X151400000Y-82050000D03*
X151400000Y-82850000D03*
X151400000Y-83650000D03*
X151400000Y-84450000D03*
X151400000Y-85250000D03*
X151400000Y-86050000D03*
X149000000Y-86050000D03*
X149000000Y-85250000D03*
X149000000Y-84450000D03*
X149000000Y-83650000D03*
X149000000Y-82850000D03*
X149000000Y-82050000D03*
X149000000Y-81250000D03*
D26*
X131800000Y-80621500D03*
X130800000Y-80621500D03*
X129800000Y-80621500D03*
D27*
X133100000Y-84497500D03*
X128500000Y-84497500D03*
M02*
