%TF.GenerationSoftware,KiCad,Pcbnew,7.0.1*%
%TF.CreationDate,2024-02-26T17:06:04+01:00*%
%TF.ProjectId,armband,61726d62-616e-4642-9e6b-696361645f70,rev?*%
%TF.SameCoordinates,Original*%
%TF.FileFunction,Drillmap*%
%TF.FilePolarity,Positive*%
%FSLAX45Y45*%
G04 Gerber Fmt 4.5, Leading zero omitted, Abs format (unit mm)*
G04 Created by KiCad (PCBNEW 7.0.1) date 2024-02-26 17:06:04*
%MOMM*%
%LPD*%
G01*
G04 APERTURE LIST*
%ADD10C,0.100000*%
%ADD11C,0.200000*%
%ADD12C,0.095000*%
G04 APERTURE END LIST*
D10*
X12547600Y-5181600D02*
X12598400Y-5181600D01*
X12598400Y-6024400D01*
X12547600Y-6024400D01*
X12547600Y-5181600D01*
X12547600Y-4775200D02*
X11000000Y-4775200D01*
X12547600Y-5003800D02*
X12547600Y-4775200D01*
X12854205Y-8788400D02*
X15608300Y-8788400D01*
X12090400Y-8686800D02*
X12547600Y-8686800D01*
X15874991Y-5027924D02*
G75*
G03*
X15619195Y-4772119I-255802J4D01*
G01*
X11000000Y-4775200D02*
X11000000Y-7350000D01*
X12598400Y-8532595D02*
G75*
G03*
X12854205Y-8788400I255810J5D01*
G01*
X12547600Y-5003800D02*
X12598400Y-5003800D01*
X12090400Y-7350000D02*
X12090400Y-8686800D01*
X15608300Y-8788400D02*
G75*
G03*
X15875000Y-8521700I0J266700D01*
G01*
X12598400Y-8532595D02*
X12598400Y-8400000D01*
X12547600Y-8686800D02*
X12547600Y-8400000D01*
X12830081Y-4772119D02*
X15619195Y-4772119D01*
X12598400Y-8400000D02*
X12547600Y-8400000D01*
X15875000Y-5027924D02*
X15875000Y-8521700D01*
X12547600Y-6290000D02*
X12598400Y-6290000D01*
X12598400Y-8239000D01*
X12547600Y-8239000D01*
X12547600Y-6290000D01*
X11000000Y-7350000D02*
X12090400Y-7350000D01*
X12830081Y-4772120D02*
G75*
G03*
X12598400Y-5003800I-2J-231680D01*
G01*
D11*
D12*
X11058000Y-5832000D02*
X11153000Y-5927000D01*
X11153000Y-5832000D02*
X11058000Y-5927000D01*
X11058000Y-6492000D02*
X11153000Y-6587000D01*
X11153000Y-6492000D02*
X11058000Y-6587000D01*
D11*
X11242619Y-9105924D02*
X11242619Y-8905924D01*
X11242619Y-8905924D02*
X11290238Y-8905924D01*
X11290238Y-8905924D02*
X11318809Y-8915448D01*
X11318809Y-8915448D02*
X11337857Y-8934495D01*
X11337857Y-8934495D02*
X11347381Y-8953543D01*
X11347381Y-8953543D02*
X11356905Y-8991638D01*
X11356905Y-8991638D02*
X11356905Y-9020210D01*
X11356905Y-9020210D02*
X11347381Y-9058305D01*
X11347381Y-9058305D02*
X11337857Y-9077352D01*
X11337857Y-9077352D02*
X11318809Y-9096400D01*
X11318809Y-9096400D02*
X11290238Y-9105924D01*
X11290238Y-9105924D02*
X11242619Y-9105924D01*
X11442619Y-9105924D02*
X11442619Y-8972590D01*
X11442619Y-9010686D02*
X11452143Y-8991638D01*
X11452143Y-8991638D02*
X11461667Y-8982114D01*
X11461667Y-8982114D02*
X11480714Y-8972590D01*
X11480714Y-8972590D02*
X11499762Y-8972590D01*
X11566428Y-9105924D02*
X11566428Y-8972590D01*
X11566428Y-8905924D02*
X11556905Y-8915448D01*
X11556905Y-8915448D02*
X11566428Y-8924971D01*
X11566428Y-8924971D02*
X11575952Y-8915448D01*
X11575952Y-8915448D02*
X11566428Y-8905924D01*
X11566428Y-8905924D02*
X11566428Y-8924971D01*
X11690238Y-9105924D02*
X11671190Y-9096400D01*
X11671190Y-9096400D02*
X11661667Y-9077352D01*
X11661667Y-9077352D02*
X11661667Y-8905924D01*
X11795000Y-9105924D02*
X11775952Y-9096400D01*
X11775952Y-9096400D02*
X11766428Y-9077352D01*
X11766428Y-9077352D02*
X11766428Y-8905924D01*
X12023571Y-9105924D02*
X12023571Y-8905924D01*
X12023571Y-8905924D02*
X12090238Y-9048781D01*
X12090238Y-9048781D02*
X12156905Y-8905924D01*
X12156905Y-8905924D02*
X12156905Y-9105924D01*
X12337857Y-9105924D02*
X12337857Y-9001162D01*
X12337857Y-9001162D02*
X12328333Y-8982114D01*
X12328333Y-8982114D02*
X12309286Y-8972590D01*
X12309286Y-8972590D02*
X12271190Y-8972590D01*
X12271190Y-8972590D02*
X12252143Y-8982114D01*
X12337857Y-9096400D02*
X12318809Y-9105924D01*
X12318809Y-9105924D02*
X12271190Y-9105924D01*
X12271190Y-9105924D02*
X12252143Y-9096400D01*
X12252143Y-9096400D02*
X12242619Y-9077352D01*
X12242619Y-9077352D02*
X12242619Y-9058305D01*
X12242619Y-9058305D02*
X12252143Y-9039257D01*
X12252143Y-9039257D02*
X12271190Y-9029733D01*
X12271190Y-9029733D02*
X12318809Y-9029733D01*
X12318809Y-9029733D02*
X12337857Y-9020210D01*
X12433095Y-8972590D02*
X12433095Y-9172590D01*
X12433095Y-8982114D02*
X12452143Y-8972590D01*
X12452143Y-8972590D02*
X12490238Y-8972590D01*
X12490238Y-8972590D02*
X12509286Y-8982114D01*
X12509286Y-8982114D02*
X12518809Y-8991638D01*
X12518809Y-8991638D02*
X12528333Y-9010686D01*
X12528333Y-9010686D02*
X12528333Y-9067829D01*
X12528333Y-9067829D02*
X12518809Y-9086876D01*
X12518809Y-9086876D02*
X12509286Y-9096400D01*
X12509286Y-9096400D02*
X12490238Y-9105924D01*
X12490238Y-9105924D02*
X12452143Y-9105924D01*
X12452143Y-9105924D02*
X12433095Y-9096400D01*
X12614048Y-9086876D02*
X12623571Y-9096400D01*
X12623571Y-9096400D02*
X12614048Y-9105924D01*
X12614048Y-9105924D02*
X12604524Y-9096400D01*
X12604524Y-9096400D02*
X12614048Y-9086876D01*
X12614048Y-9086876D02*
X12614048Y-9105924D01*
X12614048Y-8982114D02*
X12623571Y-8991638D01*
X12623571Y-8991638D02*
X12614048Y-9001162D01*
X12614048Y-9001162D02*
X12604524Y-8991638D01*
X12604524Y-8991638D02*
X12614048Y-8982114D01*
X12614048Y-8982114D02*
X12614048Y-9001162D01*
D12*
X10900000Y-9385900D02*
X10995000Y-9480900D01*
X10995000Y-9385900D02*
X10900000Y-9480900D01*
D11*
X11280714Y-9325924D02*
X11299762Y-9325924D01*
X11299762Y-9325924D02*
X11318809Y-9335448D01*
X11318809Y-9335448D02*
X11328333Y-9344971D01*
X11328333Y-9344971D02*
X11337857Y-9364019D01*
X11337857Y-9364019D02*
X11347381Y-9402114D01*
X11347381Y-9402114D02*
X11347381Y-9449733D01*
X11347381Y-9449733D02*
X11337857Y-9487829D01*
X11337857Y-9487829D02*
X11328333Y-9506876D01*
X11328333Y-9506876D02*
X11318809Y-9516400D01*
X11318809Y-9516400D02*
X11299762Y-9525924D01*
X11299762Y-9525924D02*
X11280714Y-9525924D01*
X11280714Y-9525924D02*
X11261667Y-9516400D01*
X11261667Y-9516400D02*
X11252143Y-9506876D01*
X11252143Y-9506876D02*
X11242619Y-9487829D01*
X11242619Y-9487829D02*
X11233095Y-9449733D01*
X11233095Y-9449733D02*
X11233095Y-9402114D01*
X11233095Y-9402114D02*
X11242619Y-9364019D01*
X11242619Y-9364019D02*
X11252143Y-9344971D01*
X11252143Y-9344971D02*
X11261667Y-9335448D01*
X11261667Y-9335448D02*
X11280714Y-9325924D01*
X11433095Y-9506876D02*
X11442619Y-9516400D01*
X11442619Y-9516400D02*
X11433095Y-9525924D01*
X11433095Y-9525924D02*
X11423571Y-9516400D01*
X11423571Y-9516400D02*
X11433095Y-9506876D01*
X11433095Y-9506876D02*
X11433095Y-9525924D01*
X11537857Y-9525924D02*
X11575952Y-9525924D01*
X11575952Y-9525924D02*
X11595000Y-9516400D01*
X11595000Y-9516400D02*
X11604524Y-9506876D01*
X11604524Y-9506876D02*
X11623571Y-9478305D01*
X11623571Y-9478305D02*
X11633095Y-9440210D01*
X11633095Y-9440210D02*
X11633095Y-9364019D01*
X11633095Y-9364019D02*
X11623571Y-9344971D01*
X11623571Y-9344971D02*
X11614048Y-9335448D01*
X11614048Y-9335448D02*
X11595000Y-9325924D01*
X11595000Y-9325924D02*
X11556905Y-9325924D01*
X11556905Y-9325924D02*
X11537857Y-9335448D01*
X11537857Y-9335448D02*
X11528333Y-9344971D01*
X11528333Y-9344971D02*
X11518809Y-9364019D01*
X11518809Y-9364019D02*
X11518809Y-9411638D01*
X11518809Y-9411638D02*
X11528333Y-9430686D01*
X11528333Y-9430686D02*
X11537857Y-9440210D01*
X11537857Y-9440210D02*
X11556905Y-9449733D01*
X11556905Y-9449733D02*
X11595000Y-9449733D01*
X11595000Y-9449733D02*
X11614048Y-9440210D01*
X11614048Y-9440210D02*
X11623571Y-9430686D01*
X11623571Y-9430686D02*
X11633095Y-9411638D01*
X11814048Y-9325924D02*
X11718809Y-9325924D01*
X11718809Y-9325924D02*
X11709286Y-9421162D01*
X11709286Y-9421162D02*
X11718809Y-9411638D01*
X11718809Y-9411638D02*
X11737857Y-9402114D01*
X11737857Y-9402114D02*
X11785476Y-9402114D01*
X11785476Y-9402114D02*
X11804524Y-9411638D01*
X11804524Y-9411638D02*
X11814048Y-9421162D01*
X11814048Y-9421162D02*
X11823571Y-9440210D01*
X11823571Y-9440210D02*
X11823571Y-9487829D01*
X11823571Y-9487829D02*
X11814048Y-9506876D01*
X11814048Y-9506876D02*
X11804524Y-9516400D01*
X11804524Y-9516400D02*
X11785476Y-9525924D01*
X11785476Y-9525924D02*
X11737857Y-9525924D01*
X11737857Y-9525924D02*
X11718809Y-9516400D01*
X11718809Y-9516400D02*
X11709286Y-9506876D01*
X11947381Y-9325924D02*
X11966429Y-9325924D01*
X11966429Y-9325924D02*
X11985476Y-9335448D01*
X11985476Y-9335448D02*
X11995000Y-9344971D01*
X11995000Y-9344971D02*
X12004524Y-9364019D01*
X12004524Y-9364019D02*
X12014048Y-9402114D01*
X12014048Y-9402114D02*
X12014048Y-9449733D01*
X12014048Y-9449733D02*
X12004524Y-9487829D01*
X12004524Y-9487829D02*
X11995000Y-9506876D01*
X11995000Y-9506876D02*
X11985476Y-9516400D01*
X11985476Y-9516400D02*
X11966429Y-9525924D01*
X11966429Y-9525924D02*
X11947381Y-9525924D01*
X11947381Y-9525924D02*
X11928333Y-9516400D01*
X11928333Y-9516400D02*
X11918809Y-9506876D01*
X11918809Y-9506876D02*
X11909286Y-9487829D01*
X11909286Y-9487829D02*
X11899762Y-9449733D01*
X11899762Y-9449733D02*
X11899762Y-9402114D01*
X11899762Y-9402114D02*
X11909286Y-9364019D01*
X11909286Y-9364019D02*
X11918809Y-9344971D01*
X11918809Y-9344971D02*
X11928333Y-9335448D01*
X11928333Y-9335448D02*
X11947381Y-9325924D01*
X12099762Y-9525924D02*
X12099762Y-9392590D01*
X12099762Y-9411638D02*
X12109286Y-9402114D01*
X12109286Y-9402114D02*
X12128333Y-9392590D01*
X12128333Y-9392590D02*
X12156905Y-9392590D01*
X12156905Y-9392590D02*
X12175952Y-9402114D01*
X12175952Y-9402114D02*
X12185476Y-9421162D01*
X12185476Y-9421162D02*
X12185476Y-9525924D01*
X12185476Y-9421162D02*
X12195000Y-9402114D01*
X12195000Y-9402114D02*
X12214048Y-9392590D01*
X12214048Y-9392590D02*
X12242619Y-9392590D01*
X12242619Y-9392590D02*
X12261667Y-9402114D01*
X12261667Y-9402114D02*
X12271190Y-9421162D01*
X12271190Y-9421162D02*
X12271190Y-9525924D01*
X12366429Y-9525924D02*
X12366429Y-9392590D01*
X12366429Y-9411638D02*
X12375952Y-9402114D01*
X12375952Y-9402114D02*
X12395000Y-9392590D01*
X12395000Y-9392590D02*
X12423571Y-9392590D01*
X12423571Y-9392590D02*
X12442619Y-9402114D01*
X12442619Y-9402114D02*
X12452143Y-9421162D01*
X12452143Y-9421162D02*
X12452143Y-9525924D01*
X12452143Y-9421162D02*
X12461667Y-9402114D01*
X12461667Y-9402114D02*
X12480714Y-9392590D01*
X12480714Y-9392590D02*
X12509286Y-9392590D01*
X12509286Y-9392590D02*
X12528333Y-9402114D01*
X12528333Y-9402114D02*
X12537857Y-9421162D01*
X12537857Y-9421162D02*
X12537857Y-9525924D01*
X12928333Y-9316400D02*
X12756905Y-9573543D01*
X13185476Y-9325924D02*
X13204524Y-9325924D01*
X13204524Y-9325924D02*
X13223572Y-9335448D01*
X13223572Y-9335448D02*
X13233095Y-9344971D01*
X13233095Y-9344971D02*
X13242619Y-9364019D01*
X13242619Y-9364019D02*
X13252143Y-9402114D01*
X13252143Y-9402114D02*
X13252143Y-9449733D01*
X13252143Y-9449733D02*
X13242619Y-9487829D01*
X13242619Y-9487829D02*
X13233095Y-9506876D01*
X13233095Y-9506876D02*
X13223572Y-9516400D01*
X13223572Y-9516400D02*
X13204524Y-9525924D01*
X13204524Y-9525924D02*
X13185476Y-9525924D01*
X13185476Y-9525924D02*
X13166429Y-9516400D01*
X13166429Y-9516400D02*
X13156905Y-9506876D01*
X13156905Y-9506876D02*
X13147381Y-9487829D01*
X13147381Y-9487829D02*
X13137857Y-9449733D01*
X13137857Y-9449733D02*
X13137857Y-9402114D01*
X13137857Y-9402114D02*
X13147381Y-9364019D01*
X13147381Y-9364019D02*
X13156905Y-9344971D01*
X13156905Y-9344971D02*
X13166429Y-9335448D01*
X13166429Y-9335448D02*
X13185476Y-9325924D01*
X13337857Y-9506876D02*
X13347381Y-9516400D01*
X13347381Y-9516400D02*
X13337857Y-9525924D01*
X13337857Y-9525924D02*
X13328333Y-9516400D01*
X13328333Y-9516400D02*
X13337857Y-9506876D01*
X13337857Y-9506876D02*
X13337857Y-9525924D01*
X13471191Y-9325924D02*
X13490238Y-9325924D01*
X13490238Y-9325924D02*
X13509286Y-9335448D01*
X13509286Y-9335448D02*
X13518810Y-9344971D01*
X13518810Y-9344971D02*
X13528333Y-9364019D01*
X13528333Y-9364019D02*
X13537857Y-9402114D01*
X13537857Y-9402114D02*
X13537857Y-9449733D01*
X13537857Y-9449733D02*
X13528333Y-9487829D01*
X13528333Y-9487829D02*
X13518810Y-9506876D01*
X13518810Y-9506876D02*
X13509286Y-9516400D01*
X13509286Y-9516400D02*
X13490238Y-9525924D01*
X13490238Y-9525924D02*
X13471191Y-9525924D01*
X13471191Y-9525924D02*
X13452143Y-9516400D01*
X13452143Y-9516400D02*
X13442619Y-9506876D01*
X13442619Y-9506876D02*
X13433095Y-9487829D01*
X13433095Y-9487829D02*
X13423572Y-9449733D01*
X13423572Y-9449733D02*
X13423572Y-9402114D01*
X13423572Y-9402114D02*
X13433095Y-9364019D01*
X13433095Y-9364019D02*
X13442619Y-9344971D01*
X13442619Y-9344971D02*
X13452143Y-9335448D01*
X13452143Y-9335448D02*
X13471191Y-9325924D01*
X13604524Y-9325924D02*
X13728333Y-9325924D01*
X13728333Y-9325924D02*
X13661667Y-9402114D01*
X13661667Y-9402114D02*
X13690238Y-9402114D01*
X13690238Y-9402114D02*
X13709286Y-9411638D01*
X13709286Y-9411638D02*
X13718810Y-9421162D01*
X13718810Y-9421162D02*
X13728333Y-9440210D01*
X13728333Y-9440210D02*
X13728333Y-9487829D01*
X13728333Y-9487829D02*
X13718810Y-9506876D01*
X13718810Y-9506876D02*
X13709286Y-9516400D01*
X13709286Y-9516400D02*
X13690238Y-9525924D01*
X13690238Y-9525924D02*
X13633095Y-9525924D01*
X13633095Y-9525924D02*
X13614048Y-9516400D01*
X13614048Y-9516400D02*
X13604524Y-9506876D01*
X13795000Y-9325924D02*
X13928333Y-9325924D01*
X13928333Y-9325924D02*
X13842619Y-9525924D01*
X14090238Y-9392590D02*
X14090238Y-9525924D01*
X14042619Y-9316400D02*
X13995000Y-9459257D01*
X13995000Y-9459257D02*
X14118810Y-9459257D01*
X14185476Y-9325924D02*
X14185476Y-9364019D01*
X14261667Y-9325924D02*
X14261667Y-9364019D01*
X14556905Y-9602114D02*
X14547381Y-9592590D01*
X14547381Y-9592590D02*
X14528334Y-9564019D01*
X14528334Y-9564019D02*
X14518810Y-9544971D01*
X14518810Y-9544971D02*
X14509286Y-9516400D01*
X14509286Y-9516400D02*
X14499762Y-9468781D01*
X14499762Y-9468781D02*
X14499762Y-9430686D01*
X14499762Y-9430686D02*
X14509286Y-9383067D01*
X14509286Y-9383067D02*
X14518810Y-9354495D01*
X14518810Y-9354495D02*
X14528334Y-9335448D01*
X14528334Y-9335448D02*
X14547381Y-9306876D01*
X14547381Y-9306876D02*
X14556905Y-9297352D01*
X14623572Y-9344971D02*
X14633095Y-9335448D01*
X14633095Y-9335448D02*
X14652143Y-9325924D01*
X14652143Y-9325924D02*
X14699762Y-9325924D01*
X14699762Y-9325924D02*
X14718810Y-9335448D01*
X14718810Y-9335448D02*
X14728334Y-9344971D01*
X14728334Y-9344971D02*
X14737857Y-9364019D01*
X14737857Y-9364019D02*
X14737857Y-9383067D01*
X14737857Y-9383067D02*
X14728334Y-9411638D01*
X14728334Y-9411638D02*
X14614048Y-9525924D01*
X14614048Y-9525924D02*
X14737857Y-9525924D01*
X14975953Y-9525924D02*
X14975953Y-9325924D01*
X15061667Y-9525924D02*
X15061667Y-9421162D01*
X15061667Y-9421162D02*
X15052143Y-9402114D01*
X15052143Y-9402114D02*
X15033096Y-9392590D01*
X15033096Y-9392590D02*
X15004524Y-9392590D01*
X15004524Y-9392590D02*
X14985476Y-9402114D01*
X14985476Y-9402114D02*
X14975953Y-9411638D01*
X15185476Y-9525924D02*
X15166429Y-9516400D01*
X15166429Y-9516400D02*
X15156905Y-9506876D01*
X15156905Y-9506876D02*
X15147381Y-9487829D01*
X15147381Y-9487829D02*
X15147381Y-9430686D01*
X15147381Y-9430686D02*
X15156905Y-9411638D01*
X15156905Y-9411638D02*
X15166429Y-9402114D01*
X15166429Y-9402114D02*
X15185476Y-9392590D01*
X15185476Y-9392590D02*
X15214048Y-9392590D01*
X15214048Y-9392590D02*
X15233096Y-9402114D01*
X15233096Y-9402114D02*
X15242619Y-9411638D01*
X15242619Y-9411638D02*
X15252143Y-9430686D01*
X15252143Y-9430686D02*
X15252143Y-9487829D01*
X15252143Y-9487829D02*
X15242619Y-9506876D01*
X15242619Y-9506876D02*
X15233096Y-9516400D01*
X15233096Y-9516400D02*
X15214048Y-9525924D01*
X15214048Y-9525924D02*
X15185476Y-9525924D01*
X15366429Y-9525924D02*
X15347381Y-9516400D01*
X15347381Y-9516400D02*
X15337857Y-9497352D01*
X15337857Y-9497352D02*
X15337857Y-9325924D01*
X15518810Y-9516400D02*
X15499762Y-9525924D01*
X15499762Y-9525924D02*
X15461667Y-9525924D01*
X15461667Y-9525924D02*
X15442619Y-9516400D01*
X15442619Y-9516400D02*
X15433096Y-9497352D01*
X15433096Y-9497352D02*
X15433096Y-9421162D01*
X15433096Y-9421162D02*
X15442619Y-9402114D01*
X15442619Y-9402114D02*
X15461667Y-9392590D01*
X15461667Y-9392590D02*
X15499762Y-9392590D01*
X15499762Y-9392590D02*
X15518810Y-9402114D01*
X15518810Y-9402114D02*
X15528334Y-9421162D01*
X15528334Y-9421162D02*
X15528334Y-9440210D01*
X15528334Y-9440210D02*
X15433096Y-9459257D01*
X15604524Y-9516400D02*
X15623572Y-9525924D01*
X15623572Y-9525924D02*
X15661667Y-9525924D01*
X15661667Y-9525924D02*
X15680715Y-9516400D01*
X15680715Y-9516400D02*
X15690238Y-9497352D01*
X15690238Y-9497352D02*
X15690238Y-9487829D01*
X15690238Y-9487829D02*
X15680715Y-9468781D01*
X15680715Y-9468781D02*
X15661667Y-9459257D01*
X15661667Y-9459257D02*
X15633096Y-9459257D01*
X15633096Y-9459257D02*
X15614048Y-9449733D01*
X15614048Y-9449733D02*
X15604524Y-9430686D01*
X15604524Y-9430686D02*
X15604524Y-9421162D01*
X15604524Y-9421162D02*
X15614048Y-9402114D01*
X15614048Y-9402114D02*
X15633096Y-9392590D01*
X15633096Y-9392590D02*
X15661667Y-9392590D01*
X15661667Y-9392590D02*
X15680715Y-9402114D01*
X15756905Y-9602114D02*
X15766429Y-9592590D01*
X15766429Y-9592590D02*
X15785477Y-9564019D01*
X15785477Y-9564019D02*
X15795000Y-9544971D01*
X15795000Y-9544971D02*
X15804524Y-9516400D01*
X15804524Y-9516400D02*
X15814048Y-9468781D01*
X15814048Y-9468781D02*
X15814048Y-9430686D01*
X15814048Y-9430686D02*
X15804524Y-9383067D01*
X15804524Y-9383067D02*
X15795000Y-9354495D01*
X15795000Y-9354495D02*
X15785477Y-9335448D01*
X15785477Y-9335448D02*
X15766429Y-9306876D01*
X15766429Y-9306876D02*
X15756905Y-9297352D01*
X16118810Y-9602114D02*
X16109286Y-9592590D01*
X16109286Y-9592590D02*
X16090238Y-9564019D01*
X16090238Y-9564019D02*
X16080715Y-9544971D01*
X16080715Y-9544971D02*
X16071191Y-9516400D01*
X16071191Y-9516400D02*
X16061667Y-9468781D01*
X16061667Y-9468781D02*
X16061667Y-9430686D01*
X16061667Y-9430686D02*
X16071191Y-9383067D01*
X16071191Y-9383067D02*
X16080715Y-9354495D01*
X16080715Y-9354495D02*
X16090238Y-9335448D01*
X16090238Y-9335448D02*
X16109286Y-9306876D01*
X16109286Y-9306876D02*
X16118810Y-9297352D01*
X16195000Y-9392590D02*
X16195000Y-9525924D01*
X16195000Y-9411638D02*
X16204524Y-9402114D01*
X16204524Y-9402114D02*
X16223572Y-9392590D01*
X16223572Y-9392590D02*
X16252143Y-9392590D01*
X16252143Y-9392590D02*
X16271191Y-9402114D01*
X16271191Y-9402114D02*
X16280715Y-9421162D01*
X16280715Y-9421162D02*
X16280715Y-9525924D01*
X16404524Y-9525924D02*
X16385477Y-9516400D01*
X16385477Y-9516400D02*
X16375953Y-9506876D01*
X16375953Y-9506876D02*
X16366429Y-9487829D01*
X16366429Y-9487829D02*
X16366429Y-9430686D01*
X16366429Y-9430686D02*
X16375953Y-9411638D01*
X16375953Y-9411638D02*
X16385477Y-9402114D01*
X16385477Y-9402114D02*
X16404524Y-9392590D01*
X16404524Y-9392590D02*
X16433096Y-9392590D01*
X16433096Y-9392590D02*
X16452143Y-9402114D01*
X16452143Y-9402114D02*
X16461667Y-9411638D01*
X16461667Y-9411638D02*
X16471191Y-9430686D01*
X16471191Y-9430686D02*
X16471191Y-9487829D01*
X16471191Y-9487829D02*
X16461667Y-9506876D01*
X16461667Y-9506876D02*
X16452143Y-9516400D01*
X16452143Y-9516400D02*
X16433096Y-9525924D01*
X16433096Y-9525924D02*
X16404524Y-9525924D01*
X16528334Y-9392590D02*
X16604524Y-9392590D01*
X16556905Y-9325924D02*
X16556905Y-9497352D01*
X16556905Y-9497352D02*
X16566429Y-9516400D01*
X16566429Y-9516400D02*
X16585477Y-9525924D01*
X16585477Y-9525924D02*
X16604524Y-9525924D01*
X16823572Y-9392590D02*
X16823572Y-9592590D01*
X16823572Y-9402114D02*
X16842620Y-9392590D01*
X16842620Y-9392590D02*
X16880715Y-9392590D01*
X16880715Y-9392590D02*
X16899762Y-9402114D01*
X16899762Y-9402114D02*
X16909286Y-9411638D01*
X16909286Y-9411638D02*
X16918810Y-9430686D01*
X16918810Y-9430686D02*
X16918810Y-9487829D01*
X16918810Y-9487829D02*
X16909286Y-9506876D01*
X16909286Y-9506876D02*
X16899762Y-9516400D01*
X16899762Y-9516400D02*
X16880715Y-9525924D01*
X16880715Y-9525924D02*
X16842620Y-9525924D01*
X16842620Y-9525924D02*
X16823572Y-9516400D01*
X17033096Y-9525924D02*
X17014048Y-9516400D01*
X17014048Y-9516400D02*
X17004524Y-9497352D01*
X17004524Y-9497352D02*
X17004524Y-9325924D01*
X17195001Y-9525924D02*
X17195001Y-9421162D01*
X17195001Y-9421162D02*
X17185477Y-9402114D01*
X17185477Y-9402114D02*
X17166429Y-9392590D01*
X17166429Y-9392590D02*
X17128334Y-9392590D01*
X17128334Y-9392590D02*
X17109286Y-9402114D01*
X17195001Y-9516400D02*
X17175953Y-9525924D01*
X17175953Y-9525924D02*
X17128334Y-9525924D01*
X17128334Y-9525924D02*
X17109286Y-9516400D01*
X17109286Y-9516400D02*
X17099762Y-9497352D01*
X17099762Y-9497352D02*
X17099762Y-9478305D01*
X17099762Y-9478305D02*
X17109286Y-9459257D01*
X17109286Y-9459257D02*
X17128334Y-9449733D01*
X17128334Y-9449733D02*
X17175953Y-9449733D01*
X17175953Y-9449733D02*
X17195001Y-9440210D01*
X17261667Y-9392590D02*
X17337858Y-9392590D01*
X17290239Y-9325924D02*
X17290239Y-9497352D01*
X17290239Y-9497352D02*
X17299762Y-9516400D01*
X17299762Y-9516400D02*
X17318810Y-9525924D01*
X17318810Y-9525924D02*
X17337858Y-9525924D01*
X17480715Y-9516400D02*
X17461667Y-9525924D01*
X17461667Y-9525924D02*
X17423572Y-9525924D01*
X17423572Y-9525924D02*
X17404524Y-9516400D01*
X17404524Y-9516400D02*
X17395001Y-9497352D01*
X17395001Y-9497352D02*
X17395001Y-9421162D01*
X17395001Y-9421162D02*
X17404524Y-9402114D01*
X17404524Y-9402114D02*
X17423572Y-9392590D01*
X17423572Y-9392590D02*
X17461667Y-9392590D01*
X17461667Y-9392590D02*
X17480715Y-9402114D01*
X17480715Y-9402114D02*
X17490239Y-9421162D01*
X17490239Y-9421162D02*
X17490239Y-9440210D01*
X17490239Y-9440210D02*
X17395001Y-9459257D01*
X17661667Y-9525924D02*
X17661667Y-9325924D01*
X17661667Y-9516400D02*
X17642620Y-9525924D01*
X17642620Y-9525924D02*
X17604524Y-9525924D01*
X17604524Y-9525924D02*
X17585477Y-9516400D01*
X17585477Y-9516400D02*
X17575953Y-9506876D01*
X17575953Y-9506876D02*
X17566429Y-9487829D01*
X17566429Y-9487829D02*
X17566429Y-9430686D01*
X17566429Y-9430686D02*
X17575953Y-9411638D01*
X17575953Y-9411638D02*
X17585477Y-9402114D01*
X17585477Y-9402114D02*
X17604524Y-9392590D01*
X17604524Y-9392590D02*
X17642620Y-9392590D01*
X17642620Y-9392590D02*
X17661667Y-9402114D01*
X17737858Y-9602114D02*
X17747382Y-9592590D01*
X17747382Y-9592590D02*
X17766429Y-9564019D01*
X17766429Y-9564019D02*
X17775953Y-9544971D01*
X17775953Y-9544971D02*
X17785477Y-9516400D01*
X17785477Y-9516400D02*
X17795001Y-9468781D01*
X17795001Y-9468781D02*
X17795001Y-9430686D01*
X17795001Y-9430686D02*
X17785477Y-9383067D01*
X17785477Y-9383067D02*
X17775953Y-9354495D01*
X17775953Y-9354495D02*
X17766429Y-9335448D01*
X17766429Y-9335448D02*
X17747382Y-9306876D01*
X17747382Y-9306876D02*
X17737858Y-9297352D01*
M02*
