%TF.GenerationSoftware,KiCad,Pcbnew,7.0.1*%
%TF.CreationDate,2024-02-26T17:06:04+01:00*%
%TF.ProjectId,armband,61726d62-616e-4642-9e6b-696361645f70,rev?*%
%TF.SameCoordinates,Original*%
%TF.FileFunction,Drillmap*%
%TF.FilePolarity,Positive*%
%FSLAX45Y45*%
G04 Gerber Fmt 4.5, Leading zero omitted, Abs format (unit mm)*
G04 Created by KiCad (PCBNEW 7.0.1) date 2024-02-26 17:06:04*
%MOMM*%
%LPD*%
G01*
G04 APERTURE LIST*
%ADD10C,0.100000*%
%ADD11C,0.200000*%
%ADD12C,0.020000*%
%ADD13C,0.075000*%
G04 APERTURE END LIST*
D10*
X12547600Y-5181600D02*
X12598400Y-5181600D01*
X12598400Y-6024400D01*
X12547600Y-6024400D01*
X12547600Y-5181600D01*
X12547600Y-4775200D02*
X11000000Y-4775200D01*
X12547600Y-5003800D02*
X12547600Y-4775200D01*
X12854205Y-8788400D02*
X15608300Y-8788400D01*
X12090400Y-8686800D02*
X12547600Y-8686800D01*
X15874991Y-5027924D02*
G75*
G03*
X15619195Y-4772119I-255802J4D01*
G01*
X11000000Y-4775200D02*
X11000000Y-7350000D01*
X12598400Y-8532595D02*
G75*
G03*
X12854205Y-8788400I255810J5D01*
G01*
X12547600Y-5003800D02*
X12598400Y-5003800D01*
X12090400Y-7350000D02*
X12090400Y-8686800D01*
X15608300Y-8788400D02*
G75*
G03*
X15875000Y-8521700I0J266700D01*
G01*
X12598400Y-8532595D02*
X12598400Y-8400000D01*
X12547600Y-8686800D02*
X12547600Y-8400000D01*
X12830081Y-4772119D02*
X15619195Y-4772119D01*
X12598400Y-8400000D02*
X12547600Y-8400000D01*
X15875000Y-5027924D02*
X15875000Y-8521700D01*
X12547600Y-6290000D02*
X12598400Y-6290000D01*
X12598400Y-8239000D01*
X12547600Y-8239000D01*
X12547600Y-6290000D01*
X11000000Y-7350000D02*
X12090400Y-7350000D01*
X12830081Y-4772120D02*
G75*
G03*
X12598400Y-5003800I-2J-231680D01*
G01*
D11*
D12*
X11161000Y-7241000D02*
X11181000Y-7261000D01*
X11181000Y-7241000D02*
X11161000Y-7261000D01*
X11399000Y-6236000D02*
X11419000Y-6256000D01*
X11419000Y-6236000D02*
X11399000Y-6256000D01*
X11442500Y-5160000D02*
X11462500Y-5180000D01*
X11462500Y-5160000D02*
X11442500Y-5180000D01*
X11656000Y-6285000D02*
X11676000Y-6305000D01*
X11676000Y-6285000D02*
X11656000Y-6305000D01*
X11705000Y-5070000D02*
X11725000Y-5090000D01*
X11725000Y-5070000D02*
X11705000Y-5090000D01*
X11715000Y-6536000D02*
X11735000Y-6556000D01*
X11735000Y-6536000D02*
X11715000Y-6556000D01*
X11920000Y-6296000D02*
X11940000Y-6316000D01*
X11940000Y-6296000D02*
X11920000Y-6316000D01*
X11955000Y-7247000D02*
X11975000Y-7267000D01*
X11975000Y-7247000D02*
X11955000Y-7267000D01*
X11961000Y-6534000D02*
X11981000Y-6554000D01*
X11981000Y-6534000D02*
X11961000Y-6554000D01*
X11983000Y-6254000D02*
X12003000Y-6274000D01*
X12003000Y-6254000D02*
X11983000Y-6274000D01*
X12020000Y-5165000D02*
X12040000Y-5185000D01*
X12040000Y-5165000D02*
X12020000Y-5185000D01*
X12030000Y-5610000D02*
X12050000Y-5630000D01*
X12050000Y-5610000D02*
X12030000Y-5630000D01*
X12157000Y-8339000D02*
X12177000Y-8359000D01*
X12177000Y-8339000D02*
X12157000Y-8359000D01*
X12285000Y-6310000D02*
X12305000Y-6330000D01*
X12305000Y-6310000D02*
X12285000Y-6330000D01*
X12304800Y-6527200D02*
X12324800Y-6547200D01*
X12324800Y-6527200D02*
X12304800Y-6547200D01*
X12423300Y-5108100D02*
X12443300Y-5128100D01*
X12443300Y-5108100D02*
X12423300Y-5128100D01*
X12423300Y-5184300D02*
X12443300Y-5204300D01*
X12443300Y-5184300D02*
X12423300Y-5204300D01*
X12438000Y-6013000D02*
X12458000Y-6033000D01*
X12458000Y-6013000D02*
X12438000Y-6033000D01*
X12460000Y-6278000D02*
X12480000Y-6298000D01*
X12480000Y-6278000D02*
X12460000Y-6298000D01*
X12460000Y-8381000D02*
X12480000Y-8401000D01*
X12480000Y-8381000D02*
X12460000Y-8401000D01*
X12664600Y-5146200D02*
X12684600Y-5166200D01*
X12684600Y-5146200D02*
X12664600Y-5166200D01*
X12669680Y-5481480D02*
X12689680Y-5501480D01*
X12689680Y-5481480D02*
X12669680Y-5501480D01*
X12680000Y-7880000D02*
X12700000Y-7900000D01*
X12700000Y-7880000D02*
X12680000Y-7900000D01*
X12680000Y-8431537D02*
X12700000Y-8451537D01*
X12700000Y-8431537D02*
X12680000Y-8451537D01*
X12681000Y-8220000D02*
X12701000Y-8240000D01*
X12701000Y-8220000D02*
X12681000Y-8240000D01*
X12682000Y-6013000D02*
X12702000Y-6033000D01*
X12702000Y-6013000D02*
X12682000Y-6033000D01*
X12683000Y-7812000D02*
X12703000Y-7832000D01*
X12703000Y-7812000D02*
X12683000Y-7832000D01*
X12685000Y-7975000D02*
X12705000Y-7995000D01*
X12705000Y-7975000D02*
X12685000Y-7995000D01*
X12690000Y-6356000D02*
X12710000Y-6376000D01*
X12710000Y-6356000D02*
X12690000Y-6376000D01*
X12700160Y-5745640D02*
X12720160Y-5765640D01*
X12720160Y-5745640D02*
X12700160Y-5765640D01*
X12710000Y-6530000D02*
X12730000Y-6550000D01*
X12730000Y-6530000D02*
X12710000Y-6550000D01*
X12710000Y-6590000D02*
X12730000Y-6610000D01*
X12730000Y-6590000D02*
X12710000Y-6610000D01*
X12710000Y-6650000D02*
X12730000Y-6670000D01*
X12730000Y-6650000D02*
X12710000Y-6670000D01*
X12710000Y-6710000D02*
X12730000Y-6730000D01*
X12730000Y-6710000D02*
X12710000Y-6730000D01*
X12710000Y-6770000D02*
X12730000Y-6790000D01*
X12730000Y-6770000D02*
X12710000Y-6790000D01*
X12710000Y-6830000D02*
X12730000Y-6850000D01*
X12730000Y-6830000D02*
X12710000Y-6850000D01*
X12710000Y-6890000D02*
X12730000Y-6910000D01*
X12730000Y-6890000D02*
X12710000Y-6910000D01*
X12710000Y-6950000D02*
X12730000Y-6970000D01*
X12730000Y-6950000D02*
X12710000Y-6970000D01*
X12710000Y-7010000D02*
X12730000Y-7030000D01*
X12730000Y-7010000D02*
X12710000Y-7030000D01*
X12710000Y-7070000D02*
X12730000Y-7090000D01*
X12730000Y-7070000D02*
X12710000Y-7090000D01*
X12713000Y-8119000D02*
X12733000Y-8139000D01*
X12733000Y-8119000D02*
X12713000Y-8139000D01*
X12715400Y-5070000D02*
X12735400Y-5090000D01*
X12735400Y-5070000D02*
X12715400Y-5090000D01*
X12725000Y-8304750D02*
X12745000Y-8324750D01*
X12745000Y-8304750D02*
X12725000Y-8324750D01*
X12725560Y-5410360D02*
X12745560Y-5430360D01*
X12745560Y-5410360D02*
X12725560Y-5430360D01*
X12728100Y-7622700D02*
X12748100Y-7642700D01*
X12748100Y-7622700D02*
X12728100Y-7642700D01*
X12735000Y-8365000D02*
X12755000Y-8385000D01*
X12755000Y-8365000D02*
X12735000Y-8385000D01*
X12770000Y-8518000D02*
X12790000Y-8538000D01*
X12790000Y-8518000D02*
X12770000Y-8538000D01*
X12774000Y-4866000D02*
X12794000Y-4886000D01*
X12794000Y-4866000D02*
X12774000Y-4886000D01*
X12786520Y-5488840D02*
X12806520Y-5508840D01*
X12806520Y-5488840D02*
X12786520Y-5508840D01*
X12787500Y-7917500D02*
X12807500Y-7937500D01*
X12807500Y-7917500D02*
X12787500Y-7937500D01*
X12800000Y-7754750D02*
X12820000Y-7774750D01*
X12820000Y-7754750D02*
X12800000Y-7774750D01*
X12820362Y-8024917D02*
X12840362Y-8044917D01*
X12840362Y-8024917D02*
X12820362Y-8044917D01*
X12830000Y-4830000D02*
X12850000Y-4850000D01*
X12850000Y-4830000D02*
X12830000Y-4850000D01*
X12832500Y-5138520D02*
X12852500Y-5158520D01*
X12852500Y-5138520D02*
X12832500Y-5158520D01*
X12851000Y-7563000D02*
X12871000Y-7583000D01*
X12871000Y-7563000D02*
X12851000Y-7583000D01*
X12855000Y-7985000D02*
X12875000Y-8005000D01*
X12875000Y-7985000D02*
X12855000Y-8005000D01*
X12872380Y-8035000D02*
X12892380Y-8055000D01*
X12892380Y-8035000D02*
X12872380Y-8055000D01*
X12877960Y-5390040D02*
X12897960Y-5410040D01*
X12897960Y-5390040D02*
X12877960Y-5410040D01*
X12880000Y-7490000D02*
X12900000Y-7510000D01*
X12900000Y-7490000D02*
X12880000Y-7510000D01*
X12880000Y-7780000D02*
X12900000Y-7800000D01*
X12900000Y-7780000D02*
X12880000Y-7800000D01*
X12882500Y-7190000D02*
X12902500Y-7210000D01*
X12902500Y-7190000D02*
X12882500Y-7210000D01*
X12882500Y-7290000D02*
X12902500Y-7310000D01*
X12902500Y-7290000D02*
X12882500Y-7310000D01*
X12883040Y-5288440D02*
X12903040Y-5308440D01*
X12903040Y-5288440D02*
X12883040Y-5308440D01*
X12907000Y-8584000D02*
X12927000Y-8604000D01*
X12927000Y-8584000D02*
X12907000Y-8604000D01*
X12920000Y-4810000D02*
X12940000Y-4830000D01*
X12940000Y-4810000D02*
X12920000Y-4830000D01*
X12930000Y-8169750D02*
X12950000Y-8189750D01*
X12950000Y-8169750D02*
X12930000Y-8189750D01*
X12935000Y-8284750D02*
X12955000Y-8304750D01*
X12955000Y-8284750D02*
X12935000Y-8304750D01*
X12950000Y-7555000D02*
X12970000Y-7575000D01*
X12970000Y-7555000D02*
X12950000Y-7575000D01*
X12964000Y-8631000D02*
X12984000Y-8651000D01*
X12984000Y-8631000D02*
X12964000Y-8651000D01*
X12970000Y-8360000D02*
X12990000Y-8380000D01*
X12990000Y-8360000D02*
X12970000Y-8380000D01*
X12973775Y-7858827D02*
X12993775Y-7878827D01*
X12993775Y-7858827D02*
X12973775Y-7878827D01*
X12980000Y-4810000D02*
X13000000Y-4830000D01*
X13000000Y-4810000D02*
X12980000Y-4830000D01*
X12993250Y-7976750D02*
X13013250Y-7996750D01*
X13013250Y-7976750D02*
X12993250Y-7996750D01*
X12994000Y-7810000D02*
X13014000Y-7830000D01*
X13014000Y-7810000D02*
X12994000Y-7830000D01*
X12996750Y-7912750D02*
X13016750Y-7932750D01*
X13016750Y-7912750D02*
X12996750Y-7932750D01*
X13000000Y-7690000D02*
X13020000Y-7710000D01*
X13020000Y-7690000D02*
X13000000Y-7710000D01*
X13052500Y-7557500D02*
X13072500Y-7577500D01*
X13072500Y-7557500D02*
X13052500Y-7577500D01*
X13070000Y-4830000D02*
X13090000Y-4850000D01*
X13090000Y-4830000D02*
X13070000Y-4850000D01*
X13076000Y-7697000D02*
X13096000Y-7717000D01*
X13096000Y-7697000D02*
X13076000Y-7717000D01*
X13098000Y-7880000D02*
X13118000Y-7900000D01*
X13118000Y-7880000D02*
X13098000Y-7900000D01*
X13099000Y-8631000D02*
X13119000Y-8651000D01*
X13119000Y-8631000D02*
X13099000Y-8651000D01*
X13150000Y-7130000D02*
X13170000Y-7150000D01*
X13170000Y-7130000D02*
X13150000Y-7150000D01*
X13150000Y-7557500D02*
X13170000Y-7577500D01*
X13170000Y-7557500D02*
X13150000Y-7577500D01*
X13150000Y-7930000D02*
X13170000Y-7950000D01*
X13170000Y-7930000D02*
X13150000Y-7950000D01*
X13161000Y-7700000D02*
X13181000Y-7720000D01*
X13181000Y-7700000D02*
X13161000Y-7720000D01*
X13170000Y-8052150D02*
X13190000Y-8072150D01*
X13190000Y-8052150D02*
X13170000Y-8072150D01*
X13173000Y-6950000D02*
X13193000Y-6970000D01*
X13193000Y-6950000D02*
X13173000Y-6970000D01*
X13190000Y-8485000D02*
X13210000Y-8505000D01*
X13210000Y-8485000D02*
X13190000Y-8505000D01*
X13250000Y-7557500D02*
X13270000Y-7577500D01*
X13270000Y-7557500D02*
X13250000Y-7577500D01*
X13265000Y-6950000D02*
X13285000Y-6970000D01*
X13285000Y-6950000D02*
X13265000Y-6970000D01*
X13270000Y-7820000D02*
X13290000Y-7840000D01*
X13290000Y-7820000D02*
X13270000Y-7840000D01*
X13270000Y-7940000D02*
X13290000Y-7960000D01*
X13290000Y-7940000D02*
X13270000Y-7960000D01*
X13292000Y-8460000D02*
X13312000Y-8480000D01*
X13312000Y-8460000D02*
X13292000Y-8480000D01*
X13300000Y-7695000D02*
X13320000Y-7715000D01*
X13320000Y-7695000D02*
X13300000Y-7715000D01*
X13330000Y-7820000D02*
X13350000Y-7840000D01*
X13350000Y-7820000D02*
X13330000Y-7840000D01*
X13330000Y-7940000D02*
X13350000Y-7960000D01*
X13350000Y-7940000D02*
X13330000Y-7960000D01*
X13350000Y-7557500D02*
X13370000Y-7577500D01*
X13370000Y-7557500D02*
X13350000Y-7577500D01*
X13390000Y-7820000D02*
X13410000Y-7840000D01*
X13410000Y-7820000D02*
X13390000Y-7840000D01*
X13390000Y-7940000D02*
X13410000Y-7960000D01*
X13410000Y-7940000D02*
X13390000Y-7960000D01*
X13420000Y-8589750D02*
X13440000Y-8609750D01*
X13440000Y-8589750D02*
X13420000Y-8609750D01*
X13450000Y-7557500D02*
X13470000Y-7577500D01*
X13470000Y-7557500D02*
X13450000Y-7577500D01*
X13450000Y-7820000D02*
X13470000Y-7840000D01*
X13470000Y-7820000D02*
X13450000Y-7840000D01*
X13450000Y-7940000D02*
X13470000Y-7960000D01*
X13470000Y-7940000D02*
X13450000Y-7960000D01*
X13470000Y-7378000D02*
X13490000Y-7398000D01*
X13490000Y-7378000D02*
X13470000Y-7398000D01*
X13477000Y-6889000D02*
X13497000Y-6909000D01*
X13497000Y-6889000D02*
X13477000Y-6909000D01*
X13478000Y-6692000D02*
X13498000Y-6712000D01*
X13498000Y-6692000D02*
X13478000Y-6712000D01*
X13490000Y-6965000D02*
X13510000Y-6985000D01*
X13510000Y-6965000D02*
X13490000Y-6985000D01*
X13500000Y-7160000D02*
X13520000Y-7180000D01*
X13520000Y-7160000D02*
X13500000Y-7180000D01*
X13510000Y-7820000D02*
X13530000Y-7840000D01*
X13530000Y-7820000D02*
X13510000Y-7840000D01*
X13510000Y-7940000D02*
X13530000Y-7960000D01*
X13530000Y-7940000D02*
X13510000Y-7960000D01*
X13560000Y-7670000D02*
X13580000Y-7690000D01*
X13580000Y-7670000D02*
X13560000Y-7690000D01*
X13566000Y-8370000D02*
X13586000Y-8390000D01*
X13586000Y-8370000D02*
X13566000Y-8390000D01*
X13570000Y-7820000D02*
X13590000Y-7840000D01*
X13590000Y-7820000D02*
X13570000Y-7840000D01*
X13570000Y-7940000D02*
X13590000Y-7960000D01*
X13590000Y-7940000D02*
X13570000Y-7960000D01*
X13570000Y-8305000D02*
X13590000Y-8325000D01*
X13590000Y-8305000D02*
X13570000Y-8325000D01*
X13580000Y-6790000D02*
X13600000Y-6810000D01*
X13600000Y-6790000D02*
X13580000Y-6810000D01*
X13635500Y-8179750D02*
X13655500Y-8199750D01*
X13655500Y-8179750D02*
X13635500Y-8199750D01*
X13640000Y-7820000D02*
X13660000Y-7840000D01*
X13660000Y-7820000D02*
X13640000Y-7840000D01*
X13640000Y-7940000D02*
X13660000Y-7960000D01*
X13660000Y-7940000D02*
X13640000Y-7960000D01*
X13681000Y-6690000D02*
X13701000Y-6710000D01*
X13701000Y-6690000D02*
X13681000Y-6710000D01*
X13681000Y-6890000D02*
X13701000Y-6910000D01*
X13701000Y-6890000D02*
X13681000Y-6910000D01*
X13695000Y-8349750D02*
X13715000Y-8369750D01*
X13715000Y-8349750D02*
X13695000Y-8369750D01*
X13700000Y-7820000D02*
X13720000Y-7840000D01*
X13720000Y-7820000D02*
X13700000Y-7840000D01*
X13700000Y-7940000D02*
X13720000Y-7960000D01*
X13720000Y-7940000D02*
X13700000Y-7960000D01*
X13730000Y-8450000D02*
X13750000Y-8470000D01*
X13750000Y-8450000D02*
X13730000Y-8470000D01*
X13770000Y-7820000D02*
X13790000Y-7840000D01*
X13790000Y-7820000D02*
X13770000Y-7840000D01*
X13770000Y-7940000D02*
X13790000Y-7960000D01*
X13790000Y-7940000D02*
X13770000Y-7960000D01*
X13800000Y-7366000D02*
X13820000Y-7386000D01*
X13820000Y-7366000D02*
X13800000Y-7386000D01*
X13800000Y-8330000D02*
X13820000Y-8350000D01*
X13820000Y-8330000D02*
X13800000Y-8350000D01*
X13820000Y-8460000D02*
X13840000Y-8480000D01*
X13840000Y-8460000D02*
X13820000Y-8480000D01*
X13830000Y-7820000D02*
X13850000Y-7840000D01*
X13850000Y-7820000D02*
X13830000Y-7840000D01*
X13830000Y-7940000D02*
X13850000Y-7960000D01*
X13850000Y-7940000D02*
X13830000Y-7960000D01*
X13855000Y-8059750D02*
X13875000Y-8079750D01*
X13875000Y-8059750D02*
X13855000Y-8079750D01*
X13855000Y-8529750D02*
X13875000Y-8549750D01*
X13875000Y-8529750D02*
X13855000Y-8549750D01*
X13921900Y-7698900D02*
X13941900Y-7718900D01*
X13941900Y-7698900D02*
X13921900Y-7718900D01*
X13940500Y-8529750D02*
X13960500Y-8549750D01*
X13960500Y-8529750D02*
X13940500Y-8549750D01*
X13955500Y-8079750D02*
X13975500Y-8099750D01*
X13975500Y-8079750D02*
X13955500Y-8099750D01*
X13985000Y-8369750D02*
X14005000Y-8389750D01*
X14005000Y-8369750D02*
X13985000Y-8389750D01*
X14013000Y-8595000D02*
X14033000Y-8615000D01*
X14033000Y-8595000D02*
X14013000Y-8615000D01*
X14020000Y-7820000D02*
X14040000Y-7840000D01*
X14040000Y-7820000D02*
X14020000Y-7840000D01*
X14020000Y-7940000D02*
X14040000Y-7960000D01*
X14040000Y-7940000D02*
X14020000Y-7960000D01*
X14025500Y-8504750D02*
X14045500Y-8524750D01*
X14045500Y-8504750D02*
X14025500Y-8524750D01*
X14040000Y-8020000D02*
X14060000Y-8040000D01*
X14060000Y-8020000D02*
X14040000Y-8040000D01*
X14055000Y-8269750D02*
X14075000Y-8289750D01*
X14075000Y-8269750D02*
X14055000Y-8289750D01*
X14079000Y-7820000D02*
X14099000Y-7840000D01*
X14099000Y-7820000D02*
X14079000Y-7840000D01*
X14080000Y-7940000D02*
X14100000Y-7960000D01*
X14100000Y-7940000D02*
X14080000Y-7960000D01*
X14087183Y-8423481D02*
X14107183Y-8443481D01*
X14107183Y-8423481D02*
X14087183Y-8443481D01*
X14100000Y-8337250D02*
X14120000Y-8357250D01*
X14120000Y-8337250D02*
X14100000Y-8357250D01*
X14110500Y-8084750D02*
X14130500Y-8104750D01*
X14130500Y-8084750D02*
X14110500Y-8104750D01*
X14112000Y-8577000D02*
X14132000Y-8597000D01*
X14132000Y-8577000D02*
X14112000Y-8597000D01*
X14138000Y-8438000D02*
X14158000Y-8458000D01*
X14158000Y-8438000D02*
X14138000Y-8458000D01*
X14140000Y-7820000D02*
X14160000Y-7840000D01*
X14160000Y-7820000D02*
X14140000Y-7840000D01*
X14140000Y-7940000D02*
X14160000Y-7960000D01*
X14160000Y-7940000D02*
X14140000Y-7960000D01*
X14140000Y-8000000D02*
X14160000Y-8020000D01*
X14160000Y-8000000D02*
X14140000Y-8020000D01*
X14150000Y-8239750D02*
X14170000Y-8259750D01*
X14170000Y-8239750D02*
X14150000Y-8259750D01*
X14195000Y-8109750D02*
X14215000Y-8129750D01*
X14215000Y-8109750D02*
X14195000Y-8129750D01*
X14197500Y-8469750D02*
X14217500Y-8489750D01*
X14217500Y-8469750D02*
X14197500Y-8489750D01*
X14199000Y-7820000D02*
X14219000Y-7840000D01*
X14219000Y-7820000D02*
X14199000Y-7840000D01*
X14200000Y-7940000D02*
X14220000Y-7960000D01*
X14220000Y-7940000D02*
X14200000Y-7960000D01*
X14260000Y-7820000D02*
X14280000Y-7840000D01*
X14280000Y-7820000D02*
X14260000Y-7840000D01*
X14260000Y-7940000D02*
X14280000Y-7960000D01*
X14280000Y-7940000D02*
X14260000Y-7960000D01*
X14275000Y-8669750D02*
X14295000Y-8689750D01*
X14295000Y-8669750D02*
X14275000Y-8689750D01*
X14277500Y-8005000D02*
X14297500Y-8025000D01*
X14297500Y-8005000D02*
X14277500Y-8025000D01*
X14280000Y-8269750D02*
X14300000Y-8289750D01*
X14300000Y-8269750D02*
X14280000Y-8289750D01*
X14319000Y-7820000D02*
X14339000Y-7840000D01*
X14339000Y-7820000D02*
X14319000Y-7840000D01*
X14320000Y-7940000D02*
X14340000Y-7960000D01*
X14340000Y-7940000D02*
X14320000Y-7960000D01*
X14335000Y-8149750D02*
X14355000Y-8169750D01*
X14355000Y-8149750D02*
X14335000Y-8169750D01*
X14335000Y-8419750D02*
X14355000Y-8439750D01*
X14355000Y-8419750D02*
X14335000Y-8439750D01*
X14335000Y-8589750D02*
X14355000Y-8609750D01*
X14355000Y-8589750D02*
X14335000Y-8609750D01*
X14415000Y-7999750D02*
X14435000Y-8019750D01*
X14435000Y-7999750D02*
X14415000Y-8019750D01*
X14447500Y-7550000D02*
X14467500Y-7570000D01*
X14467500Y-7550000D02*
X14447500Y-7570000D01*
X14450500Y-8529750D02*
X14470500Y-8549750D01*
X14470500Y-8529750D02*
X14450500Y-8549750D01*
X14508600Y-8094650D02*
X14528600Y-8114650D01*
X14528600Y-8094650D02*
X14508600Y-8114650D01*
X14550000Y-7670000D02*
X14570000Y-7690000D01*
X14570000Y-7670000D02*
X14550000Y-7690000D01*
X14652500Y-7642500D02*
X14672500Y-7662500D01*
X14672500Y-7642500D02*
X14652500Y-7662500D01*
X14776000Y-7753000D02*
X14796000Y-7773000D01*
X14796000Y-7753000D02*
X14776000Y-7773000D01*
X14787500Y-8072500D02*
X14807500Y-8092500D01*
X14807500Y-8072500D02*
X14787500Y-8092500D01*
X14800000Y-8290000D02*
X14820000Y-8310000D01*
X14820000Y-8290000D02*
X14800000Y-8310000D01*
X14803000Y-7994000D02*
X14823000Y-8014000D01*
X14823000Y-7994000D02*
X14803000Y-8014000D01*
X14805000Y-8558000D02*
X14825000Y-8578000D01*
X14825000Y-8558000D02*
X14805000Y-8578000D01*
X14810000Y-8700000D02*
X14830000Y-8720000D01*
X14830000Y-8700000D02*
X14810000Y-8720000D01*
X14830000Y-7810000D02*
X14850000Y-7830000D01*
X14850000Y-7810000D02*
X14830000Y-7830000D01*
X14830000Y-8360000D02*
X14850000Y-8380000D01*
X14850000Y-8360000D02*
X14830000Y-8380000D01*
X14920000Y-8015750D02*
X14940000Y-8035750D01*
X14940000Y-8015750D02*
X14920000Y-8035750D01*
X14930000Y-7900000D02*
X14950000Y-7920000D01*
X14950000Y-7900000D02*
X14930000Y-7920000D01*
X15002500Y-7852500D02*
X15022500Y-7872500D01*
X15022500Y-7852500D02*
X15002500Y-7872500D01*
X15012500Y-7915000D02*
X15032500Y-7935000D01*
X15032500Y-7915000D02*
X15012500Y-7935000D01*
X15040000Y-8470000D02*
X15060000Y-8490000D01*
X15060000Y-8470000D02*
X15040000Y-8490000D01*
X15050000Y-7640000D02*
X15070000Y-7660000D01*
X15070000Y-7640000D02*
X15050000Y-7660000D01*
X15091008Y-7843792D02*
X15111008Y-7863792D01*
X15111008Y-7843792D02*
X15091008Y-7863792D01*
X15091211Y-8043905D02*
X15111211Y-8063905D01*
X15111211Y-8043905D02*
X15091211Y-8063905D01*
X15120000Y-8720000D02*
X15140000Y-8740000D01*
X15140000Y-8720000D02*
X15120000Y-8740000D01*
X15131335Y-7843792D02*
X15151335Y-7863792D01*
X15151335Y-7843792D02*
X15131335Y-7863792D01*
X15152000Y-7943000D02*
X15172000Y-7963000D01*
X15172000Y-7943000D02*
X15152000Y-7963000D01*
X15152500Y-7552500D02*
X15172500Y-7572500D01*
X15172500Y-7552500D02*
X15152500Y-7572500D01*
X15157500Y-7755000D02*
X15177500Y-7775000D01*
X15177500Y-7755000D02*
X15157500Y-7775000D01*
X15221211Y-7752500D02*
X15241211Y-7772500D01*
X15241211Y-7752500D02*
X15221211Y-7772500D01*
X15230000Y-7547500D02*
X15250000Y-7567500D01*
X15250000Y-7547500D02*
X15230000Y-7567500D01*
X15230000Y-8260000D02*
X15250000Y-8280000D01*
X15250000Y-8260000D02*
X15230000Y-8280000D01*
X15240000Y-8470000D02*
X15260000Y-8490000D01*
X15260000Y-8470000D02*
X15240000Y-8490000D01*
X15250000Y-8650000D02*
X15270000Y-8670000D01*
X15270000Y-8650000D02*
X15250000Y-8670000D01*
X15252000Y-7964000D02*
X15272000Y-7984000D01*
X15272000Y-7964000D02*
X15252000Y-7984000D01*
X15310000Y-8600000D02*
X15330000Y-8620000D01*
X15330000Y-8600000D02*
X15310000Y-8620000D01*
X15323905Y-7883905D02*
X15343905Y-7903905D01*
X15343905Y-7883905D02*
X15323905Y-7903905D01*
X15333000Y-7802000D02*
X15353000Y-7822000D01*
X15353000Y-7802000D02*
X15333000Y-7822000D01*
X15350000Y-7555000D02*
X15370000Y-7575000D01*
X15370000Y-7555000D02*
X15350000Y-7575000D01*
X15375000Y-6282500D02*
X15395000Y-6302500D01*
X15395000Y-6282500D02*
X15375000Y-6302500D01*
X15380000Y-6067000D02*
X15400000Y-6087000D01*
X15400000Y-6067000D02*
X15380000Y-6087000D01*
X15390000Y-8030000D02*
X15410000Y-8050000D01*
X15410000Y-8030000D02*
X15390000Y-8050000D01*
X15392000Y-7802000D02*
X15412000Y-7822000D01*
X15412000Y-7802000D02*
X15392000Y-7822000D01*
X15410000Y-7870000D02*
X15430000Y-7890000D01*
X15430000Y-7870000D02*
X15410000Y-7890000D01*
X15412500Y-6190000D02*
X15432500Y-6210000D01*
X15432500Y-6190000D02*
X15412500Y-6210000D01*
X15445000Y-8030000D02*
X15465000Y-8050000D01*
X15465000Y-8030000D02*
X15445000Y-8050000D01*
X15460000Y-7870000D02*
X15480000Y-7890000D01*
X15480000Y-7870000D02*
X15460000Y-7890000D01*
X15465000Y-6260000D02*
X15485000Y-6280000D01*
X15485000Y-6260000D02*
X15465000Y-6280000D01*
X15495000Y-8030000D02*
X15515000Y-8050000D01*
X15515000Y-8030000D02*
X15495000Y-8050000D01*
X15510000Y-7870000D02*
X15530000Y-7890000D01*
X15530000Y-7870000D02*
X15510000Y-7890000D01*
X15525000Y-6092500D02*
X15545000Y-6112500D01*
X15545000Y-6092500D02*
X15525000Y-6112500D01*
X15530000Y-5990000D02*
X15550000Y-6010000D01*
X15550000Y-5990000D02*
X15530000Y-6010000D01*
X15530000Y-8400000D02*
X15550000Y-8420000D01*
X15550000Y-8400000D02*
X15530000Y-8420000D01*
X15545000Y-8030000D02*
X15565000Y-8050000D01*
X15565000Y-8030000D02*
X15545000Y-8050000D01*
X15555000Y-5935000D02*
X15575000Y-5955000D01*
X15575000Y-5935000D02*
X15555000Y-5955000D01*
X15560000Y-7870000D02*
X15580000Y-7890000D01*
X15580000Y-7870000D02*
X15560000Y-7890000D01*
X15560000Y-8560000D02*
X15580000Y-8580000D01*
X15580000Y-8560000D02*
X15560000Y-8580000D01*
X15560000Y-8650000D02*
X15580000Y-8670000D01*
X15580000Y-8650000D02*
X15560000Y-8670000D01*
X15570000Y-5385000D02*
X15590000Y-5405000D01*
X15590000Y-5385000D02*
X15570000Y-5405000D01*
X15575000Y-7082500D02*
X15595000Y-7102500D01*
X15595000Y-7082500D02*
X15575000Y-7102500D01*
X15592500Y-5987500D02*
X15612500Y-6007500D01*
X15612500Y-5987500D02*
X15592500Y-6007500D01*
X15595000Y-8030000D02*
X15615000Y-8050000D01*
X15615000Y-8030000D02*
X15595000Y-8050000D01*
X15595000Y-8080000D02*
X15615000Y-8100000D01*
X15615000Y-8080000D02*
X15595000Y-8100000D01*
X15595000Y-8128000D02*
X15615000Y-8148000D01*
X15615000Y-8128000D02*
X15595000Y-8148000D01*
X15595000Y-8178000D02*
X15615000Y-8198000D01*
X15615000Y-8178000D02*
X15595000Y-8198000D01*
X15595000Y-8228000D02*
X15615000Y-8248000D01*
X15615000Y-8228000D02*
X15595000Y-8248000D01*
X15595000Y-8278000D02*
X15615000Y-8298000D01*
X15615000Y-8278000D02*
X15595000Y-8298000D01*
X15595000Y-8328000D02*
X15615000Y-8348000D01*
X15615000Y-8328000D02*
X15595000Y-8348000D01*
X15595000Y-8378000D02*
X15615000Y-8398000D01*
X15615000Y-8378000D02*
X15595000Y-8398000D01*
X15595000Y-8428000D02*
X15615000Y-8448000D01*
X15615000Y-8428000D02*
X15595000Y-8448000D01*
X15595000Y-8475000D02*
X15615000Y-8495000D01*
X15615000Y-8475000D02*
X15595000Y-8495000D01*
X15596000Y-7255000D02*
X15616000Y-7275000D01*
X15616000Y-7255000D02*
X15596000Y-7275000D01*
X15600000Y-5780000D02*
X15620000Y-5800000D01*
X15620000Y-5780000D02*
X15600000Y-5800000D01*
X15610000Y-7870000D02*
X15630000Y-7890000D01*
X15630000Y-7870000D02*
X15610000Y-7890000D01*
X15630000Y-6965000D02*
X15650000Y-6985000D01*
X15650000Y-6965000D02*
X15630000Y-6985000D01*
X15646000Y-6451000D02*
X15666000Y-6471000D01*
X15666000Y-6451000D02*
X15646000Y-6471000D01*
X15658000Y-6333000D02*
X15678000Y-6353000D01*
X15678000Y-6333000D02*
X15658000Y-6353000D01*
X15658176Y-6815365D02*
X15678176Y-6835365D01*
X15678176Y-6815365D02*
X15658176Y-6835365D01*
X15658750Y-6698750D02*
X15678750Y-6718750D01*
X15678750Y-6698750D02*
X15658750Y-6718750D01*
X15660000Y-5650000D02*
X15680000Y-5670000D01*
X15680000Y-5650000D02*
X15660000Y-5670000D01*
X15660000Y-7290000D02*
X15680000Y-7310000D01*
X15680000Y-7290000D02*
X15660000Y-7310000D01*
X15660000Y-7870000D02*
X15680000Y-7890000D01*
X15680000Y-7870000D02*
X15660000Y-7890000D01*
X15663000Y-5928000D02*
X15683000Y-5948000D01*
X15683000Y-5928000D02*
X15663000Y-5948000D01*
X15665000Y-5385000D02*
X15685000Y-5405000D01*
X15685000Y-5385000D02*
X15665000Y-5405000D01*
X15677760Y-6649405D02*
X15697760Y-6669405D01*
X15697760Y-6649405D02*
X15677760Y-6669405D01*
X15685000Y-6900000D02*
X15705000Y-6920000D01*
X15705000Y-6900000D02*
X15685000Y-6920000D01*
X15698660Y-6455482D02*
X15718660Y-6475482D01*
X15718660Y-6455482D02*
X15698660Y-6475482D01*
X15702187Y-6536187D02*
X15722187Y-6556187D01*
X15722187Y-6536187D02*
X15702187Y-6556187D01*
X15710000Y-6805000D02*
X15730000Y-6825000D01*
X15730000Y-6805000D02*
X15710000Y-6825000D01*
X15710000Y-7870000D02*
X15730000Y-7890000D01*
X15730000Y-7870000D02*
X15710000Y-7890000D01*
X15712500Y-6710000D02*
X15732500Y-6730000D01*
X15732500Y-6710000D02*
X15712500Y-6730000D01*
X15729823Y-6658493D02*
X15749823Y-6678493D01*
X15749823Y-6658493D02*
X15729823Y-6678493D01*
X15749745Y-6559239D02*
X15769745Y-6579239D01*
X15769745Y-6559239D02*
X15749745Y-6579239D01*
X15752000Y-6459000D02*
X15772000Y-6479000D01*
X15772000Y-6459000D02*
X15752000Y-6479000D01*
X15760000Y-7870000D02*
X15780000Y-7890000D01*
X15780000Y-7870000D02*
X15760000Y-7890000D01*
X15810000Y-7870000D02*
X15830000Y-7890000D01*
X15830000Y-7870000D02*
X15810000Y-7890000D01*
D13*
X13688500Y-8046750D02*
G75*
G03*
X13688500Y-8046750I-37500J0D01*
G01*
X13688500Y-8562750D02*
G75*
G03*
X13688500Y-8562750I-37500J0D01*
G01*
X14712500Y-8046750D02*
G75*
G03*
X14712500Y-8046750I-37500J0D01*
G01*
X14712500Y-8562750D02*
G75*
G03*
X14712500Y-8562750I-37500J0D01*
G01*
D10*
X12270000Y-7170000D02*
X12270000Y-7270000D01*
X12220000Y-7220000D02*
X12320000Y-7220000D01*
X12270000Y-7424000D02*
X12270000Y-7524000D01*
X12220000Y-7474000D02*
X12320000Y-7474000D01*
X12270000Y-7678000D02*
X12270000Y-7778000D01*
X12220000Y-7728000D02*
X12320000Y-7728000D01*
X12270000Y-7932000D02*
X12270000Y-8032000D01*
X12220000Y-7982000D02*
X12320000Y-7982000D01*
X12270000Y-8186000D02*
X12270000Y-8286000D01*
X12220000Y-8236000D02*
X12320000Y-8236000D01*
X12270000Y-8440000D02*
X12270000Y-8540000D01*
X12220000Y-8490000D02*
X12320000Y-8490000D01*
D11*
X11242619Y-9105924D02*
X11242619Y-8905924D01*
X11242619Y-8905924D02*
X11290238Y-8905924D01*
X11290238Y-8905924D02*
X11318809Y-8915448D01*
X11318809Y-8915448D02*
X11337857Y-8934495D01*
X11337857Y-8934495D02*
X11347381Y-8953543D01*
X11347381Y-8953543D02*
X11356905Y-8991638D01*
X11356905Y-8991638D02*
X11356905Y-9020210D01*
X11356905Y-9020210D02*
X11347381Y-9058305D01*
X11347381Y-9058305D02*
X11337857Y-9077352D01*
X11337857Y-9077352D02*
X11318809Y-9096400D01*
X11318809Y-9096400D02*
X11290238Y-9105924D01*
X11290238Y-9105924D02*
X11242619Y-9105924D01*
X11442619Y-9105924D02*
X11442619Y-8972590D01*
X11442619Y-9010686D02*
X11452143Y-8991638D01*
X11452143Y-8991638D02*
X11461667Y-8982114D01*
X11461667Y-8982114D02*
X11480714Y-8972590D01*
X11480714Y-8972590D02*
X11499762Y-8972590D01*
X11566428Y-9105924D02*
X11566428Y-8972590D01*
X11566428Y-8905924D02*
X11556905Y-8915448D01*
X11556905Y-8915448D02*
X11566428Y-8924971D01*
X11566428Y-8924971D02*
X11575952Y-8915448D01*
X11575952Y-8915448D02*
X11566428Y-8905924D01*
X11566428Y-8905924D02*
X11566428Y-8924971D01*
X11690238Y-9105924D02*
X11671190Y-9096400D01*
X11671190Y-9096400D02*
X11661667Y-9077352D01*
X11661667Y-9077352D02*
X11661667Y-8905924D01*
X11795000Y-9105924D02*
X11775952Y-9096400D01*
X11775952Y-9096400D02*
X11766428Y-9077352D01*
X11766428Y-9077352D02*
X11766428Y-8905924D01*
X12023571Y-9105924D02*
X12023571Y-8905924D01*
X12023571Y-8905924D02*
X12090238Y-9048781D01*
X12090238Y-9048781D02*
X12156905Y-8905924D01*
X12156905Y-8905924D02*
X12156905Y-9105924D01*
X12337857Y-9105924D02*
X12337857Y-9001162D01*
X12337857Y-9001162D02*
X12328333Y-8982114D01*
X12328333Y-8982114D02*
X12309286Y-8972590D01*
X12309286Y-8972590D02*
X12271190Y-8972590D01*
X12271190Y-8972590D02*
X12252143Y-8982114D01*
X12337857Y-9096400D02*
X12318809Y-9105924D01*
X12318809Y-9105924D02*
X12271190Y-9105924D01*
X12271190Y-9105924D02*
X12252143Y-9096400D01*
X12252143Y-9096400D02*
X12242619Y-9077352D01*
X12242619Y-9077352D02*
X12242619Y-9058305D01*
X12242619Y-9058305D02*
X12252143Y-9039257D01*
X12252143Y-9039257D02*
X12271190Y-9029733D01*
X12271190Y-9029733D02*
X12318809Y-9029733D01*
X12318809Y-9029733D02*
X12337857Y-9020210D01*
X12433095Y-8972590D02*
X12433095Y-9172590D01*
X12433095Y-8982114D02*
X12452143Y-8972590D01*
X12452143Y-8972590D02*
X12490238Y-8972590D01*
X12490238Y-8972590D02*
X12509286Y-8982114D01*
X12509286Y-8982114D02*
X12518809Y-8991638D01*
X12518809Y-8991638D02*
X12528333Y-9010686D01*
X12528333Y-9010686D02*
X12528333Y-9067829D01*
X12528333Y-9067829D02*
X12518809Y-9086876D01*
X12518809Y-9086876D02*
X12509286Y-9096400D01*
X12509286Y-9096400D02*
X12490238Y-9105924D01*
X12490238Y-9105924D02*
X12452143Y-9105924D01*
X12452143Y-9105924D02*
X12433095Y-9096400D01*
X12614048Y-9086876D02*
X12623571Y-9096400D01*
X12623571Y-9096400D02*
X12614048Y-9105924D01*
X12614048Y-9105924D02*
X12604524Y-9096400D01*
X12604524Y-9096400D02*
X12614048Y-9086876D01*
X12614048Y-9086876D02*
X12614048Y-9105924D01*
X12614048Y-8982114D02*
X12623571Y-8991638D01*
X12623571Y-8991638D02*
X12614048Y-9001162D01*
X12614048Y-9001162D02*
X12604524Y-8991638D01*
X12604524Y-8991638D02*
X12614048Y-8982114D01*
X12614048Y-8982114D02*
X12614048Y-9001162D01*
D12*
X10975000Y-9423400D02*
X10995000Y-9443400D01*
X10995000Y-9423400D02*
X10975000Y-9443400D01*
D11*
X11280714Y-9325924D02*
X11299762Y-9325924D01*
X11299762Y-9325924D02*
X11318809Y-9335448D01*
X11318809Y-9335448D02*
X11328333Y-9344971D01*
X11328333Y-9344971D02*
X11337857Y-9364019D01*
X11337857Y-9364019D02*
X11347381Y-9402114D01*
X11347381Y-9402114D02*
X11347381Y-9449733D01*
X11347381Y-9449733D02*
X11337857Y-9487829D01*
X11337857Y-9487829D02*
X11328333Y-9506876D01*
X11328333Y-9506876D02*
X11318809Y-9516400D01*
X11318809Y-9516400D02*
X11299762Y-9525924D01*
X11299762Y-9525924D02*
X11280714Y-9525924D01*
X11280714Y-9525924D02*
X11261667Y-9516400D01*
X11261667Y-9516400D02*
X11252143Y-9506876D01*
X11252143Y-9506876D02*
X11242619Y-9487829D01*
X11242619Y-9487829D02*
X11233095Y-9449733D01*
X11233095Y-9449733D02*
X11233095Y-9402114D01*
X11233095Y-9402114D02*
X11242619Y-9364019D01*
X11242619Y-9364019D02*
X11252143Y-9344971D01*
X11252143Y-9344971D02*
X11261667Y-9335448D01*
X11261667Y-9335448D02*
X11280714Y-9325924D01*
X11433095Y-9506876D02*
X11442619Y-9516400D01*
X11442619Y-9516400D02*
X11433095Y-9525924D01*
X11433095Y-9525924D02*
X11423571Y-9516400D01*
X11423571Y-9516400D02*
X11433095Y-9506876D01*
X11433095Y-9506876D02*
X11433095Y-9525924D01*
X11518809Y-9344971D02*
X11528333Y-9335448D01*
X11528333Y-9335448D02*
X11547381Y-9325924D01*
X11547381Y-9325924D02*
X11595000Y-9325924D01*
X11595000Y-9325924D02*
X11614048Y-9335448D01*
X11614048Y-9335448D02*
X11623571Y-9344971D01*
X11623571Y-9344971D02*
X11633095Y-9364019D01*
X11633095Y-9364019D02*
X11633095Y-9383067D01*
X11633095Y-9383067D02*
X11623571Y-9411638D01*
X11623571Y-9411638D02*
X11509286Y-9525924D01*
X11509286Y-9525924D02*
X11633095Y-9525924D01*
X11756905Y-9325924D02*
X11775952Y-9325924D01*
X11775952Y-9325924D02*
X11795000Y-9335448D01*
X11795000Y-9335448D02*
X11804524Y-9344971D01*
X11804524Y-9344971D02*
X11814048Y-9364019D01*
X11814048Y-9364019D02*
X11823571Y-9402114D01*
X11823571Y-9402114D02*
X11823571Y-9449733D01*
X11823571Y-9449733D02*
X11814048Y-9487829D01*
X11814048Y-9487829D02*
X11804524Y-9506876D01*
X11804524Y-9506876D02*
X11795000Y-9516400D01*
X11795000Y-9516400D02*
X11775952Y-9525924D01*
X11775952Y-9525924D02*
X11756905Y-9525924D01*
X11756905Y-9525924D02*
X11737857Y-9516400D01*
X11737857Y-9516400D02*
X11728333Y-9506876D01*
X11728333Y-9506876D02*
X11718809Y-9487829D01*
X11718809Y-9487829D02*
X11709286Y-9449733D01*
X11709286Y-9449733D02*
X11709286Y-9402114D01*
X11709286Y-9402114D02*
X11718809Y-9364019D01*
X11718809Y-9364019D02*
X11728333Y-9344971D01*
X11728333Y-9344971D02*
X11737857Y-9335448D01*
X11737857Y-9335448D02*
X11756905Y-9325924D01*
X11947381Y-9325924D02*
X11966429Y-9325924D01*
X11966429Y-9325924D02*
X11985476Y-9335448D01*
X11985476Y-9335448D02*
X11995000Y-9344971D01*
X11995000Y-9344971D02*
X12004524Y-9364019D01*
X12004524Y-9364019D02*
X12014048Y-9402114D01*
X12014048Y-9402114D02*
X12014048Y-9449733D01*
X12014048Y-9449733D02*
X12004524Y-9487829D01*
X12004524Y-9487829D02*
X11995000Y-9506876D01*
X11995000Y-9506876D02*
X11985476Y-9516400D01*
X11985476Y-9516400D02*
X11966429Y-9525924D01*
X11966429Y-9525924D02*
X11947381Y-9525924D01*
X11947381Y-9525924D02*
X11928333Y-9516400D01*
X11928333Y-9516400D02*
X11918809Y-9506876D01*
X11918809Y-9506876D02*
X11909286Y-9487829D01*
X11909286Y-9487829D02*
X11899762Y-9449733D01*
X11899762Y-9449733D02*
X11899762Y-9402114D01*
X11899762Y-9402114D02*
X11909286Y-9364019D01*
X11909286Y-9364019D02*
X11918809Y-9344971D01*
X11918809Y-9344971D02*
X11928333Y-9335448D01*
X11928333Y-9335448D02*
X11947381Y-9325924D01*
X12099762Y-9525924D02*
X12099762Y-9392590D01*
X12099762Y-9411638D02*
X12109286Y-9402114D01*
X12109286Y-9402114D02*
X12128333Y-9392590D01*
X12128333Y-9392590D02*
X12156905Y-9392590D01*
X12156905Y-9392590D02*
X12175952Y-9402114D01*
X12175952Y-9402114D02*
X12185476Y-9421162D01*
X12185476Y-9421162D02*
X12185476Y-9525924D01*
X12185476Y-9421162D02*
X12195000Y-9402114D01*
X12195000Y-9402114D02*
X12214048Y-9392590D01*
X12214048Y-9392590D02*
X12242619Y-9392590D01*
X12242619Y-9392590D02*
X12261667Y-9402114D01*
X12261667Y-9402114D02*
X12271190Y-9421162D01*
X12271190Y-9421162D02*
X12271190Y-9525924D01*
X12366429Y-9525924D02*
X12366429Y-9392590D01*
X12366429Y-9411638D02*
X12375952Y-9402114D01*
X12375952Y-9402114D02*
X12395000Y-9392590D01*
X12395000Y-9392590D02*
X12423571Y-9392590D01*
X12423571Y-9392590D02*
X12442619Y-9402114D01*
X12442619Y-9402114D02*
X12452143Y-9421162D01*
X12452143Y-9421162D02*
X12452143Y-9525924D01*
X12452143Y-9421162D02*
X12461667Y-9402114D01*
X12461667Y-9402114D02*
X12480714Y-9392590D01*
X12480714Y-9392590D02*
X12509286Y-9392590D01*
X12509286Y-9392590D02*
X12528333Y-9402114D01*
X12528333Y-9402114D02*
X12537857Y-9421162D01*
X12537857Y-9421162D02*
X12537857Y-9525924D01*
X12928333Y-9316400D02*
X12756905Y-9573543D01*
X13185476Y-9325924D02*
X13204524Y-9325924D01*
X13204524Y-9325924D02*
X13223572Y-9335448D01*
X13223572Y-9335448D02*
X13233095Y-9344971D01*
X13233095Y-9344971D02*
X13242619Y-9364019D01*
X13242619Y-9364019D02*
X13252143Y-9402114D01*
X13252143Y-9402114D02*
X13252143Y-9449733D01*
X13252143Y-9449733D02*
X13242619Y-9487829D01*
X13242619Y-9487829D02*
X13233095Y-9506876D01*
X13233095Y-9506876D02*
X13223572Y-9516400D01*
X13223572Y-9516400D02*
X13204524Y-9525924D01*
X13204524Y-9525924D02*
X13185476Y-9525924D01*
X13185476Y-9525924D02*
X13166429Y-9516400D01*
X13166429Y-9516400D02*
X13156905Y-9506876D01*
X13156905Y-9506876D02*
X13147381Y-9487829D01*
X13147381Y-9487829D02*
X13137857Y-9449733D01*
X13137857Y-9449733D02*
X13137857Y-9402114D01*
X13137857Y-9402114D02*
X13147381Y-9364019D01*
X13147381Y-9364019D02*
X13156905Y-9344971D01*
X13156905Y-9344971D02*
X13166429Y-9335448D01*
X13166429Y-9335448D02*
X13185476Y-9325924D01*
X13337857Y-9506876D02*
X13347381Y-9516400D01*
X13347381Y-9516400D02*
X13337857Y-9525924D01*
X13337857Y-9525924D02*
X13328333Y-9516400D01*
X13328333Y-9516400D02*
X13337857Y-9506876D01*
X13337857Y-9506876D02*
X13337857Y-9525924D01*
X13471191Y-9325924D02*
X13490238Y-9325924D01*
X13490238Y-9325924D02*
X13509286Y-9335448D01*
X13509286Y-9335448D02*
X13518810Y-9344971D01*
X13518810Y-9344971D02*
X13528333Y-9364019D01*
X13528333Y-9364019D02*
X13537857Y-9402114D01*
X13537857Y-9402114D02*
X13537857Y-9449733D01*
X13537857Y-9449733D02*
X13528333Y-9487829D01*
X13528333Y-9487829D02*
X13518810Y-9506876D01*
X13518810Y-9506876D02*
X13509286Y-9516400D01*
X13509286Y-9516400D02*
X13490238Y-9525924D01*
X13490238Y-9525924D02*
X13471191Y-9525924D01*
X13471191Y-9525924D02*
X13452143Y-9516400D01*
X13452143Y-9516400D02*
X13442619Y-9506876D01*
X13442619Y-9506876D02*
X13433095Y-9487829D01*
X13433095Y-9487829D02*
X13423572Y-9449733D01*
X13423572Y-9449733D02*
X13423572Y-9402114D01*
X13423572Y-9402114D02*
X13433095Y-9364019D01*
X13433095Y-9364019D02*
X13442619Y-9344971D01*
X13442619Y-9344971D02*
X13452143Y-9335448D01*
X13452143Y-9335448D02*
X13471191Y-9325924D01*
X13661667Y-9325924D02*
X13680714Y-9325924D01*
X13680714Y-9325924D02*
X13699762Y-9335448D01*
X13699762Y-9335448D02*
X13709286Y-9344971D01*
X13709286Y-9344971D02*
X13718810Y-9364019D01*
X13718810Y-9364019D02*
X13728333Y-9402114D01*
X13728333Y-9402114D02*
X13728333Y-9449733D01*
X13728333Y-9449733D02*
X13718810Y-9487829D01*
X13718810Y-9487829D02*
X13709286Y-9506876D01*
X13709286Y-9506876D02*
X13699762Y-9516400D01*
X13699762Y-9516400D02*
X13680714Y-9525924D01*
X13680714Y-9525924D02*
X13661667Y-9525924D01*
X13661667Y-9525924D02*
X13642619Y-9516400D01*
X13642619Y-9516400D02*
X13633095Y-9506876D01*
X13633095Y-9506876D02*
X13623572Y-9487829D01*
X13623572Y-9487829D02*
X13614048Y-9449733D01*
X13614048Y-9449733D02*
X13614048Y-9402114D01*
X13614048Y-9402114D02*
X13623572Y-9364019D01*
X13623572Y-9364019D02*
X13633095Y-9344971D01*
X13633095Y-9344971D02*
X13642619Y-9335448D01*
X13642619Y-9335448D02*
X13661667Y-9325924D01*
X13795000Y-9325924D02*
X13928333Y-9325924D01*
X13928333Y-9325924D02*
X13842619Y-9525924D01*
X14014048Y-9525924D02*
X14052143Y-9525924D01*
X14052143Y-9525924D02*
X14071191Y-9516400D01*
X14071191Y-9516400D02*
X14080714Y-9506876D01*
X14080714Y-9506876D02*
X14099762Y-9478305D01*
X14099762Y-9478305D02*
X14109286Y-9440210D01*
X14109286Y-9440210D02*
X14109286Y-9364019D01*
X14109286Y-9364019D02*
X14099762Y-9344971D01*
X14099762Y-9344971D02*
X14090238Y-9335448D01*
X14090238Y-9335448D02*
X14071191Y-9325924D01*
X14071191Y-9325924D02*
X14033095Y-9325924D01*
X14033095Y-9325924D02*
X14014048Y-9335448D01*
X14014048Y-9335448D02*
X14004524Y-9344971D01*
X14004524Y-9344971D02*
X13995000Y-9364019D01*
X13995000Y-9364019D02*
X13995000Y-9411638D01*
X13995000Y-9411638D02*
X14004524Y-9430686D01*
X14004524Y-9430686D02*
X14014048Y-9440210D01*
X14014048Y-9440210D02*
X14033095Y-9449733D01*
X14033095Y-9449733D02*
X14071191Y-9449733D01*
X14071191Y-9449733D02*
X14090238Y-9440210D01*
X14090238Y-9440210D02*
X14099762Y-9430686D01*
X14099762Y-9430686D02*
X14109286Y-9411638D01*
X14185476Y-9325924D02*
X14185476Y-9364019D01*
X14261667Y-9325924D02*
X14261667Y-9364019D01*
X14556905Y-9602114D02*
X14547381Y-9592590D01*
X14547381Y-9592590D02*
X14528334Y-9564019D01*
X14528334Y-9564019D02*
X14518810Y-9544971D01*
X14518810Y-9544971D02*
X14509286Y-9516400D01*
X14509286Y-9516400D02*
X14499762Y-9468781D01*
X14499762Y-9468781D02*
X14499762Y-9430686D01*
X14499762Y-9430686D02*
X14509286Y-9383067D01*
X14509286Y-9383067D02*
X14518810Y-9354495D01*
X14518810Y-9354495D02*
X14528334Y-9335448D01*
X14528334Y-9335448D02*
X14547381Y-9306876D01*
X14547381Y-9306876D02*
X14556905Y-9297352D01*
X14623572Y-9344971D02*
X14633095Y-9335448D01*
X14633095Y-9335448D02*
X14652143Y-9325924D01*
X14652143Y-9325924D02*
X14699762Y-9325924D01*
X14699762Y-9325924D02*
X14718810Y-9335448D01*
X14718810Y-9335448D02*
X14728334Y-9344971D01*
X14728334Y-9344971D02*
X14737857Y-9364019D01*
X14737857Y-9364019D02*
X14737857Y-9383067D01*
X14737857Y-9383067D02*
X14728334Y-9411638D01*
X14728334Y-9411638D02*
X14614048Y-9525924D01*
X14614048Y-9525924D02*
X14737857Y-9525924D01*
X14909286Y-9325924D02*
X14871191Y-9325924D01*
X14871191Y-9325924D02*
X14852143Y-9335448D01*
X14852143Y-9335448D02*
X14842619Y-9344971D01*
X14842619Y-9344971D02*
X14823572Y-9373543D01*
X14823572Y-9373543D02*
X14814048Y-9411638D01*
X14814048Y-9411638D02*
X14814048Y-9487829D01*
X14814048Y-9487829D02*
X14823572Y-9506876D01*
X14823572Y-9506876D02*
X14833095Y-9516400D01*
X14833095Y-9516400D02*
X14852143Y-9525924D01*
X14852143Y-9525924D02*
X14890238Y-9525924D01*
X14890238Y-9525924D02*
X14909286Y-9516400D01*
X14909286Y-9516400D02*
X14918810Y-9506876D01*
X14918810Y-9506876D02*
X14928334Y-9487829D01*
X14928334Y-9487829D02*
X14928334Y-9440210D01*
X14928334Y-9440210D02*
X14918810Y-9421162D01*
X14918810Y-9421162D02*
X14909286Y-9411638D01*
X14909286Y-9411638D02*
X14890238Y-9402114D01*
X14890238Y-9402114D02*
X14852143Y-9402114D01*
X14852143Y-9402114D02*
X14833095Y-9411638D01*
X14833095Y-9411638D02*
X14823572Y-9421162D01*
X14823572Y-9421162D02*
X14814048Y-9440210D01*
X14995000Y-9325924D02*
X15118810Y-9325924D01*
X15118810Y-9325924D02*
X15052143Y-9402114D01*
X15052143Y-9402114D02*
X15080715Y-9402114D01*
X15080715Y-9402114D02*
X15099762Y-9411638D01*
X15099762Y-9411638D02*
X15109286Y-9421162D01*
X15109286Y-9421162D02*
X15118810Y-9440210D01*
X15118810Y-9440210D02*
X15118810Y-9487829D01*
X15118810Y-9487829D02*
X15109286Y-9506876D01*
X15109286Y-9506876D02*
X15099762Y-9516400D01*
X15099762Y-9516400D02*
X15080715Y-9525924D01*
X15080715Y-9525924D02*
X15023572Y-9525924D01*
X15023572Y-9525924D02*
X15004524Y-9516400D01*
X15004524Y-9516400D02*
X14995000Y-9506876D01*
X15356905Y-9525924D02*
X15356905Y-9325924D01*
X15442619Y-9525924D02*
X15442619Y-9421162D01*
X15442619Y-9421162D02*
X15433096Y-9402114D01*
X15433096Y-9402114D02*
X15414048Y-9392590D01*
X15414048Y-9392590D02*
X15385476Y-9392590D01*
X15385476Y-9392590D02*
X15366429Y-9402114D01*
X15366429Y-9402114D02*
X15356905Y-9411638D01*
X15566429Y-9525924D02*
X15547381Y-9516400D01*
X15547381Y-9516400D02*
X15537857Y-9506876D01*
X15537857Y-9506876D02*
X15528334Y-9487829D01*
X15528334Y-9487829D02*
X15528334Y-9430686D01*
X15528334Y-9430686D02*
X15537857Y-9411638D01*
X15537857Y-9411638D02*
X15547381Y-9402114D01*
X15547381Y-9402114D02*
X15566429Y-9392590D01*
X15566429Y-9392590D02*
X15595000Y-9392590D01*
X15595000Y-9392590D02*
X15614048Y-9402114D01*
X15614048Y-9402114D02*
X15623572Y-9411638D01*
X15623572Y-9411638D02*
X15633096Y-9430686D01*
X15633096Y-9430686D02*
X15633096Y-9487829D01*
X15633096Y-9487829D02*
X15623572Y-9506876D01*
X15623572Y-9506876D02*
X15614048Y-9516400D01*
X15614048Y-9516400D02*
X15595000Y-9525924D01*
X15595000Y-9525924D02*
X15566429Y-9525924D01*
X15747381Y-9525924D02*
X15728334Y-9516400D01*
X15728334Y-9516400D02*
X15718810Y-9497352D01*
X15718810Y-9497352D02*
X15718810Y-9325924D01*
X15899762Y-9516400D02*
X15880715Y-9525924D01*
X15880715Y-9525924D02*
X15842619Y-9525924D01*
X15842619Y-9525924D02*
X15823572Y-9516400D01*
X15823572Y-9516400D02*
X15814048Y-9497352D01*
X15814048Y-9497352D02*
X15814048Y-9421162D01*
X15814048Y-9421162D02*
X15823572Y-9402114D01*
X15823572Y-9402114D02*
X15842619Y-9392590D01*
X15842619Y-9392590D02*
X15880715Y-9392590D01*
X15880715Y-9392590D02*
X15899762Y-9402114D01*
X15899762Y-9402114D02*
X15909286Y-9421162D01*
X15909286Y-9421162D02*
X15909286Y-9440210D01*
X15909286Y-9440210D02*
X15814048Y-9459257D01*
X15985477Y-9516400D02*
X16004524Y-9525924D01*
X16004524Y-9525924D02*
X16042619Y-9525924D01*
X16042619Y-9525924D02*
X16061667Y-9516400D01*
X16061667Y-9516400D02*
X16071191Y-9497352D01*
X16071191Y-9497352D02*
X16071191Y-9487829D01*
X16071191Y-9487829D02*
X16061667Y-9468781D01*
X16061667Y-9468781D02*
X16042619Y-9459257D01*
X16042619Y-9459257D02*
X16014048Y-9459257D01*
X16014048Y-9459257D02*
X15995000Y-9449733D01*
X15995000Y-9449733D02*
X15985477Y-9430686D01*
X15985477Y-9430686D02*
X15985477Y-9421162D01*
X15985477Y-9421162D02*
X15995000Y-9402114D01*
X15995000Y-9402114D02*
X16014048Y-9392590D01*
X16014048Y-9392590D02*
X16042619Y-9392590D01*
X16042619Y-9392590D02*
X16061667Y-9402114D01*
X16137858Y-9602114D02*
X16147381Y-9592590D01*
X16147381Y-9592590D02*
X16166429Y-9564019D01*
X16166429Y-9564019D02*
X16175953Y-9544971D01*
X16175953Y-9544971D02*
X16185477Y-9516400D01*
X16185477Y-9516400D02*
X16195000Y-9468781D01*
X16195000Y-9468781D02*
X16195000Y-9430686D01*
X16195000Y-9430686D02*
X16185477Y-9383067D01*
X16185477Y-9383067D02*
X16175953Y-9354495D01*
X16175953Y-9354495D02*
X16166429Y-9335448D01*
X16166429Y-9335448D02*
X16147381Y-9306876D01*
X16147381Y-9306876D02*
X16137858Y-9297352D01*
D13*
X10995000Y-9697400D02*
G75*
G03*
X10995000Y-9697400I-37500J0D01*
G01*
D11*
X11280714Y-9589924D02*
X11299762Y-9589924D01*
X11299762Y-9589924D02*
X11318809Y-9599448D01*
X11318809Y-9599448D02*
X11328333Y-9608971D01*
X11328333Y-9608971D02*
X11337857Y-9628019D01*
X11337857Y-9628019D02*
X11347381Y-9666114D01*
X11347381Y-9666114D02*
X11347381Y-9713733D01*
X11347381Y-9713733D02*
X11337857Y-9751829D01*
X11337857Y-9751829D02*
X11328333Y-9770876D01*
X11328333Y-9770876D02*
X11318809Y-9780400D01*
X11318809Y-9780400D02*
X11299762Y-9789924D01*
X11299762Y-9789924D02*
X11280714Y-9789924D01*
X11280714Y-9789924D02*
X11261667Y-9780400D01*
X11261667Y-9780400D02*
X11252143Y-9770876D01*
X11252143Y-9770876D02*
X11242619Y-9751829D01*
X11242619Y-9751829D02*
X11233095Y-9713733D01*
X11233095Y-9713733D02*
X11233095Y-9666114D01*
X11233095Y-9666114D02*
X11242619Y-9628019D01*
X11242619Y-9628019D02*
X11252143Y-9608971D01*
X11252143Y-9608971D02*
X11261667Y-9599448D01*
X11261667Y-9599448D02*
X11280714Y-9589924D01*
X11433095Y-9770876D02*
X11442619Y-9780400D01*
X11442619Y-9780400D02*
X11433095Y-9789924D01*
X11433095Y-9789924D02*
X11423571Y-9780400D01*
X11423571Y-9780400D02*
X11433095Y-9770876D01*
X11433095Y-9770876D02*
X11433095Y-9789924D01*
X11509286Y-9589924D02*
X11642619Y-9589924D01*
X11642619Y-9589924D02*
X11556905Y-9789924D01*
X11814048Y-9589924D02*
X11718809Y-9589924D01*
X11718809Y-9589924D02*
X11709286Y-9685162D01*
X11709286Y-9685162D02*
X11718809Y-9675638D01*
X11718809Y-9675638D02*
X11737857Y-9666114D01*
X11737857Y-9666114D02*
X11785476Y-9666114D01*
X11785476Y-9666114D02*
X11804524Y-9675638D01*
X11804524Y-9675638D02*
X11814048Y-9685162D01*
X11814048Y-9685162D02*
X11823571Y-9704210D01*
X11823571Y-9704210D02*
X11823571Y-9751829D01*
X11823571Y-9751829D02*
X11814048Y-9770876D01*
X11814048Y-9770876D02*
X11804524Y-9780400D01*
X11804524Y-9780400D02*
X11785476Y-9789924D01*
X11785476Y-9789924D02*
X11737857Y-9789924D01*
X11737857Y-9789924D02*
X11718809Y-9780400D01*
X11718809Y-9780400D02*
X11709286Y-9770876D01*
X11947381Y-9589924D02*
X11966429Y-9589924D01*
X11966429Y-9589924D02*
X11985476Y-9599448D01*
X11985476Y-9599448D02*
X11995000Y-9608971D01*
X11995000Y-9608971D02*
X12004524Y-9628019D01*
X12004524Y-9628019D02*
X12014048Y-9666114D01*
X12014048Y-9666114D02*
X12014048Y-9713733D01*
X12014048Y-9713733D02*
X12004524Y-9751829D01*
X12004524Y-9751829D02*
X11995000Y-9770876D01*
X11995000Y-9770876D02*
X11985476Y-9780400D01*
X11985476Y-9780400D02*
X11966429Y-9789924D01*
X11966429Y-9789924D02*
X11947381Y-9789924D01*
X11947381Y-9789924D02*
X11928333Y-9780400D01*
X11928333Y-9780400D02*
X11918809Y-9770876D01*
X11918809Y-9770876D02*
X11909286Y-9751829D01*
X11909286Y-9751829D02*
X11899762Y-9713733D01*
X11899762Y-9713733D02*
X11899762Y-9666114D01*
X11899762Y-9666114D02*
X11909286Y-9628019D01*
X11909286Y-9628019D02*
X11918809Y-9608971D01*
X11918809Y-9608971D02*
X11928333Y-9599448D01*
X11928333Y-9599448D02*
X11947381Y-9589924D01*
X12099762Y-9789924D02*
X12099762Y-9656590D01*
X12099762Y-9675638D02*
X12109286Y-9666114D01*
X12109286Y-9666114D02*
X12128333Y-9656590D01*
X12128333Y-9656590D02*
X12156905Y-9656590D01*
X12156905Y-9656590D02*
X12175952Y-9666114D01*
X12175952Y-9666114D02*
X12185476Y-9685162D01*
X12185476Y-9685162D02*
X12185476Y-9789924D01*
X12185476Y-9685162D02*
X12195000Y-9666114D01*
X12195000Y-9666114D02*
X12214048Y-9656590D01*
X12214048Y-9656590D02*
X12242619Y-9656590D01*
X12242619Y-9656590D02*
X12261667Y-9666114D01*
X12261667Y-9666114D02*
X12271190Y-9685162D01*
X12271190Y-9685162D02*
X12271190Y-9789924D01*
X12366429Y-9789924D02*
X12366429Y-9656590D01*
X12366429Y-9675638D02*
X12375952Y-9666114D01*
X12375952Y-9666114D02*
X12395000Y-9656590D01*
X12395000Y-9656590D02*
X12423571Y-9656590D01*
X12423571Y-9656590D02*
X12442619Y-9666114D01*
X12442619Y-9666114D02*
X12452143Y-9685162D01*
X12452143Y-9685162D02*
X12452143Y-9789924D01*
X12452143Y-9685162D02*
X12461667Y-9666114D01*
X12461667Y-9666114D02*
X12480714Y-9656590D01*
X12480714Y-9656590D02*
X12509286Y-9656590D01*
X12509286Y-9656590D02*
X12528333Y-9666114D01*
X12528333Y-9666114D02*
X12537857Y-9685162D01*
X12537857Y-9685162D02*
X12537857Y-9789924D01*
X12928333Y-9580400D02*
X12756905Y-9837543D01*
X13185476Y-9589924D02*
X13204524Y-9589924D01*
X13204524Y-9589924D02*
X13223572Y-9599448D01*
X13223572Y-9599448D02*
X13233095Y-9608971D01*
X13233095Y-9608971D02*
X13242619Y-9628019D01*
X13242619Y-9628019D02*
X13252143Y-9666114D01*
X13252143Y-9666114D02*
X13252143Y-9713733D01*
X13252143Y-9713733D02*
X13242619Y-9751829D01*
X13242619Y-9751829D02*
X13233095Y-9770876D01*
X13233095Y-9770876D02*
X13223572Y-9780400D01*
X13223572Y-9780400D02*
X13204524Y-9789924D01*
X13204524Y-9789924D02*
X13185476Y-9789924D01*
X13185476Y-9789924D02*
X13166429Y-9780400D01*
X13166429Y-9780400D02*
X13156905Y-9770876D01*
X13156905Y-9770876D02*
X13147381Y-9751829D01*
X13147381Y-9751829D02*
X13137857Y-9713733D01*
X13137857Y-9713733D02*
X13137857Y-9666114D01*
X13137857Y-9666114D02*
X13147381Y-9628019D01*
X13147381Y-9628019D02*
X13156905Y-9608971D01*
X13156905Y-9608971D02*
X13166429Y-9599448D01*
X13166429Y-9599448D02*
X13185476Y-9589924D01*
X13337857Y-9770876D02*
X13347381Y-9780400D01*
X13347381Y-9780400D02*
X13337857Y-9789924D01*
X13337857Y-9789924D02*
X13328333Y-9780400D01*
X13328333Y-9780400D02*
X13337857Y-9770876D01*
X13337857Y-9770876D02*
X13337857Y-9789924D01*
X13471191Y-9589924D02*
X13490238Y-9589924D01*
X13490238Y-9589924D02*
X13509286Y-9599448D01*
X13509286Y-9599448D02*
X13518810Y-9608971D01*
X13518810Y-9608971D02*
X13528333Y-9628019D01*
X13528333Y-9628019D02*
X13537857Y-9666114D01*
X13537857Y-9666114D02*
X13537857Y-9713733D01*
X13537857Y-9713733D02*
X13528333Y-9751829D01*
X13528333Y-9751829D02*
X13518810Y-9770876D01*
X13518810Y-9770876D02*
X13509286Y-9780400D01*
X13509286Y-9780400D02*
X13490238Y-9789924D01*
X13490238Y-9789924D02*
X13471191Y-9789924D01*
X13471191Y-9789924D02*
X13452143Y-9780400D01*
X13452143Y-9780400D02*
X13442619Y-9770876D01*
X13442619Y-9770876D02*
X13433095Y-9751829D01*
X13433095Y-9751829D02*
X13423572Y-9713733D01*
X13423572Y-9713733D02*
X13423572Y-9666114D01*
X13423572Y-9666114D02*
X13433095Y-9628019D01*
X13433095Y-9628019D02*
X13442619Y-9608971D01*
X13442619Y-9608971D02*
X13452143Y-9599448D01*
X13452143Y-9599448D02*
X13471191Y-9589924D01*
X13614048Y-9608971D02*
X13623572Y-9599448D01*
X13623572Y-9599448D02*
X13642619Y-9589924D01*
X13642619Y-9589924D02*
X13690238Y-9589924D01*
X13690238Y-9589924D02*
X13709286Y-9599448D01*
X13709286Y-9599448D02*
X13718810Y-9608971D01*
X13718810Y-9608971D02*
X13728333Y-9628019D01*
X13728333Y-9628019D02*
X13728333Y-9647067D01*
X13728333Y-9647067D02*
X13718810Y-9675638D01*
X13718810Y-9675638D02*
X13604524Y-9789924D01*
X13604524Y-9789924D02*
X13728333Y-9789924D01*
X13823572Y-9789924D02*
X13861667Y-9789924D01*
X13861667Y-9789924D02*
X13880714Y-9780400D01*
X13880714Y-9780400D02*
X13890238Y-9770876D01*
X13890238Y-9770876D02*
X13909286Y-9742305D01*
X13909286Y-9742305D02*
X13918810Y-9704210D01*
X13918810Y-9704210D02*
X13918810Y-9628019D01*
X13918810Y-9628019D02*
X13909286Y-9608971D01*
X13909286Y-9608971D02*
X13899762Y-9599448D01*
X13899762Y-9599448D02*
X13880714Y-9589924D01*
X13880714Y-9589924D02*
X13842619Y-9589924D01*
X13842619Y-9589924D02*
X13823572Y-9599448D01*
X13823572Y-9599448D02*
X13814048Y-9608971D01*
X13814048Y-9608971D02*
X13804524Y-9628019D01*
X13804524Y-9628019D02*
X13804524Y-9675638D01*
X13804524Y-9675638D02*
X13814048Y-9694686D01*
X13814048Y-9694686D02*
X13823572Y-9704210D01*
X13823572Y-9704210D02*
X13842619Y-9713733D01*
X13842619Y-9713733D02*
X13880714Y-9713733D01*
X13880714Y-9713733D02*
X13899762Y-9704210D01*
X13899762Y-9704210D02*
X13909286Y-9694686D01*
X13909286Y-9694686D02*
X13918810Y-9675638D01*
X14099762Y-9589924D02*
X14004524Y-9589924D01*
X14004524Y-9589924D02*
X13995000Y-9685162D01*
X13995000Y-9685162D02*
X14004524Y-9675638D01*
X14004524Y-9675638D02*
X14023572Y-9666114D01*
X14023572Y-9666114D02*
X14071191Y-9666114D01*
X14071191Y-9666114D02*
X14090238Y-9675638D01*
X14090238Y-9675638D02*
X14099762Y-9685162D01*
X14099762Y-9685162D02*
X14109286Y-9704210D01*
X14109286Y-9704210D02*
X14109286Y-9751829D01*
X14109286Y-9751829D02*
X14099762Y-9770876D01*
X14099762Y-9770876D02*
X14090238Y-9780400D01*
X14090238Y-9780400D02*
X14071191Y-9789924D01*
X14071191Y-9789924D02*
X14023572Y-9789924D01*
X14023572Y-9789924D02*
X14004524Y-9780400D01*
X14004524Y-9780400D02*
X13995000Y-9770876D01*
X14185476Y-9589924D02*
X14185476Y-9628019D01*
X14261667Y-9589924D02*
X14261667Y-9628019D01*
X14556905Y-9866114D02*
X14547381Y-9856590D01*
X14547381Y-9856590D02*
X14528334Y-9828019D01*
X14528334Y-9828019D02*
X14518810Y-9808971D01*
X14518810Y-9808971D02*
X14509286Y-9780400D01*
X14509286Y-9780400D02*
X14499762Y-9732781D01*
X14499762Y-9732781D02*
X14499762Y-9694686D01*
X14499762Y-9694686D02*
X14509286Y-9647067D01*
X14509286Y-9647067D02*
X14518810Y-9618495D01*
X14518810Y-9618495D02*
X14528334Y-9599448D01*
X14528334Y-9599448D02*
X14547381Y-9570876D01*
X14547381Y-9570876D02*
X14556905Y-9561352D01*
X14718810Y-9656590D02*
X14718810Y-9789924D01*
X14671191Y-9580400D02*
X14623572Y-9723257D01*
X14623572Y-9723257D02*
X14747381Y-9723257D01*
X14975953Y-9789924D02*
X14975953Y-9589924D01*
X15061667Y-9789924D02*
X15061667Y-9685162D01*
X15061667Y-9685162D02*
X15052143Y-9666114D01*
X15052143Y-9666114D02*
X15033096Y-9656590D01*
X15033096Y-9656590D02*
X15004524Y-9656590D01*
X15004524Y-9656590D02*
X14985476Y-9666114D01*
X14985476Y-9666114D02*
X14975953Y-9675638D01*
X15185476Y-9789924D02*
X15166429Y-9780400D01*
X15166429Y-9780400D02*
X15156905Y-9770876D01*
X15156905Y-9770876D02*
X15147381Y-9751829D01*
X15147381Y-9751829D02*
X15147381Y-9694686D01*
X15147381Y-9694686D02*
X15156905Y-9675638D01*
X15156905Y-9675638D02*
X15166429Y-9666114D01*
X15166429Y-9666114D02*
X15185476Y-9656590D01*
X15185476Y-9656590D02*
X15214048Y-9656590D01*
X15214048Y-9656590D02*
X15233096Y-9666114D01*
X15233096Y-9666114D02*
X15242619Y-9675638D01*
X15242619Y-9675638D02*
X15252143Y-9694686D01*
X15252143Y-9694686D02*
X15252143Y-9751829D01*
X15252143Y-9751829D02*
X15242619Y-9770876D01*
X15242619Y-9770876D02*
X15233096Y-9780400D01*
X15233096Y-9780400D02*
X15214048Y-9789924D01*
X15214048Y-9789924D02*
X15185476Y-9789924D01*
X15366429Y-9789924D02*
X15347381Y-9780400D01*
X15347381Y-9780400D02*
X15337857Y-9761352D01*
X15337857Y-9761352D02*
X15337857Y-9589924D01*
X15518810Y-9780400D02*
X15499762Y-9789924D01*
X15499762Y-9789924D02*
X15461667Y-9789924D01*
X15461667Y-9789924D02*
X15442619Y-9780400D01*
X15442619Y-9780400D02*
X15433096Y-9761352D01*
X15433096Y-9761352D02*
X15433096Y-9685162D01*
X15433096Y-9685162D02*
X15442619Y-9666114D01*
X15442619Y-9666114D02*
X15461667Y-9656590D01*
X15461667Y-9656590D02*
X15499762Y-9656590D01*
X15499762Y-9656590D02*
X15518810Y-9666114D01*
X15518810Y-9666114D02*
X15528334Y-9685162D01*
X15528334Y-9685162D02*
X15528334Y-9704210D01*
X15528334Y-9704210D02*
X15433096Y-9723257D01*
X15604524Y-9780400D02*
X15623572Y-9789924D01*
X15623572Y-9789924D02*
X15661667Y-9789924D01*
X15661667Y-9789924D02*
X15680715Y-9780400D01*
X15680715Y-9780400D02*
X15690238Y-9761352D01*
X15690238Y-9761352D02*
X15690238Y-9751829D01*
X15690238Y-9751829D02*
X15680715Y-9732781D01*
X15680715Y-9732781D02*
X15661667Y-9723257D01*
X15661667Y-9723257D02*
X15633096Y-9723257D01*
X15633096Y-9723257D02*
X15614048Y-9713733D01*
X15614048Y-9713733D02*
X15604524Y-9694686D01*
X15604524Y-9694686D02*
X15604524Y-9685162D01*
X15604524Y-9685162D02*
X15614048Y-9666114D01*
X15614048Y-9666114D02*
X15633096Y-9656590D01*
X15633096Y-9656590D02*
X15661667Y-9656590D01*
X15661667Y-9656590D02*
X15680715Y-9666114D01*
X15756905Y-9866114D02*
X15766429Y-9856590D01*
X15766429Y-9856590D02*
X15785477Y-9828019D01*
X15785477Y-9828019D02*
X15795000Y-9808971D01*
X15795000Y-9808971D02*
X15804524Y-9780400D01*
X15804524Y-9780400D02*
X15814048Y-9732781D01*
X15814048Y-9732781D02*
X15814048Y-9694686D01*
X15814048Y-9694686D02*
X15804524Y-9647067D01*
X15804524Y-9647067D02*
X15795000Y-9618495D01*
X15795000Y-9618495D02*
X15785477Y-9599448D01*
X15785477Y-9599448D02*
X15766429Y-9570876D01*
X15766429Y-9570876D02*
X15756905Y-9561352D01*
D10*
X10945000Y-9911400D02*
X10945000Y-10011400D01*
X10895000Y-9961400D02*
X10995000Y-9961400D01*
D11*
X11347381Y-10053924D02*
X11233095Y-10053924D01*
X11290238Y-10053924D02*
X11290238Y-9853924D01*
X11290238Y-9853924D02*
X11271190Y-9882495D01*
X11271190Y-9882495D02*
X11252143Y-9901543D01*
X11252143Y-9901543D02*
X11233095Y-9911067D01*
X11433095Y-10034876D02*
X11442619Y-10044400D01*
X11442619Y-10044400D02*
X11433095Y-10053924D01*
X11433095Y-10053924D02*
X11423571Y-10044400D01*
X11423571Y-10044400D02*
X11433095Y-10034876D01*
X11433095Y-10034876D02*
X11433095Y-10053924D01*
X11566428Y-9853924D02*
X11585476Y-9853924D01*
X11585476Y-9853924D02*
X11604524Y-9863448D01*
X11604524Y-9863448D02*
X11614048Y-9872971D01*
X11614048Y-9872971D02*
X11623571Y-9892019D01*
X11623571Y-9892019D02*
X11633095Y-9930114D01*
X11633095Y-9930114D02*
X11633095Y-9977733D01*
X11633095Y-9977733D02*
X11623571Y-10015829D01*
X11623571Y-10015829D02*
X11614048Y-10034876D01*
X11614048Y-10034876D02*
X11604524Y-10044400D01*
X11604524Y-10044400D02*
X11585476Y-10053924D01*
X11585476Y-10053924D02*
X11566428Y-10053924D01*
X11566428Y-10053924D02*
X11547381Y-10044400D01*
X11547381Y-10044400D02*
X11537857Y-10034876D01*
X11537857Y-10034876D02*
X11528333Y-10015829D01*
X11528333Y-10015829D02*
X11518809Y-9977733D01*
X11518809Y-9977733D02*
X11518809Y-9930114D01*
X11518809Y-9930114D02*
X11528333Y-9892019D01*
X11528333Y-9892019D02*
X11537857Y-9872971D01*
X11537857Y-9872971D02*
X11547381Y-9863448D01*
X11547381Y-9863448D02*
X11566428Y-9853924D01*
X11756905Y-9853924D02*
X11775952Y-9853924D01*
X11775952Y-9853924D02*
X11795000Y-9863448D01*
X11795000Y-9863448D02*
X11804524Y-9872971D01*
X11804524Y-9872971D02*
X11814048Y-9892019D01*
X11814048Y-9892019D02*
X11823571Y-9930114D01*
X11823571Y-9930114D02*
X11823571Y-9977733D01*
X11823571Y-9977733D02*
X11814048Y-10015829D01*
X11814048Y-10015829D02*
X11804524Y-10034876D01*
X11804524Y-10034876D02*
X11795000Y-10044400D01*
X11795000Y-10044400D02*
X11775952Y-10053924D01*
X11775952Y-10053924D02*
X11756905Y-10053924D01*
X11756905Y-10053924D02*
X11737857Y-10044400D01*
X11737857Y-10044400D02*
X11728333Y-10034876D01*
X11728333Y-10034876D02*
X11718809Y-10015829D01*
X11718809Y-10015829D02*
X11709286Y-9977733D01*
X11709286Y-9977733D02*
X11709286Y-9930114D01*
X11709286Y-9930114D02*
X11718809Y-9892019D01*
X11718809Y-9892019D02*
X11728333Y-9872971D01*
X11728333Y-9872971D02*
X11737857Y-9863448D01*
X11737857Y-9863448D02*
X11756905Y-9853924D01*
X11947381Y-9853924D02*
X11966429Y-9853924D01*
X11966429Y-9853924D02*
X11985476Y-9863448D01*
X11985476Y-9863448D02*
X11995000Y-9872971D01*
X11995000Y-9872971D02*
X12004524Y-9892019D01*
X12004524Y-9892019D02*
X12014048Y-9930114D01*
X12014048Y-9930114D02*
X12014048Y-9977733D01*
X12014048Y-9977733D02*
X12004524Y-10015829D01*
X12004524Y-10015829D02*
X11995000Y-10034876D01*
X11995000Y-10034876D02*
X11985476Y-10044400D01*
X11985476Y-10044400D02*
X11966429Y-10053924D01*
X11966429Y-10053924D02*
X11947381Y-10053924D01*
X11947381Y-10053924D02*
X11928333Y-10044400D01*
X11928333Y-10044400D02*
X11918809Y-10034876D01*
X11918809Y-10034876D02*
X11909286Y-10015829D01*
X11909286Y-10015829D02*
X11899762Y-9977733D01*
X11899762Y-9977733D02*
X11899762Y-9930114D01*
X11899762Y-9930114D02*
X11909286Y-9892019D01*
X11909286Y-9892019D02*
X11918809Y-9872971D01*
X11918809Y-9872971D02*
X11928333Y-9863448D01*
X11928333Y-9863448D02*
X11947381Y-9853924D01*
X12099762Y-10053924D02*
X12099762Y-9920590D01*
X12099762Y-9939638D02*
X12109286Y-9930114D01*
X12109286Y-9930114D02*
X12128333Y-9920590D01*
X12128333Y-9920590D02*
X12156905Y-9920590D01*
X12156905Y-9920590D02*
X12175952Y-9930114D01*
X12175952Y-9930114D02*
X12185476Y-9949162D01*
X12185476Y-9949162D02*
X12185476Y-10053924D01*
X12185476Y-9949162D02*
X12195000Y-9930114D01*
X12195000Y-9930114D02*
X12214048Y-9920590D01*
X12214048Y-9920590D02*
X12242619Y-9920590D01*
X12242619Y-9920590D02*
X12261667Y-9930114D01*
X12261667Y-9930114D02*
X12271190Y-9949162D01*
X12271190Y-9949162D02*
X12271190Y-10053924D01*
X12366429Y-10053924D02*
X12366429Y-9920590D01*
X12366429Y-9939638D02*
X12375952Y-9930114D01*
X12375952Y-9930114D02*
X12395000Y-9920590D01*
X12395000Y-9920590D02*
X12423571Y-9920590D01*
X12423571Y-9920590D02*
X12442619Y-9930114D01*
X12442619Y-9930114D02*
X12452143Y-9949162D01*
X12452143Y-9949162D02*
X12452143Y-10053924D01*
X12452143Y-9949162D02*
X12461667Y-9930114D01*
X12461667Y-9930114D02*
X12480714Y-9920590D01*
X12480714Y-9920590D02*
X12509286Y-9920590D01*
X12509286Y-9920590D02*
X12528333Y-9930114D01*
X12528333Y-9930114D02*
X12537857Y-9949162D01*
X12537857Y-9949162D02*
X12537857Y-10053924D01*
X12928333Y-9844400D02*
X12756905Y-10101543D01*
X13185476Y-9853924D02*
X13204524Y-9853924D01*
X13204524Y-9853924D02*
X13223572Y-9863448D01*
X13223572Y-9863448D02*
X13233095Y-9872971D01*
X13233095Y-9872971D02*
X13242619Y-9892019D01*
X13242619Y-9892019D02*
X13252143Y-9930114D01*
X13252143Y-9930114D02*
X13252143Y-9977733D01*
X13252143Y-9977733D02*
X13242619Y-10015829D01*
X13242619Y-10015829D02*
X13233095Y-10034876D01*
X13233095Y-10034876D02*
X13223572Y-10044400D01*
X13223572Y-10044400D02*
X13204524Y-10053924D01*
X13204524Y-10053924D02*
X13185476Y-10053924D01*
X13185476Y-10053924D02*
X13166429Y-10044400D01*
X13166429Y-10044400D02*
X13156905Y-10034876D01*
X13156905Y-10034876D02*
X13147381Y-10015829D01*
X13147381Y-10015829D02*
X13137857Y-9977733D01*
X13137857Y-9977733D02*
X13137857Y-9930114D01*
X13137857Y-9930114D02*
X13147381Y-9892019D01*
X13147381Y-9892019D02*
X13156905Y-9872971D01*
X13156905Y-9872971D02*
X13166429Y-9863448D01*
X13166429Y-9863448D02*
X13185476Y-9853924D01*
X13337857Y-10034876D02*
X13347381Y-10044400D01*
X13347381Y-10044400D02*
X13337857Y-10053924D01*
X13337857Y-10053924D02*
X13328333Y-10044400D01*
X13328333Y-10044400D02*
X13337857Y-10034876D01*
X13337857Y-10034876D02*
X13337857Y-10053924D01*
X13471191Y-9853924D02*
X13490238Y-9853924D01*
X13490238Y-9853924D02*
X13509286Y-9863448D01*
X13509286Y-9863448D02*
X13518810Y-9872971D01*
X13518810Y-9872971D02*
X13528333Y-9892019D01*
X13528333Y-9892019D02*
X13537857Y-9930114D01*
X13537857Y-9930114D02*
X13537857Y-9977733D01*
X13537857Y-9977733D02*
X13528333Y-10015829D01*
X13528333Y-10015829D02*
X13518810Y-10034876D01*
X13518810Y-10034876D02*
X13509286Y-10044400D01*
X13509286Y-10044400D02*
X13490238Y-10053924D01*
X13490238Y-10053924D02*
X13471191Y-10053924D01*
X13471191Y-10053924D02*
X13452143Y-10044400D01*
X13452143Y-10044400D02*
X13442619Y-10034876D01*
X13442619Y-10034876D02*
X13433095Y-10015829D01*
X13433095Y-10015829D02*
X13423572Y-9977733D01*
X13423572Y-9977733D02*
X13423572Y-9930114D01*
X13423572Y-9930114D02*
X13433095Y-9892019D01*
X13433095Y-9892019D02*
X13442619Y-9872971D01*
X13442619Y-9872971D02*
X13452143Y-9863448D01*
X13452143Y-9863448D02*
X13471191Y-9853924D01*
X13604524Y-9853924D02*
X13728333Y-9853924D01*
X13728333Y-9853924D02*
X13661667Y-9930114D01*
X13661667Y-9930114D02*
X13690238Y-9930114D01*
X13690238Y-9930114D02*
X13709286Y-9939638D01*
X13709286Y-9939638D02*
X13718810Y-9949162D01*
X13718810Y-9949162D02*
X13728333Y-9968210D01*
X13728333Y-9968210D02*
X13728333Y-10015829D01*
X13728333Y-10015829D02*
X13718810Y-10034876D01*
X13718810Y-10034876D02*
X13709286Y-10044400D01*
X13709286Y-10044400D02*
X13690238Y-10053924D01*
X13690238Y-10053924D02*
X13633095Y-10053924D01*
X13633095Y-10053924D02*
X13614048Y-10044400D01*
X13614048Y-10044400D02*
X13604524Y-10034876D01*
X13823572Y-10053924D02*
X13861667Y-10053924D01*
X13861667Y-10053924D02*
X13880714Y-10044400D01*
X13880714Y-10044400D02*
X13890238Y-10034876D01*
X13890238Y-10034876D02*
X13909286Y-10006305D01*
X13909286Y-10006305D02*
X13918810Y-9968210D01*
X13918810Y-9968210D02*
X13918810Y-9892019D01*
X13918810Y-9892019D02*
X13909286Y-9872971D01*
X13909286Y-9872971D02*
X13899762Y-9863448D01*
X13899762Y-9863448D02*
X13880714Y-9853924D01*
X13880714Y-9853924D02*
X13842619Y-9853924D01*
X13842619Y-9853924D02*
X13823572Y-9863448D01*
X13823572Y-9863448D02*
X13814048Y-9872971D01*
X13814048Y-9872971D02*
X13804524Y-9892019D01*
X13804524Y-9892019D02*
X13804524Y-9939638D01*
X13804524Y-9939638D02*
X13814048Y-9958686D01*
X13814048Y-9958686D02*
X13823572Y-9968210D01*
X13823572Y-9968210D02*
X13842619Y-9977733D01*
X13842619Y-9977733D02*
X13880714Y-9977733D01*
X13880714Y-9977733D02*
X13899762Y-9968210D01*
X13899762Y-9968210D02*
X13909286Y-9958686D01*
X13909286Y-9958686D02*
X13918810Y-9939638D01*
X14090238Y-9920590D02*
X14090238Y-10053924D01*
X14042619Y-9844400D02*
X13995000Y-9987257D01*
X13995000Y-9987257D02*
X14118810Y-9987257D01*
X14185476Y-9853924D02*
X14185476Y-9892019D01*
X14261667Y-9853924D02*
X14261667Y-9892019D01*
X14556905Y-10130114D02*
X14547381Y-10120590D01*
X14547381Y-10120590D02*
X14528334Y-10092019D01*
X14528334Y-10092019D02*
X14518810Y-10072971D01*
X14518810Y-10072971D02*
X14509286Y-10044400D01*
X14509286Y-10044400D02*
X14499762Y-9996781D01*
X14499762Y-9996781D02*
X14499762Y-9958686D01*
X14499762Y-9958686D02*
X14509286Y-9911067D01*
X14509286Y-9911067D02*
X14518810Y-9882495D01*
X14518810Y-9882495D02*
X14528334Y-9863448D01*
X14528334Y-9863448D02*
X14547381Y-9834876D01*
X14547381Y-9834876D02*
X14556905Y-9825352D01*
X14718810Y-9853924D02*
X14680714Y-9853924D01*
X14680714Y-9853924D02*
X14661667Y-9863448D01*
X14661667Y-9863448D02*
X14652143Y-9872971D01*
X14652143Y-9872971D02*
X14633095Y-9901543D01*
X14633095Y-9901543D02*
X14623572Y-9939638D01*
X14623572Y-9939638D02*
X14623572Y-10015829D01*
X14623572Y-10015829D02*
X14633095Y-10034876D01*
X14633095Y-10034876D02*
X14642619Y-10044400D01*
X14642619Y-10044400D02*
X14661667Y-10053924D01*
X14661667Y-10053924D02*
X14699762Y-10053924D01*
X14699762Y-10053924D02*
X14718810Y-10044400D01*
X14718810Y-10044400D02*
X14728334Y-10034876D01*
X14728334Y-10034876D02*
X14737857Y-10015829D01*
X14737857Y-10015829D02*
X14737857Y-9968210D01*
X14737857Y-9968210D02*
X14728334Y-9949162D01*
X14728334Y-9949162D02*
X14718810Y-9939638D01*
X14718810Y-9939638D02*
X14699762Y-9930114D01*
X14699762Y-9930114D02*
X14661667Y-9930114D01*
X14661667Y-9930114D02*
X14642619Y-9939638D01*
X14642619Y-9939638D02*
X14633095Y-9949162D01*
X14633095Y-9949162D02*
X14623572Y-9968210D01*
X14975953Y-10053924D02*
X14975953Y-9853924D01*
X15061667Y-10053924D02*
X15061667Y-9949162D01*
X15061667Y-9949162D02*
X15052143Y-9930114D01*
X15052143Y-9930114D02*
X15033096Y-9920590D01*
X15033096Y-9920590D02*
X15004524Y-9920590D01*
X15004524Y-9920590D02*
X14985476Y-9930114D01*
X14985476Y-9930114D02*
X14975953Y-9939638D01*
X15185476Y-10053924D02*
X15166429Y-10044400D01*
X15166429Y-10044400D02*
X15156905Y-10034876D01*
X15156905Y-10034876D02*
X15147381Y-10015829D01*
X15147381Y-10015829D02*
X15147381Y-9958686D01*
X15147381Y-9958686D02*
X15156905Y-9939638D01*
X15156905Y-9939638D02*
X15166429Y-9930114D01*
X15166429Y-9930114D02*
X15185476Y-9920590D01*
X15185476Y-9920590D02*
X15214048Y-9920590D01*
X15214048Y-9920590D02*
X15233096Y-9930114D01*
X15233096Y-9930114D02*
X15242619Y-9939638D01*
X15242619Y-9939638D02*
X15252143Y-9958686D01*
X15252143Y-9958686D02*
X15252143Y-10015829D01*
X15252143Y-10015829D02*
X15242619Y-10034876D01*
X15242619Y-10034876D02*
X15233096Y-10044400D01*
X15233096Y-10044400D02*
X15214048Y-10053924D01*
X15214048Y-10053924D02*
X15185476Y-10053924D01*
X15366429Y-10053924D02*
X15347381Y-10044400D01*
X15347381Y-10044400D02*
X15337857Y-10025352D01*
X15337857Y-10025352D02*
X15337857Y-9853924D01*
X15518810Y-10044400D02*
X15499762Y-10053924D01*
X15499762Y-10053924D02*
X15461667Y-10053924D01*
X15461667Y-10053924D02*
X15442619Y-10044400D01*
X15442619Y-10044400D02*
X15433096Y-10025352D01*
X15433096Y-10025352D02*
X15433096Y-9949162D01*
X15433096Y-9949162D02*
X15442619Y-9930114D01*
X15442619Y-9930114D02*
X15461667Y-9920590D01*
X15461667Y-9920590D02*
X15499762Y-9920590D01*
X15499762Y-9920590D02*
X15518810Y-9930114D01*
X15518810Y-9930114D02*
X15528334Y-9949162D01*
X15528334Y-9949162D02*
X15528334Y-9968210D01*
X15528334Y-9968210D02*
X15433096Y-9987257D01*
X15604524Y-10044400D02*
X15623572Y-10053924D01*
X15623572Y-10053924D02*
X15661667Y-10053924D01*
X15661667Y-10053924D02*
X15680715Y-10044400D01*
X15680715Y-10044400D02*
X15690238Y-10025352D01*
X15690238Y-10025352D02*
X15690238Y-10015829D01*
X15690238Y-10015829D02*
X15680715Y-9996781D01*
X15680715Y-9996781D02*
X15661667Y-9987257D01*
X15661667Y-9987257D02*
X15633096Y-9987257D01*
X15633096Y-9987257D02*
X15614048Y-9977733D01*
X15614048Y-9977733D02*
X15604524Y-9958686D01*
X15604524Y-9958686D02*
X15604524Y-9949162D01*
X15604524Y-9949162D02*
X15614048Y-9930114D01*
X15614048Y-9930114D02*
X15633096Y-9920590D01*
X15633096Y-9920590D02*
X15661667Y-9920590D01*
X15661667Y-9920590D02*
X15680715Y-9930114D01*
X15756905Y-10130114D02*
X15766429Y-10120590D01*
X15766429Y-10120590D02*
X15785477Y-10092019D01*
X15785477Y-10092019D02*
X15795000Y-10072971D01*
X15795000Y-10072971D02*
X15804524Y-10044400D01*
X15804524Y-10044400D02*
X15814048Y-9996781D01*
X15814048Y-9996781D02*
X15814048Y-9958686D01*
X15814048Y-9958686D02*
X15804524Y-9911067D01*
X15804524Y-9911067D02*
X15795000Y-9882495D01*
X15795000Y-9882495D02*
X15785477Y-9863448D01*
X15785477Y-9863448D02*
X15766429Y-9834876D01*
X15766429Y-9834876D02*
X15756905Y-9825352D01*
M02*
