G04 #@! TF.GenerationSoftware,KiCad,Pcbnew,7.0.9*
G04 #@! TF.CreationDate,2024-02-17T17:22:41+01:00*
G04 #@! TF.ProjectId,armband,61726d62-616e-4642-9e6b-696361645f70,rev?*
G04 #@! TF.SameCoordinates,Original*
G04 #@! TF.FileFunction,Copper,L4,Inr*
G04 #@! TF.FilePolarity,Positive*
%FSLAX46Y46*%
G04 Gerber Fmt 4.6, Leading zero omitted, Abs format (unit mm)*
G04 Created by KiCad (PCBNEW 7.0.9) date 2024-02-17 17:22:41*
%MOMM*%
%LPD*%
G01*
G04 APERTURE LIST*
G04 #@! TA.AperFunction,ComponentPad*
%ADD10R,1.700000X1.700000*%
G04 #@! TD*
G04 #@! TA.AperFunction,ComponentPad*
%ADD11O,1.700000X1.700000*%
G04 #@! TD*
G04 #@! TA.AperFunction,ComponentPad*
%ADD12C,1.150000*%
G04 #@! TD*
G04 #@! TA.AperFunction,ViaPad*
%ADD13C,0.350000*%
G04 #@! TD*
G04 #@! TA.AperFunction,ViaPad*
%ADD14C,0.250000*%
G04 #@! TD*
G04 #@! TA.AperFunction,Conductor*
%ADD15C,0.090000*%
G04 #@! TD*
G04 APERTURE END LIST*
D10*
X122700000Y-84900000D03*
D11*
X122700000Y-82360000D03*
X122700000Y-79820000D03*
X122700000Y-77280000D03*
X122700000Y-74740000D03*
X122700000Y-72200000D03*
D12*
X146749998Y-80467500D03*
X136509998Y-80467500D03*
X136509998Y-85627500D03*
X146749998Y-85627500D03*
D13*
X129400000Y-81797500D03*
X131800000Y-80621500D03*
X129300000Y-48200000D03*
X129900000Y-48200000D03*
X117150000Y-50800000D03*
X143449998Y-84297500D03*
X143449998Y-81597500D03*
X139654998Y-80897500D03*
X140649998Y-82797500D03*
X139504998Y-85397500D03*
X136454998Y-81897500D03*
X132000000Y-84950000D03*
X126796800Y-54914800D03*
X127965200Y-54988400D03*
D14*
X141500000Y-79250000D03*
D13*
X156750000Y-53950000D03*
D14*
X139500000Y-78310000D03*
D13*
X128425000Y-51485200D03*
X156700000Y-56600000D03*
D14*
X133380000Y-78320000D03*
D13*
X156060000Y-72650000D03*
X126593600Y-51285200D03*
X155850000Y-70925000D03*
D14*
X150500000Y-84800000D03*
D13*
X130800000Y-48400000D03*
X119710000Y-65440000D03*
D14*
X133380000Y-79240000D03*
D13*
X156687500Y-67087500D03*
X135800000Y-83150000D03*
D14*
X141500000Y-78320000D03*
D13*
X120400000Y-56200000D03*
X144249998Y-80097500D03*
D14*
X140500000Y-78310000D03*
D13*
X122950000Y-63200000D03*
D14*
X152500000Y-84800000D03*
D13*
X128400000Y-48400000D03*
D14*
X139500000Y-79250000D03*
X140500000Y-79250000D03*
D13*
X130100000Y-77000000D03*
D14*
X153300000Y-86200000D03*
X148600000Y-83700000D03*
X135000000Y-69750000D03*
D13*
X156560000Y-64610000D03*
D14*
X155700000Y-85700000D03*
D13*
X142849998Y-86797500D03*
X129450000Y-82947500D03*
X148200000Y-87100000D03*
X134300000Y-85997500D03*
X127975000Y-79275000D03*
X153600000Y-75650000D03*
X152400000Y-75575000D03*
X151625000Y-75625000D03*
X150600000Y-76500000D03*
X156681761Y-68253647D03*
X128900000Y-77900000D03*
X156700000Y-73000000D03*
X131710000Y-77100000D03*
X150125000Y-78625000D03*
X146625000Y-76525000D03*
X134750000Y-77100000D03*
X127450000Y-83750000D03*
X150225000Y-79250000D03*
X145600000Y-77222500D03*
X156950000Y-69100000D03*
X127350000Y-83147500D03*
X128100000Y-77647500D03*
X144575000Y-75600000D03*
X129837750Y-78688273D03*
X128610000Y-75730000D03*
X128925000Y-73000000D03*
X134600000Y-75675000D03*
X128900000Y-75000000D03*
X130040000Y-78200000D03*
X147975000Y-80825000D03*
X157225000Y-67200000D03*
X131600000Y-75675000D03*
X130625000Y-75675000D03*
X157200000Y-68150000D03*
X157210000Y-66270000D03*
X133600000Y-75675000D03*
X132600000Y-75675000D03*
X156525000Y-66250000D03*
X129600000Y-75650000D03*
X156400000Y-69750000D03*
X135700000Y-75650000D03*
X127914400Y-58000000D03*
X142074998Y-84797500D03*
X141204998Y-80947500D03*
X128879600Y-54000400D03*
X141480000Y-84480000D03*
X141220000Y-85870000D03*
X142049998Y-81197500D03*
X128930400Y-52984400D03*
X131090000Y-86410000D03*
X129740000Y-86410000D03*
X155400000Y-60000000D03*
X155350000Y-61025000D03*
X154225000Y-62000000D03*
X154750000Y-62700000D03*
X127200000Y-65400000D03*
X157260000Y-65310000D03*
X127200000Y-66000000D03*
X157516664Y-65771994D03*
X151675000Y-77650000D03*
X152312114Y-77625000D03*
X136910000Y-69000000D03*
X114090000Y-62460000D03*
X127200000Y-70200000D03*
X119930000Y-62640000D03*
X134870000Y-68990000D03*
X127200000Y-70800000D03*
X135900000Y-68000000D03*
X127200000Y-69600000D03*
X119300000Y-63060000D03*
X116660000Y-62950000D03*
X136910000Y-67000000D03*
X127200000Y-68400000D03*
X134880000Y-67020000D03*
X127200000Y-69000000D03*
X135760000Y-83800000D03*
X130860000Y-77070000D03*
X140230000Y-86050000D03*
X128925000Y-72000000D03*
X148150000Y-85680000D03*
X129800000Y-83700000D03*
X142875000Y-80150000D03*
X141099998Y-83472500D03*
X140354998Y-85147500D03*
X140500000Y-80300000D03*
X141599998Y-82497500D03*
X149300000Y-80257500D03*
X151012114Y-80539052D03*
X127200000Y-67800000D03*
X153339052Y-78939052D03*
X127200000Y-67200000D03*
X154020000Y-78120000D03*
X153430000Y-78120000D03*
X127200000Y-66600000D03*
X128823800Y-80450000D03*
X131080000Y-78900000D03*
X130067500Y-79227500D03*
X151413350Y-78537922D03*
X156025000Y-59975000D03*
X151010083Y-78537922D03*
X155650000Y-59450000D03*
D14*
X155400000Y-84100000D03*
D13*
X156050000Y-84380000D03*
X155700000Y-78800000D03*
X138649998Y-80697500D03*
X131850000Y-79200000D03*
X156050000Y-81380000D03*
X156050000Y-82380000D03*
D14*
X140000000Y-79250000D03*
D13*
X154000000Y-80400000D03*
X155700000Y-86600000D03*
X158200000Y-78800000D03*
X120300000Y-51750000D03*
X149400000Y-79100000D03*
X151300000Y-87300000D03*
X155550000Y-80400000D03*
X155050000Y-80400000D03*
X154200000Y-78800000D03*
X156700000Y-78800000D03*
X126900000Y-78900000D03*
X155200000Y-78800000D03*
X138300000Y-84700000D03*
X133020000Y-84700000D03*
X130032500Y-79867500D03*
X155800000Y-53950000D03*
X114525000Y-51700000D03*
X152600000Y-86600000D03*
X137400000Y-84600000D03*
D14*
X141000000Y-79250000D03*
D13*
X142899998Y-82797500D03*
X143449998Y-85997500D03*
X154700000Y-78800000D03*
X139949998Y-83797500D03*
X156200000Y-78800000D03*
X154550000Y-80400000D03*
X156050000Y-80400000D03*
X157700000Y-78800000D03*
X156050000Y-84850000D03*
X137049998Y-83597500D03*
X148100000Y-83000000D03*
X123148000Y-65372000D03*
X153850000Y-62925000D03*
X145185998Y-81046500D03*
X156050000Y-83380000D03*
X126950000Y-79850000D03*
D14*
X140000000Y-78310000D03*
D13*
X141500000Y-80100000D03*
X156100000Y-57900000D03*
X148400000Y-78200000D03*
X156050000Y-83880000D03*
X127355600Y-54203600D03*
X127800000Y-85280000D03*
X138100000Y-83400000D03*
X128650000Y-79950000D03*
X156050000Y-82880000D03*
X156050000Y-80900000D03*
X156050000Y-81880000D03*
X117250000Y-65460000D03*
X138649998Y-85397500D03*
D14*
X140990000Y-78310000D03*
X152400000Y-82700000D03*
D13*
X157200000Y-78800000D03*
X144604998Y-85397500D03*
D15*
X143449998Y-81597500D02*
X140832500Y-81597500D01*
X140649998Y-81780002D02*
X140649998Y-82797500D01*
X140832500Y-81597500D02*
X140649998Y-81780002D01*
X129200000Y-77600000D02*
X128900000Y-77900000D01*
X131400000Y-77100000D02*
X130900000Y-77600000D01*
X131710000Y-77100000D02*
X131400000Y-77100000D01*
X130900000Y-77600000D02*
X129200000Y-77600000D01*
X129410000Y-73485000D02*
X128925000Y-73000000D01*
X128610000Y-75730000D02*
X128734272Y-75730000D01*
X129410000Y-75054272D02*
X129410000Y-73485000D01*
X128734272Y-75730000D02*
X129410000Y-75054272D01*
X127200000Y-65400000D02*
X127300000Y-65300000D01*
X127300000Y-65300000D02*
X157250000Y-65300000D01*
X157250000Y-65300000D02*
X157260000Y-65310000D01*
X127600000Y-65900000D02*
X127500000Y-66000000D01*
X127670000Y-65480000D02*
X127600000Y-65550000D01*
X157157722Y-65771994D02*
X156865728Y-65480000D01*
X156865728Y-65480000D02*
X127670000Y-65480000D01*
X127600000Y-65550000D02*
X127600000Y-65900000D01*
X157516664Y-65771994D02*
X157157722Y-65771994D01*
X127500000Y-66000000D02*
X127200000Y-66000000D01*
X128960000Y-66740000D02*
X128880000Y-66820000D01*
X133735442Y-66740000D02*
X128960000Y-66740000D01*
X136910000Y-69000000D02*
X135995442Y-69000000D01*
X128880000Y-70000000D02*
X128680000Y-70200000D01*
X135995442Y-69000000D02*
X133735442Y-66740000D01*
X128680000Y-70200000D02*
X127200000Y-70200000D01*
X128880000Y-66820000D02*
X128880000Y-70000000D01*
X134870000Y-68129116D02*
X133670884Y-66930000D01*
X129060000Y-70540000D02*
X128800000Y-70800000D01*
X128800000Y-70800000D02*
X127200000Y-70800000D01*
X134870000Y-68990000D02*
X134870000Y-68129116D01*
X133670884Y-66930000D02*
X129170000Y-66930000D01*
X129060000Y-67040000D02*
X129060000Y-70540000D01*
X129170000Y-66930000D02*
X129060000Y-67040000D01*
X128700000Y-69350000D02*
X128450000Y-69600000D01*
X133810000Y-66560000D02*
X128840000Y-66560000D01*
X128700000Y-66700000D02*
X128700000Y-69350000D01*
X128450000Y-69600000D02*
X127200000Y-69600000D01*
X128840000Y-66560000D02*
X128700000Y-66700000D01*
X135250000Y-68000000D02*
X133810000Y-66560000D01*
X135900000Y-68000000D02*
X135250000Y-68000000D01*
X128340000Y-68160000D02*
X128100000Y-68400000D01*
X128100000Y-68400000D02*
X127200000Y-68400000D01*
X136110000Y-66200000D02*
X128400000Y-66200000D01*
X128400000Y-66200000D02*
X128340000Y-66260000D01*
X136910000Y-67000000D02*
X136110000Y-66200000D01*
X128340000Y-66260000D02*
X128340000Y-68160000D01*
X134880000Y-67020000D02*
X134240000Y-66380000D01*
X134240000Y-66380000D02*
X128620000Y-66380000D01*
X128520000Y-66480000D02*
X128520000Y-68680000D01*
X128520000Y-68680000D02*
X128200000Y-69000000D01*
X128620000Y-66380000D02*
X128520000Y-66480000D01*
X128200000Y-69000000D02*
X127200000Y-69000000D01*
X131024000Y-72824000D02*
X131024000Y-76906000D01*
X131024000Y-76906000D02*
X130860000Y-77070000D01*
X130200000Y-72000000D02*
X131024000Y-72824000D01*
X128925000Y-72000000D02*
X130200000Y-72000000D01*
X149439052Y-80539052D02*
X149300000Y-80400000D01*
X151012114Y-80539052D02*
X149439052Y-80539052D01*
X149300000Y-80400000D02*
X149300000Y-80257500D01*
X128160000Y-66120000D02*
X128160000Y-67680000D01*
X152400884Y-66020000D02*
X128260000Y-66020000D01*
X128260000Y-66020000D02*
X128160000Y-66120000D01*
X153339052Y-78939052D02*
X152799000Y-78399000D01*
X152799000Y-78399000D02*
X152799000Y-66418116D01*
X128160000Y-67680000D02*
X128040000Y-67800000D01*
X152799000Y-66418116D02*
X152400884Y-66020000D01*
X128040000Y-67800000D02*
X127200000Y-67800000D01*
X152475442Y-65840000D02*
X128060000Y-65840000D01*
X127980000Y-65920000D02*
X127980000Y-67120000D01*
X153595272Y-78519000D02*
X153264728Y-78519000D01*
X153264728Y-78519000D02*
X153021000Y-78275272D01*
X153021000Y-66385558D02*
X152475442Y-65840000D01*
X128060000Y-65840000D02*
X127980000Y-65920000D01*
X154020000Y-78094272D02*
X153595272Y-78519000D01*
X153021000Y-78275272D02*
X153021000Y-66385558D01*
X127980000Y-67120000D02*
X127900000Y-67200000D01*
X154020000Y-78120000D02*
X154020000Y-78094272D01*
X127900000Y-67200000D02*
X127200000Y-67200000D01*
X152550000Y-65660000D02*
X153200999Y-66310999D01*
X127800000Y-66500000D02*
X127800000Y-65700000D01*
X153201000Y-75815272D02*
X153430000Y-76044272D01*
X127700000Y-66600000D02*
X127800000Y-66500000D01*
X153200999Y-66310999D02*
X153201000Y-75815272D01*
X153430000Y-76044272D02*
X153430000Y-78120000D01*
X127800000Y-65700000D02*
X127840000Y-65660000D01*
X127840000Y-65660000D02*
X152550000Y-65660000D01*
X127200000Y-66600000D02*
X127700000Y-66600000D01*
G04 #@! TA.AperFunction,Conductor*
G36*
X128060872Y-48022310D02*
G01*
X128106010Y-48065710D01*
X128124187Y-48125631D01*
X128110768Y-48186794D01*
X128058647Y-48289087D01*
X128041080Y-48400000D01*
X128058647Y-48510912D01*
X128109627Y-48610967D01*
X128189032Y-48690372D01*
X128289087Y-48741352D01*
X128400000Y-48758919D01*
X128510912Y-48741352D01*
X128610967Y-48690372D01*
X128690372Y-48610967D01*
X128741352Y-48510912D01*
X128757345Y-48409936D01*
X128781839Y-48353335D01*
X128830572Y-48315533D01*
X128891487Y-48305885D01*
X128949516Y-48326777D01*
X128990303Y-48373040D01*
X129009628Y-48410968D01*
X129089032Y-48490372D01*
X129189087Y-48541352D01*
X129300000Y-48558919D01*
X129410912Y-48541352D01*
X129510967Y-48490372D01*
X129510967Y-48490371D01*
X129512319Y-48489021D01*
X129567906Y-48456927D01*
X129632094Y-48456927D01*
X129687681Y-48489021D01*
X129689032Y-48490372D01*
X129789087Y-48541352D01*
X129900000Y-48558919D01*
X130010912Y-48541352D01*
X130110967Y-48490372D01*
X130190372Y-48410967D01*
X130209696Y-48373040D01*
X130250481Y-48326778D01*
X130308510Y-48305885D01*
X130369426Y-48315533D01*
X130418160Y-48353334D01*
X130442654Y-48409936D01*
X130458647Y-48510912D01*
X130509627Y-48610967D01*
X130589032Y-48690372D01*
X130689087Y-48741352D01*
X130800000Y-48758919D01*
X130910912Y-48741352D01*
X131010967Y-48690372D01*
X131090372Y-48610967D01*
X131141352Y-48510912D01*
X131158919Y-48400000D01*
X131147322Y-48326778D01*
X131141352Y-48289087D01*
X131089232Y-48186794D01*
X131075813Y-48125631D01*
X131093990Y-48065710D01*
X131139128Y-48022310D01*
X131199717Y-48006500D01*
X158371500Y-48006500D01*
X158433500Y-48023113D01*
X158478887Y-48068500D01*
X158495500Y-48130500D01*
X158495500Y-78946000D01*
X158478887Y-79008000D01*
X158433500Y-79053387D01*
X158371500Y-79070000D01*
X156275000Y-79070000D01*
X156275000Y-85646147D01*
X156261406Y-85699999D01*
X156275000Y-85753853D01*
X156275000Y-87505500D01*
X156258387Y-87567500D01*
X156213000Y-87612887D01*
X156151000Y-87629500D01*
X148458150Y-87629500D01*
X148395029Y-87612232D01*
X148349488Y-87565237D01*
X148334211Y-87501605D01*
X148353453Y-87439058D01*
X148401855Y-87395015D01*
X148404979Y-87393422D01*
X148410967Y-87390372D01*
X148490372Y-87310967D01*
X148541352Y-87210912D01*
X148558919Y-87100000D01*
X148544421Y-87008467D01*
X148541352Y-86989087D01*
X148490372Y-86889032D01*
X148410967Y-86809627D01*
X148310912Y-86758647D01*
X148200000Y-86741080D01*
X148089087Y-86758647D01*
X147989032Y-86809627D01*
X147909627Y-86889032D01*
X147858647Y-86989087D01*
X147841080Y-87099999D01*
X147858647Y-87210912D01*
X147909627Y-87310967D01*
X147989031Y-87390371D01*
X147998145Y-87395015D01*
X148046547Y-87439058D01*
X148065789Y-87501605D01*
X148050512Y-87565237D01*
X148004971Y-87612232D01*
X147941850Y-87629500D01*
X126624000Y-87629500D01*
X126562000Y-87612887D01*
X126516613Y-87567500D01*
X126500000Y-87505500D01*
X126500000Y-86797499D01*
X142491078Y-86797499D01*
X142508645Y-86908412D01*
X142559625Y-87008467D01*
X142639030Y-87087872D01*
X142739085Y-87138852D01*
X142849998Y-87156419D01*
X142960910Y-87138852D01*
X143060965Y-87087872D01*
X143140370Y-87008467D01*
X143191350Y-86908412D01*
X143208917Y-86797500D01*
X143202763Y-86758648D01*
X143191350Y-86686587D01*
X143140370Y-86586532D01*
X143097417Y-86543579D01*
X146187470Y-86543579D01*
X146268776Y-86593922D01*
X146454550Y-86665891D01*
X146650387Y-86702500D01*
X146849609Y-86702500D01*
X147045445Y-86665891D01*
X147231221Y-86593922D01*
X147312523Y-86543580D01*
X147312523Y-86543579D01*
X146968945Y-86200000D01*
X152965416Y-86200000D01*
X152985595Y-86314434D01*
X153043695Y-86415066D01*
X153132706Y-86489756D01*
X153132707Y-86489756D01*
X153132708Y-86489757D01*
X153241900Y-86529500D01*
X153358100Y-86529500D01*
X153467292Y-86489757D01*
X153556305Y-86415066D01*
X153614405Y-86314434D01*
X153634583Y-86200000D01*
X153614405Y-86085566D01*
X153556305Y-85984934D01*
X153538951Y-85970372D01*
X153467293Y-85910243D01*
X153358100Y-85870500D01*
X153241900Y-85870500D01*
X153187304Y-85890371D01*
X153132708Y-85910243D01*
X153043694Y-85984933D01*
X152985595Y-86085565D01*
X152965416Y-86200000D01*
X146968945Y-86200000D01*
X146749999Y-85981053D01*
X146749998Y-85981053D01*
X146187470Y-86543579D01*
X143097417Y-86543579D01*
X143060965Y-86507127D01*
X142960910Y-86456147D01*
X142849998Y-86438580D01*
X142739085Y-86456147D01*
X142639030Y-86507127D01*
X142559625Y-86586532D01*
X142508645Y-86686587D01*
X142491078Y-86797499D01*
X126500000Y-86797499D01*
X126500000Y-86410000D01*
X129381080Y-86410000D01*
X129398647Y-86520912D01*
X129449627Y-86620967D01*
X129529032Y-86700372D01*
X129629087Y-86751352D01*
X129740000Y-86768919D01*
X129850912Y-86751352D01*
X129950967Y-86700372D01*
X130030372Y-86620967D01*
X130081352Y-86520912D01*
X130098919Y-86410000D01*
X130731080Y-86410000D01*
X130748647Y-86520912D01*
X130799627Y-86620967D01*
X130879032Y-86700372D01*
X130979087Y-86751352D01*
X131090000Y-86768919D01*
X131200912Y-86751352D01*
X131300967Y-86700372D01*
X131380372Y-86620967D01*
X131419803Y-86543579D01*
X135947470Y-86543579D01*
X136028776Y-86593922D01*
X136214550Y-86665891D01*
X136410387Y-86702500D01*
X136609609Y-86702500D01*
X136805445Y-86665891D01*
X136991221Y-86593922D01*
X137072523Y-86543580D01*
X137072523Y-86543579D01*
X136509999Y-85981053D01*
X136509998Y-85981053D01*
X135947470Y-86543579D01*
X131419803Y-86543579D01*
X131431352Y-86520912D01*
X131448919Y-86410000D01*
X131445965Y-86391352D01*
X131431352Y-86299087D01*
X131380372Y-86199032D01*
X131300967Y-86119627D01*
X131200912Y-86068647D01*
X131090000Y-86051080D01*
X130979087Y-86068647D01*
X130879032Y-86119627D01*
X130799627Y-86199032D01*
X130748647Y-86299087D01*
X130731080Y-86410000D01*
X130098919Y-86410000D01*
X130095965Y-86391352D01*
X130081352Y-86299087D01*
X130030372Y-86199032D01*
X129950967Y-86119627D01*
X129850912Y-86068647D01*
X129740000Y-86051080D01*
X129629087Y-86068647D01*
X129529032Y-86119627D01*
X129449627Y-86199032D01*
X129398647Y-86299087D01*
X129381080Y-86410000D01*
X126500000Y-86410000D01*
X126500000Y-85997500D01*
X133941080Y-85997500D01*
X133958647Y-86108412D01*
X134009627Y-86208467D01*
X134089032Y-86287872D01*
X134189087Y-86338852D01*
X134300000Y-86356419D01*
X134410912Y-86338852D01*
X134510967Y-86287872D01*
X134590372Y-86208467D01*
X134641352Y-86108412D01*
X134658919Y-85997500D01*
X134641352Y-85886588D01*
X134641352Y-85886587D01*
X134590372Y-85786532D01*
X134510967Y-85707127D01*
X134410912Y-85656147D01*
X134300000Y-85638580D01*
X134189087Y-85656147D01*
X134089032Y-85707127D01*
X134009627Y-85786532D01*
X133958647Y-85886587D01*
X133941080Y-85997500D01*
X126500000Y-85997500D01*
X126500000Y-85627499D01*
X135430393Y-85627499D01*
X135448775Y-85825878D01*
X135503294Y-86017496D01*
X135590771Y-86193172D01*
X136156444Y-85627501D01*
X136863551Y-85627501D01*
X137429223Y-86193172D01*
X137429224Y-86193172D01*
X137516701Y-86017495D01*
X137571220Y-85825878D01*
X137589602Y-85627499D01*
X137571220Y-85429121D01*
X137562223Y-85397499D01*
X139146078Y-85397499D01*
X139163645Y-85508412D01*
X139214625Y-85608467D01*
X139294030Y-85687872D01*
X139394085Y-85738852D01*
X139504998Y-85756419D01*
X139615910Y-85738852D01*
X139715965Y-85687872D01*
X139795370Y-85608467D01*
X139846350Y-85508412D01*
X139858626Y-85430904D01*
X139886809Y-85369772D01*
X139942781Y-85332372D01*
X140010046Y-85329729D01*
X140068780Y-85362622D01*
X140144029Y-85437871D01*
X140203485Y-85468165D01*
X140249748Y-85508950D01*
X140270641Y-85566979D01*
X140260993Y-85627895D01*
X140223193Y-85676628D01*
X140166591Y-85701123D01*
X140119087Y-85708647D01*
X140019032Y-85759627D01*
X139939627Y-85839032D01*
X139888647Y-85939087D01*
X139871080Y-86050000D01*
X139888647Y-86160912D01*
X139939627Y-86260967D01*
X140019032Y-86340372D01*
X140119087Y-86391352D01*
X140230000Y-86408919D01*
X140340912Y-86391352D01*
X140440967Y-86340372D01*
X140520372Y-86260967D01*
X140571352Y-86160912D01*
X140588919Y-86050000D01*
X140572969Y-85949299D01*
X140571352Y-85939087D01*
X140536150Y-85869999D01*
X140861080Y-85869999D01*
X140878647Y-85980912D01*
X140929627Y-86080967D01*
X141009032Y-86160372D01*
X141109087Y-86211352D01*
X141220000Y-86228919D01*
X141330912Y-86211352D01*
X141430967Y-86160372D01*
X141510372Y-86080967D01*
X141561352Y-85980912D01*
X141578919Y-85870000D01*
X141576919Y-85857375D01*
X141561352Y-85759087D01*
X141510372Y-85659032D01*
X141478839Y-85627499D01*
X145670393Y-85627499D01*
X145688775Y-85825878D01*
X145743294Y-86017496D01*
X145830771Y-86193172D01*
X146396444Y-85627501D01*
X147103551Y-85627501D01*
X147669223Y-86193172D01*
X147756531Y-86017836D01*
X147799356Y-85969531D01*
X147860660Y-85949299D01*
X147923826Y-85962623D01*
X147939031Y-85970370D01*
X147939033Y-85970372D01*
X148039088Y-86021352D01*
X148150000Y-86038919D01*
X148260912Y-86021352D01*
X148360967Y-85970372D01*
X148440372Y-85890967D01*
X148491352Y-85790912D01*
X148505751Y-85700000D01*
X155365416Y-85700000D01*
X155385595Y-85814434D01*
X155443695Y-85915066D01*
X155532706Y-85989756D01*
X155532707Y-85989756D01*
X155532708Y-85989757D01*
X155641900Y-86029500D01*
X155758100Y-86029500D01*
X155867292Y-85989757D01*
X155956305Y-85915066D01*
X156014405Y-85814434D01*
X156028884Y-85732319D01*
X156043386Y-85699999D01*
X156028884Y-85667680D01*
X156027359Y-85659032D01*
X156014405Y-85585566D01*
X155956305Y-85484934D01*
X155936321Y-85468165D01*
X155867293Y-85410243D01*
X155758100Y-85370500D01*
X155641900Y-85370500D01*
X155598625Y-85386251D01*
X155532708Y-85410243D01*
X155443694Y-85484933D01*
X155385595Y-85585565D01*
X155365416Y-85700000D01*
X148505751Y-85700000D01*
X148508919Y-85680000D01*
X148491352Y-85569087D01*
X148440372Y-85469032D01*
X148360967Y-85389627D01*
X148260912Y-85338647D01*
X148150000Y-85321080D01*
X148039087Y-85338647D01*
X147951898Y-85383072D01*
X147899326Y-85396531D01*
X147846042Y-85386251D01*
X147802250Y-85354202D01*
X147776338Y-85306521D01*
X147756701Y-85237503D01*
X147669223Y-85061827D01*
X147103551Y-85627500D01*
X147103551Y-85627501D01*
X146396444Y-85627501D01*
X146396444Y-85627500D01*
X145830771Y-85061826D01*
X145830770Y-85061826D01*
X145743295Y-85237501D01*
X145688775Y-85429121D01*
X145670393Y-85627499D01*
X141478839Y-85627499D01*
X141430967Y-85579627D01*
X141330912Y-85528647D01*
X141220000Y-85511080D01*
X141109087Y-85528647D01*
X141009032Y-85579627D01*
X140929627Y-85659032D01*
X140878647Y-85759087D01*
X140861080Y-85869999D01*
X140536150Y-85869999D01*
X140520372Y-85839032D01*
X140440967Y-85759627D01*
X140381512Y-85729334D01*
X140335248Y-85688548D01*
X140314356Y-85630519D01*
X140324004Y-85569603D01*
X140361805Y-85520870D01*
X140418408Y-85496376D01*
X140465910Y-85488852D01*
X140565965Y-85437872D01*
X140645370Y-85358467D01*
X140696350Y-85258412D01*
X140713917Y-85147500D01*
X140696350Y-85036587D01*
X140645370Y-84936532D01*
X140565965Y-84857127D01*
X140465910Y-84806147D01*
X140354998Y-84788580D01*
X140244085Y-84806147D01*
X140144030Y-84857127D01*
X140064625Y-84936532D01*
X140013645Y-85036587D01*
X140001369Y-85114095D01*
X139973186Y-85175228D01*
X139917214Y-85212627D01*
X139849948Y-85215270D01*
X139791215Y-85182377D01*
X139715965Y-85107127D01*
X139615910Y-85056147D01*
X139504998Y-85038580D01*
X139394085Y-85056147D01*
X139294030Y-85107127D01*
X139214625Y-85186532D01*
X139163645Y-85286587D01*
X139146078Y-85397499D01*
X137562223Y-85397499D01*
X137516701Y-85237503D01*
X137429223Y-85061827D01*
X136863551Y-85627500D01*
X136863551Y-85627501D01*
X136156444Y-85627501D01*
X136156444Y-85627500D01*
X135590771Y-85061826D01*
X135590770Y-85061826D01*
X135503295Y-85237501D01*
X135448775Y-85429121D01*
X135430393Y-85627499D01*
X126500000Y-85627499D01*
X126500000Y-84949999D01*
X131641080Y-84949999D01*
X131658647Y-85060912D01*
X131709627Y-85160967D01*
X131789032Y-85240372D01*
X131889087Y-85291352D01*
X132000000Y-85308919D01*
X132110912Y-85291352D01*
X132210967Y-85240372D01*
X132290372Y-85160967D01*
X132341352Y-85060912D01*
X132358919Y-84950000D01*
X132341352Y-84839088D01*
X132341352Y-84839087D01*
X132290372Y-84739032D01*
X132262759Y-84711419D01*
X135947470Y-84711419D01*
X136509998Y-85273946D01*
X136509999Y-85273946D01*
X137072524Y-84711419D01*
X136991219Y-84661077D01*
X136805445Y-84589108D01*
X136609609Y-84552500D01*
X136410387Y-84552500D01*
X136214550Y-84589108D01*
X136028773Y-84661078D01*
X135947471Y-84711418D01*
X135947470Y-84711419D01*
X132262759Y-84711419D01*
X132210967Y-84659627D01*
X132110912Y-84608647D01*
X131999999Y-84591080D01*
X131889087Y-84608647D01*
X131789032Y-84659627D01*
X131709627Y-84739032D01*
X131658647Y-84839087D01*
X131641080Y-84949999D01*
X126500000Y-84949999D01*
X126500000Y-84480000D01*
X141121080Y-84480000D01*
X141138647Y-84590912D01*
X141189627Y-84690967D01*
X141269032Y-84770372D01*
X141369087Y-84821352D01*
X141479999Y-84838919D01*
X141479999Y-84838918D01*
X141480000Y-84838919D01*
X141590912Y-84821352D01*
X141590911Y-84821352D01*
X141594227Y-84820827D01*
X141658063Y-84827536D01*
X141709992Y-84865264D01*
X141722025Y-84892291D01*
X141724730Y-84890914D01*
X141784625Y-85008467D01*
X141864030Y-85087872D01*
X141964085Y-85138852D01*
X142074998Y-85156419D01*
X142185910Y-85138852D01*
X142285965Y-85087872D01*
X142365370Y-85008467D01*
X142416350Y-84908412D01*
X142433917Y-84797500D01*
X142424657Y-84739033D01*
X142420283Y-84711419D01*
X146187470Y-84711419D01*
X146749998Y-85273946D01*
X146749999Y-85273946D01*
X147223943Y-84800000D01*
X150165416Y-84800000D01*
X150185595Y-84914434D01*
X150243695Y-85015066D01*
X150332706Y-85089756D01*
X150332707Y-85089756D01*
X150332708Y-85089757D01*
X150441900Y-85129500D01*
X150558100Y-85129500D01*
X150667292Y-85089757D01*
X150756305Y-85015066D01*
X150814405Y-84914434D01*
X150834583Y-84800000D01*
X150814405Y-84685566D01*
X150756305Y-84584934D01*
X150717652Y-84552500D01*
X150667293Y-84510243D01*
X150558100Y-84470500D01*
X150441900Y-84470500D01*
X150387304Y-84490371D01*
X150332708Y-84510243D01*
X150243694Y-84584933D01*
X150185595Y-84685565D01*
X150165416Y-84800000D01*
X147223943Y-84800000D01*
X147312524Y-84711419D01*
X147231219Y-84661077D01*
X147045445Y-84589108D01*
X146849609Y-84552500D01*
X146650387Y-84552500D01*
X146454550Y-84589108D01*
X146268773Y-84661078D01*
X146187471Y-84711418D01*
X146187470Y-84711419D01*
X142420283Y-84711419D01*
X142416350Y-84686587D01*
X142365370Y-84586532D01*
X142285965Y-84507127D01*
X142185910Y-84456147D01*
X142074997Y-84438580D01*
X141960768Y-84456672D01*
X141896925Y-84449960D01*
X141844994Y-84412222D01*
X141832972Y-84385208D01*
X141830268Y-84386586D01*
X141784877Y-84297500D01*
X143091078Y-84297500D01*
X143108645Y-84408412D01*
X143159625Y-84508467D01*
X143239030Y-84587872D01*
X143339085Y-84638852D01*
X143449997Y-84656419D01*
X143449997Y-84656418D01*
X143449998Y-84656419D01*
X143560910Y-84638852D01*
X143660965Y-84587872D01*
X143740370Y-84508467D01*
X143772256Y-84445886D01*
X152050000Y-84445886D01*
X152109200Y-84445886D01*
X152171200Y-84462499D01*
X152216587Y-84507886D01*
X152233200Y-84569886D01*
X152216587Y-84631886D01*
X152185595Y-84685565D01*
X152165416Y-84800000D01*
X152185595Y-84914434D01*
X152243695Y-85015066D01*
X152332706Y-85089756D01*
X152332707Y-85089756D01*
X152332708Y-85089757D01*
X152441900Y-85129500D01*
X152558100Y-85129500D01*
X152667292Y-85089757D01*
X152756305Y-85015066D01*
X152814405Y-84914434D01*
X152834583Y-84800000D01*
X152814405Y-84685566D01*
X152783413Y-84631886D01*
X152766800Y-84569886D01*
X152783413Y-84507886D01*
X152828800Y-84462499D01*
X152890800Y-84445886D01*
X155100000Y-84445886D01*
X155100000Y-84024000D01*
X155116613Y-83962000D01*
X155162000Y-83916613D01*
X155224000Y-83900000D01*
X155800000Y-83900000D01*
X155800000Y-82370886D01*
X152700000Y-82370886D01*
X152700000Y-82776000D01*
X152683387Y-82838000D01*
X152638000Y-82883387D01*
X152576000Y-82900000D01*
X152050000Y-82900000D01*
X152050000Y-84445886D01*
X143772256Y-84445886D01*
X143791350Y-84408412D01*
X143808917Y-84297500D01*
X143804408Y-84269032D01*
X143791350Y-84186587D01*
X143740370Y-84086532D01*
X143660965Y-84007127D01*
X143560910Y-83956147D01*
X143449998Y-83938580D01*
X143339085Y-83956147D01*
X143239030Y-84007127D01*
X143159625Y-84086532D01*
X143108645Y-84186587D01*
X143091078Y-84297500D01*
X141784877Y-84297500D01*
X141770372Y-84269032D01*
X141690967Y-84189627D01*
X141590912Y-84138647D01*
X141480000Y-84121080D01*
X141369087Y-84138647D01*
X141269032Y-84189627D01*
X141189627Y-84269032D01*
X141138647Y-84369087D01*
X141121080Y-84480000D01*
X126500000Y-84480000D01*
X126500000Y-83147500D01*
X126991080Y-83147500D01*
X127008647Y-83258412D01*
X127059627Y-83358467D01*
X127123117Y-83421957D01*
X127151200Y-83465200D01*
X127159266Y-83516127D01*
X127145922Y-83565931D01*
X127108647Y-83639088D01*
X127091080Y-83750000D01*
X127108647Y-83860912D01*
X127159627Y-83960967D01*
X127239032Y-84040372D01*
X127339087Y-84091352D01*
X127450000Y-84108919D01*
X127560912Y-84091352D01*
X127660967Y-84040372D01*
X127740372Y-83960967D01*
X127791352Y-83860912D01*
X127808919Y-83750000D01*
X127791352Y-83639088D01*
X127791352Y-83639087D01*
X127740372Y-83539032D01*
X127676882Y-83475542D01*
X127648799Y-83432299D01*
X127640733Y-83381371D01*
X127654077Y-83331568D01*
X127691352Y-83258412D01*
X127708919Y-83147500D01*
X127691352Y-83036588D01*
X127691352Y-83036587D01*
X127645960Y-82947499D01*
X129091080Y-82947499D01*
X129108647Y-83058412D01*
X129159627Y-83158467D01*
X129239032Y-83237872D01*
X129339087Y-83288852D01*
X129422703Y-83302096D01*
X129476190Y-83324251D01*
X129513790Y-83368274D01*
X129527305Y-83424568D01*
X129513790Y-83480863D01*
X129458647Y-83589087D01*
X129441080Y-83699999D01*
X129458647Y-83810912D01*
X129509627Y-83910967D01*
X129589032Y-83990372D01*
X129689087Y-84041352D01*
X129800000Y-84058919D01*
X129910912Y-84041352D01*
X130010967Y-83990372D01*
X130090372Y-83910967D01*
X130141352Y-83810912D01*
X130143080Y-83800000D01*
X135401080Y-83800000D01*
X135418647Y-83910912D01*
X135469627Y-84010967D01*
X135549032Y-84090372D01*
X135649087Y-84141352D01*
X135759999Y-84158919D01*
X135759999Y-84158918D01*
X135760000Y-84158919D01*
X135870912Y-84141352D01*
X135970967Y-84090372D01*
X136050372Y-84010967D01*
X136101352Y-83910912D01*
X136118919Y-83800000D01*
X136113038Y-83762872D01*
X136101352Y-83689087D01*
X136050372Y-83589032D01*
X136044020Y-83582680D01*
X136011926Y-83527092D01*
X136011927Y-83462904D01*
X136044018Y-83407320D01*
X136090372Y-83360967D01*
X136141352Y-83260912D01*
X136158919Y-83150000D01*
X136152420Y-83108970D01*
X136141352Y-83039087D01*
X136090372Y-82939032D01*
X136010967Y-82859627D01*
X135910912Y-82808647D01*
X135840527Y-82797499D01*
X140291078Y-82797499D01*
X140308645Y-82908412D01*
X140359625Y-83008467D01*
X140439030Y-83087872D01*
X140539085Y-83138852D01*
X140669396Y-83159492D01*
X140669152Y-83161029D01*
X140708376Y-83165670D01*
X140761244Y-83207344D01*
X140784546Y-83270501D01*
X140771415Y-83336526D01*
X140758645Y-83361588D01*
X140741078Y-83472499D01*
X140758645Y-83583412D01*
X140809625Y-83683467D01*
X140889030Y-83762872D01*
X140989085Y-83813852D01*
X141099998Y-83831419D01*
X141210910Y-83813852D01*
X141310965Y-83762872D01*
X141373837Y-83700000D01*
X148265416Y-83700000D01*
X148285595Y-83814434D01*
X148343695Y-83915066D01*
X148432706Y-83989756D01*
X148432707Y-83989756D01*
X148432708Y-83989757D01*
X148541900Y-84029500D01*
X148658100Y-84029500D01*
X148767292Y-83989757D01*
X148856305Y-83915066D01*
X148914405Y-83814434D01*
X148934583Y-83700000D01*
X148914405Y-83585566D01*
X148856305Y-83484934D01*
X148856304Y-83484933D01*
X148767293Y-83410243D01*
X148658100Y-83370500D01*
X148541900Y-83370500D01*
X148512033Y-83381371D01*
X148432708Y-83410243D01*
X148343694Y-83484933D01*
X148285595Y-83585565D01*
X148265416Y-83700000D01*
X141373837Y-83700000D01*
X141390370Y-83683467D01*
X141441350Y-83583412D01*
X141458917Y-83472500D01*
X141453828Y-83440372D01*
X141441350Y-83361587D01*
X141390370Y-83261532D01*
X141310965Y-83182127D01*
X141210910Y-83131147D01*
X141080600Y-83110508D01*
X141080843Y-83108970D01*
X141041609Y-83104325D01*
X140988746Y-83062649D01*
X140965448Y-82999493D01*
X140978582Y-82933470D01*
X140991350Y-82908412D01*
X141008917Y-82797500D01*
X141007504Y-82788581D01*
X140991350Y-82686587D01*
X140940370Y-82586532D01*
X140860965Y-82507127D01*
X140853204Y-82503173D01*
X140847067Y-82497500D01*
X141241078Y-82497500D01*
X141258645Y-82608412D01*
X141309625Y-82708467D01*
X141389030Y-82787872D01*
X141489085Y-82838852D01*
X141599997Y-82856419D01*
X141599997Y-82856418D01*
X141599998Y-82856419D01*
X141710910Y-82838852D01*
X141810965Y-82787872D01*
X141890370Y-82708467D01*
X141941350Y-82608412D01*
X141958917Y-82497500D01*
X141941350Y-82386588D01*
X141941350Y-82386587D01*
X141890370Y-82286532D01*
X141810965Y-82207127D01*
X141710910Y-82156147D01*
X141599998Y-82138580D01*
X141489085Y-82156147D01*
X141389030Y-82207127D01*
X141309625Y-82286532D01*
X141258645Y-82386587D01*
X141241078Y-82497500D01*
X140847067Y-82497500D01*
X140803771Y-82457478D01*
X140785498Y-82392688D01*
X140785498Y-81887490D01*
X140794937Y-81840037D01*
X140821817Y-81799809D01*
X140852307Y-81769319D01*
X140892535Y-81742439D01*
X140939988Y-81733000D01*
X143045186Y-81733000D01*
X143109976Y-81751273D01*
X143155671Y-81800706D01*
X143159625Y-81808467D01*
X143239030Y-81887872D01*
X143339085Y-81938852D01*
X143449998Y-81956419D01*
X143560910Y-81938852D01*
X143660965Y-81887872D01*
X143740370Y-81808467D01*
X143791350Y-81708412D01*
X143808917Y-81597500D01*
X143791350Y-81486588D01*
X143791350Y-81486587D01*
X143740370Y-81386532D01*
X143737417Y-81383579D01*
X146187470Y-81383579D01*
X146268776Y-81433922D01*
X146454550Y-81505891D01*
X146650387Y-81542500D01*
X146849609Y-81542500D01*
X147045445Y-81505891D01*
X147231221Y-81433922D01*
X147312523Y-81383580D01*
X147312523Y-81383579D01*
X146749999Y-80821053D01*
X146749998Y-80821053D01*
X146187470Y-81383579D01*
X143737417Y-81383579D01*
X143660965Y-81307127D01*
X143560910Y-81256147D01*
X143449997Y-81238580D01*
X143339085Y-81256147D01*
X143239030Y-81307127D01*
X143159625Y-81386532D01*
X143155671Y-81394294D01*
X143109976Y-81443727D01*
X143045186Y-81462000D01*
X142512209Y-81462000D01*
X142460295Y-81450610D01*
X142417918Y-81418531D01*
X142392864Y-81371658D01*
X142389736Y-81318601D01*
X142391554Y-81307127D01*
X142408917Y-81197500D01*
X142394815Y-81108467D01*
X142391350Y-81086587D01*
X142340370Y-80986532D01*
X142260965Y-80907127D01*
X142160910Y-80856147D01*
X142049998Y-80838580D01*
X141939085Y-80856147D01*
X141839031Y-80907127D01*
X141768096Y-80978062D01*
X141709362Y-81010954D01*
X141642096Y-81008311D01*
X141586124Y-80970911D01*
X141557942Y-80909777D01*
X141557522Y-80907128D01*
X141546350Y-80836588D01*
X141546350Y-80836587D01*
X141495370Y-80736532D01*
X141415965Y-80657127D01*
X141315910Y-80606147D01*
X141204998Y-80588580D01*
X141094085Y-80606147D01*
X140994031Y-80657127D01*
X140980562Y-80670596D01*
X140926525Y-80700301D01*
X140922600Y-80720880D01*
X140863645Y-80836587D01*
X140846078Y-80947500D01*
X140863645Y-81058412D01*
X140914625Y-81158467D01*
X141006477Y-81250319D01*
X141036727Y-81299682D01*
X141041269Y-81357398D01*
X141019114Y-81410885D01*
X140975091Y-81448485D01*
X140918796Y-81462000D01*
X140796189Y-81462000D01*
X140794328Y-81463075D01*
X140764439Y-81475456D01*
X140762363Y-81476012D01*
X140762358Y-81476015D01*
X140751787Y-81486587D01*
X140749301Y-81489073D01*
X140579858Y-81658516D01*
X140561422Y-81676952D01*
X140528512Y-81709861D01*
X140528510Y-81709865D01*
X140527954Y-81711941D01*
X140515573Y-81741830D01*
X140514498Y-81743691D01*
X140514498Y-82392688D01*
X140496225Y-82457478D01*
X140446792Y-82503173D01*
X140439030Y-82507127D01*
X140359625Y-82586532D01*
X140308645Y-82686587D01*
X140291078Y-82797499D01*
X135840527Y-82797499D01*
X135800000Y-82791080D01*
X135689087Y-82808647D01*
X135589032Y-82859627D01*
X135509627Y-82939032D01*
X135458647Y-83039087D01*
X135441080Y-83149999D01*
X135458647Y-83260912D01*
X135509627Y-83360966D01*
X135515977Y-83367316D01*
X135548072Y-83422903D01*
X135548073Y-83487091D01*
X135515980Y-83542680D01*
X135469627Y-83589033D01*
X135418647Y-83689087D01*
X135401080Y-83800000D01*
X130143080Y-83800000D01*
X130158919Y-83700000D01*
X130157780Y-83692811D01*
X130141352Y-83589087D01*
X130090372Y-83489032D01*
X130010967Y-83409627D01*
X129910912Y-83358647D01*
X129827295Y-83345403D01*
X129773808Y-83323247D01*
X129736209Y-83279224D01*
X129722694Y-83222929D01*
X129736209Y-83166635D01*
X129740369Y-83158469D01*
X129740372Y-83158467D01*
X129791352Y-83058412D01*
X129808919Y-82947500D01*
X129798764Y-82883387D01*
X129791352Y-82836587D01*
X129740372Y-82736532D01*
X129660967Y-82657127D01*
X129560912Y-82606147D01*
X129450000Y-82588580D01*
X129339087Y-82606147D01*
X129239032Y-82657127D01*
X129159627Y-82736532D01*
X129108647Y-82836587D01*
X129091080Y-82947499D01*
X127645960Y-82947499D01*
X127640372Y-82936532D01*
X127560967Y-82857127D01*
X127460912Y-82806147D01*
X127349999Y-82788580D01*
X127239087Y-82806147D01*
X127139032Y-82857127D01*
X127059627Y-82936532D01*
X127008647Y-83036587D01*
X126991080Y-83147500D01*
X126500000Y-83147500D01*
X126500000Y-81797499D01*
X129041080Y-81797499D01*
X129058647Y-81908412D01*
X129109627Y-82008467D01*
X129189032Y-82087872D01*
X129289087Y-82138852D01*
X129400000Y-82156419D01*
X129510912Y-82138852D01*
X129610967Y-82087872D01*
X129690372Y-82008467D01*
X129741352Y-81908412D01*
X129758919Y-81797500D01*
X129750396Y-81743691D01*
X129741352Y-81686587D01*
X129690372Y-81586532D01*
X129610967Y-81507127D01*
X129510912Y-81456147D01*
X129399999Y-81438580D01*
X129289087Y-81456147D01*
X129189032Y-81507127D01*
X129109627Y-81586532D01*
X129058647Y-81686587D01*
X129041080Y-81797499D01*
X126500000Y-81797499D01*
X126500000Y-81383579D01*
X135947470Y-81383579D01*
X136028777Y-81433923D01*
X136131315Y-81473646D01*
X136180997Y-81508959D01*
X136207852Y-81563677D01*
X136205389Y-81624580D01*
X136174205Y-81676952D01*
X136164626Y-81686530D01*
X136113645Y-81786587D01*
X136096078Y-81897500D01*
X136113645Y-82008412D01*
X136164625Y-82108467D01*
X136244030Y-82187872D01*
X136344085Y-82238852D01*
X136454998Y-82256419D01*
X136565910Y-82238852D01*
X136665965Y-82187872D01*
X136745370Y-82108467D01*
X136796350Y-82008412D01*
X136813917Y-81897500D01*
X136804816Y-81840037D01*
X136796350Y-81786587D01*
X136740734Y-81677433D01*
X136727680Y-81610458D01*
X136752035Y-81546717D01*
X136806425Y-81505512D01*
X136991221Y-81433922D01*
X137072523Y-81383580D01*
X137072523Y-81383579D01*
X136509999Y-80821053D01*
X136509998Y-80821053D01*
X135947470Y-81383579D01*
X126500000Y-81383579D01*
X126500000Y-80449999D01*
X128464880Y-80449999D01*
X128482447Y-80560912D01*
X128533427Y-80660967D01*
X128612832Y-80740372D01*
X128712887Y-80791352D01*
X128823799Y-80808919D01*
X128823799Y-80808918D01*
X128823800Y-80808919D01*
X128934712Y-80791352D01*
X129034767Y-80740372D01*
X129114172Y-80660967D01*
X129134281Y-80621500D01*
X131441080Y-80621500D01*
X131458647Y-80732412D01*
X131509627Y-80832467D01*
X131589032Y-80911872D01*
X131689087Y-80962852D01*
X131800000Y-80980419D01*
X131910912Y-80962852D01*
X132010967Y-80911872D01*
X132090372Y-80832467D01*
X132141352Y-80732412D01*
X132158919Y-80621500D01*
X132145160Y-80534628D01*
X132141352Y-80510587D01*
X132119398Y-80467499D01*
X135430393Y-80467499D01*
X135448775Y-80665878D01*
X135503294Y-80857496D01*
X135590771Y-81033172D01*
X136156444Y-80467501D01*
X136863551Y-80467501D01*
X137429223Y-81033172D01*
X137429224Y-81033172D01*
X137496781Y-80897500D01*
X139296078Y-80897500D01*
X139313645Y-81008412D01*
X139364625Y-81108467D01*
X139444030Y-81187872D01*
X139544085Y-81238852D01*
X139654998Y-81256419D01*
X139765910Y-81238852D01*
X139865965Y-81187872D01*
X139945370Y-81108467D01*
X139996350Y-81008412D01*
X140013917Y-80897500D01*
X139996350Y-80786588D01*
X139996350Y-80786587D01*
X139945370Y-80686532D01*
X139865965Y-80607127D01*
X139765910Y-80556147D01*
X139654998Y-80538580D01*
X139544085Y-80556147D01*
X139444030Y-80607127D01*
X139364625Y-80686532D01*
X139313645Y-80786587D01*
X139296078Y-80897500D01*
X137496781Y-80897500D01*
X137516701Y-80857495D01*
X137571220Y-80665878D01*
X137589602Y-80467499D01*
X137574081Y-80299999D01*
X140141080Y-80299999D01*
X140158647Y-80410912D01*
X140209627Y-80510967D01*
X140289032Y-80590372D01*
X140389087Y-80641352D01*
X140500000Y-80658919D01*
X140610912Y-80641352D01*
X140710967Y-80590372D01*
X140724434Y-80576904D01*
X140778471Y-80547196D01*
X140782397Y-80526618D01*
X140790370Y-80510968D01*
X140790372Y-80510967D01*
X140841352Y-80410912D01*
X140858919Y-80300000D01*
X140850790Y-80248679D01*
X140841352Y-80189087D01*
X140821436Y-80149999D01*
X142516080Y-80149999D01*
X142533647Y-80260912D01*
X142584627Y-80360967D01*
X142664032Y-80440372D01*
X142764087Y-80491352D01*
X142875000Y-80508919D01*
X142985912Y-80491352D01*
X143032727Y-80467499D01*
X145670393Y-80467499D01*
X145688775Y-80665878D01*
X145743294Y-80857496D01*
X145830771Y-81033172D01*
X146396444Y-80467501D01*
X147103551Y-80467501D01*
X147692561Y-81056510D01*
X147724996Y-81076335D01*
X147764032Y-81115372D01*
X147864087Y-81166352D01*
X147974999Y-81183919D01*
X147974999Y-81183918D01*
X147975000Y-81183919D01*
X148085912Y-81166352D01*
X148185967Y-81115372D01*
X148265372Y-81035967D01*
X148316352Y-80935912D01*
X148333919Y-80825000D01*
X148316352Y-80714088D01*
X148316352Y-80714087D01*
X148265372Y-80614032D01*
X148185967Y-80534627D01*
X148085912Y-80483647D01*
X147975000Y-80466080D01*
X147962237Y-80468102D01*
X147895917Y-80460407D01*
X147843200Y-80419436D01*
X147819370Y-80357069D01*
X147811220Y-80269121D01*
X147807914Y-80257500D01*
X148941080Y-80257500D01*
X148958647Y-80368412D01*
X149009627Y-80468467D01*
X149089032Y-80547872D01*
X149189087Y-80598852D01*
X149241340Y-80607128D01*
X149284929Y-80614032D01*
X149289665Y-80614782D01*
X149326563Y-80626771D01*
X149357950Y-80649576D01*
X149368910Y-80660537D01*
X149368911Y-80660537D01*
X149368912Y-80660538D01*
X149370975Y-80661090D01*
X149400890Y-80673480D01*
X149402745Y-80674552D01*
X149421213Y-80674552D01*
X149475359Y-80674552D01*
X150607302Y-80674552D01*
X150672092Y-80692825D01*
X150717787Y-80742258D01*
X150721741Y-80750019D01*
X150801146Y-80829424D01*
X150901201Y-80880404D01*
X151012114Y-80897971D01*
X151123026Y-80880404D01*
X151223081Y-80829424D01*
X151302486Y-80750019D01*
X151353466Y-80649964D01*
X151371033Y-80539052D01*
X151359853Y-80468467D01*
X151353466Y-80428139D01*
X151302486Y-80328084D01*
X151223081Y-80248679D01*
X151123026Y-80197699D01*
X151012114Y-80180132D01*
X150901201Y-80197699D01*
X150801146Y-80248679D01*
X150721741Y-80328084D01*
X150717787Y-80335846D01*
X150672092Y-80385279D01*
X150607302Y-80403552D01*
X149780972Y-80403552D01*
X149729058Y-80392162D01*
X149686681Y-80360083D01*
X149661627Y-80313209D01*
X149658499Y-80260152D01*
X149658919Y-80257498D01*
X149641352Y-80146587D01*
X149590372Y-80046532D01*
X149510967Y-79967127D01*
X149410912Y-79916147D01*
X149300000Y-79898580D01*
X149189087Y-79916147D01*
X149089032Y-79967127D01*
X149009627Y-80046532D01*
X148958647Y-80146587D01*
X148941080Y-80257500D01*
X147807914Y-80257500D01*
X147756701Y-80077503D01*
X147669223Y-79901827D01*
X147103551Y-80467500D01*
X147103551Y-80467501D01*
X146396444Y-80467501D01*
X146396444Y-80467500D01*
X145830771Y-79901826D01*
X145830770Y-79901826D01*
X145743295Y-80077501D01*
X145688775Y-80269121D01*
X145670393Y-80467499D01*
X143032727Y-80467499D01*
X143085967Y-80440372D01*
X143165372Y-80360967D01*
X143216352Y-80260912D01*
X143233919Y-80150000D01*
X143225604Y-80097499D01*
X143891078Y-80097499D01*
X143908645Y-80208412D01*
X143959625Y-80308467D01*
X144039030Y-80387872D01*
X144139085Y-80438852D01*
X144249998Y-80456419D01*
X144360910Y-80438852D01*
X144460965Y-80387872D01*
X144540370Y-80308467D01*
X144591350Y-80208412D01*
X144608917Y-80097500D01*
X144605749Y-80077501D01*
X144591350Y-79986587D01*
X144540370Y-79886532D01*
X144460965Y-79807127D01*
X144360910Y-79756147D01*
X144249998Y-79738580D01*
X144139085Y-79756147D01*
X144039030Y-79807127D01*
X143959625Y-79886532D01*
X143908645Y-79986587D01*
X143891078Y-80097499D01*
X143225604Y-80097499D01*
X143224263Y-80089033D01*
X143216352Y-80039087D01*
X143165372Y-79939032D01*
X143085967Y-79859627D01*
X142985912Y-79808647D01*
X142875000Y-79791080D01*
X142764087Y-79808647D01*
X142664032Y-79859627D01*
X142584627Y-79939032D01*
X142533647Y-80039087D01*
X142516080Y-80149999D01*
X140821436Y-80149999D01*
X140790372Y-80089032D01*
X140710967Y-80009627D01*
X140610912Y-79958647D01*
X140500000Y-79941080D01*
X140389087Y-79958647D01*
X140289032Y-80009627D01*
X140209627Y-80089032D01*
X140158647Y-80189087D01*
X140141080Y-80299999D01*
X137574081Y-80299999D01*
X137571220Y-80269121D01*
X137516701Y-80077503D01*
X137429223Y-79901827D01*
X136863551Y-80467500D01*
X136863551Y-80467501D01*
X136156444Y-80467501D01*
X136156444Y-80467500D01*
X135590771Y-79901826D01*
X135590770Y-79901826D01*
X135503295Y-80077501D01*
X135448775Y-80269121D01*
X135430393Y-80467499D01*
X132119398Y-80467499D01*
X132090372Y-80410532D01*
X132010967Y-80331127D01*
X131910912Y-80280147D01*
X131800000Y-80262580D01*
X131689087Y-80280147D01*
X131589032Y-80331127D01*
X131509627Y-80410532D01*
X131458647Y-80510587D01*
X131441080Y-80621500D01*
X129134281Y-80621500D01*
X129165152Y-80560912D01*
X129182719Y-80450000D01*
X129168617Y-80360967D01*
X129165152Y-80339087D01*
X129114172Y-80239032D01*
X129034767Y-80159627D01*
X128934712Y-80108647D01*
X128823800Y-80091080D01*
X128712887Y-80108647D01*
X128612832Y-80159627D01*
X128533427Y-80239032D01*
X128482447Y-80339087D01*
X128464880Y-80449999D01*
X126500000Y-80449999D01*
X126500000Y-79275000D01*
X127616080Y-79275000D01*
X127633647Y-79385912D01*
X127684627Y-79485967D01*
X127764032Y-79565372D01*
X127864087Y-79616352D01*
X127974999Y-79633919D01*
X127974999Y-79633918D01*
X127975000Y-79633919D01*
X128085912Y-79616352D01*
X128185967Y-79565372D01*
X128265372Y-79485967D01*
X128316352Y-79385912D01*
X128333919Y-79275000D01*
X128328590Y-79241352D01*
X128316352Y-79164087D01*
X128265372Y-79064032D01*
X128185967Y-78984627D01*
X128085912Y-78933647D01*
X127975000Y-78916080D01*
X127864087Y-78933647D01*
X127764032Y-78984627D01*
X127684627Y-79064032D01*
X127633647Y-79164087D01*
X127616080Y-79275000D01*
X126500000Y-79275000D01*
X126500000Y-77647500D01*
X127741080Y-77647500D01*
X127758647Y-77758412D01*
X127809627Y-77858467D01*
X127889032Y-77937872D01*
X127989087Y-77988852D01*
X128100000Y-78006419D01*
X128210912Y-77988852D01*
X128310967Y-77937872D01*
X128342710Y-77906128D01*
X128401445Y-77873234D01*
X128468710Y-77875877D01*
X128524683Y-77913276D01*
X128552866Y-77974409D01*
X128558647Y-78010912D01*
X128609627Y-78110967D01*
X128689032Y-78190372D01*
X128789087Y-78241352D01*
X128900000Y-78258919D01*
X129010912Y-78241352D01*
X129110967Y-78190372D01*
X129190372Y-78110967D01*
X129241352Y-78010912D01*
X129258919Y-77900000D01*
X129255576Y-77878899D01*
X129258705Y-77825842D01*
X129283759Y-77778969D01*
X129326136Y-77746890D01*
X129378050Y-77735500D01*
X129703798Y-77735500D01*
X129760093Y-77749015D01*
X129804116Y-77786615D01*
X129826271Y-77840102D01*
X129821729Y-77897818D01*
X129791479Y-77947181D01*
X129749627Y-77989032D01*
X129698647Y-78089087D01*
X129681080Y-78200000D01*
X129691936Y-78268540D01*
X129689238Y-78320029D01*
X129665832Y-78365970D01*
X129628398Y-78396286D01*
X129547376Y-78477307D01*
X129496397Y-78577360D01*
X129478830Y-78688273D01*
X129496397Y-78799185D01*
X129547377Y-78899240D01*
X129626782Y-78978645D01*
X129658671Y-78994893D01*
X129698743Y-79027342D01*
X129722152Y-79073284D01*
X129724850Y-79124776D01*
X129708580Y-79227499D01*
X129726147Y-79338412D01*
X129777127Y-79438467D01*
X129856532Y-79517872D01*
X129956587Y-79568852D01*
X130067500Y-79586419D01*
X130178412Y-79568852D01*
X130278467Y-79517872D01*
X130357872Y-79438467D01*
X130408852Y-79338412D01*
X130426419Y-79227500D01*
X130420538Y-79190372D01*
X130408852Y-79116587D01*
X130357872Y-79016532D01*
X130278468Y-78937128D01*
X130246577Y-78920879D01*
X130220793Y-78899999D01*
X130721080Y-78899999D01*
X130738647Y-79010912D01*
X130789627Y-79110967D01*
X130869032Y-79190372D01*
X130969087Y-79241352D01*
X131079999Y-79258919D01*
X131079999Y-79258918D01*
X131080000Y-79258919D01*
X131190912Y-79241352D01*
X131193565Y-79240000D01*
X133045416Y-79240000D01*
X133065595Y-79354434D01*
X133123695Y-79455066D01*
X133212706Y-79529756D01*
X133212707Y-79529756D01*
X133212708Y-79529757D01*
X133321900Y-79569500D01*
X133438100Y-79569500D01*
X133487777Y-79551419D01*
X135947470Y-79551419D01*
X136509998Y-80113946D01*
X136509999Y-80113946D01*
X137072524Y-79551419D01*
X136991219Y-79501077D01*
X136805445Y-79429108D01*
X136609609Y-79392500D01*
X136410387Y-79392500D01*
X136214550Y-79429108D01*
X136028773Y-79501078D01*
X135947471Y-79551418D01*
X135947470Y-79551419D01*
X133487777Y-79551419D01*
X133547292Y-79529757D01*
X133636305Y-79455066D01*
X133694405Y-79354434D01*
X133712820Y-79250000D01*
X139165416Y-79250000D01*
X139185595Y-79364434D01*
X139243695Y-79465066D01*
X139332706Y-79539756D01*
X139332707Y-79539756D01*
X139332708Y-79539757D01*
X139441900Y-79579500D01*
X139558100Y-79579500D01*
X139667292Y-79539757D01*
X139756305Y-79465066D01*
X139814405Y-79364434D01*
X139834583Y-79250000D01*
X140165416Y-79250000D01*
X140185595Y-79364434D01*
X140243695Y-79465066D01*
X140332706Y-79539756D01*
X140332707Y-79539756D01*
X140332708Y-79539757D01*
X140441900Y-79579500D01*
X140558100Y-79579500D01*
X140667292Y-79539757D01*
X140756305Y-79465066D01*
X140814405Y-79364434D01*
X140834583Y-79250000D01*
X141165416Y-79250000D01*
X141185595Y-79364434D01*
X141243695Y-79465066D01*
X141332706Y-79539756D01*
X141332707Y-79539756D01*
X141332708Y-79539757D01*
X141441900Y-79579500D01*
X141558100Y-79579500D01*
X141635251Y-79551419D01*
X146187470Y-79551419D01*
X146749998Y-80113946D01*
X146749999Y-80113946D01*
X147312524Y-79551419D01*
X147231219Y-79501077D01*
X147045445Y-79429108D01*
X146849609Y-79392500D01*
X146650387Y-79392500D01*
X146454550Y-79429108D01*
X146268773Y-79501078D01*
X146187471Y-79551418D01*
X146187470Y-79551419D01*
X141635251Y-79551419D01*
X141667292Y-79539757D01*
X141756305Y-79465066D01*
X141814405Y-79364434D01*
X141834583Y-79250000D01*
X141814405Y-79135566D01*
X141756305Y-79034934D01*
X141749978Y-79029625D01*
X141667293Y-78960243D01*
X141558100Y-78920500D01*
X141441900Y-78920500D01*
X141430353Y-78924703D01*
X141332708Y-78960243D01*
X141243694Y-79034933D01*
X141185595Y-79135565D01*
X141165416Y-79250000D01*
X140834583Y-79250000D01*
X140814405Y-79135566D01*
X140756305Y-79034934D01*
X140749978Y-79029625D01*
X140667293Y-78960243D01*
X140558100Y-78920500D01*
X140441900Y-78920500D01*
X140430353Y-78924703D01*
X140332708Y-78960243D01*
X140243694Y-79034933D01*
X140185595Y-79135565D01*
X140165416Y-79250000D01*
X139834583Y-79250000D01*
X139814405Y-79135566D01*
X139756305Y-79034934D01*
X139749978Y-79029625D01*
X139667293Y-78960243D01*
X139558100Y-78920500D01*
X139441900Y-78920500D01*
X139430353Y-78924703D01*
X139332708Y-78960243D01*
X139243694Y-79034933D01*
X139185595Y-79135565D01*
X139165416Y-79250000D01*
X133712820Y-79250000D01*
X133714583Y-79240000D01*
X133694405Y-79125566D01*
X133636305Y-79024934D01*
X133626292Y-79016532D01*
X133547293Y-78950243D01*
X133438100Y-78910500D01*
X133321900Y-78910500D01*
X133267304Y-78930371D01*
X133212708Y-78950243D01*
X133123694Y-79024933D01*
X133065595Y-79125565D01*
X133045416Y-79240000D01*
X131193565Y-79240000D01*
X131290967Y-79190372D01*
X131370372Y-79110967D01*
X131421352Y-79010912D01*
X131438919Y-78900000D01*
X131435712Y-78879755D01*
X131421352Y-78789087D01*
X131370372Y-78689032D01*
X131290967Y-78609627D01*
X131190912Y-78558647D01*
X131080000Y-78541080D01*
X130969087Y-78558647D01*
X130869032Y-78609627D01*
X130789627Y-78689032D01*
X130738647Y-78789087D01*
X130721080Y-78899999D01*
X130220793Y-78899999D01*
X130206506Y-78888429D01*
X130183097Y-78842487D01*
X130180399Y-78790995D01*
X130196669Y-78688273D01*
X130185813Y-78619733D01*
X130188511Y-78568239D01*
X130211922Y-78522296D01*
X130249342Y-78491995D01*
X130250962Y-78490374D01*
X130250967Y-78490372D01*
X130330372Y-78410967D01*
X130376722Y-78319999D01*
X133045416Y-78319999D01*
X133065595Y-78434434D01*
X133123695Y-78535066D01*
X133212706Y-78609756D01*
X133212707Y-78609756D01*
X133212708Y-78609757D01*
X133321900Y-78649500D01*
X133438100Y-78649500D01*
X133547292Y-78609757D01*
X133636305Y-78535066D01*
X133694405Y-78434434D01*
X133714583Y-78320000D01*
X133712820Y-78309999D01*
X139165416Y-78309999D01*
X139185595Y-78424434D01*
X139243695Y-78525066D01*
X139332706Y-78599756D01*
X139332707Y-78599756D01*
X139332708Y-78599757D01*
X139441900Y-78639500D01*
X139558100Y-78639500D01*
X139667292Y-78599757D01*
X139756305Y-78525066D01*
X139814405Y-78424434D01*
X139834583Y-78310000D01*
X139834583Y-78309999D01*
X140165416Y-78309999D01*
X140185595Y-78424434D01*
X140243695Y-78525066D01*
X140332706Y-78599756D01*
X140332707Y-78599756D01*
X140332708Y-78599757D01*
X140441900Y-78639500D01*
X140558100Y-78639500D01*
X140667292Y-78599757D01*
X140756305Y-78525066D01*
X140814405Y-78424434D01*
X140832820Y-78319999D01*
X141165416Y-78319999D01*
X141185595Y-78434434D01*
X141243695Y-78535066D01*
X141332706Y-78609756D01*
X141332707Y-78609756D01*
X141332708Y-78609757D01*
X141441900Y-78649500D01*
X141558100Y-78649500D01*
X141667292Y-78609757D01*
X141756305Y-78535066D01*
X141814405Y-78434434D01*
X141834583Y-78320000D01*
X141814405Y-78205566D01*
X141756305Y-78104934D01*
X141749214Y-78098984D01*
X141667293Y-78030243D01*
X141558100Y-77990500D01*
X141441900Y-77990500D01*
X141398164Y-78006419D01*
X141332708Y-78030243D01*
X141243694Y-78104933D01*
X141185595Y-78205565D01*
X141165416Y-78319999D01*
X140832820Y-78319999D01*
X140834583Y-78310000D01*
X140814405Y-78195566D01*
X140756305Y-78094934D01*
X140749337Y-78089087D01*
X140667293Y-78020243D01*
X140558100Y-77980500D01*
X140441900Y-77980500D01*
X140414426Y-77990500D01*
X140332708Y-78020243D01*
X140243694Y-78094933D01*
X140185595Y-78195565D01*
X140165416Y-78309999D01*
X139834583Y-78309999D01*
X139814405Y-78195566D01*
X139756305Y-78094934D01*
X139749337Y-78089087D01*
X139667293Y-78020243D01*
X139558100Y-77980500D01*
X139441900Y-77980500D01*
X139414426Y-77990500D01*
X139332708Y-78020243D01*
X139243694Y-78094933D01*
X139185595Y-78195565D01*
X139165416Y-78309999D01*
X133712820Y-78309999D01*
X133694405Y-78205566D01*
X133636305Y-78104934D01*
X133629214Y-78098984D01*
X133547293Y-78030243D01*
X133438100Y-77990500D01*
X133321900Y-77990500D01*
X133278164Y-78006419D01*
X133212708Y-78030243D01*
X133123694Y-78104933D01*
X133065595Y-78205565D01*
X133045416Y-78319999D01*
X130376722Y-78319999D01*
X130381352Y-78310912D01*
X130398919Y-78200000D01*
X130395593Y-78179003D01*
X130381352Y-78089087D01*
X130330372Y-77989032D01*
X130288521Y-77947181D01*
X130258271Y-77897818D01*
X130253729Y-77840102D01*
X130275884Y-77786615D01*
X130319907Y-77749015D01*
X130376202Y-77735500D01*
X130936305Y-77735500D01*
X130936307Y-77735500D01*
X130938157Y-77734431D01*
X130968077Y-77722038D01*
X130970140Y-77721486D01*
X131021486Y-77670140D01*
X131312465Y-77379159D01*
X131368048Y-77347069D01*
X131432235Y-77347069D01*
X131487823Y-77379163D01*
X131499032Y-77390372D01*
X131599087Y-77441352D01*
X131709999Y-77458919D01*
X131709999Y-77458918D01*
X131710000Y-77458919D01*
X131820912Y-77441352D01*
X131920967Y-77390372D01*
X132000372Y-77310967D01*
X132051352Y-77210912D01*
X132068919Y-77100000D01*
X134391080Y-77100000D01*
X134408647Y-77210912D01*
X134459627Y-77310967D01*
X134539032Y-77390372D01*
X134639087Y-77441352D01*
X134749999Y-77458919D01*
X134749999Y-77458918D01*
X134750000Y-77458919D01*
X134860912Y-77441352D01*
X134960967Y-77390372D01*
X135040372Y-77310967D01*
X135085448Y-77222499D01*
X145241080Y-77222499D01*
X145258647Y-77333412D01*
X145309627Y-77433467D01*
X145389032Y-77512872D01*
X145489087Y-77563852D01*
X145600000Y-77581419D01*
X145710912Y-77563852D01*
X145810967Y-77512872D01*
X145890372Y-77433467D01*
X145941352Y-77333412D01*
X145958919Y-77222500D01*
X145941352Y-77111588D01*
X145941352Y-77111587D01*
X145890372Y-77011532D01*
X145810967Y-76932127D01*
X145710912Y-76881147D01*
X145600000Y-76863580D01*
X145489087Y-76881147D01*
X145389032Y-76932127D01*
X145309627Y-77011532D01*
X145258647Y-77111587D01*
X145241080Y-77222499D01*
X135085448Y-77222499D01*
X135091352Y-77210912D01*
X135108919Y-77100000D01*
X135091352Y-76989088D01*
X135091352Y-76989087D01*
X135040372Y-76889032D01*
X134960967Y-76809627D01*
X134860912Y-76758647D01*
X134750000Y-76741080D01*
X134639087Y-76758647D01*
X134539032Y-76809627D01*
X134459627Y-76889032D01*
X134408647Y-76989087D01*
X134391080Y-77100000D01*
X132068919Y-77100000D01*
X132051352Y-76989088D01*
X132051352Y-76989087D01*
X132000372Y-76889032D01*
X131920967Y-76809627D01*
X131820912Y-76758647D01*
X131710000Y-76741080D01*
X131599087Y-76758647D01*
X131499032Y-76809627D01*
X131419627Y-76889032D01*
X131406084Y-76915614D01*
X131373634Y-76955687D01*
X131327690Y-76979096D01*
X131322487Y-76980490D01*
X131266733Y-76982435D01*
X131215768Y-76959743D01*
X131179910Y-76917006D01*
X131173014Y-76903471D01*
X131159500Y-76847179D01*
X131159500Y-76524999D01*
X146266080Y-76524999D01*
X146283647Y-76635912D01*
X146334627Y-76735967D01*
X146414032Y-76815372D01*
X146514087Y-76866352D01*
X146625000Y-76883919D01*
X146735912Y-76866352D01*
X146835967Y-76815372D01*
X146915372Y-76735967D01*
X146966352Y-76635912D01*
X146983919Y-76525000D01*
X146979959Y-76499999D01*
X150241080Y-76499999D01*
X150258647Y-76610912D01*
X150309627Y-76710967D01*
X150389032Y-76790372D01*
X150489087Y-76841352D01*
X150600000Y-76858919D01*
X150710912Y-76841352D01*
X150810967Y-76790372D01*
X150890372Y-76710967D01*
X150941352Y-76610912D01*
X150958919Y-76500000D01*
X150952744Y-76461016D01*
X150941352Y-76389087D01*
X150890372Y-76289032D01*
X150810967Y-76209627D01*
X150710912Y-76158647D01*
X150600000Y-76141080D01*
X150489087Y-76158647D01*
X150389032Y-76209627D01*
X150309627Y-76289032D01*
X150258647Y-76389087D01*
X150241080Y-76499999D01*
X146979959Y-76499999D01*
X146966352Y-76414088D01*
X146966352Y-76414087D01*
X146915372Y-76314032D01*
X146835967Y-76234627D01*
X146735912Y-76183647D01*
X146624999Y-76166080D01*
X146514087Y-76183647D01*
X146414032Y-76234627D01*
X146334627Y-76314032D01*
X146283647Y-76414087D01*
X146266080Y-76524999D01*
X131159500Y-76524999D01*
X131159500Y-76035202D01*
X131173015Y-75978907D01*
X131210615Y-75934884D01*
X131264102Y-75912729D01*
X131321818Y-75917271D01*
X131371181Y-75947521D01*
X131389032Y-75965372D01*
X131489087Y-76016352D01*
X131599999Y-76033919D01*
X131599999Y-76033918D01*
X131600000Y-76033919D01*
X131710912Y-76016352D01*
X131810967Y-75965372D01*
X131890372Y-75885967D01*
X131941352Y-75785912D01*
X131958919Y-75675000D01*
X131958919Y-75674999D01*
X132241080Y-75674999D01*
X132258647Y-75785912D01*
X132309627Y-75885967D01*
X132389032Y-75965372D01*
X132489087Y-76016352D01*
X132599999Y-76033919D01*
X132599999Y-76033918D01*
X132600000Y-76033919D01*
X132710912Y-76016352D01*
X132810967Y-75965372D01*
X132890372Y-75885967D01*
X132941352Y-75785912D01*
X132958919Y-75675000D01*
X132958919Y-75674999D01*
X133241080Y-75674999D01*
X133258647Y-75785912D01*
X133309627Y-75885967D01*
X133389032Y-75965372D01*
X133489087Y-76016352D01*
X133599999Y-76033919D01*
X133599999Y-76033918D01*
X133600000Y-76033919D01*
X133710912Y-76016352D01*
X133810967Y-75965372D01*
X133890372Y-75885967D01*
X133941352Y-75785912D01*
X133958919Y-75675000D01*
X133958919Y-75674999D01*
X134241080Y-75674999D01*
X134258647Y-75785912D01*
X134309627Y-75885967D01*
X134389032Y-75965372D01*
X134489087Y-76016352D01*
X134599999Y-76033919D01*
X134599999Y-76033918D01*
X134600000Y-76033919D01*
X134710912Y-76016352D01*
X134810967Y-75965372D01*
X134890372Y-75885967D01*
X134941352Y-75785912D01*
X134958919Y-75675000D01*
X134954959Y-75649999D01*
X135341080Y-75649999D01*
X135358647Y-75760912D01*
X135409627Y-75860967D01*
X135489032Y-75940372D01*
X135589087Y-75991352D01*
X135700000Y-76008919D01*
X135810912Y-75991352D01*
X135910967Y-75940372D01*
X135990372Y-75860967D01*
X136041352Y-75760912D01*
X136058919Y-75650000D01*
X136057239Y-75639396D01*
X136050999Y-75599999D01*
X144216080Y-75599999D01*
X144233647Y-75710912D01*
X144284627Y-75810967D01*
X144364032Y-75890372D01*
X144464087Y-75941352D01*
X144575000Y-75958919D01*
X144685912Y-75941352D01*
X144785967Y-75890372D01*
X144865372Y-75810967D01*
X144916352Y-75710912D01*
X144933919Y-75600000D01*
X144931727Y-75586163D01*
X144916352Y-75489087D01*
X144865372Y-75389032D01*
X144785967Y-75309627D01*
X144685912Y-75258647D01*
X144575000Y-75241080D01*
X144464087Y-75258647D01*
X144364032Y-75309627D01*
X144284627Y-75389032D01*
X144233647Y-75489087D01*
X144216080Y-75599999D01*
X136050999Y-75599999D01*
X136041352Y-75539087D01*
X135990372Y-75439032D01*
X135910967Y-75359627D01*
X135810912Y-75308647D01*
X135699999Y-75291080D01*
X135589087Y-75308647D01*
X135489032Y-75359627D01*
X135409627Y-75439032D01*
X135358647Y-75539087D01*
X135341080Y-75649999D01*
X134954959Y-75649999D01*
X134944848Y-75586163D01*
X134941352Y-75564087D01*
X134890372Y-75464032D01*
X134810967Y-75384627D01*
X134710912Y-75333647D01*
X134600000Y-75316080D01*
X134489087Y-75333647D01*
X134389032Y-75384627D01*
X134309627Y-75464032D01*
X134258647Y-75564087D01*
X134241080Y-75674999D01*
X133958919Y-75674999D01*
X133944848Y-75586163D01*
X133941352Y-75564087D01*
X133890372Y-75464032D01*
X133810967Y-75384627D01*
X133710912Y-75333647D01*
X133600000Y-75316080D01*
X133489087Y-75333647D01*
X133389032Y-75384627D01*
X133309627Y-75464032D01*
X133258647Y-75564087D01*
X133241080Y-75674999D01*
X132958919Y-75674999D01*
X132944848Y-75586163D01*
X132941352Y-75564087D01*
X132890372Y-75464032D01*
X132810967Y-75384627D01*
X132710912Y-75333647D01*
X132600000Y-75316080D01*
X132489087Y-75333647D01*
X132389032Y-75384627D01*
X132309627Y-75464032D01*
X132258647Y-75564087D01*
X132241080Y-75674999D01*
X131958919Y-75674999D01*
X131944848Y-75586163D01*
X131941352Y-75564087D01*
X131890372Y-75464032D01*
X131810967Y-75384627D01*
X131710912Y-75333647D01*
X131600000Y-75316080D01*
X131489087Y-75333647D01*
X131389032Y-75384627D01*
X131371181Y-75402479D01*
X131321818Y-75432729D01*
X131264102Y-75437271D01*
X131210615Y-75415116D01*
X131173015Y-75371093D01*
X131159500Y-75314798D01*
X131159500Y-72787694D01*
X131159500Y-72787693D01*
X131158428Y-72785838D01*
X131146038Y-72755923D01*
X131145486Y-72753860D01*
X131094140Y-72702514D01*
X130283199Y-71891573D01*
X130280713Y-71889087D01*
X130270140Y-71878513D01*
X130268067Y-71877958D01*
X130238163Y-71865571D01*
X130236308Y-71864500D01*
X130236307Y-71864500D01*
X130217839Y-71864500D01*
X129329812Y-71864500D01*
X129265022Y-71846227D01*
X129219327Y-71796794D01*
X129215372Y-71789032D01*
X129135967Y-71709627D01*
X129035912Y-71658647D01*
X128925000Y-71641080D01*
X128814087Y-71658647D01*
X128714032Y-71709627D01*
X128634627Y-71789032D01*
X128583647Y-71889087D01*
X128566080Y-72000000D01*
X128583647Y-72110912D01*
X128634627Y-72210967D01*
X128714032Y-72290372D01*
X128814087Y-72341352D01*
X128925000Y-72358919D01*
X129035912Y-72341352D01*
X129135967Y-72290372D01*
X129215372Y-72210967D01*
X129215371Y-72210967D01*
X129219327Y-72203206D01*
X129265022Y-72153773D01*
X129329812Y-72135500D01*
X130092512Y-72135500D01*
X130139965Y-72144939D01*
X130180193Y-72171819D01*
X130852181Y-72843807D01*
X130879061Y-72884035D01*
X130888500Y-72931488D01*
X130888500Y-75212630D01*
X130877110Y-75264544D01*
X130845031Y-75306920D01*
X130798158Y-75331975D01*
X130745102Y-75335103D01*
X130625000Y-75316080D01*
X130514087Y-75333647D01*
X130414032Y-75384627D01*
X130334627Y-75464032D01*
X130283647Y-75564087D01*
X130266080Y-75674999D01*
X130283647Y-75785912D01*
X130334627Y-75885967D01*
X130414032Y-75965372D01*
X130514087Y-76016352D01*
X130625000Y-76033919D01*
X130745102Y-76014897D01*
X130798158Y-76018025D01*
X130845031Y-76043080D01*
X130877110Y-76085456D01*
X130888500Y-76137370D01*
X130888500Y-76600661D01*
X130874985Y-76656956D01*
X130837386Y-76700979D01*
X130783899Y-76723134D01*
X130749087Y-76728647D01*
X130649033Y-76779627D01*
X130595188Y-76833472D01*
X130545824Y-76863721D01*
X130488108Y-76868263D01*
X130434620Y-76846107D01*
X130397021Y-76802083D01*
X130390370Y-76789030D01*
X130310967Y-76709627D01*
X130210912Y-76658647D01*
X130100000Y-76641080D01*
X129989087Y-76658647D01*
X129889032Y-76709627D01*
X129809627Y-76789032D01*
X129758647Y-76889087D01*
X129741080Y-77000000D01*
X129758647Y-77110912D01*
X129809627Y-77210967D01*
X129851479Y-77252819D01*
X129881729Y-77302182D01*
X129886271Y-77359898D01*
X129864116Y-77413385D01*
X129820093Y-77450985D01*
X129763798Y-77464500D01*
X129163691Y-77464500D01*
X129161832Y-77465573D01*
X129131933Y-77477958D01*
X129129861Y-77478513D01*
X129129858Y-77478514D01*
X129099364Y-77509006D01*
X129099360Y-77509012D01*
X129089094Y-77519278D01*
X129039731Y-77549528D01*
X128982015Y-77554070D01*
X128900000Y-77541080D01*
X128789087Y-77558647D01*
X128689031Y-77609628D01*
X128657286Y-77641373D01*
X128598552Y-77674265D01*
X128531287Y-77671622D01*
X128475315Y-77634222D01*
X128447133Y-77573091D01*
X128441352Y-77536588D01*
X128429268Y-77512872D01*
X128390372Y-77436532D01*
X128310967Y-77357127D01*
X128210912Y-77306147D01*
X128100000Y-77288580D01*
X127989087Y-77306147D01*
X127889032Y-77357127D01*
X127809627Y-77436532D01*
X127758647Y-77536587D01*
X127741080Y-77647500D01*
X126500000Y-77647500D01*
X126500000Y-75729999D01*
X128251080Y-75729999D01*
X128268647Y-75840912D01*
X128319627Y-75940967D01*
X128399032Y-76020372D01*
X128499087Y-76071352D01*
X128609999Y-76088919D01*
X128609999Y-76088918D01*
X128610000Y-76088919D01*
X128720912Y-76071352D01*
X128820967Y-76020372D01*
X128900372Y-75940967D01*
X128951352Y-75840912D01*
X128968919Y-75730000D01*
X128968919Y-75729999D01*
X128970713Y-75718674D01*
X128982701Y-75681777D01*
X129005502Y-75650394D01*
X129036842Y-75619054D01*
X129095574Y-75586163D01*
X129162839Y-75588806D01*
X129218811Y-75626205D01*
X129246994Y-75687338D01*
X129258647Y-75760912D01*
X129309627Y-75860967D01*
X129389032Y-75940372D01*
X129489087Y-75991352D01*
X129600000Y-76008919D01*
X129710912Y-75991352D01*
X129810967Y-75940372D01*
X129890372Y-75860967D01*
X129941352Y-75760912D01*
X129958919Y-75650000D01*
X129957239Y-75639396D01*
X129941352Y-75539087D01*
X129890372Y-75439032D01*
X129810967Y-75359627D01*
X129710912Y-75308647D01*
X129627260Y-75295398D01*
X129572459Y-75272275D01*
X129534730Y-75226292D01*
X129522756Y-75168029D01*
X129530556Y-75141071D01*
X129527260Y-75140189D01*
X129531486Y-75124412D01*
X129532038Y-75122349D01*
X129544431Y-75092429D01*
X129545500Y-75090579D01*
X129545500Y-75017965D01*
X129545500Y-73467161D01*
X129545500Y-73448693D01*
X129544428Y-73446838D01*
X129532038Y-73416923D01*
X129531486Y-73414860D01*
X129480140Y-73363514D01*
X129305721Y-73189095D01*
X129275471Y-73139732D01*
X129270929Y-73082015D01*
X129283919Y-72999999D01*
X129266352Y-72889087D01*
X129215372Y-72789032D01*
X129135967Y-72709627D01*
X129035912Y-72658647D01*
X128925000Y-72641080D01*
X128814087Y-72658647D01*
X128714032Y-72709627D01*
X128634627Y-72789032D01*
X128583647Y-72889087D01*
X128566080Y-73000000D01*
X128583647Y-73110912D01*
X128634627Y-73210967D01*
X128714032Y-73290372D01*
X128814087Y-73341352D01*
X128924999Y-73358919D01*
X128924999Y-73358918D01*
X128925000Y-73358919D01*
X128978338Y-73350471D01*
X129007015Y-73345929D01*
X129064732Y-73350471D01*
X129114095Y-73380721D01*
X129238181Y-73504807D01*
X129265061Y-73545035D01*
X129274500Y-73592488D01*
X129274500Y-74590602D01*
X129258690Y-74651191D01*
X129215290Y-74696329D01*
X129155369Y-74714506D01*
X129094206Y-74701087D01*
X129010912Y-74658647D01*
X128900000Y-74641080D01*
X128789087Y-74658647D01*
X128689032Y-74709627D01*
X128609627Y-74789032D01*
X128558647Y-74889087D01*
X128541080Y-75000000D01*
X128558647Y-75110912D01*
X128607662Y-75207110D01*
X128621177Y-75263404D01*
X128607662Y-75319698D01*
X128570064Y-75363721D01*
X128516578Y-75385877D01*
X128499087Y-75388647D01*
X128399032Y-75439627D01*
X128319627Y-75519032D01*
X128268647Y-75619087D01*
X128251080Y-75729999D01*
X126500000Y-75729999D01*
X126500000Y-70799999D01*
X126841080Y-70799999D01*
X126858647Y-70910912D01*
X126909627Y-71010967D01*
X126989032Y-71090372D01*
X127089087Y-71141352D01*
X127200000Y-71158919D01*
X127310912Y-71141352D01*
X127410967Y-71090372D01*
X127490372Y-71010967D01*
X127490371Y-71010967D01*
X127494327Y-71003206D01*
X127540022Y-70953773D01*
X127604812Y-70935500D01*
X128836305Y-70935500D01*
X128836307Y-70935500D01*
X128838157Y-70934431D01*
X128868077Y-70922038D01*
X128870140Y-70921486D01*
X128921486Y-70870140D01*
X128921486Y-70870139D01*
X129168427Y-70623199D01*
X129168426Y-70623199D01*
X129181486Y-70610140D01*
X129181486Y-70610137D01*
X129189255Y-70602369D01*
X129192296Y-70592349D01*
X129191274Y-70592076D01*
X129195500Y-70576307D01*
X129195500Y-67189500D01*
X129212113Y-67127500D01*
X129257500Y-67082113D01*
X129319500Y-67065500D01*
X133563396Y-67065500D01*
X133610849Y-67074939D01*
X133651077Y-67101819D01*
X134698181Y-68148923D01*
X134725061Y-68189151D01*
X134734500Y-68236604D01*
X134734500Y-68585188D01*
X134716227Y-68649978D01*
X134666794Y-68695673D01*
X134659032Y-68699627D01*
X134579627Y-68779032D01*
X134528647Y-68879087D01*
X134511080Y-68990000D01*
X134528647Y-69100912D01*
X134579627Y-69200967D01*
X134659032Y-69280372D01*
X134733540Y-69318335D01*
X134779130Y-69358140D01*
X134800449Y-69414782D01*
X134792418Y-69474769D01*
X134756952Y-69523810D01*
X134743693Y-69534934D01*
X134685595Y-69635565D01*
X134665416Y-69749999D01*
X134685595Y-69864434D01*
X134743695Y-69965066D01*
X134832706Y-70039756D01*
X134832707Y-70039756D01*
X134832708Y-70039757D01*
X134941900Y-70079500D01*
X135058100Y-70079500D01*
X135167292Y-70039757D01*
X135256305Y-69965066D01*
X135314405Y-69864434D01*
X135334583Y-69750000D01*
X135314405Y-69635566D01*
X135256305Y-69534934D01*
X135243048Y-69523810D01*
X135167291Y-69460241D01*
X135155031Y-69455779D01*
X135104214Y-69421016D01*
X135076382Y-69366095D01*
X135078397Y-69304558D01*
X135109760Y-69251578D01*
X135160372Y-69200967D01*
X135211352Y-69100912D01*
X135228919Y-68990000D01*
X135228774Y-68989087D01*
X135211352Y-68879087D01*
X135160372Y-68779032D01*
X135080967Y-68699627D01*
X135073206Y-68695673D01*
X135023773Y-68649978D01*
X135005500Y-68585188D01*
X135005500Y-68501046D01*
X135019015Y-68444751D01*
X135056615Y-68400728D01*
X135110102Y-68378573D01*
X135167818Y-68383115D01*
X135217181Y-68413364D01*
X135873956Y-69070140D01*
X135925302Y-69121486D01*
X135927365Y-69122038D01*
X135957280Y-69134428D01*
X135959135Y-69135500D01*
X135977603Y-69135500D01*
X136031749Y-69135500D01*
X136505188Y-69135500D01*
X136569978Y-69153773D01*
X136615673Y-69203206D01*
X136619627Y-69210967D01*
X136699032Y-69290372D01*
X136799087Y-69341352D01*
X136910000Y-69358919D01*
X137020912Y-69341352D01*
X137120967Y-69290372D01*
X137200372Y-69210967D01*
X137251352Y-69110912D01*
X137268919Y-69000000D01*
X137251352Y-68889088D01*
X137251352Y-68889087D01*
X137200372Y-68789032D01*
X137120967Y-68709627D01*
X137020912Y-68658647D01*
X136910000Y-68641080D01*
X136799087Y-68658647D01*
X136699032Y-68709627D01*
X136619627Y-68789032D01*
X136615673Y-68796794D01*
X136569978Y-68846227D01*
X136505188Y-68864500D01*
X136102930Y-68864500D01*
X136055477Y-68855061D01*
X136015249Y-68828181D01*
X135749219Y-68562151D01*
X135717823Y-68509065D01*
X135715886Y-68447420D01*
X135743887Y-68392467D01*
X135794898Y-68357800D01*
X135856298Y-68351997D01*
X135900000Y-68358919D01*
X135900000Y-68358918D01*
X135900001Y-68358919D01*
X136010912Y-68341352D01*
X136110967Y-68290372D01*
X136190372Y-68210967D01*
X136241352Y-68110912D01*
X136258919Y-67999999D01*
X136241352Y-67889087D01*
X136190372Y-67789032D01*
X136110967Y-67709627D01*
X136010912Y-67658647D01*
X135900000Y-67641080D01*
X135789087Y-67658647D01*
X135689032Y-67709627D01*
X135609627Y-67789032D01*
X135605673Y-67796794D01*
X135559978Y-67846227D01*
X135495188Y-67864500D01*
X135357488Y-67864500D01*
X135310035Y-67855061D01*
X135269807Y-67828181D01*
X134987096Y-67545470D01*
X134956846Y-67496107D01*
X134952304Y-67438391D01*
X134974459Y-67384903D01*
X135018483Y-67347304D01*
X135090967Y-67310372D01*
X135170372Y-67230967D01*
X135221352Y-67130912D01*
X135238919Y-67020000D01*
X135235243Y-66996794D01*
X135221352Y-66909087D01*
X135170372Y-66809032D01*
X135090967Y-66729627D01*
X134990912Y-66678647D01*
X134879998Y-66661080D01*
X134797982Y-66674070D01*
X134740267Y-66669528D01*
X134690904Y-66639278D01*
X134598807Y-66547181D01*
X134568557Y-66497818D01*
X134564015Y-66440102D01*
X134586170Y-66386615D01*
X134630193Y-66349015D01*
X134686488Y-66335500D01*
X136002512Y-66335500D01*
X136049965Y-66344939D01*
X136090193Y-66371819D01*
X136529278Y-66810904D01*
X136559528Y-66860267D01*
X136564070Y-66917982D01*
X136551080Y-66999998D01*
X136568647Y-67110912D01*
X136619627Y-67210967D01*
X136699032Y-67290372D01*
X136799087Y-67341352D01*
X136909999Y-67358919D01*
X136909999Y-67358918D01*
X136910000Y-67358919D01*
X137020912Y-67341352D01*
X137120967Y-67290372D01*
X137200372Y-67210967D01*
X137251352Y-67110912D01*
X137268919Y-67000000D01*
X137255928Y-66917982D01*
X137251352Y-66889087D01*
X137200372Y-66789032D01*
X137120967Y-66709627D01*
X137020912Y-66658647D01*
X136909998Y-66641080D01*
X136827982Y-66654070D01*
X136770267Y-66649528D01*
X136720904Y-66619278D01*
X136468807Y-66367181D01*
X136438557Y-66317818D01*
X136434015Y-66260102D01*
X136456170Y-66206615D01*
X136500193Y-66169015D01*
X136556488Y-66155500D01*
X152293396Y-66155500D01*
X152340849Y-66164939D01*
X152381077Y-66191819D01*
X152627181Y-66437923D01*
X152654061Y-66478151D01*
X152663500Y-66525604D01*
X152663500Y-75112630D01*
X152652110Y-75164544D01*
X152620031Y-75206920D01*
X152573158Y-75231975D01*
X152520102Y-75235103D01*
X152400000Y-75216080D01*
X152289087Y-75233647D01*
X152189032Y-75284627D01*
X152109628Y-75364031D01*
X152104665Y-75373773D01*
X152067065Y-75417796D01*
X152013578Y-75439951D01*
X151955862Y-75435409D01*
X151906499Y-75405159D01*
X151835967Y-75334627D01*
X151735912Y-75283647D01*
X151625000Y-75266080D01*
X151514087Y-75283647D01*
X151414032Y-75334627D01*
X151334627Y-75414032D01*
X151283647Y-75514087D01*
X151266080Y-75625000D01*
X151283647Y-75735912D01*
X151334627Y-75835967D01*
X151414032Y-75915372D01*
X151514087Y-75966352D01*
X151625000Y-75983919D01*
X151735912Y-75966352D01*
X151835967Y-75915372D01*
X151915372Y-75835967D01*
X151920333Y-75826229D01*
X151957930Y-75782205D01*
X152011418Y-75760048D01*
X152069136Y-75764590D01*
X152118500Y-75794840D01*
X152189032Y-75865372D01*
X152289087Y-75916352D01*
X152400000Y-75933919D01*
X152520102Y-75914897D01*
X152573158Y-75918025D01*
X152620031Y-75943080D01*
X152652110Y-75985456D01*
X152663500Y-76037370D01*
X152663500Y-77203825D01*
X152647690Y-77264414D01*
X152604290Y-77309552D01*
X152544369Y-77327729D01*
X152483206Y-77314310D01*
X152423026Y-77283647D01*
X152312113Y-77266080D01*
X152201201Y-77283647D01*
X152101145Y-77334628D01*
X152068736Y-77367037D01*
X152013148Y-77399130D01*
X151948960Y-77399129D01*
X151893373Y-77367034D01*
X151885966Y-77359627D01*
X151785912Y-77308647D01*
X151675000Y-77291080D01*
X151564087Y-77308647D01*
X151464032Y-77359627D01*
X151384627Y-77439032D01*
X151333647Y-77539087D01*
X151316080Y-77650000D01*
X151333647Y-77760912D01*
X151384627Y-77860967D01*
X151464030Y-77940370D01*
X151464032Y-77940371D01*
X151464033Y-77940372D01*
X151469254Y-77943032D01*
X151515518Y-77983818D01*
X151536411Y-78041847D01*
X151526763Y-78102763D01*
X151488962Y-78151496D01*
X151432360Y-78175991D01*
X151302439Y-78196569D01*
X151268009Y-78214112D01*
X151211715Y-78227626D01*
X151155422Y-78214111D01*
X151120995Y-78196570D01*
X151120994Y-78196569D01*
X151120993Y-78196569D01*
X151010083Y-78179002D01*
X150899170Y-78196569D01*
X150799115Y-78247549D01*
X150719710Y-78326954D01*
X150659815Y-78444508D01*
X150659229Y-78444209D01*
X150645419Y-78476116D01*
X150596685Y-78513913D01*
X150535770Y-78523558D01*
X150477744Y-78502665D01*
X150436960Y-78456404D01*
X150415372Y-78414033D01*
X150415371Y-78414032D01*
X150415370Y-78414030D01*
X150335967Y-78334627D01*
X150235912Y-78283647D01*
X150124999Y-78266080D01*
X150014087Y-78283647D01*
X149914032Y-78334627D01*
X149834627Y-78414032D01*
X149783647Y-78514087D01*
X149766080Y-78624999D01*
X149783647Y-78735912D01*
X149834626Y-78835965D01*
X149834627Y-78835966D01*
X149834628Y-78835967D01*
X149905713Y-78907052D01*
X149933795Y-78950293D01*
X149941861Y-79001220D01*
X149928516Y-79051026D01*
X149883647Y-79139087D01*
X149866080Y-79250000D01*
X149883647Y-79360912D01*
X149934627Y-79460967D01*
X150014032Y-79540372D01*
X150114087Y-79591352D01*
X150225000Y-79608919D01*
X150335912Y-79591352D01*
X150435967Y-79540372D01*
X150515372Y-79460967D01*
X150566352Y-79360912D01*
X150583919Y-79250000D01*
X150566352Y-79139088D01*
X150566352Y-79139087D01*
X150515372Y-79039032D01*
X150444287Y-78967947D01*
X150416204Y-78924703D01*
X150408138Y-78873776D01*
X150421481Y-78823975D01*
X150466352Y-78735912D01*
X150466352Y-78735911D01*
X150475268Y-78718413D01*
X150475853Y-78718711D01*
X150489657Y-78686812D01*
X150538390Y-78649011D01*
X150599307Y-78639362D01*
X150657336Y-78660254D01*
X150698122Y-78706518D01*
X150719711Y-78748890D01*
X150799115Y-78828294D01*
X150899170Y-78879274D01*
X151010083Y-78896841D01*
X151120995Y-78879274D01*
X151155421Y-78861732D01*
X151211716Y-78848217D01*
X151268011Y-78861733D01*
X151302437Y-78879274D01*
X151413350Y-78896841D01*
X151524262Y-78879274D01*
X151624317Y-78828294D01*
X151703722Y-78748889D01*
X151754702Y-78648834D01*
X151772269Y-78537922D01*
X151761047Y-78467067D01*
X151754702Y-78427009D01*
X151703722Y-78326954D01*
X151624318Y-78247550D01*
X151619093Y-78244888D01*
X151572830Y-78204101D01*
X151551938Y-78146072D01*
X151561586Y-78085157D01*
X151599388Y-78036424D01*
X151655990Y-78011930D01*
X151785912Y-77991352D01*
X151790819Y-77988852D01*
X151885967Y-77940372D01*
X151918375Y-77907963D01*
X151973961Y-77875870D01*
X152038149Y-77875869D01*
X152093737Y-77907963D01*
X152101146Y-77915372D01*
X152201201Y-77966352D01*
X152312114Y-77983919D01*
X152423026Y-77966352D01*
X152423026Y-77966351D01*
X152483206Y-77935690D01*
X152544369Y-77922271D01*
X152604290Y-77940448D01*
X152647690Y-77985586D01*
X152663500Y-78046175D01*
X152663500Y-78435308D01*
X152664571Y-78437163D01*
X152676958Y-78467067D01*
X152677513Y-78469139D01*
X152677513Y-78469140D01*
X152690571Y-78482197D01*
X152958330Y-78749956D01*
X152988580Y-78799319D01*
X152993122Y-78857034D01*
X152980132Y-78939050D01*
X152997699Y-79049964D01*
X153048679Y-79150019D01*
X153128084Y-79229424D01*
X153228139Y-79280404D01*
X153339052Y-79297971D01*
X153449964Y-79280404D01*
X153550019Y-79229424D01*
X153629424Y-79150019D01*
X153680404Y-79049964D01*
X153697971Y-78939052D01*
X153680404Y-78828140D01*
X153652903Y-78774165D01*
X153639558Y-78724360D01*
X153647624Y-78673433D01*
X153675706Y-78630191D01*
X153716758Y-78589140D01*
X153716758Y-78589139D01*
X153808695Y-78497201D01*
X153858056Y-78466953D01*
X153915772Y-78462411D01*
X154020000Y-78478919D01*
X154130912Y-78461352D01*
X154230967Y-78410372D01*
X154310372Y-78330967D01*
X154361352Y-78230912D01*
X154378919Y-78120000D01*
X154361352Y-78009088D01*
X154361352Y-78009087D01*
X154310372Y-77909032D01*
X154230967Y-77829627D01*
X154130912Y-77778647D01*
X154020000Y-77761080D01*
X153909087Y-77778647D01*
X153791533Y-77838544D01*
X153791393Y-77838269D01*
X153757094Y-77858073D01*
X153692906Y-77858073D01*
X153658606Y-77838269D01*
X153658467Y-77838544D01*
X153633206Y-77825673D01*
X153583773Y-77779978D01*
X153565500Y-77715188D01*
X153565500Y-76120289D01*
X153579015Y-76063994D01*
X153616615Y-76019971D01*
X153670102Y-75997816D01*
X153710912Y-75991352D01*
X153810967Y-75940372D01*
X153890372Y-75860967D01*
X153941352Y-75760912D01*
X153958919Y-75649999D01*
X153941352Y-75539087D01*
X153890372Y-75439032D01*
X153810967Y-75359627D01*
X153710912Y-75308647D01*
X153599999Y-75291080D01*
X153479897Y-75310103D01*
X153426841Y-75306974D01*
X153379968Y-75281920D01*
X153347889Y-75239544D01*
X153336499Y-75187630D01*
X153336499Y-72649999D01*
X155701080Y-72649999D01*
X155718647Y-72760912D01*
X155769627Y-72860967D01*
X155849032Y-72940372D01*
X155949087Y-72991352D01*
X156060000Y-73008919D01*
X156170912Y-72991352D01*
X156175036Y-72989250D01*
X156231329Y-72975735D01*
X156287624Y-72989249D01*
X156331648Y-73026848D01*
X156353804Y-73080335D01*
X156358647Y-73110912D01*
X156409627Y-73210967D01*
X156489032Y-73290372D01*
X156589087Y-73341352D01*
X156700000Y-73358919D01*
X156810912Y-73341352D01*
X156910967Y-73290372D01*
X156990372Y-73210967D01*
X157041352Y-73110912D01*
X157058919Y-73000000D01*
X157057549Y-72991352D01*
X157041352Y-72889087D01*
X156990372Y-72789032D01*
X156910967Y-72709627D01*
X156810912Y-72658647D01*
X156700000Y-72641080D01*
X156589087Y-72658647D01*
X156584959Y-72660751D01*
X156528665Y-72674264D01*
X156472371Y-72660748D01*
X156428349Y-72623149D01*
X156406195Y-72569662D01*
X156401352Y-72539087D01*
X156350372Y-72439032D01*
X156270967Y-72359627D01*
X156170912Y-72308647D01*
X156060000Y-72291080D01*
X155949087Y-72308647D01*
X155849032Y-72359627D01*
X155769627Y-72439032D01*
X155718647Y-72539087D01*
X155701080Y-72649999D01*
X153336499Y-72649999D01*
X153336499Y-70925000D01*
X155491080Y-70925000D01*
X155508647Y-71035912D01*
X155559627Y-71135967D01*
X155639032Y-71215372D01*
X155739087Y-71266352D01*
X155850000Y-71283919D01*
X155960912Y-71266352D01*
X156060967Y-71215372D01*
X156140372Y-71135967D01*
X156191352Y-71035912D01*
X156208919Y-70925000D01*
X156200230Y-70870139D01*
X156191352Y-70814087D01*
X156140372Y-70714032D01*
X156060967Y-70634627D01*
X155960912Y-70583647D01*
X155850000Y-70566080D01*
X155739087Y-70583647D01*
X155639032Y-70634627D01*
X155559627Y-70714032D01*
X155508647Y-70814087D01*
X155491080Y-70925000D01*
X153336499Y-70925000D01*
X153336499Y-69750000D01*
X156041080Y-69750000D01*
X156058647Y-69860912D01*
X156109627Y-69960967D01*
X156189032Y-70040372D01*
X156289087Y-70091352D01*
X156400000Y-70108919D01*
X156510912Y-70091352D01*
X156610967Y-70040372D01*
X156690372Y-69960967D01*
X156741352Y-69860912D01*
X156758919Y-69750000D01*
X156741352Y-69639088D01*
X156733660Y-69623993D01*
X156720528Y-69557970D01*
X156743828Y-69494814D01*
X156796694Y-69453138D01*
X156863544Y-69445226D01*
X156949999Y-69458919D01*
X156949999Y-69458918D01*
X156950000Y-69458919D01*
X157060912Y-69441352D01*
X157160967Y-69390372D01*
X157240372Y-69310967D01*
X157291352Y-69210912D01*
X157308919Y-69100000D01*
X157291496Y-68990000D01*
X157291352Y-68989087D01*
X157240372Y-68889032D01*
X157160967Y-68809627D01*
X157060912Y-68758647D01*
X156970807Y-68744376D01*
X156909674Y-68716193D01*
X156872275Y-68660221D01*
X156869632Y-68592956D01*
X156902525Y-68534222D01*
X156930193Y-68506554D01*
X156973437Y-68478471D01*
X157024364Y-68470405D01*
X157074167Y-68483749D01*
X157089088Y-68491352D01*
X157200000Y-68508919D01*
X157310912Y-68491352D01*
X157410967Y-68440372D01*
X157490372Y-68360967D01*
X157541352Y-68260912D01*
X157558919Y-68149999D01*
X157541352Y-68039087D01*
X157490372Y-67939032D01*
X157410967Y-67859627D01*
X157310912Y-67808647D01*
X157252858Y-67799452D01*
X157208292Y-67778480D01*
X157172140Y-67795493D01*
X157089087Y-67808647D01*
X156989031Y-67859628D01*
X156951566Y-67897093D01*
X156908323Y-67925175D01*
X156857397Y-67933241D01*
X156807592Y-67919896D01*
X156792673Y-67912294D01*
X156681761Y-67894727D01*
X156570848Y-67912294D01*
X156470793Y-67963274D01*
X156391388Y-68042679D01*
X156340408Y-68142734D01*
X156322841Y-68253646D01*
X156340408Y-68364559D01*
X156391388Y-68464614D01*
X156470793Y-68544019D01*
X156570848Y-68594999D01*
X156620598Y-68602878D01*
X156660952Y-68609270D01*
X156722085Y-68637452D01*
X156759485Y-68693424D01*
X156762128Y-68760690D01*
X156729236Y-68819424D01*
X156659627Y-68889033D01*
X156608647Y-68989087D01*
X156591080Y-69099999D01*
X156608647Y-69210912D01*
X156616338Y-69226006D01*
X156629471Y-69292030D01*
X156606171Y-69355186D01*
X156553306Y-69396861D01*
X156486456Y-69404773D01*
X156400001Y-69391080D01*
X156289087Y-69408647D01*
X156189032Y-69459627D01*
X156109627Y-69539032D01*
X156058647Y-69639087D01*
X156041080Y-69750000D01*
X153336499Y-69750000D01*
X153336499Y-66274693D01*
X153336499Y-66274692D01*
X153335427Y-66272837D01*
X153323037Y-66242922D01*
X153322485Y-66240859D01*
X153271139Y-66189513D01*
X152908807Y-65827180D01*
X152878557Y-65777818D01*
X152874015Y-65720102D01*
X152896170Y-65666615D01*
X152940193Y-65629015D01*
X152996488Y-65615500D01*
X156758240Y-65615500D01*
X156805693Y-65624939D01*
X156845918Y-65651816D01*
X156998701Y-65804598D01*
X157030794Y-65860184D01*
X157030794Y-65924370D01*
X156998702Y-65979958D01*
X156965183Y-66013478D01*
X156909595Y-66045572D01*
X156845407Y-66045573D01*
X156789819Y-66013479D01*
X156735967Y-65959627D01*
X156635912Y-65908647D01*
X156525000Y-65891080D01*
X156414087Y-65908647D01*
X156314032Y-65959627D01*
X156234627Y-66039032D01*
X156183647Y-66139087D01*
X156166080Y-66249999D01*
X156183647Y-66360912D01*
X156234627Y-66460967D01*
X156314032Y-66540372D01*
X156431586Y-66600268D01*
X156430835Y-66601741D01*
X156466399Y-66618136D01*
X156503799Y-66674108D01*
X156506443Y-66741374D01*
X156473551Y-66800109D01*
X156397126Y-66876533D01*
X156346147Y-66976587D01*
X156328580Y-67087500D01*
X156346147Y-67198412D01*
X156397127Y-67298467D01*
X156476532Y-67377872D01*
X156576587Y-67428852D01*
X156687500Y-67446419D01*
X156798412Y-67428852D01*
X156820225Y-67417737D01*
X156870029Y-67404392D01*
X156920957Y-67412458D01*
X156964201Y-67440541D01*
X157014032Y-67490372D01*
X157114087Y-67541352D01*
X157172139Y-67550547D01*
X157216706Y-67571518D01*
X157252860Y-67554506D01*
X157335912Y-67541352D01*
X157435967Y-67490372D01*
X157515372Y-67410967D01*
X157566352Y-67310912D01*
X157583919Y-67200000D01*
X157569809Y-67110912D01*
X157566352Y-67089087D01*
X157515372Y-66989032D01*
X157435967Y-66909627D01*
X157335912Y-66858647D01*
X157320995Y-66856285D01*
X157258391Y-66826825D01*
X157221317Y-66768406D01*
X157221318Y-66699217D01*
X157258392Y-66640798D01*
X157320242Y-66611693D01*
X157320910Y-66611352D01*
X157320912Y-66611352D01*
X157420967Y-66560372D01*
X157500372Y-66480967D01*
X157551352Y-66380912D01*
X157568919Y-66270000D01*
X157564433Y-66241682D01*
X157567132Y-66190190D01*
X157590541Y-66144247D01*
X157630610Y-66111799D01*
X157727631Y-66062366D01*
X157807036Y-65982961D01*
X157858016Y-65882906D01*
X157875583Y-65771994D01*
X157858892Y-65666615D01*
X157858016Y-65661081D01*
X157807036Y-65561026D01*
X157727632Y-65481622D01*
X157682157Y-65458452D01*
X157642085Y-65426003D01*
X157618676Y-65380060D01*
X157615978Y-65328567D01*
X157618919Y-65309998D01*
X157601352Y-65199087D01*
X157550372Y-65099032D01*
X157470967Y-65019627D01*
X157370912Y-64968647D01*
X157260000Y-64951080D01*
X157149087Y-64968647D01*
X157049032Y-65019627D01*
X156957353Y-65111306D01*
X156925072Y-65146228D01*
X156860283Y-65164500D01*
X156769084Y-65164500D01*
X156705963Y-65147232D01*
X156660422Y-65100237D01*
X156645145Y-65036605D01*
X156664388Y-64974057D01*
X156712790Y-64930015D01*
X156770967Y-64900372D01*
X156850372Y-64820967D01*
X156901352Y-64720912D01*
X156918919Y-64610000D01*
X156901352Y-64499087D01*
X156850372Y-64399032D01*
X156770967Y-64319627D01*
X156670912Y-64268647D01*
X156560000Y-64251080D01*
X156449087Y-64268647D01*
X156349032Y-64319627D01*
X156269627Y-64399032D01*
X156218647Y-64499087D01*
X156201080Y-64610000D01*
X156218647Y-64720912D01*
X156269627Y-64820967D01*
X156349032Y-64900372D01*
X156407210Y-64930015D01*
X156455612Y-64974057D01*
X156474855Y-65036605D01*
X156459578Y-65100237D01*
X156414037Y-65147232D01*
X156350916Y-65164500D01*
X127517202Y-65164500D01*
X127469749Y-65155061D01*
X127429521Y-65128181D01*
X127410967Y-65109627D01*
X127310912Y-65058647D01*
X127200000Y-65041080D01*
X127089087Y-65058647D01*
X126989032Y-65109627D01*
X126909627Y-65189032D01*
X126858647Y-65289087D01*
X126841080Y-65400000D01*
X126858647Y-65510912D01*
X126909626Y-65610966D01*
X126910976Y-65612315D01*
X126943072Y-65667902D01*
X126943074Y-65732089D01*
X126910982Y-65787677D01*
X126909628Y-65789030D01*
X126858647Y-65889087D01*
X126841080Y-65999999D01*
X126858647Y-66110912D01*
X126909627Y-66210967D01*
X126910979Y-66212319D01*
X126943073Y-66267906D01*
X126943073Y-66332094D01*
X126910979Y-66387681D01*
X126909627Y-66389032D01*
X126858647Y-66489087D01*
X126841080Y-66600000D01*
X126858647Y-66710912D01*
X126909627Y-66810967D01*
X126910979Y-66812319D01*
X126943073Y-66867906D01*
X126943073Y-66932094D01*
X126910979Y-66987681D01*
X126909627Y-66989032D01*
X126858647Y-67089087D01*
X126841080Y-67200000D01*
X126858647Y-67310912D01*
X126909627Y-67410967D01*
X126910979Y-67412319D01*
X126943073Y-67467906D01*
X126943073Y-67532094D01*
X126910979Y-67587681D01*
X126909627Y-67589032D01*
X126858647Y-67689087D01*
X126841080Y-67800000D01*
X126858647Y-67910912D01*
X126909627Y-68010967D01*
X126910979Y-68012319D01*
X126943073Y-68067906D01*
X126943073Y-68132094D01*
X126910979Y-68187681D01*
X126909627Y-68189032D01*
X126858647Y-68289087D01*
X126841080Y-68399999D01*
X126858647Y-68510912D01*
X126909626Y-68610966D01*
X126910976Y-68612315D01*
X126943072Y-68667902D01*
X126943074Y-68732089D01*
X126910982Y-68787677D01*
X126909628Y-68789030D01*
X126858647Y-68889087D01*
X126841080Y-69000000D01*
X126858647Y-69110912D01*
X126909627Y-69210967D01*
X126910979Y-69212319D01*
X126943073Y-69267906D01*
X126943073Y-69332094D01*
X126910979Y-69387681D01*
X126909627Y-69389032D01*
X126858647Y-69489087D01*
X126841080Y-69600000D01*
X126858647Y-69710912D01*
X126909627Y-69810967D01*
X126910979Y-69812319D01*
X126943073Y-69867906D01*
X126943073Y-69932094D01*
X126910979Y-69987681D01*
X126909627Y-69989032D01*
X126858647Y-70089087D01*
X126841080Y-70200000D01*
X126858647Y-70310912D01*
X126909627Y-70410967D01*
X126910979Y-70412319D01*
X126943073Y-70467906D01*
X126943073Y-70532094D01*
X126910979Y-70587681D01*
X126909627Y-70589032D01*
X126858647Y-70689087D01*
X126841080Y-70799999D01*
X126500000Y-70799999D01*
X126500000Y-62000000D01*
X153866080Y-62000000D01*
X153883647Y-62110912D01*
X153934627Y-62210967D01*
X154014032Y-62290372D01*
X154114087Y-62341352D01*
X154224999Y-62358919D01*
X154224999Y-62358918D01*
X154225000Y-62358919D01*
X154262017Y-62353056D01*
X154311973Y-62345144D01*
X154378823Y-62353056D01*
X154431689Y-62394731D01*
X154454989Y-62457887D01*
X154441856Y-62523911D01*
X154408647Y-62589087D01*
X154391080Y-62700000D01*
X154408647Y-62810912D01*
X154459627Y-62910967D01*
X154539032Y-62990372D01*
X154639087Y-63041352D01*
X154750000Y-63058919D01*
X154860912Y-63041352D01*
X154960967Y-62990372D01*
X155040372Y-62910967D01*
X155091352Y-62810912D01*
X155108919Y-62700000D01*
X155102525Y-62659628D01*
X155091352Y-62589087D01*
X155040372Y-62489032D01*
X154960967Y-62409627D01*
X154860912Y-62358647D01*
X154749998Y-62341080D01*
X154663025Y-62354855D01*
X154596175Y-62346943D01*
X154543309Y-62305267D01*
X154520010Y-62242110D01*
X154533142Y-62176090D01*
X154566352Y-62110912D01*
X154583919Y-62000000D01*
X154566352Y-61889088D01*
X154566352Y-61889087D01*
X154515372Y-61789032D01*
X154435967Y-61709627D01*
X154335912Y-61658647D01*
X154225000Y-61641080D01*
X154114087Y-61658647D01*
X154014032Y-61709627D01*
X153934627Y-61789032D01*
X153883647Y-61889087D01*
X153866080Y-62000000D01*
X126500000Y-62000000D01*
X126500000Y-61025000D01*
X154991080Y-61025000D01*
X155008647Y-61135912D01*
X155059627Y-61235967D01*
X155139032Y-61315372D01*
X155239087Y-61366352D01*
X155350000Y-61383919D01*
X155460912Y-61366352D01*
X155560967Y-61315372D01*
X155640372Y-61235967D01*
X155691352Y-61135912D01*
X155708919Y-61025000D01*
X155691352Y-60914088D01*
X155691352Y-60914087D01*
X155640372Y-60814032D01*
X155560967Y-60734627D01*
X155460912Y-60683647D01*
X155349999Y-60666080D01*
X155239087Y-60683647D01*
X155139032Y-60734627D01*
X155059627Y-60814032D01*
X155008647Y-60914087D01*
X154991080Y-61025000D01*
X126500000Y-61025000D01*
X126500000Y-60000000D01*
X155041080Y-60000000D01*
X155058647Y-60110912D01*
X155109627Y-60210967D01*
X155189032Y-60290372D01*
X155289087Y-60341352D01*
X155400000Y-60358919D01*
X155510912Y-60341352D01*
X155610967Y-60290372D01*
X155637318Y-60264021D01*
X155692907Y-60231926D01*
X155757096Y-60231927D01*
X155812684Y-60264023D01*
X155814033Y-60265373D01*
X155914087Y-60316352D01*
X156025000Y-60333919D01*
X156135912Y-60316352D01*
X156235967Y-60265372D01*
X156315372Y-60185967D01*
X156366352Y-60085912D01*
X156383919Y-59975000D01*
X156366352Y-59864088D01*
X156366352Y-59864087D01*
X156315372Y-59764032D01*
X156235967Y-59684627D01*
X156135912Y-59633647D01*
X156106122Y-59628929D01*
X156047485Y-59602821D01*
X156009757Y-59550891D01*
X156003049Y-59487058D01*
X156008919Y-59450000D01*
X156002367Y-59408635D01*
X155991352Y-59339087D01*
X155940372Y-59239032D01*
X155860967Y-59159627D01*
X155760912Y-59108647D01*
X155650000Y-59091080D01*
X155539087Y-59108647D01*
X155439032Y-59159627D01*
X155359627Y-59239032D01*
X155308647Y-59339087D01*
X155291080Y-59450000D01*
X155307417Y-59553144D01*
X155304719Y-59604635D01*
X155281310Y-59650577D01*
X155241239Y-59683026D01*
X155189033Y-59709626D01*
X155109627Y-59789032D01*
X155058647Y-59889087D01*
X155041080Y-60000000D01*
X126500000Y-60000000D01*
X126500000Y-58000000D01*
X127555480Y-58000000D01*
X127573047Y-58110912D01*
X127624027Y-58210967D01*
X127703432Y-58290372D01*
X127803487Y-58341352D01*
X127914400Y-58358919D01*
X128025312Y-58341352D01*
X128125367Y-58290372D01*
X128204772Y-58210967D01*
X128255752Y-58110912D01*
X128273319Y-58000000D01*
X128255752Y-57889088D01*
X128255752Y-57889087D01*
X128204772Y-57789032D01*
X128125367Y-57709627D01*
X128025312Y-57658647D01*
X127914400Y-57641080D01*
X127803487Y-57658647D01*
X127703432Y-57709627D01*
X127624027Y-57789032D01*
X127573047Y-57889087D01*
X127555480Y-58000000D01*
X126500000Y-58000000D01*
X126500000Y-56600000D01*
X156341080Y-56600000D01*
X156358647Y-56710912D01*
X156409627Y-56810967D01*
X156489032Y-56890372D01*
X156589087Y-56941352D01*
X156700000Y-56958919D01*
X156810912Y-56941352D01*
X156910967Y-56890372D01*
X156990372Y-56810967D01*
X157041352Y-56710912D01*
X157058919Y-56600000D01*
X157049630Y-56541352D01*
X157041352Y-56489087D01*
X156990372Y-56389032D01*
X156910967Y-56309627D01*
X156810912Y-56258647D01*
X156700000Y-56241080D01*
X156589087Y-56258647D01*
X156489032Y-56309627D01*
X156409627Y-56389032D01*
X156358647Y-56489087D01*
X156341080Y-56600000D01*
X126500000Y-56600000D01*
X126500000Y-55363787D01*
X126515811Y-55303198D01*
X126559210Y-55258060D01*
X126619132Y-55239883D01*
X126680294Y-55253301D01*
X126685888Y-55256152D01*
X126796800Y-55273719D01*
X126907712Y-55256152D01*
X127007767Y-55205172D01*
X127087172Y-55125767D01*
X127138152Y-55025712D01*
X127144062Y-54988399D01*
X127606280Y-54988399D01*
X127623847Y-55099312D01*
X127674827Y-55199367D01*
X127754232Y-55278772D01*
X127854287Y-55329752D01*
X127965200Y-55347319D01*
X128076112Y-55329752D01*
X128176167Y-55278772D01*
X128255572Y-55199367D01*
X128306552Y-55099312D01*
X128324119Y-54988400D01*
X128306552Y-54877488D01*
X128306552Y-54877487D01*
X128255572Y-54777432D01*
X128176167Y-54698027D01*
X128076112Y-54647047D01*
X127965200Y-54629480D01*
X127854287Y-54647047D01*
X127754232Y-54698027D01*
X127674827Y-54777432D01*
X127623847Y-54877487D01*
X127606280Y-54988399D01*
X127144062Y-54988399D01*
X127155719Y-54914799D01*
X127138152Y-54803887D01*
X127087172Y-54703832D01*
X127007767Y-54624427D01*
X126907712Y-54573447D01*
X126796800Y-54555880D01*
X126685889Y-54573447D01*
X126682213Y-54575320D01*
X126680294Y-54576298D01*
X126619132Y-54589717D01*
X126559210Y-54571540D01*
X126515811Y-54526402D01*
X126500000Y-54465813D01*
X126500000Y-54000400D01*
X128520680Y-54000400D01*
X128538247Y-54111312D01*
X128589227Y-54211367D01*
X128668632Y-54290772D01*
X128768687Y-54341752D01*
X128879600Y-54359319D01*
X128990512Y-54341752D01*
X129090567Y-54290772D01*
X129169972Y-54211367D01*
X129220952Y-54111312D01*
X129238519Y-54000400D01*
X129230536Y-53949999D01*
X156391080Y-53949999D01*
X156408647Y-54060912D01*
X156459627Y-54160967D01*
X156539032Y-54240372D01*
X156639087Y-54291352D01*
X156750000Y-54308919D01*
X156860912Y-54291352D01*
X156960967Y-54240372D01*
X157040372Y-54160967D01*
X157091352Y-54060912D01*
X157108919Y-53950000D01*
X157091352Y-53839088D01*
X157091352Y-53839087D01*
X157040372Y-53739032D01*
X156960967Y-53659627D01*
X156860912Y-53608647D01*
X156750000Y-53591080D01*
X156639087Y-53608647D01*
X156539032Y-53659627D01*
X156459627Y-53739032D01*
X156408647Y-53839087D01*
X156391080Y-53949999D01*
X129230536Y-53949999D01*
X129220952Y-53889488D01*
X129220952Y-53889487D01*
X129169972Y-53789432D01*
X129090567Y-53710027D01*
X128990512Y-53659047D01*
X128879600Y-53641480D01*
X128768687Y-53659047D01*
X128668632Y-53710027D01*
X128589227Y-53789432D01*
X128538247Y-53889487D01*
X128520680Y-54000400D01*
X126500000Y-54000400D01*
X126500000Y-52984400D01*
X128571480Y-52984400D01*
X128589047Y-53095312D01*
X128640027Y-53195367D01*
X128719432Y-53274772D01*
X128819487Y-53325752D01*
X128930400Y-53343319D01*
X129041312Y-53325752D01*
X129141367Y-53274772D01*
X129220772Y-53195367D01*
X129271752Y-53095312D01*
X129289319Y-52984400D01*
X129271752Y-52873488D01*
X129271752Y-52873487D01*
X129220772Y-52773432D01*
X129141367Y-52694027D01*
X129041312Y-52643047D01*
X128930400Y-52625480D01*
X128819487Y-52643047D01*
X128719432Y-52694027D01*
X128640027Y-52773432D01*
X128589047Y-52873487D01*
X128571480Y-52984400D01*
X126500000Y-52984400D01*
X126500000Y-51764850D01*
X126513515Y-51708555D01*
X126551114Y-51664532D01*
X126604602Y-51642377D01*
X126704512Y-51626552D01*
X126804567Y-51575572D01*
X126883972Y-51496167D01*
X126889560Y-51485200D01*
X128066080Y-51485200D01*
X128083647Y-51596112D01*
X128134627Y-51696167D01*
X128214032Y-51775572D01*
X128314087Y-51826552D01*
X128425000Y-51844119D01*
X128535912Y-51826552D01*
X128635967Y-51775572D01*
X128715372Y-51696167D01*
X128766352Y-51596112D01*
X128783919Y-51485200D01*
X128766352Y-51374288D01*
X128766352Y-51374287D01*
X128715372Y-51274232D01*
X128635967Y-51194827D01*
X128535912Y-51143847D01*
X128425000Y-51126280D01*
X128314087Y-51143847D01*
X128214032Y-51194827D01*
X128134627Y-51274232D01*
X128083647Y-51374287D01*
X128066080Y-51485200D01*
X126889560Y-51485200D01*
X126934952Y-51396112D01*
X126952519Y-51285199D01*
X126934952Y-51174287D01*
X126883972Y-51074232D01*
X126804567Y-50994827D01*
X126704512Y-50943847D01*
X126604602Y-50928023D01*
X126551114Y-50905868D01*
X126513515Y-50861845D01*
X126500000Y-50805550D01*
X126500000Y-48130500D01*
X126516613Y-48068500D01*
X126562000Y-48023113D01*
X126624000Y-48006500D01*
X128000283Y-48006500D01*
X128060872Y-48022310D01*
G37*
G04 #@! TD.AperFunction*
G04 #@! TA.AperFunction,Conductor*
G36*
X124938000Y-48023113D02*
G01*
X124983387Y-48068500D01*
X125000000Y-48130500D01*
X125000000Y-86489500D01*
X124983387Y-86551500D01*
X124938000Y-86596887D01*
X124876000Y-86613500D01*
X121282500Y-86613500D01*
X121220500Y-86596887D01*
X121175113Y-86551500D01*
X121158500Y-86489500D01*
X121158500Y-86014066D01*
X121177238Y-85948523D01*
X121227789Y-85902789D01*
X121294874Y-85890685D01*
X121358220Y-85915870D01*
X121398682Y-85970732D01*
X121406647Y-85992089D01*
X121492811Y-86107188D01*
X121607910Y-86193352D01*
X121742624Y-86243597D01*
X121802176Y-86250000D01*
X122450000Y-86250000D01*
X122450000Y-85150000D01*
X122950000Y-85150000D01*
X122950000Y-86250000D01*
X123597824Y-86250000D01*
X123657375Y-86243597D01*
X123792089Y-86193352D01*
X123907188Y-86107188D01*
X123993352Y-85992089D01*
X124043597Y-85857375D01*
X124050000Y-85797824D01*
X124050000Y-85150000D01*
X122950000Y-85150000D01*
X122450000Y-85150000D01*
X122450000Y-83550000D01*
X122950000Y-83550000D01*
X122950000Y-84650000D01*
X124050000Y-84650000D01*
X124050000Y-84002176D01*
X124043597Y-83942624D01*
X123993352Y-83807910D01*
X123907188Y-83692811D01*
X123792089Y-83606647D01*
X123657375Y-83556402D01*
X123597824Y-83550000D01*
X122950000Y-83550000D01*
X122450000Y-83550000D01*
X121802176Y-83550000D01*
X121742624Y-83556402D01*
X121607910Y-83606647D01*
X121492811Y-83692811D01*
X121406647Y-83807910D01*
X121398682Y-83829268D01*
X121358220Y-83884130D01*
X121294874Y-83909315D01*
X121227789Y-83897211D01*
X121177238Y-83851477D01*
X121158500Y-83785934D01*
X121158500Y-82360000D01*
X121754319Y-82360000D01*
X121774984Y-82556619D01*
X121836076Y-82744643D01*
X121934927Y-82915856D01*
X121934928Y-82915857D01*
X122067216Y-83062778D01*
X122196101Y-83156419D01*
X122227159Y-83178984D01*
X122407770Y-83259397D01*
X122601147Y-83300500D01*
X122601149Y-83300500D01*
X122798851Y-83300500D01*
X122798853Y-83300500D01*
X122992229Y-83259397D01*
X122992230Y-83259396D01*
X122992232Y-83259396D01*
X123172841Y-83178984D01*
X123332784Y-83062778D01*
X123465072Y-82915857D01*
X123563923Y-82744643D01*
X123625016Y-82556618D01*
X123645681Y-82360000D01*
X123625016Y-82163382D01*
X123563923Y-81975357D01*
X123563923Y-81975356D01*
X123465072Y-81804143D01*
X123449265Y-81786588D01*
X123332784Y-81657222D01*
X123172841Y-81541016D01*
X123172840Y-81541015D01*
X122992229Y-81460602D01*
X122798853Y-81419500D01*
X122798851Y-81419500D01*
X122601149Y-81419500D01*
X122601147Y-81419500D01*
X122407770Y-81460602D01*
X122227157Y-81541016D01*
X122067216Y-81657220D01*
X121934927Y-81804142D01*
X121836076Y-81975356D01*
X121774984Y-82163380D01*
X121754319Y-82360000D01*
X121158500Y-82360000D01*
X121158500Y-79820000D01*
X121754319Y-79820000D01*
X121774984Y-80016619D01*
X121836076Y-80204643D01*
X121934927Y-80375856D01*
X121934928Y-80375857D01*
X122067216Y-80522778D01*
X122227159Y-80638984D01*
X122407770Y-80719397D01*
X122601147Y-80760500D01*
X122601149Y-80760500D01*
X122798851Y-80760500D01*
X122798853Y-80760500D01*
X122992229Y-80719397D01*
X122992230Y-80719396D01*
X122992232Y-80719396D01*
X123172841Y-80638984D01*
X123332784Y-80522778D01*
X123465072Y-80375857D01*
X123563923Y-80204643D01*
X123625016Y-80016618D01*
X123645681Y-79820000D01*
X123625016Y-79623382D01*
X123570327Y-79455066D01*
X123563923Y-79435356D01*
X123465072Y-79264143D01*
X123444551Y-79241352D01*
X123332784Y-79117222D01*
X123172841Y-79001016D01*
X123172840Y-79001015D01*
X122992229Y-78920602D01*
X122798853Y-78879500D01*
X122798851Y-78879500D01*
X122601149Y-78879500D01*
X122601147Y-78879500D01*
X122407770Y-78920602D01*
X122227157Y-79001016D01*
X122067216Y-79117220D01*
X121934927Y-79264142D01*
X121836076Y-79435356D01*
X121774984Y-79623380D01*
X121754319Y-79820000D01*
X121158500Y-79820000D01*
X121158500Y-77280000D01*
X121754319Y-77280000D01*
X121774984Y-77476619D01*
X121836076Y-77664643D01*
X121934927Y-77835856D01*
X121934928Y-77835857D01*
X122067216Y-77982778D01*
X122221583Y-78094933D01*
X122227159Y-78098984D01*
X122407770Y-78179397D01*
X122601147Y-78220500D01*
X122601149Y-78220500D01*
X122798851Y-78220500D01*
X122798853Y-78220500D01*
X122992229Y-78179397D01*
X122992230Y-78179396D01*
X122992232Y-78179396D01*
X123172841Y-78098984D01*
X123332784Y-77982778D01*
X123465072Y-77835857D01*
X123563923Y-77664643D01*
X123625016Y-77476618D01*
X123645681Y-77280000D01*
X123625016Y-77083382D01*
X123584843Y-76959743D01*
X123563923Y-76895356D01*
X123465072Y-76724143D01*
X123406099Y-76658647D01*
X123332784Y-76577222D01*
X123172841Y-76461016D01*
X123172840Y-76461015D01*
X122992229Y-76380602D01*
X122798853Y-76339500D01*
X122798851Y-76339500D01*
X122601149Y-76339500D01*
X122601147Y-76339500D01*
X122407770Y-76380602D01*
X122227157Y-76461016D01*
X122067216Y-76577220D01*
X121934927Y-76724142D01*
X121836076Y-76895356D01*
X121774984Y-77083380D01*
X121754319Y-77280000D01*
X121158500Y-77280000D01*
X121158500Y-74740000D01*
X121754319Y-74740000D01*
X121774984Y-74936619D01*
X121836076Y-75124643D01*
X121934663Y-75295398D01*
X121934928Y-75295857D01*
X122067216Y-75442778D01*
X122199775Y-75539088D01*
X122227159Y-75558984D01*
X122407770Y-75639397D01*
X122601147Y-75680500D01*
X122601149Y-75680500D01*
X122798851Y-75680500D01*
X122798853Y-75680500D01*
X122992229Y-75639397D01*
X122992230Y-75639396D01*
X122992232Y-75639396D01*
X123172841Y-75558984D01*
X123332784Y-75442778D01*
X123465072Y-75295857D01*
X123563923Y-75124643D01*
X123625016Y-74936618D01*
X123645681Y-74740000D01*
X123625016Y-74543382D01*
X123563923Y-74355357D01*
X123563923Y-74355356D01*
X123465072Y-74184143D01*
X123465071Y-74184142D01*
X123332784Y-74037222D01*
X123172841Y-73921016D01*
X123172840Y-73921015D01*
X122992229Y-73840602D01*
X122798853Y-73799500D01*
X122798851Y-73799500D01*
X122601149Y-73799500D01*
X122601147Y-73799500D01*
X122407770Y-73840602D01*
X122227157Y-73921016D01*
X122067216Y-74037220D01*
X121934927Y-74184142D01*
X121836076Y-74355356D01*
X121774984Y-74543380D01*
X121754319Y-74740000D01*
X121158500Y-74740000D01*
X121158500Y-73537282D01*
X121160882Y-73513093D01*
X121163486Y-73499999D01*
X121143734Y-73400699D01*
X121087484Y-73316515D01*
X121003300Y-73260265D01*
X120929067Y-73245500D01*
X120929065Y-73245499D01*
X120903999Y-73240513D01*
X120890907Y-73243118D01*
X120866718Y-73245500D01*
X110378500Y-73245500D01*
X110316500Y-73228887D01*
X110271113Y-73183500D01*
X110254500Y-73121500D01*
X110254500Y-72199999D01*
X121754319Y-72199999D01*
X121774984Y-72396619D01*
X121836076Y-72584643D01*
X121934927Y-72755856D01*
X121949192Y-72771699D01*
X122067216Y-72902778D01*
X122189127Y-72991352D01*
X122227159Y-73018984D01*
X122407770Y-73099397D01*
X122601147Y-73140500D01*
X122601149Y-73140500D01*
X122798851Y-73140500D01*
X122798853Y-73140500D01*
X122992229Y-73099397D01*
X122992230Y-73099396D01*
X122992232Y-73099396D01*
X123172841Y-73018984D01*
X123332784Y-72902778D01*
X123465072Y-72755857D01*
X123563923Y-72584643D01*
X123625016Y-72396618D01*
X123645681Y-72200000D01*
X123625016Y-72003382D01*
X123563923Y-71815357D01*
X123563923Y-71815356D01*
X123465072Y-71644143D01*
X123462314Y-71641080D01*
X123332784Y-71497222D01*
X123172841Y-71381016D01*
X123172840Y-71381015D01*
X122992229Y-71300602D01*
X122798853Y-71259500D01*
X122798851Y-71259500D01*
X122601149Y-71259500D01*
X122601147Y-71259500D01*
X122407770Y-71300602D01*
X122227157Y-71381016D01*
X122067216Y-71497220D01*
X121934927Y-71644142D01*
X121836076Y-71815356D01*
X121774984Y-72003380D01*
X121754319Y-72199999D01*
X110254500Y-72199999D01*
X110254500Y-65915570D01*
X110269699Y-65856086D01*
X110311571Y-65811184D01*
X110369850Y-65791872D01*
X110430250Y-65802885D01*
X110477961Y-65841521D01*
X110488805Y-65856086D01*
X110520769Y-65899021D01*
X110651401Y-66008635D01*
X110651402Y-66008635D01*
X110651404Y-66008637D01*
X110803798Y-66085172D01*
X110803799Y-66085172D01*
X110803801Y-66085173D01*
X110969732Y-66124500D01*
X110969734Y-66124500D01*
X111097481Y-66124500D01*
X111097486Y-66124500D01*
X111224380Y-66109668D01*
X111384628Y-66051343D01*
X111527106Y-65957634D01*
X111644132Y-65833593D01*
X111729399Y-65685907D01*
X111778308Y-65522539D01*
X111783115Y-65439999D01*
X119351080Y-65439999D01*
X119368647Y-65550912D01*
X119419627Y-65650967D01*
X119499032Y-65730372D01*
X119599087Y-65781352D01*
X119710000Y-65798919D01*
X119820912Y-65781352D01*
X119920967Y-65730372D01*
X120000372Y-65650967D01*
X120051352Y-65550912D01*
X120068919Y-65440000D01*
X120051352Y-65329088D01*
X120051352Y-65329087D01*
X120000372Y-65229032D01*
X119920967Y-65149627D01*
X119820912Y-65098647D01*
X119710000Y-65081080D01*
X119599087Y-65098647D01*
X119499032Y-65149627D01*
X119419627Y-65229032D01*
X119368647Y-65329087D01*
X119351080Y-65439999D01*
X111783115Y-65439999D01*
X111788223Y-65352295D01*
X111758611Y-65184353D01*
X111691066Y-65027767D01*
X111589231Y-64890979D01*
X111519378Y-64832365D01*
X111458598Y-64781364D01*
X111306198Y-64704826D01*
X111140268Y-64665500D01*
X111140266Y-64665500D01*
X111012514Y-64665500D01*
X110933205Y-64674769D01*
X110885617Y-64680332D01*
X110725370Y-64738657D01*
X110582894Y-64832365D01*
X110468694Y-64953411D01*
X110419552Y-64985324D01*
X110361243Y-64991110D01*
X110306787Y-64969476D01*
X110268345Y-64925254D01*
X110254500Y-64868317D01*
X110254500Y-62950000D01*
X116301080Y-62950000D01*
X116318647Y-63060912D01*
X116369627Y-63160967D01*
X116449032Y-63240372D01*
X116549087Y-63291352D01*
X116660000Y-63308919D01*
X116770912Y-63291352D01*
X116870967Y-63240372D01*
X116950372Y-63160967D01*
X117001352Y-63060912D01*
X117001497Y-63059999D01*
X118941080Y-63059999D01*
X118958647Y-63170912D01*
X119009627Y-63270967D01*
X119089032Y-63350372D01*
X119189087Y-63401352D01*
X119300000Y-63418919D01*
X119410912Y-63401352D01*
X119510967Y-63350372D01*
X119590372Y-63270967D01*
X119626531Y-63200000D01*
X122591080Y-63200000D01*
X122608647Y-63310912D01*
X122659627Y-63410967D01*
X122739032Y-63490372D01*
X122839087Y-63541352D01*
X122950000Y-63558919D01*
X123060912Y-63541352D01*
X123160967Y-63490372D01*
X123240372Y-63410967D01*
X123291352Y-63310912D01*
X123308919Y-63200000D01*
X123291352Y-63089088D01*
X123291352Y-63089087D01*
X123240372Y-62989032D01*
X123160967Y-62909627D01*
X123060912Y-62858647D01*
X122950000Y-62841080D01*
X122839087Y-62858647D01*
X122739032Y-62909627D01*
X122659627Y-62989032D01*
X122608647Y-63089087D01*
X122591080Y-63200000D01*
X119626531Y-63200000D01*
X119641352Y-63170912D01*
X119655707Y-63080278D01*
X119677861Y-63026793D01*
X119721883Y-62989193D01*
X119778176Y-62975677D01*
X119799299Y-62980747D01*
X119799690Y-62978280D01*
X119930000Y-62998919D01*
X120040912Y-62981352D01*
X120140967Y-62930372D01*
X120220372Y-62850967D01*
X120271352Y-62750912D01*
X120288919Y-62640000D01*
X120271352Y-62529088D01*
X120271352Y-62529087D01*
X120220372Y-62429032D01*
X120140967Y-62349627D01*
X120040912Y-62298647D01*
X119930000Y-62281080D01*
X119819087Y-62298647D01*
X119719032Y-62349627D01*
X119639627Y-62429032D01*
X119588647Y-62529087D01*
X119574292Y-62619721D01*
X119552141Y-62673202D01*
X119508126Y-62710801D01*
X119451840Y-62724322D01*
X119430700Y-62719251D01*
X119430310Y-62721720D01*
X119300000Y-62701080D01*
X119189087Y-62718647D01*
X119089032Y-62769627D01*
X119009627Y-62849032D01*
X118958647Y-62949087D01*
X118941080Y-63059999D01*
X117001497Y-63059999D01*
X117018919Y-62950000D01*
X117012525Y-62909628D01*
X117001352Y-62839087D01*
X116950372Y-62739032D01*
X116870967Y-62659627D01*
X116770912Y-62608647D01*
X116660000Y-62591080D01*
X116549087Y-62608647D01*
X116449032Y-62659627D01*
X116369627Y-62739032D01*
X116318647Y-62839087D01*
X116301080Y-62950000D01*
X110254500Y-62950000D01*
X110254500Y-62460000D01*
X113731080Y-62460000D01*
X113748647Y-62570912D01*
X113799627Y-62670967D01*
X113879032Y-62750372D01*
X113979087Y-62801352D01*
X114090000Y-62818919D01*
X114200912Y-62801352D01*
X114300967Y-62750372D01*
X114380372Y-62670967D01*
X114431352Y-62570912D01*
X114448919Y-62460000D01*
X114432866Y-62358647D01*
X114431352Y-62349087D01*
X114380372Y-62249032D01*
X114300967Y-62169627D01*
X114200912Y-62118647D01*
X114090000Y-62101080D01*
X113979087Y-62118647D01*
X113879032Y-62169627D01*
X113799627Y-62249032D01*
X113748647Y-62349087D01*
X113731080Y-62460000D01*
X110254500Y-62460000D01*
X110254500Y-59315570D01*
X110269699Y-59256086D01*
X110311571Y-59211184D01*
X110369850Y-59191872D01*
X110430250Y-59202885D01*
X110477963Y-59241522D01*
X110520769Y-59299021D01*
X110651401Y-59408635D01*
X110651402Y-59408635D01*
X110651404Y-59408637D01*
X110803798Y-59485172D01*
X110803799Y-59485172D01*
X110803801Y-59485173D01*
X110969732Y-59524500D01*
X110969734Y-59524500D01*
X111097481Y-59524500D01*
X111097486Y-59524500D01*
X111224380Y-59509668D01*
X111384628Y-59451343D01*
X111527106Y-59357634D01*
X111644132Y-59233593D01*
X111729399Y-59085907D01*
X111778308Y-58922539D01*
X111788223Y-58752295D01*
X111758611Y-58584353D01*
X111691066Y-58427767D01*
X111589231Y-58290979D01*
X111493877Y-58210967D01*
X111458598Y-58181364D01*
X111306198Y-58104826D01*
X111140268Y-58065500D01*
X111140266Y-58065500D01*
X111012514Y-58065500D01*
X110933205Y-58074770D01*
X110885617Y-58080332D01*
X110725370Y-58138657D01*
X110582894Y-58232365D01*
X110468694Y-58353411D01*
X110419552Y-58385324D01*
X110361243Y-58391110D01*
X110306787Y-58369476D01*
X110268345Y-58325254D01*
X110254500Y-58268317D01*
X110254500Y-56200000D01*
X120041080Y-56200000D01*
X120058647Y-56310912D01*
X120109627Y-56410967D01*
X120189032Y-56490372D01*
X120289087Y-56541352D01*
X120400000Y-56558919D01*
X120510912Y-56541352D01*
X120610967Y-56490372D01*
X120690372Y-56410967D01*
X120741352Y-56310912D01*
X120758919Y-56200000D01*
X120741352Y-56089088D01*
X120741352Y-56089087D01*
X120690372Y-55989032D01*
X120610967Y-55909627D01*
X120510912Y-55858647D01*
X120400000Y-55841080D01*
X120289087Y-55858647D01*
X120189032Y-55909627D01*
X120109627Y-55989032D01*
X120058647Y-56089087D01*
X120041080Y-56200000D01*
X110254500Y-56200000D01*
X110254500Y-50799999D01*
X116791080Y-50799999D01*
X116808647Y-50910912D01*
X116859627Y-51010967D01*
X116939032Y-51090372D01*
X117039087Y-51141352D01*
X117150000Y-51158919D01*
X117260912Y-51141352D01*
X117360967Y-51090372D01*
X117440372Y-51010967D01*
X117491352Y-50910912D01*
X117508919Y-50800000D01*
X117491352Y-50689088D01*
X117491352Y-50689087D01*
X117440372Y-50589032D01*
X117360967Y-50509627D01*
X117260912Y-50458647D01*
X117150000Y-50441080D01*
X117039087Y-50458647D01*
X116939032Y-50509627D01*
X116859627Y-50589032D01*
X116808647Y-50689087D01*
X116791080Y-50799999D01*
X110254500Y-50799999D01*
X110254500Y-48130500D01*
X110271113Y-48068500D01*
X110316500Y-48023113D01*
X110378500Y-48006500D01*
X124876000Y-48006500D01*
X124938000Y-48023113D01*
G37*
G04 #@! TD.AperFunction*
M02*
